G04 #@! TF.GenerationSoftware,KiCad,Pcbnew,(2018-02-05 revision d1a45d147)-makepkg*
G04 #@! TF.CreationDate,2019-01-11T16:44:05-08:00*
G04 #@! TF.ProjectId,6s4in1,367334696E312E6B696361645F706362,rev?*
G04 #@! TF.SameCoordinates,Original*
G04 #@! TF.FileFunction,Soldermask,Bot*
G04 #@! TF.FilePolarity,Negative*
%FSLAX46Y46*%
G04 Gerber Fmt 4.6, Leading zero omitted, Abs format (unit mm)*
G04 Created by KiCad (PCBNEW (2018-02-05 revision d1a45d147)-makepkg) date 01/11/19 16:44:05*
%MOMM*%
%LPD*%
G01*
G04 APERTURE LIST*
%ADD10C,1.851600*%
%ADD11C,0.609600*%
%ADD12C,0.100000*%
%ADD13C,0.501600*%
%ADD14R,0.501600X0.701600*%
%ADD15C,1.201600*%
%ADD16C,1.601600*%
%ADD17C,0.601600*%
%ADD18C,2.101600*%
%ADD19R,1.301600X0.701600*%
%ADD20R,0.701600X0.601600*%
%ADD21R,0.601600X0.701600*%
%ADD22R,1.701600X0.581600*%
%ADD23R,0.351600X0.601600*%
%ADD24R,1.151600X0.871600*%
%ADD25R,0.571600X0.451600*%
%ADD26C,0.701600*%
%ADD27R,0.501600X1.001600*%
%ADD28R,0.701600X0.701600*%
%ADD29R,0.401600X1.001600*%
%ADD30R,1.901600X1.901600*%
%ADD31R,1.001600X0.401600*%
G04 APERTURE END LIST*
D10*
X31080000Y-19650000D03*
D11*
X31480000Y-21400000D03*
X30680000Y-21400000D03*
X31480000Y-20600000D03*
X30680000Y-20600000D03*
D12*
G36*
X31838789Y-20075092D02*
X31856763Y-20077758D01*
X31874389Y-20082173D01*
X31891498Y-20088294D01*
X31907924Y-20096063D01*
X31923509Y-20105405D01*
X31938104Y-20116229D01*
X31951568Y-20128432D01*
X31963771Y-20141896D01*
X31974595Y-20156491D01*
X31983937Y-20172076D01*
X31991706Y-20188502D01*
X31997827Y-20205611D01*
X32002242Y-20223237D01*
X32004908Y-20241211D01*
X32005800Y-20259360D01*
X32005800Y-21740640D01*
X32004908Y-21758789D01*
X32002242Y-21776763D01*
X31997827Y-21794389D01*
X31991706Y-21811498D01*
X31983937Y-21827924D01*
X31974595Y-21843509D01*
X31963771Y-21858104D01*
X31951568Y-21871568D01*
X31938104Y-21883771D01*
X31923509Y-21894595D01*
X31907924Y-21903937D01*
X31891498Y-21911706D01*
X31874389Y-21917827D01*
X31856763Y-21922242D01*
X31838789Y-21924908D01*
X31820640Y-21925800D01*
X30339360Y-21925800D01*
X30321211Y-21924908D01*
X30303237Y-21922242D01*
X30285611Y-21917827D01*
X30268502Y-21911706D01*
X30252076Y-21903937D01*
X30236491Y-21894595D01*
X30221896Y-21883771D01*
X30208432Y-21871568D01*
X30196229Y-21858104D01*
X30185405Y-21843509D01*
X30176063Y-21827924D01*
X30168294Y-21811498D01*
X30162173Y-21794389D01*
X30157758Y-21776763D01*
X30155092Y-21758789D01*
X30154200Y-21740640D01*
X30154200Y-20259360D01*
X30155092Y-20241211D01*
X30157758Y-20223237D01*
X30162173Y-20205611D01*
X30168294Y-20188502D01*
X30176063Y-20172076D01*
X30185405Y-20156491D01*
X30196229Y-20141896D01*
X30208432Y-20128432D01*
X30221896Y-20116229D01*
X30236491Y-20105405D01*
X30252076Y-20096063D01*
X30268502Y-20088294D01*
X30285611Y-20082173D01*
X30303237Y-20077758D01*
X30321211Y-20075092D01*
X30339360Y-20074200D01*
X31820640Y-20074200D01*
X31838789Y-20075092D01*
X31838789Y-20075092D01*
G37*
D10*
X31080000Y-21000000D03*
X28920000Y-19650000D03*
D11*
X29320000Y-21400000D03*
X28520000Y-21400000D03*
X29320000Y-20600000D03*
X28520000Y-20600000D03*
D12*
G36*
X29678789Y-20075092D02*
X29696763Y-20077758D01*
X29714389Y-20082173D01*
X29731498Y-20088294D01*
X29747924Y-20096063D01*
X29763509Y-20105405D01*
X29778104Y-20116229D01*
X29791568Y-20128432D01*
X29803771Y-20141896D01*
X29814595Y-20156491D01*
X29823937Y-20172076D01*
X29831706Y-20188502D01*
X29837827Y-20205611D01*
X29842242Y-20223237D01*
X29844908Y-20241211D01*
X29845800Y-20259360D01*
X29845800Y-21740640D01*
X29844908Y-21758789D01*
X29842242Y-21776763D01*
X29837827Y-21794389D01*
X29831706Y-21811498D01*
X29823937Y-21827924D01*
X29814595Y-21843509D01*
X29803771Y-21858104D01*
X29791568Y-21871568D01*
X29778104Y-21883771D01*
X29763509Y-21894595D01*
X29747924Y-21903937D01*
X29731498Y-21911706D01*
X29714389Y-21917827D01*
X29696763Y-21922242D01*
X29678789Y-21924908D01*
X29660640Y-21925800D01*
X28179360Y-21925800D01*
X28161211Y-21924908D01*
X28143237Y-21922242D01*
X28125611Y-21917827D01*
X28108502Y-21911706D01*
X28092076Y-21903937D01*
X28076491Y-21894595D01*
X28061896Y-21883771D01*
X28048432Y-21871568D01*
X28036229Y-21858104D01*
X28025405Y-21843509D01*
X28016063Y-21827924D01*
X28008294Y-21811498D01*
X28002173Y-21794389D01*
X27997758Y-21776763D01*
X27995092Y-21758789D01*
X27994200Y-21740640D01*
X27994200Y-20259360D01*
X27995092Y-20241211D01*
X27997758Y-20223237D01*
X28002173Y-20205611D01*
X28008294Y-20188502D01*
X28016063Y-20172076D01*
X28025405Y-20156491D01*
X28036229Y-20141896D01*
X28048432Y-20128432D01*
X28061896Y-20116229D01*
X28076491Y-20105405D01*
X28092076Y-20096063D01*
X28108502Y-20088294D01*
X28125611Y-20082173D01*
X28143237Y-20077758D01*
X28161211Y-20075092D01*
X28179360Y-20074200D01*
X29660640Y-20074200D01*
X29678789Y-20075092D01*
X29678789Y-20075092D01*
G37*
D10*
X28920000Y-21000000D03*
D12*
G36*
X32117691Y-28369804D02*
X32129864Y-28371610D01*
X32141802Y-28374600D01*
X32153389Y-28378746D01*
X32164513Y-28384007D01*
X32175069Y-28390334D01*
X32184953Y-28397664D01*
X32194071Y-28405929D01*
X32202336Y-28415047D01*
X32209666Y-28424931D01*
X32215993Y-28435487D01*
X32221254Y-28446611D01*
X32225400Y-28458198D01*
X32228390Y-28470136D01*
X32230196Y-28482309D01*
X32230800Y-28494600D01*
X32230800Y-28745400D01*
X32230196Y-28757691D01*
X32228390Y-28769864D01*
X32225400Y-28781802D01*
X32221254Y-28793389D01*
X32215993Y-28804513D01*
X32209666Y-28815069D01*
X32202336Y-28824953D01*
X32194071Y-28834071D01*
X32184953Y-28842336D01*
X32175069Y-28849666D01*
X32164513Y-28855993D01*
X32153389Y-28861254D01*
X32141802Y-28865400D01*
X32129864Y-28868390D01*
X32117691Y-28870196D01*
X32105400Y-28870800D01*
X31754600Y-28870800D01*
X31742309Y-28870196D01*
X31730136Y-28868390D01*
X31718198Y-28865400D01*
X31706611Y-28861254D01*
X31695487Y-28855993D01*
X31684931Y-28849666D01*
X31675047Y-28842336D01*
X31665929Y-28834071D01*
X31657664Y-28824953D01*
X31650334Y-28815069D01*
X31644007Y-28804513D01*
X31638746Y-28793389D01*
X31634600Y-28781802D01*
X31631610Y-28769864D01*
X31629804Y-28757691D01*
X31629200Y-28745400D01*
X31629200Y-28494600D01*
X31629804Y-28482309D01*
X31631610Y-28470136D01*
X31634600Y-28458198D01*
X31638746Y-28446611D01*
X31644007Y-28435487D01*
X31650334Y-28424931D01*
X31657664Y-28415047D01*
X31665929Y-28405929D01*
X31675047Y-28397664D01*
X31684931Y-28390334D01*
X31695487Y-28384007D01*
X31706611Y-28378746D01*
X31718198Y-28374600D01*
X31730136Y-28371610D01*
X31742309Y-28369804D01*
X31754600Y-28369200D01*
X32105400Y-28369200D01*
X32117691Y-28369804D01*
X32117691Y-28369804D01*
G37*
D13*
X31930000Y-28620000D03*
D12*
G36*
X31917691Y-27539804D02*
X31929864Y-27541610D01*
X31941802Y-27544600D01*
X31953389Y-27548746D01*
X31964513Y-27554007D01*
X31975069Y-27560334D01*
X31984953Y-27567664D01*
X31994071Y-27575929D01*
X32002336Y-27585047D01*
X32009666Y-27594931D01*
X32015993Y-27605487D01*
X32021254Y-27616611D01*
X32025400Y-27628198D01*
X32028390Y-27640136D01*
X32030196Y-27652309D01*
X32030800Y-27664600D01*
X32030800Y-27915400D01*
X32030196Y-27927691D01*
X32028390Y-27939864D01*
X32025400Y-27951802D01*
X32021254Y-27963389D01*
X32015993Y-27974513D01*
X32009666Y-27985069D01*
X32002336Y-27994953D01*
X31994071Y-28004071D01*
X31984953Y-28012336D01*
X31975069Y-28019666D01*
X31964513Y-28025993D01*
X31953389Y-28031254D01*
X31941802Y-28035400D01*
X31929864Y-28038390D01*
X31917691Y-28040196D01*
X31905400Y-28040800D01*
X31554600Y-28040800D01*
X31542309Y-28040196D01*
X31530136Y-28038390D01*
X31518198Y-28035400D01*
X31506611Y-28031254D01*
X31495487Y-28025993D01*
X31484931Y-28019666D01*
X31475047Y-28012336D01*
X31465929Y-28004071D01*
X31457664Y-27994953D01*
X31450334Y-27985069D01*
X31444007Y-27974513D01*
X31438746Y-27963389D01*
X31434600Y-27951802D01*
X31431610Y-27939864D01*
X31429804Y-27927691D01*
X31429200Y-27915400D01*
X31429200Y-27664600D01*
X31429804Y-27652309D01*
X31431610Y-27640136D01*
X31434600Y-27628198D01*
X31438746Y-27616611D01*
X31444007Y-27605487D01*
X31450334Y-27594931D01*
X31457664Y-27585047D01*
X31465929Y-27575929D01*
X31475047Y-27567664D01*
X31484931Y-27560334D01*
X31495487Y-27554007D01*
X31506611Y-27548746D01*
X31518198Y-27544600D01*
X31530136Y-27541610D01*
X31542309Y-27539804D01*
X31554600Y-27539200D01*
X31905400Y-27539200D01*
X31917691Y-27539804D01*
X31917691Y-27539804D01*
G37*
D13*
X31730000Y-27790000D03*
D12*
G36*
X28327691Y-27829804D02*
X28339864Y-27831610D01*
X28351802Y-27834600D01*
X28363389Y-27838746D01*
X28374513Y-27844007D01*
X28385069Y-27850334D01*
X28394953Y-27857664D01*
X28404071Y-27865929D01*
X28412336Y-27875047D01*
X28419666Y-27884931D01*
X28425993Y-27895487D01*
X28431254Y-27906611D01*
X28435400Y-27918198D01*
X28438390Y-27930136D01*
X28440196Y-27942309D01*
X28440800Y-27954600D01*
X28440800Y-28205400D01*
X28440196Y-28217691D01*
X28438390Y-28229864D01*
X28435400Y-28241802D01*
X28431254Y-28253389D01*
X28425993Y-28264513D01*
X28419666Y-28275069D01*
X28412336Y-28284953D01*
X28404071Y-28294071D01*
X28394953Y-28302336D01*
X28385069Y-28309666D01*
X28374513Y-28315993D01*
X28363389Y-28321254D01*
X28351802Y-28325400D01*
X28339864Y-28328390D01*
X28327691Y-28330196D01*
X28315400Y-28330800D01*
X27964600Y-28330800D01*
X27952309Y-28330196D01*
X27940136Y-28328390D01*
X27928198Y-28325400D01*
X27916611Y-28321254D01*
X27905487Y-28315993D01*
X27894931Y-28309666D01*
X27885047Y-28302336D01*
X27875929Y-28294071D01*
X27867664Y-28284953D01*
X27860334Y-28275069D01*
X27854007Y-28264513D01*
X27848746Y-28253389D01*
X27844600Y-28241802D01*
X27841610Y-28229864D01*
X27839804Y-28217691D01*
X27839200Y-28205400D01*
X27839200Y-27954600D01*
X27839804Y-27942309D01*
X27841610Y-27930136D01*
X27844600Y-27918198D01*
X27848746Y-27906611D01*
X27854007Y-27895487D01*
X27860334Y-27884931D01*
X27867664Y-27875047D01*
X27875929Y-27865929D01*
X27885047Y-27857664D01*
X27894931Y-27850334D01*
X27905487Y-27844007D01*
X27916611Y-27838746D01*
X27928198Y-27834600D01*
X27940136Y-27831610D01*
X27952309Y-27829804D01*
X27964600Y-27829200D01*
X28315400Y-27829200D01*
X28327691Y-27829804D01*
X28327691Y-27829804D01*
G37*
D13*
X28140000Y-28080000D03*
D12*
G36*
X28297691Y-26839804D02*
X28309864Y-26841610D01*
X28321802Y-26844600D01*
X28333389Y-26848746D01*
X28344513Y-26854007D01*
X28355069Y-26860334D01*
X28364953Y-26867664D01*
X28374071Y-26875929D01*
X28382336Y-26885047D01*
X28389666Y-26894931D01*
X28395993Y-26905487D01*
X28401254Y-26916611D01*
X28405400Y-26928198D01*
X28408390Y-26940136D01*
X28410196Y-26952309D01*
X28410800Y-26964600D01*
X28410800Y-27215400D01*
X28410196Y-27227691D01*
X28408390Y-27239864D01*
X28405400Y-27251802D01*
X28401254Y-27263389D01*
X28395993Y-27274513D01*
X28389666Y-27285069D01*
X28382336Y-27294953D01*
X28374071Y-27304071D01*
X28364953Y-27312336D01*
X28355069Y-27319666D01*
X28344513Y-27325993D01*
X28333389Y-27331254D01*
X28321802Y-27335400D01*
X28309864Y-27338390D01*
X28297691Y-27340196D01*
X28285400Y-27340800D01*
X27934600Y-27340800D01*
X27922309Y-27340196D01*
X27910136Y-27338390D01*
X27898198Y-27335400D01*
X27886611Y-27331254D01*
X27875487Y-27325993D01*
X27864931Y-27319666D01*
X27855047Y-27312336D01*
X27845929Y-27304071D01*
X27837664Y-27294953D01*
X27830334Y-27285069D01*
X27824007Y-27274513D01*
X27818746Y-27263389D01*
X27814600Y-27251802D01*
X27811610Y-27239864D01*
X27809804Y-27227691D01*
X27809200Y-27215400D01*
X27809200Y-26964600D01*
X27809804Y-26952309D01*
X27811610Y-26940136D01*
X27814600Y-26928198D01*
X27818746Y-26916611D01*
X27824007Y-26905487D01*
X27830334Y-26894931D01*
X27837664Y-26885047D01*
X27845929Y-26875929D01*
X27855047Y-26867664D01*
X27864931Y-26860334D01*
X27875487Y-26854007D01*
X27886611Y-26848746D01*
X27898198Y-26844600D01*
X27910136Y-26841610D01*
X27922309Y-26839804D01*
X27934600Y-26839200D01*
X28285400Y-26839200D01*
X28297691Y-26839804D01*
X28297691Y-26839804D01*
G37*
D13*
X28110000Y-27090000D03*
D12*
G36*
X28587691Y-32779804D02*
X28599864Y-32781610D01*
X28611802Y-32784600D01*
X28623389Y-32788746D01*
X28634513Y-32794007D01*
X28645069Y-32800334D01*
X28654953Y-32807664D01*
X28664071Y-32815929D01*
X28672336Y-32825047D01*
X28679666Y-32834931D01*
X28685993Y-32845487D01*
X28691254Y-32856611D01*
X28695400Y-32868198D01*
X28698390Y-32880136D01*
X28700196Y-32892309D01*
X28700800Y-32904600D01*
X28700800Y-33155400D01*
X28700196Y-33167691D01*
X28698390Y-33179864D01*
X28695400Y-33191802D01*
X28691254Y-33203389D01*
X28685993Y-33214513D01*
X28679666Y-33225069D01*
X28672336Y-33234953D01*
X28664071Y-33244071D01*
X28654953Y-33252336D01*
X28645069Y-33259666D01*
X28634513Y-33265993D01*
X28623389Y-33271254D01*
X28611802Y-33275400D01*
X28599864Y-33278390D01*
X28587691Y-33280196D01*
X28575400Y-33280800D01*
X28224600Y-33280800D01*
X28212309Y-33280196D01*
X28200136Y-33278390D01*
X28188198Y-33275400D01*
X28176611Y-33271254D01*
X28165487Y-33265993D01*
X28154931Y-33259666D01*
X28145047Y-33252336D01*
X28135929Y-33244071D01*
X28127664Y-33234953D01*
X28120334Y-33225069D01*
X28114007Y-33214513D01*
X28108746Y-33203389D01*
X28104600Y-33191802D01*
X28101610Y-33179864D01*
X28099804Y-33167691D01*
X28099200Y-33155400D01*
X28099200Y-32904600D01*
X28099804Y-32892309D01*
X28101610Y-32880136D01*
X28104600Y-32868198D01*
X28108746Y-32856611D01*
X28114007Y-32845487D01*
X28120334Y-32834931D01*
X28127664Y-32825047D01*
X28135929Y-32815929D01*
X28145047Y-32807664D01*
X28154931Y-32800334D01*
X28165487Y-32794007D01*
X28176611Y-32788746D01*
X28188198Y-32784600D01*
X28200136Y-32781610D01*
X28212309Y-32779804D01*
X28224600Y-32779200D01*
X28575400Y-32779200D01*
X28587691Y-32779804D01*
X28587691Y-32779804D01*
G37*
D13*
X28400000Y-33030000D03*
D12*
G36*
X28607691Y-31879804D02*
X28619864Y-31881610D01*
X28631802Y-31884600D01*
X28643389Y-31888746D01*
X28654513Y-31894007D01*
X28665069Y-31900334D01*
X28674953Y-31907664D01*
X28684071Y-31915929D01*
X28692336Y-31925047D01*
X28699666Y-31934931D01*
X28705993Y-31945487D01*
X28711254Y-31956611D01*
X28715400Y-31968198D01*
X28718390Y-31980136D01*
X28720196Y-31992309D01*
X28720800Y-32004600D01*
X28720800Y-32255400D01*
X28720196Y-32267691D01*
X28718390Y-32279864D01*
X28715400Y-32291802D01*
X28711254Y-32303389D01*
X28705993Y-32314513D01*
X28699666Y-32325069D01*
X28692336Y-32334953D01*
X28684071Y-32344071D01*
X28674953Y-32352336D01*
X28665069Y-32359666D01*
X28654513Y-32365993D01*
X28643389Y-32371254D01*
X28631802Y-32375400D01*
X28619864Y-32378390D01*
X28607691Y-32380196D01*
X28595400Y-32380800D01*
X28244600Y-32380800D01*
X28232309Y-32380196D01*
X28220136Y-32378390D01*
X28208198Y-32375400D01*
X28196611Y-32371254D01*
X28185487Y-32365993D01*
X28174931Y-32359666D01*
X28165047Y-32352336D01*
X28155929Y-32344071D01*
X28147664Y-32334953D01*
X28140334Y-32325069D01*
X28134007Y-32314513D01*
X28128746Y-32303389D01*
X28124600Y-32291802D01*
X28121610Y-32279864D01*
X28119804Y-32267691D01*
X28119200Y-32255400D01*
X28119200Y-32004600D01*
X28119804Y-31992309D01*
X28121610Y-31980136D01*
X28124600Y-31968198D01*
X28128746Y-31956611D01*
X28134007Y-31945487D01*
X28140334Y-31934931D01*
X28147664Y-31925047D01*
X28155929Y-31915929D01*
X28165047Y-31907664D01*
X28174931Y-31900334D01*
X28185487Y-31894007D01*
X28196611Y-31888746D01*
X28208198Y-31884600D01*
X28220136Y-31881610D01*
X28232309Y-31879804D01*
X28244600Y-31879200D01*
X28595400Y-31879200D01*
X28607691Y-31879804D01*
X28607691Y-31879804D01*
G37*
D13*
X28420000Y-32130000D03*
D12*
G36*
X32057691Y-32809804D02*
X32069864Y-32811610D01*
X32081802Y-32814600D01*
X32093389Y-32818746D01*
X32104513Y-32824007D01*
X32115069Y-32830334D01*
X32124953Y-32837664D01*
X32134071Y-32845929D01*
X32142336Y-32855047D01*
X32149666Y-32864931D01*
X32155993Y-32875487D01*
X32161254Y-32886611D01*
X32165400Y-32898198D01*
X32168390Y-32910136D01*
X32170196Y-32922309D01*
X32170800Y-32934600D01*
X32170800Y-33185400D01*
X32170196Y-33197691D01*
X32168390Y-33209864D01*
X32165400Y-33221802D01*
X32161254Y-33233389D01*
X32155993Y-33244513D01*
X32149666Y-33255069D01*
X32142336Y-33264953D01*
X32134071Y-33274071D01*
X32124953Y-33282336D01*
X32115069Y-33289666D01*
X32104513Y-33295993D01*
X32093389Y-33301254D01*
X32081802Y-33305400D01*
X32069864Y-33308390D01*
X32057691Y-33310196D01*
X32045400Y-33310800D01*
X31694600Y-33310800D01*
X31682309Y-33310196D01*
X31670136Y-33308390D01*
X31658198Y-33305400D01*
X31646611Y-33301254D01*
X31635487Y-33295993D01*
X31624931Y-33289666D01*
X31615047Y-33282336D01*
X31605929Y-33274071D01*
X31597664Y-33264953D01*
X31590334Y-33255069D01*
X31584007Y-33244513D01*
X31578746Y-33233389D01*
X31574600Y-33221802D01*
X31571610Y-33209864D01*
X31569804Y-33197691D01*
X31569200Y-33185400D01*
X31569200Y-32934600D01*
X31569804Y-32922309D01*
X31571610Y-32910136D01*
X31574600Y-32898198D01*
X31578746Y-32886611D01*
X31584007Y-32875487D01*
X31590334Y-32864931D01*
X31597664Y-32855047D01*
X31605929Y-32845929D01*
X31615047Y-32837664D01*
X31624931Y-32830334D01*
X31635487Y-32824007D01*
X31646611Y-32818746D01*
X31658198Y-32814600D01*
X31670136Y-32811610D01*
X31682309Y-32809804D01*
X31694600Y-32809200D01*
X32045400Y-32809200D01*
X32057691Y-32809804D01*
X32057691Y-32809804D01*
G37*
D13*
X31870000Y-33060000D03*
D12*
G36*
X32097691Y-32039804D02*
X32109864Y-32041610D01*
X32121802Y-32044600D01*
X32133389Y-32048746D01*
X32144513Y-32054007D01*
X32155069Y-32060334D01*
X32164953Y-32067664D01*
X32174071Y-32075929D01*
X32182336Y-32085047D01*
X32189666Y-32094931D01*
X32195993Y-32105487D01*
X32201254Y-32116611D01*
X32205400Y-32128198D01*
X32208390Y-32140136D01*
X32210196Y-32152309D01*
X32210800Y-32164600D01*
X32210800Y-32415400D01*
X32210196Y-32427691D01*
X32208390Y-32439864D01*
X32205400Y-32451802D01*
X32201254Y-32463389D01*
X32195993Y-32474513D01*
X32189666Y-32485069D01*
X32182336Y-32494953D01*
X32174071Y-32504071D01*
X32164953Y-32512336D01*
X32155069Y-32519666D01*
X32144513Y-32525993D01*
X32133389Y-32531254D01*
X32121802Y-32535400D01*
X32109864Y-32538390D01*
X32097691Y-32540196D01*
X32085400Y-32540800D01*
X31734600Y-32540800D01*
X31722309Y-32540196D01*
X31710136Y-32538390D01*
X31698198Y-32535400D01*
X31686611Y-32531254D01*
X31675487Y-32525993D01*
X31664931Y-32519666D01*
X31655047Y-32512336D01*
X31645929Y-32504071D01*
X31637664Y-32494953D01*
X31630334Y-32485069D01*
X31624007Y-32474513D01*
X31618746Y-32463389D01*
X31614600Y-32451802D01*
X31611610Y-32439864D01*
X31609804Y-32427691D01*
X31609200Y-32415400D01*
X31609200Y-32164600D01*
X31609804Y-32152309D01*
X31611610Y-32140136D01*
X31614600Y-32128198D01*
X31618746Y-32116611D01*
X31624007Y-32105487D01*
X31630334Y-32094931D01*
X31637664Y-32085047D01*
X31645929Y-32075929D01*
X31655047Y-32067664D01*
X31664931Y-32060334D01*
X31675487Y-32054007D01*
X31686611Y-32048746D01*
X31698198Y-32044600D01*
X31710136Y-32041610D01*
X31722309Y-32039804D01*
X31734600Y-32039200D01*
X32085400Y-32039200D01*
X32097691Y-32039804D01*
X32097691Y-32039804D01*
G37*
D13*
X31910000Y-32290000D03*
D14*
X33739336Y-35836136D03*
X32839336Y-35836136D03*
D12*
G36*
X19688227Y-36950068D02*
X19705723Y-36952663D01*
X19722881Y-36956961D01*
X19739535Y-36962920D01*
X19755525Y-36970483D01*
X19770696Y-36979576D01*
X19784903Y-36990113D01*
X19798009Y-37001991D01*
X19809887Y-37015097D01*
X19820424Y-37029304D01*
X19829517Y-37044475D01*
X19837080Y-37060465D01*
X19843039Y-37077119D01*
X19847337Y-37094277D01*
X19849932Y-37111773D01*
X19850800Y-37129440D01*
X19850800Y-38370560D01*
X19849932Y-38388227D01*
X19847337Y-38405723D01*
X19843039Y-38422881D01*
X19837080Y-38439535D01*
X19829517Y-38455525D01*
X19820424Y-38470696D01*
X19809887Y-38484903D01*
X19798009Y-38498009D01*
X19784903Y-38509887D01*
X19770696Y-38520424D01*
X19755525Y-38529517D01*
X19739535Y-38537080D01*
X19722881Y-38543039D01*
X19705723Y-38547337D01*
X19688227Y-38549932D01*
X19670560Y-38550800D01*
X18829440Y-38550800D01*
X18811773Y-38549932D01*
X18794277Y-38547337D01*
X18777119Y-38543039D01*
X18760465Y-38537080D01*
X18744475Y-38529517D01*
X18729304Y-38520424D01*
X18715097Y-38509887D01*
X18701991Y-38498009D01*
X18690113Y-38484903D01*
X18679576Y-38470696D01*
X18670483Y-38455525D01*
X18662920Y-38439535D01*
X18656961Y-38422881D01*
X18652663Y-38405723D01*
X18650068Y-38388227D01*
X18649200Y-38370560D01*
X18649200Y-37129440D01*
X18650068Y-37111773D01*
X18652663Y-37094277D01*
X18656961Y-37077119D01*
X18662920Y-37060465D01*
X18670483Y-37044475D01*
X18679576Y-37029304D01*
X18690113Y-37015097D01*
X18701991Y-37001991D01*
X18715097Y-36990113D01*
X18729304Y-36979576D01*
X18744475Y-36970483D01*
X18760465Y-36962920D01*
X18777119Y-36956961D01*
X18794277Y-36952663D01*
X18811773Y-36950068D01*
X18829440Y-36949200D01*
X19670560Y-36949200D01*
X19688227Y-36950068D01*
X19688227Y-36950068D01*
G37*
D15*
X19250000Y-37750000D03*
D16*
X18700000Y-37750000D03*
D17*
X19550000Y-37250000D03*
X19550000Y-38250000D03*
D12*
G36*
X41188227Y-36950068D02*
X41205723Y-36952663D01*
X41222881Y-36956961D01*
X41239535Y-36962920D01*
X41255525Y-36970483D01*
X41270696Y-36979576D01*
X41284903Y-36990113D01*
X41298009Y-37001991D01*
X41309887Y-37015097D01*
X41320424Y-37029304D01*
X41329517Y-37044475D01*
X41337080Y-37060465D01*
X41343039Y-37077119D01*
X41347337Y-37094277D01*
X41349932Y-37111773D01*
X41350800Y-37129440D01*
X41350800Y-38370560D01*
X41349932Y-38388227D01*
X41347337Y-38405723D01*
X41343039Y-38422881D01*
X41337080Y-38439535D01*
X41329517Y-38455525D01*
X41320424Y-38470696D01*
X41309887Y-38484903D01*
X41298009Y-38498009D01*
X41284903Y-38509887D01*
X41270696Y-38520424D01*
X41255525Y-38529517D01*
X41239535Y-38537080D01*
X41222881Y-38543039D01*
X41205723Y-38547337D01*
X41188227Y-38549932D01*
X41170560Y-38550800D01*
X40329440Y-38550800D01*
X40311773Y-38549932D01*
X40294277Y-38547337D01*
X40277119Y-38543039D01*
X40260465Y-38537080D01*
X40244475Y-38529517D01*
X40229304Y-38520424D01*
X40215097Y-38509887D01*
X40201991Y-38498009D01*
X40190113Y-38484903D01*
X40179576Y-38470696D01*
X40170483Y-38455525D01*
X40162920Y-38439535D01*
X40156961Y-38422881D01*
X40152663Y-38405723D01*
X40150068Y-38388227D01*
X40149200Y-38370560D01*
X40149200Y-37129440D01*
X40150068Y-37111773D01*
X40152663Y-37094277D01*
X40156961Y-37077119D01*
X40162920Y-37060465D01*
X40170483Y-37044475D01*
X40179576Y-37029304D01*
X40190113Y-37015097D01*
X40201991Y-37001991D01*
X40215097Y-36990113D01*
X40229304Y-36979576D01*
X40244475Y-36970483D01*
X40260465Y-36962920D01*
X40277119Y-36956961D01*
X40294277Y-36952663D01*
X40311773Y-36950068D01*
X40329440Y-36949200D01*
X41170560Y-36949200D01*
X41188227Y-36950068D01*
X41188227Y-36950068D01*
G37*
D15*
X40750000Y-37750000D03*
D16*
X41300000Y-37750000D03*
D17*
X40450000Y-37250000D03*
X40450000Y-38250000D03*
D14*
X26260000Y-24970000D03*
X27160000Y-24970000D03*
D12*
G36*
X19688227Y-33950068D02*
X19705723Y-33952663D01*
X19722881Y-33956961D01*
X19739535Y-33962920D01*
X19755525Y-33970483D01*
X19770696Y-33979576D01*
X19784903Y-33990113D01*
X19798009Y-34001991D01*
X19809887Y-34015097D01*
X19820424Y-34029304D01*
X19829517Y-34044475D01*
X19837080Y-34060465D01*
X19843039Y-34077119D01*
X19847337Y-34094277D01*
X19849932Y-34111773D01*
X19850800Y-34129440D01*
X19850800Y-35370560D01*
X19849932Y-35388227D01*
X19847337Y-35405723D01*
X19843039Y-35422881D01*
X19837080Y-35439535D01*
X19829517Y-35455525D01*
X19820424Y-35470696D01*
X19809887Y-35484903D01*
X19798009Y-35498009D01*
X19784903Y-35509887D01*
X19770696Y-35520424D01*
X19755525Y-35529517D01*
X19739535Y-35537080D01*
X19722881Y-35543039D01*
X19705723Y-35547337D01*
X19688227Y-35549932D01*
X19670560Y-35550800D01*
X18829440Y-35550800D01*
X18811773Y-35549932D01*
X18794277Y-35547337D01*
X18777119Y-35543039D01*
X18760465Y-35537080D01*
X18744475Y-35529517D01*
X18729304Y-35520424D01*
X18715097Y-35509887D01*
X18701991Y-35498009D01*
X18690113Y-35484903D01*
X18679576Y-35470696D01*
X18670483Y-35455525D01*
X18662920Y-35439535D01*
X18656961Y-35422881D01*
X18652663Y-35405723D01*
X18650068Y-35388227D01*
X18649200Y-35370560D01*
X18649200Y-34129440D01*
X18650068Y-34111773D01*
X18652663Y-34094277D01*
X18656961Y-34077119D01*
X18662920Y-34060465D01*
X18670483Y-34044475D01*
X18679576Y-34029304D01*
X18690113Y-34015097D01*
X18701991Y-34001991D01*
X18715097Y-33990113D01*
X18729304Y-33979576D01*
X18744475Y-33970483D01*
X18760465Y-33962920D01*
X18777119Y-33956961D01*
X18794277Y-33952663D01*
X18811773Y-33950068D01*
X18829440Y-33949200D01*
X19670560Y-33949200D01*
X19688227Y-33950068D01*
X19688227Y-33950068D01*
G37*
D15*
X19250000Y-34750000D03*
D16*
X18700000Y-34750000D03*
D17*
X19550000Y-34250000D03*
X19550000Y-35250000D03*
X19550000Y-21750000D03*
X19550000Y-22750000D03*
D16*
X18700000Y-22250000D03*
D12*
G36*
X19688227Y-21450068D02*
X19705723Y-21452663D01*
X19722881Y-21456961D01*
X19739535Y-21462920D01*
X19755525Y-21470483D01*
X19770696Y-21479576D01*
X19784903Y-21490113D01*
X19798009Y-21501991D01*
X19809887Y-21515097D01*
X19820424Y-21529304D01*
X19829517Y-21544475D01*
X19837080Y-21560465D01*
X19843039Y-21577119D01*
X19847337Y-21594277D01*
X19849932Y-21611773D01*
X19850800Y-21629440D01*
X19850800Y-22870560D01*
X19849932Y-22888227D01*
X19847337Y-22905723D01*
X19843039Y-22922881D01*
X19837080Y-22939535D01*
X19829517Y-22955525D01*
X19820424Y-22970696D01*
X19809887Y-22984903D01*
X19798009Y-22998009D01*
X19784903Y-23009887D01*
X19770696Y-23020424D01*
X19755525Y-23029517D01*
X19739535Y-23037080D01*
X19722881Y-23043039D01*
X19705723Y-23047337D01*
X19688227Y-23049932D01*
X19670560Y-23050800D01*
X18829440Y-23050800D01*
X18811773Y-23049932D01*
X18794277Y-23047337D01*
X18777119Y-23043039D01*
X18760465Y-23037080D01*
X18744475Y-23029517D01*
X18729304Y-23020424D01*
X18715097Y-23009887D01*
X18701991Y-22998009D01*
X18690113Y-22984903D01*
X18679576Y-22970696D01*
X18670483Y-22955525D01*
X18662920Y-22939535D01*
X18656961Y-22922881D01*
X18652663Y-22905723D01*
X18650068Y-22888227D01*
X18649200Y-22870560D01*
X18649200Y-21629440D01*
X18650068Y-21611773D01*
X18652663Y-21594277D01*
X18656961Y-21577119D01*
X18662920Y-21560465D01*
X18670483Y-21544475D01*
X18679576Y-21529304D01*
X18690113Y-21515097D01*
X18701991Y-21501991D01*
X18715097Y-21490113D01*
X18729304Y-21479576D01*
X18744475Y-21470483D01*
X18760465Y-21462920D01*
X18777119Y-21456961D01*
X18794277Y-21452663D01*
X18811773Y-21450068D01*
X18829440Y-21449200D01*
X19670560Y-21449200D01*
X19688227Y-21450068D01*
X19688227Y-21450068D01*
G37*
D15*
X19250000Y-22250000D03*
D14*
X25660664Y-25773864D03*
X24760664Y-25773864D03*
X25660000Y-24970000D03*
X24760000Y-24970000D03*
X26260000Y-26580000D03*
X27160000Y-26580000D03*
D18*
X22000000Y-22000000D03*
D12*
G36*
X19688227Y-30950068D02*
X19705723Y-30952663D01*
X19722881Y-30956961D01*
X19739535Y-30962920D01*
X19755525Y-30970483D01*
X19770696Y-30979576D01*
X19784903Y-30990113D01*
X19798009Y-31001991D01*
X19809887Y-31015097D01*
X19820424Y-31029304D01*
X19829517Y-31044475D01*
X19837080Y-31060465D01*
X19843039Y-31077119D01*
X19847337Y-31094277D01*
X19849932Y-31111773D01*
X19850800Y-31129440D01*
X19850800Y-32370560D01*
X19849932Y-32388227D01*
X19847337Y-32405723D01*
X19843039Y-32422881D01*
X19837080Y-32439535D01*
X19829517Y-32455525D01*
X19820424Y-32470696D01*
X19809887Y-32484903D01*
X19798009Y-32498009D01*
X19784903Y-32509887D01*
X19770696Y-32520424D01*
X19755525Y-32529517D01*
X19739535Y-32537080D01*
X19722881Y-32543039D01*
X19705723Y-32547337D01*
X19688227Y-32549932D01*
X19670560Y-32550800D01*
X18829440Y-32550800D01*
X18811773Y-32549932D01*
X18794277Y-32547337D01*
X18777119Y-32543039D01*
X18760465Y-32537080D01*
X18744475Y-32529517D01*
X18729304Y-32520424D01*
X18715097Y-32509887D01*
X18701991Y-32498009D01*
X18690113Y-32484903D01*
X18679576Y-32470696D01*
X18670483Y-32455525D01*
X18662920Y-32439535D01*
X18656961Y-32422881D01*
X18652663Y-32405723D01*
X18650068Y-32388227D01*
X18649200Y-32370560D01*
X18649200Y-31129440D01*
X18650068Y-31111773D01*
X18652663Y-31094277D01*
X18656961Y-31077119D01*
X18662920Y-31060465D01*
X18670483Y-31044475D01*
X18679576Y-31029304D01*
X18690113Y-31015097D01*
X18701991Y-31001991D01*
X18715097Y-30990113D01*
X18729304Y-30979576D01*
X18744475Y-30970483D01*
X18760465Y-30962920D01*
X18777119Y-30956961D01*
X18794277Y-30952663D01*
X18811773Y-30950068D01*
X18829440Y-30949200D01*
X19670560Y-30949200D01*
X19688227Y-30950068D01*
X19688227Y-30950068D01*
G37*
D15*
X19250000Y-31750000D03*
D16*
X18700000Y-31750000D03*
D17*
X19550000Y-31250000D03*
X19550000Y-32250000D03*
D12*
G36*
X41188227Y-33950068D02*
X41205723Y-33952663D01*
X41222881Y-33956961D01*
X41239535Y-33962920D01*
X41255525Y-33970483D01*
X41270696Y-33979576D01*
X41284903Y-33990113D01*
X41298009Y-34001991D01*
X41309887Y-34015097D01*
X41320424Y-34029304D01*
X41329517Y-34044475D01*
X41337080Y-34060465D01*
X41343039Y-34077119D01*
X41347337Y-34094277D01*
X41349932Y-34111773D01*
X41350800Y-34129440D01*
X41350800Y-35370560D01*
X41349932Y-35388227D01*
X41347337Y-35405723D01*
X41343039Y-35422881D01*
X41337080Y-35439535D01*
X41329517Y-35455525D01*
X41320424Y-35470696D01*
X41309887Y-35484903D01*
X41298009Y-35498009D01*
X41284903Y-35509887D01*
X41270696Y-35520424D01*
X41255525Y-35529517D01*
X41239535Y-35537080D01*
X41222881Y-35543039D01*
X41205723Y-35547337D01*
X41188227Y-35549932D01*
X41170560Y-35550800D01*
X40329440Y-35550800D01*
X40311773Y-35549932D01*
X40294277Y-35547337D01*
X40277119Y-35543039D01*
X40260465Y-35537080D01*
X40244475Y-35529517D01*
X40229304Y-35520424D01*
X40215097Y-35509887D01*
X40201991Y-35498009D01*
X40190113Y-35484903D01*
X40179576Y-35470696D01*
X40170483Y-35455525D01*
X40162920Y-35439535D01*
X40156961Y-35422881D01*
X40152663Y-35405723D01*
X40150068Y-35388227D01*
X40149200Y-35370560D01*
X40149200Y-34129440D01*
X40150068Y-34111773D01*
X40152663Y-34094277D01*
X40156961Y-34077119D01*
X40162920Y-34060465D01*
X40170483Y-34044475D01*
X40179576Y-34029304D01*
X40190113Y-34015097D01*
X40201991Y-34001991D01*
X40215097Y-33990113D01*
X40229304Y-33979576D01*
X40244475Y-33970483D01*
X40260465Y-33962920D01*
X40277119Y-33956961D01*
X40294277Y-33952663D01*
X40311773Y-33950068D01*
X40329440Y-33949200D01*
X41170560Y-33949200D01*
X41188227Y-33950068D01*
X41188227Y-33950068D01*
G37*
D15*
X40750000Y-34750000D03*
D16*
X41300000Y-34750000D03*
D17*
X40450000Y-34250000D03*
X40450000Y-35250000D03*
D12*
G36*
X41188227Y-30950068D02*
X41205723Y-30952663D01*
X41222881Y-30956961D01*
X41239535Y-30962920D01*
X41255525Y-30970483D01*
X41270696Y-30979576D01*
X41284903Y-30990113D01*
X41298009Y-31001991D01*
X41309887Y-31015097D01*
X41320424Y-31029304D01*
X41329517Y-31044475D01*
X41337080Y-31060465D01*
X41343039Y-31077119D01*
X41347337Y-31094277D01*
X41349932Y-31111773D01*
X41350800Y-31129440D01*
X41350800Y-32370560D01*
X41349932Y-32388227D01*
X41347337Y-32405723D01*
X41343039Y-32422881D01*
X41337080Y-32439535D01*
X41329517Y-32455525D01*
X41320424Y-32470696D01*
X41309887Y-32484903D01*
X41298009Y-32498009D01*
X41284903Y-32509887D01*
X41270696Y-32520424D01*
X41255525Y-32529517D01*
X41239535Y-32537080D01*
X41222881Y-32543039D01*
X41205723Y-32547337D01*
X41188227Y-32549932D01*
X41170560Y-32550800D01*
X40329440Y-32550800D01*
X40311773Y-32549932D01*
X40294277Y-32547337D01*
X40277119Y-32543039D01*
X40260465Y-32537080D01*
X40244475Y-32529517D01*
X40229304Y-32520424D01*
X40215097Y-32509887D01*
X40201991Y-32498009D01*
X40190113Y-32484903D01*
X40179576Y-32470696D01*
X40170483Y-32455525D01*
X40162920Y-32439535D01*
X40156961Y-32422881D01*
X40152663Y-32405723D01*
X40150068Y-32388227D01*
X40149200Y-32370560D01*
X40149200Y-31129440D01*
X40150068Y-31111773D01*
X40152663Y-31094277D01*
X40156961Y-31077119D01*
X40162920Y-31060465D01*
X40170483Y-31044475D01*
X40179576Y-31029304D01*
X40190113Y-31015097D01*
X40201991Y-31001991D01*
X40215097Y-30990113D01*
X40229304Y-30979576D01*
X40244475Y-30970483D01*
X40260465Y-30962920D01*
X40277119Y-30956961D01*
X40294277Y-30952663D01*
X40311773Y-30950068D01*
X40329440Y-30949200D01*
X41170560Y-30949200D01*
X41188227Y-30950068D01*
X41188227Y-30950068D01*
G37*
D15*
X40750000Y-31750000D03*
D16*
X41300000Y-31750000D03*
D17*
X40450000Y-31250000D03*
X40450000Y-32250000D03*
X19550000Y-24750000D03*
X19550000Y-25750000D03*
D16*
X18700000Y-25250000D03*
D12*
G36*
X19688227Y-24450068D02*
X19705723Y-24452663D01*
X19722881Y-24456961D01*
X19739535Y-24462920D01*
X19755525Y-24470483D01*
X19770696Y-24479576D01*
X19784903Y-24490113D01*
X19798009Y-24501991D01*
X19809887Y-24515097D01*
X19820424Y-24529304D01*
X19829517Y-24544475D01*
X19837080Y-24560465D01*
X19843039Y-24577119D01*
X19847337Y-24594277D01*
X19849932Y-24611773D01*
X19850800Y-24629440D01*
X19850800Y-25870560D01*
X19849932Y-25888227D01*
X19847337Y-25905723D01*
X19843039Y-25922881D01*
X19837080Y-25939535D01*
X19829517Y-25955525D01*
X19820424Y-25970696D01*
X19809887Y-25984903D01*
X19798009Y-25998009D01*
X19784903Y-26009887D01*
X19770696Y-26020424D01*
X19755525Y-26029517D01*
X19739535Y-26037080D01*
X19722881Y-26043039D01*
X19705723Y-26047337D01*
X19688227Y-26049932D01*
X19670560Y-26050800D01*
X18829440Y-26050800D01*
X18811773Y-26049932D01*
X18794277Y-26047337D01*
X18777119Y-26043039D01*
X18760465Y-26037080D01*
X18744475Y-26029517D01*
X18729304Y-26020424D01*
X18715097Y-26009887D01*
X18701991Y-25998009D01*
X18690113Y-25984903D01*
X18679576Y-25970696D01*
X18670483Y-25955525D01*
X18662920Y-25939535D01*
X18656961Y-25922881D01*
X18652663Y-25905723D01*
X18650068Y-25888227D01*
X18649200Y-25870560D01*
X18649200Y-24629440D01*
X18650068Y-24611773D01*
X18652663Y-24594277D01*
X18656961Y-24577119D01*
X18662920Y-24560465D01*
X18670483Y-24544475D01*
X18679576Y-24529304D01*
X18690113Y-24515097D01*
X18701991Y-24501991D01*
X18715097Y-24490113D01*
X18729304Y-24479576D01*
X18744475Y-24470483D01*
X18760465Y-24462920D01*
X18777119Y-24456961D01*
X18794277Y-24452663D01*
X18811773Y-24450068D01*
X18829440Y-24449200D01*
X19670560Y-24449200D01*
X19688227Y-24450068D01*
X19688227Y-24450068D01*
G37*
D15*
X19250000Y-25250000D03*
D17*
X19550000Y-27750000D03*
X19550000Y-28750000D03*
D16*
X18700000Y-28250000D03*
D12*
G36*
X19688227Y-27450068D02*
X19705723Y-27452663D01*
X19722881Y-27456961D01*
X19739535Y-27462920D01*
X19755525Y-27470483D01*
X19770696Y-27479576D01*
X19784903Y-27490113D01*
X19798009Y-27501991D01*
X19809887Y-27515097D01*
X19820424Y-27529304D01*
X19829517Y-27544475D01*
X19837080Y-27560465D01*
X19843039Y-27577119D01*
X19847337Y-27594277D01*
X19849932Y-27611773D01*
X19850800Y-27629440D01*
X19850800Y-28870560D01*
X19849932Y-28888227D01*
X19847337Y-28905723D01*
X19843039Y-28922881D01*
X19837080Y-28939535D01*
X19829517Y-28955525D01*
X19820424Y-28970696D01*
X19809887Y-28984903D01*
X19798009Y-28998009D01*
X19784903Y-29009887D01*
X19770696Y-29020424D01*
X19755525Y-29029517D01*
X19739535Y-29037080D01*
X19722881Y-29043039D01*
X19705723Y-29047337D01*
X19688227Y-29049932D01*
X19670560Y-29050800D01*
X18829440Y-29050800D01*
X18811773Y-29049932D01*
X18794277Y-29047337D01*
X18777119Y-29043039D01*
X18760465Y-29037080D01*
X18744475Y-29029517D01*
X18729304Y-29020424D01*
X18715097Y-29009887D01*
X18701991Y-28998009D01*
X18690113Y-28984903D01*
X18679576Y-28970696D01*
X18670483Y-28955525D01*
X18662920Y-28939535D01*
X18656961Y-28922881D01*
X18652663Y-28905723D01*
X18650068Y-28888227D01*
X18649200Y-28870560D01*
X18649200Y-27629440D01*
X18650068Y-27611773D01*
X18652663Y-27594277D01*
X18656961Y-27577119D01*
X18662920Y-27560465D01*
X18670483Y-27544475D01*
X18679576Y-27529304D01*
X18690113Y-27515097D01*
X18701991Y-27501991D01*
X18715097Y-27490113D01*
X18729304Y-27479576D01*
X18744475Y-27470483D01*
X18760465Y-27462920D01*
X18777119Y-27456961D01*
X18794277Y-27452663D01*
X18811773Y-27450068D01*
X18829440Y-27449200D01*
X19670560Y-27449200D01*
X19688227Y-27450068D01*
X19688227Y-27450068D01*
G37*
D15*
X19250000Y-28250000D03*
D19*
X27000000Y-29250000D03*
D12*
G36*
X41188227Y-21450068D02*
X41205723Y-21452663D01*
X41222881Y-21456961D01*
X41239535Y-21462920D01*
X41255525Y-21470483D01*
X41270696Y-21479576D01*
X41284903Y-21490113D01*
X41298009Y-21501991D01*
X41309887Y-21515097D01*
X41320424Y-21529304D01*
X41329517Y-21544475D01*
X41337080Y-21560465D01*
X41343039Y-21577119D01*
X41347337Y-21594277D01*
X41349932Y-21611773D01*
X41350800Y-21629440D01*
X41350800Y-22870560D01*
X41349932Y-22888227D01*
X41347337Y-22905723D01*
X41343039Y-22922881D01*
X41337080Y-22939535D01*
X41329517Y-22955525D01*
X41320424Y-22970696D01*
X41309887Y-22984903D01*
X41298009Y-22998009D01*
X41284903Y-23009887D01*
X41270696Y-23020424D01*
X41255525Y-23029517D01*
X41239535Y-23037080D01*
X41222881Y-23043039D01*
X41205723Y-23047337D01*
X41188227Y-23049932D01*
X41170560Y-23050800D01*
X40329440Y-23050800D01*
X40311773Y-23049932D01*
X40294277Y-23047337D01*
X40277119Y-23043039D01*
X40260465Y-23037080D01*
X40244475Y-23029517D01*
X40229304Y-23020424D01*
X40215097Y-23009887D01*
X40201991Y-22998009D01*
X40190113Y-22984903D01*
X40179576Y-22970696D01*
X40170483Y-22955525D01*
X40162920Y-22939535D01*
X40156961Y-22922881D01*
X40152663Y-22905723D01*
X40150068Y-22888227D01*
X40149200Y-22870560D01*
X40149200Y-21629440D01*
X40150068Y-21611773D01*
X40152663Y-21594277D01*
X40156961Y-21577119D01*
X40162920Y-21560465D01*
X40170483Y-21544475D01*
X40179576Y-21529304D01*
X40190113Y-21515097D01*
X40201991Y-21501991D01*
X40215097Y-21490113D01*
X40229304Y-21479576D01*
X40244475Y-21470483D01*
X40260465Y-21462920D01*
X40277119Y-21456961D01*
X40294277Y-21452663D01*
X40311773Y-21450068D01*
X40329440Y-21449200D01*
X41170560Y-21449200D01*
X41188227Y-21450068D01*
X41188227Y-21450068D01*
G37*
D15*
X40750000Y-22250000D03*
D16*
X41300000Y-22250000D03*
D17*
X40450000Y-22750000D03*
X40450000Y-21750000D03*
D12*
G36*
X41188227Y-24450068D02*
X41205723Y-24452663D01*
X41222881Y-24456961D01*
X41239535Y-24462920D01*
X41255525Y-24470483D01*
X41270696Y-24479576D01*
X41284903Y-24490113D01*
X41298009Y-24501991D01*
X41309887Y-24515097D01*
X41320424Y-24529304D01*
X41329517Y-24544475D01*
X41337080Y-24560465D01*
X41343039Y-24577119D01*
X41347337Y-24594277D01*
X41349932Y-24611773D01*
X41350800Y-24629440D01*
X41350800Y-25870560D01*
X41349932Y-25888227D01*
X41347337Y-25905723D01*
X41343039Y-25922881D01*
X41337080Y-25939535D01*
X41329517Y-25955525D01*
X41320424Y-25970696D01*
X41309887Y-25984903D01*
X41298009Y-25998009D01*
X41284903Y-26009887D01*
X41270696Y-26020424D01*
X41255525Y-26029517D01*
X41239535Y-26037080D01*
X41222881Y-26043039D01*
X41205723Y-26047337D01*
X41188227Y-26049932D01*
X41170560Y-26050800D01*
X40329440Y-26050800D01*
X40311773Y-26049932D01*
X40294277Y-26047337D01*
X40277119Y-26043039D01*
X40260465Y-26037080D01*
X40244475Y-26029517D01*
X40229304Y-26020424D01*
X40215097Y-26009887D01*
X40201991Y-25998009D01*
X40190113Y-25984903D01*
X40179576Y-25970696D01*
X40170483Y-25955525D01*
X40162920Y-25939535D01*
X40156961Y-25922881D01*
X40152663Y-25905723D01*
X40150068Y-25888227D01*
X40149200Y-25870560D01*
X40149200Y-24629440D01*
X40150068Y-24611773D01*
X40152663Y-24594277D01*
X40156961Y-24577119D01*
X40162920Y-24560465D01*
X40170483Y-24544475D01*
X40179576Y-24529304D01*
X40190113Y-24515097D01*
X40201991Y-24501991D01*
X40215097Y-24490113D01*
X40229304Y-24479576D01*
X40244475Y-24470483D01*
X40260465Y-24462920D01*
X40277119Y-24456961D01*
X40294277Y-24452663D01*
X40311773Y-24450068D01*
X40329440Y-24449200D01*
X41170560Y-24449200D01*
X41188227Y-24450068D01*
X41188227Y-24450068D01*
G37*
D15*
X40750000Y-25250000D03*
D16*
X41300000Y-25250000D03*
D17*
X40450000Y-25750000D03*
X40450000Y-24750000D03*
D12*
G36*
X41188227Y-27450068D02*
X41205723Y-27452663D01*
X41222881Y-27456961D01*
X41239535Y-27462920D01*
X41255525Y-27470483D01*
X41270696Y-27479576D01*
X41284903Y-27490113D01*
X41298009Y-27501991D01*
X41309887Y-27515097D01*
X41320424Y-27529304D01*
X41329517Y-27544475D01*
X41337080Y-27560465D01*
X41343039Y-27577119D01*
X41347337Y-27594277D01*
X41349932Y-27611773D01*
X41350800Y-27629440D01*
X41350800Y-28870560D01*
X41349932Y-28888227D01*
X41347337Y-28905723D01*
X41343039Y-28922881D01*
X41337080Y-28939535D01*
X41329517Y-28955525D01*
X41320424Y-28970696D01*
X41309887Y-28984903D01*
X41298009Y-28998009D01*
X41284903Y-29009887D01*
X41270696Y-29020424D01*
X41255525Y-29029517D01*
X41239535Y-29037080D01*
X41222881Y-29043039D01*
X41205723Y-29047337D01*
X41188227Y-29049932D01*
X41170560Y-29050800D01*
X40329440Y-29050800D01*
X40311773Y-29049932D01*
X40294277Y-29047337D01*
X40277119Y-29043039D01*
X40260465Y-29037080D01*
X40244475Y-29029517D01*
X40229304Y-29020424D01*
X40215097Y-29009887D01*
X40201991Y-28998009D01*
X40190113Y-28984903D01*
X40179576Y-28970696D01*
X40170483Y-28955525D01*
X40162920Y-28939535D01*
X40156961Y-28922881D01*
X40152663Y-28905723D01*
X40150068Y-28888227D01*
X40149200Y-28870560D01*
X40149200Y-27629440D01*
X40150068Y-27611773D01*
X40152663Y-27594277D01*
X40156961Y-27577119D01*
X40162920Y-27560465D01*
X40170483Y-27544475D01*
X40179576Y-27529304D01*
X40190113Y-27515097D01*
X40201991Y-27501991D01*
X40215097Y-27490113D01*
X40229304Y-27479576D01*
X40244475Y-27470483D01*
X40260465Y-27462920D01*
X40277119Y-27456961D01*
X40294277Y-27452663D01*
X40311773Y-27450068D01*
X40329440Y-27449200D01*
X41170560Y-27449200D01*
X41188227Y-27450068D01*
X41188227Y-27450068D01*
G37*
D15*
X40750000Y-28250000D03*
D16*
X41300000Y-28250000D03*
D17*
X40450000Y-28750000D03*
X40450000Y-27750000D03*
D20*
X30550000Y-31110000D03*
X29450000Y-31110000D03*
X24660000Y-28825000D03*
X23560000Y-28825000D03*
D21*
X23330000Y-25550000D03*
X23330000Y-24450000D03*
X24120000Y-22025000D03*
X24120000Y-20925000D03*
X28560000Y-23690000D03*
X28560000Y-22590000D03*
D14*
X25660000Y-28190000D03*
X24760000Y-28190000D03*
X25660000Y-26580000D03*
X24760000Y-26580000D03*
X26260664Y-27383864D03*
X27160664Y-27383864D03*
X26260664Y-25773864D03*
X27160664Y-25773864D03*
X26260664Y-24163864D03*
X27160664Y-24163864D03*
X26260000Y-28250000D03*
X27160000Y-28250000D03*
D22*
X21585000Y-28415000D03*
D23*
X20835000Y-27465000D03*
X20835000Y-29365000D03*
X21335000Y-27465000D03*
X21335000Y-29365000D03*
X21835000Y-27465000D03*
X21835000Y-29365000D03*
X22335000Y-27465000D03*
X22335000Y-29365000D03*
D22*
X21535000Y-24985000D03*
D23*
X20785000Y-24035000D03*
X20785000Y-25935000D03*
X21285000Y-24035000D03*
X21285000Y-25935000D03*
X21785000Y-24035000D03*
X21785000Y-25935000D03*
X22285000Y-24035000D03*
X22285000Y-25935000D03*
D22*
X26050000Y-21610000D03*
D23*
X25300000Y-20660000D03*
X25300000Y-22560000D03*
X25800000Y-20660000D03*
X25800000Y-22560000D03*
X26300000Y-20660000D03*
X26300000Y-22560000D03*
X26800000Y-20660000D03*
X26800000Y-22560000D03*
D14*
X25660664Y-27383864D03*
X24760664Y-27383864D03*
X25660664Y-24163864D03*
X24760664Y-24163864D03*
D20*
X30550000Y-31870000D03*
X29450000Y-31870000D03*
X29450000Y-36270000D03*
X30550000Y-36270000D03*
X34710000Y-23250000D03*
X33610000Y-23250000D03*
X37020000Y-29210000D03*
X35920000Y-29210000D03*
D21*
X35970000Y-24360000D03*
X35970000Y-23260000D03*
X31700000Y-23440000D03*
X31700000Y-22340000D03*
D20*
X35340000Y-31175000D03*
X36440000Y-31175000D03*
D21*
X36670000Y-34450000D03*
X36670000Y-35550000D03*
X35880000Y-39075000D03*
X35880000Y-37975000D03*
X31860000Y-37730000D03*
X31860000Y-38830000D03*
D20*
X25290000Y-36750000D03*
X26390000Y-36750000D03*
X22980000Y-30790000D03*
X24080000Y-30790000D03*
D21*
X24030000Y-36740000D03*
X24030000Y-35640000D03*
X28140000Y-38830000D03*
X28140000Y-37730000D03*
D19*
X33000000Y-29250000D03*
X33000000Y-30750000D03*
X27000000Y-30750000D03*
D18*
X38000000Y-22000000D03*
X38000000Y-38000000D03*
X22000000Y-38000000D03*
D24*
X38760000Y-27930000D03*
X38760000Y-28900000D03*
D25*
X37845000Y-27765000D03*
X37845000Y-28415000D03*
X37845000Y-29065000D03*
X39675000Y-27765000D03*
X39675000Y-28415000D03*
X39675000Y-29065000D03*
D24*
X38810000Y-24500000D03*
X38810000Y-25470000D03*
D25*
X37895000Y-24335000D03*
X37895000Y-24985000D03*
X37895000Y-25635000D03*
X39725000Y-24335000D03*
X39725000Y-24985000D03*
X39725000Y-25635000D03*
D24*
X34295000Y-21125000D03*
X34295000Y-22095000D03*
D25*
X33380000Y-20960000D03*
X33380000Y-21610000D03*
X33380000Y-22260000D03*
X35210000Y-20960000D03*
X35210000Y-21610000D03*
X35210000Y-22260000D03*
X20325000Y-30935000D03*
X20325000Y-31585000D03*
X20325000Y-32235000D03*
X22155000Y-30935000D03*
X22155000Y-31585000D03*
X22155000Y-32235000D03*
D24*
X21240000Y-31100000D03*
X21240000Y-32070000D03*
D25*
X20275000Y-34365000D03*
X20275000Y-35015000D03*
X20275000Y-35665000D03*
X22105000Y-34365000D03*
X22105000Y-35015000D03*
X22105000Y-35665000D03*
D24*
X21190000Y-34530000D03*
X21190000Y-35500000D03*
D25*
X24790000Y-37740000D03*
X24790000Y-38390000D03*
X24790000Y-39040000D03*
X26620000Y-37740000D03*
X26620000Y-38390000D03*
X26620000Y-39040000D03*
D24*
X25705000Y-37905000D03*
X25705000Y-38875000D03*
D14*
X34590000Y-24040000D03*
X33690000Y-24040000D03*
X34340000Y-31810000D03*
X35240000Y-31810000D03*
X34340000Y-33420000D03*
X35240000Y-33420000D03*
X35240000Y-35030000D03*
X34340000Y-35030000D03*
X32839336Y-32616136D03*
X33739336Y-32616136D03*
X32839336Y-34226136D03*
X33739336Y-34226136D03*
X32840000Y-31750000D03*
X33740000Y-31750000D03*
X33740000Y-33420000D03*
X32840000Y-33420000D03*
X32840000Y-35030000D03*
X33740000Y-35030000D03*
X26310000Y-35960000D03*
X25410000Y-35960000D03*
X34339336Y-32616136D03*
X35239336Y-32616136D03*
X35239336Y-34226136D03*
X34339336Y-34226136D03*
X35239336Y-35836136D03*
X34339336Y-35836136D03*
D12*
G36*
X31248276Y-25849480D02*
X31253928Y-25850319D01*
X31259472Y-25851707D01*
X31264852Y-25853633D01*
X31270018Y-25856076D01*
X31274920Y-25859014D01*
X31279510Y-25862418D01*
X31283744Y-25866256D01*
X31287582Y-25870490D01*
X31290986Y-25875080D01*
X31293924Y-25879982D01*
X31296367Y-25885148D01*
X31298293Y-25890528D01*
X31299681Y-25896072D01*
X31300520Y-25901724D01*
X31300800Y-25907432D01*
X31300800Y-27192568D01*
X31300520Y-27198276D01*
X31299681Y-27203928D01*
X31298293Y-27209472D01*
X31296367Y-27214852D01*
X31293924Y-27220018D01*
X31290986Y-27224920D01*
X31287582Y-27229510D01*
X31283744Y-27233744D01*
X31279510Y-27237582D01*
X31274920Y-27240986D01*
X31270018Y-27243924D01*
X31264852Y-27246367D01*
X31259472Y-27248293D01*
X31253928Y-27249681D01*
X31248276Y-27250520D01*
X31242568Y-27250800D01*
X30657432Y-27250800D01*
X30651724Y-27250520D01*
X30646072Y-27249681D01*
X30640528Y-27248293D01*
X30635148Y-27246367D01*
X30629982Y-27243924D01*
X30625080Y-27240986D01*
X30620490Y-27237582D01*
X30616256Y-27233744D01*
X30612418Y-27229510D01*
X30609014Y-27224920D01*
X30606076Y-27220018D01*
X30603633Y-27214852D01*
X30601707Y-27209472D01*
X30600319Y-27203928D01*
X30599480Y-27198276D01*
X30599200Y-27192568D01*
X30599200Y-25907432D01*
X30599480Y-25901724D01*
X30600319Y-25896072D01*
X30601707Y-25890528D01*
X30603633Y-25885148D01*
X30606076Y-25879982D01*
X30609014Y-25875080D01*
X30612418Y-25870490D01*
X30616256Y-25866256D01*
X30620490Y-25862418D01*
X30625080Y-25859014D01*
X30629982Y-25856076D01*
X30635148Y-25853633D01*
X30640528Y-25851707D01*
X30646072Y-25850319D01*
X30651724Y-25849480D01*
X30657432Y-25849200D01*
X31242568Y-25849200D01*
X31248276Y-25849480D01*
X31248276Y-25849480D01*
G37*
D26*
X30950000Y-26550000D03*
D12*
G36*
X29348276Y-25849480D02*
X29353928Y-25850319D01*
X29359472Y-25851707D01*
X29364852Y-25853633D01*
X29370018Y-25856076D01*
X29374920Y-25859014D01*
X29379510Y-25862418D01*
X29383744Y-25866256D01*
X29387582Y-25870490D01*
X29390986Y-25875080D01*
X29393924Y-25879982D01*
X29396367Y-25885148D01*
X29398293Y-25890528D01*
X29399681Y-25896072D01*
X29400520Y-25901724D01*
X29400800Y-25907432D01*
X29400800Y-27192568D01*
X29400520Y-27198276D01*
X29399681Y-27203928D01*
X29398293Y-27209472D01*
X29396367Y-27214852D01*
X29393924Y-27220018D01*
X29390986Y-27224920D01*
X29387582Y-27229510D01*
X29383744Y-27233744D01*
X29379510Y-27237582D01*
X29374920Y-27240986D01*
X29370018Y-27243924D01*
X29364852Y-27246367D01*
X29359472Y-27248293D01*
X29353928Y-27249681D01*
X29348276Y-27250520D01*
X29342568Y-27250800D01*
X28757432Y-27250800D01*
X28751724Y-27250520D01*
X28746072Y-27249681D01*
X28740528Y-27248293D01*
X28735148Y-27246367D01*
X28729982Y-27243924D01*
X28725080Y-27240986D01*
X28720490Y-27237582D01*
X28716256Y-27233744D01*
X28712418Y-27229510D01*
X28709014Y-27224920D01*
X28706076Y-27220018D01*
X28703633Y-27214852D01*
X28701707Y-27209472D01*
X28700319Y-27203928D01*
X28699480Y-27198276D01*
X28699200Y-27192568D01*
X28699200Y-25907432D01*
X28699480Y-25901724D01*
X28700319Y-25896072D01*
X28701707Y-25890528D01*
X28703633Y-25885148D01*
X28706076Y-25879982D01*
X28709014Y-25875080D01*
X28712418Y-25870490D01*
X28716256Y-25866256D01*
X28720490Y-25862418D01*
X28725080Y-25859014D01*
X28729982Y-25856076D01*
X28735148Y-25853633D01*
X28740528Y-25851707D01*
X28746072Y-25850319D01*
X28751724Y-25849480D01*
X28757432Y-25849200D01*
X29342568Y-25849200D01*
X29348276Y-25849480D01*
X29348276Y-25849480D01*
G37*
D26*
X29050000Y-26550000D03*
D12*
G36*
X30298276Y-23749480D02*
X30303928Y-23750319D01*
X30309472Y-23751707D01*
X30314852Y-23753633D01*
X30320018Y-23756076D01*
X30324920Y-23759014D01*
X30329510Y-23762418D01*
X30333744Y-23766256D01*
X30337582Y-23770490D01*
X30340986Y-23775080D01*
X30343924Y-23779982D01*
X30346367Y-23785148D01*
X30348293Y-23790528D01*
X30349681Y-23796072D01*
X30350520Y-23801724D01*
X30350800Y-23807432D01*
X30350800Y-25092568D01*
X30350520Y-25098276D01*
X30349681Y-25103928D01*
X30348293Y-25109472D01*
X30346367Y-25114852D01*
X30343924Y-25120018D01*
X30340986Y-25124920D01*
X30337582Y-25129510D01*
X30333744Y-25133744D01*
X30329510Y-25137582D01*
X30324920Y-25140986D01*
X30320018Y-25143924D01*
X30314852Y-25146367D01*
X30309472Y-25148293D01*
X30303928Y-25149681D01*
X30298276Y-25150520D01*
X30292568Y-25150800D01*
X29707432Y-25150800D01*
X29701724Y-25150520D01*
X29696072Y-25149681D01*
X29690528Y-25148293D01*
X29685148Y-25146367D01*
X29679982Y-25143924D01*
X29675080Y-25140986D01*
X29670490Y-25137582D01*
X29666256Y-25133744D01*
X29662418Y-25129510D01*
X29659014Y-25124920D01*
X29656076Y-25120018D01*
X29653633Y-25114852D01*
X29651707Y-25109472D01*
X29650319Y-25103928D01*
X29649480Y-25098276D01*
X29649200Y-25092568D01*
X29649200Y-23807432D01*
X29649480Y-23801724D01*
X29650319Y-23796072D01*
X29651707Y-23790528D01*
X29653633Y-23785148D01*
X29656076Y-23779982D01*
X29659014Y-23775080D01*
X29662418Y-23770490D01*
X29666256Y-23766256D01*
X29670490Y-23762418D01*
X29675080Y-23759014D01*
X29679982Y-23756076D01*
X29685148Y-23753633D01*
X29690528Y-23751707D01*
X29696072Y-23750319D01*
X29701724Y-23749480D01*
X29707432Y-23749200D01*
X30292568Y-23749200D01*
X30298276Y-23749480D01*
X30298276Y-23749480D01*
G37*
D26*
X30000000Y-24450000D03*
D27*
X30650000Y-32850000D03*
X30000000Y-32850000D03*
X29350000Y-32850000D03*
X30650000Y-35050000D03*
X29350000Y-35050000D03*
D28*
X32730000Y-25400000D03*
D29*
X33380000Y-25250000D03*
D30*
X34130000Y-26800000D03*
D31*
X32580000Y-26050000D03*
X32580000Y-26550000D03*
X32580000Y-27050000D03*
X32580000Y-27550000D03*
X35680000Y-26050000D03*
X35680000Y-26550000D03*
X35680000Y-27050000D03*
X35680000Y-27550000D03*
D29*
X33380000Y-28350000D03*
X33880000Y-25250000D03*
X33880000Y-28350000D03*
X34380000Y-25250000D03*
X34380000Y-28350000D03*
X34880000Y-25250000D03*
X34880000Y-28350000D03*
D28*
X32730000Y-28200000D03*
X35530000Y-25400000D03*
X35530000Y-28200000D03*
D23*
X37665000Y-30635000D03*
X37665000Y-32535000D03*
X38165000Y-30635000D03*
X38165000Y-32535000D03*
X38665000Y-30635000D03*
X38665000Y-32535000D03*
X39165000Y-30635000D03*
X39165000Y-32535000D03*
D22*
X38415000Y-31585000D03*
D23*
X37715000Y-34065000D03*
X37715000Y-35965000D03*
X38215000Y-34065000D03*
X38215000Y-35965000D03*
X38715000Y-34065000D03*
X38715000Y-35965000D03*
X39215000Y-34065000D03*
X39215000Y-35965000D03*
D22*
X38465000Y-35015000D03*
D23*
X33200000Y-37440000D03*
X33200000Y-39340000D03*
X33700000Y-37440000D03*
X33700000Y-39340000D03*
X34200000Y-37440000D03*
X34200000Y-39340000D03*
X34700000Y-37440000D03*
X34700000Y-39340000D03*
D22*
X33950000Y-38390000D03*
D28*
X24470000Y-31800000D03*
X24470000Y-34600000D03*
X27270000Y-31800000D03*
D29*
X25120000Y-31650000D03*
X25120000Y-34750000D03*
X25620000Y-31650000D03*
X25620000Y-34750000D03*
X26120000Y-31650000D03*
X26120000Y-34750000D03*
X26620000Y-31650000D03*
D31*
X24320000Y-32450000D03*
X24320000Y-32950000D03*
X24320000Y-33450000D03*
X24320000Y-33950000D03*
X27420000Y-32450000D03*
X27420000Y-32950000D03*
X27420000Y-33450000D03*
X27420000Y-33950000D03*
D30*
X25870000Y-33200000D03*
D29*
X26620000Y-34750000D03*
D28*
X27270000Y-34600000D03*
M02*
