G04 #@! TF.GenerationSoftware,KiCad,Pcbnew,(2018-02-05 revision d1a45d147)-makepkg*
G04 #@! TF.CreationDate,2019-01-11T16:44:05-08:00*
G04 #@! TF.ProjectId,6s4in1,367334696E312E6B696361645F706362,rev?*
G04 #@! TF.SameCoordinates,Original*
G04 #@! TF.FileFunction,Soldermask,Top*
G04 #@! TF.FilePolarity,Negative*
%FSLAX46Y46*%
G04 Gerber Fmt 4.6, Leading zero omitted, Abs format (unit mm)*
G04 Created by KiCad (PCBNEW (2018-02-05 revision d1a45d147)-makepkg) date 01/11/19 16:44:05*
%MOMM*%
%LPD*%
G01*
G04 APERTURE LIST*
%ADD10C,1.851600*%
%ADD11C,0.609600*%
%ADD12C,0.100000*%
%ADD13R,0.701600X0.601600*%
%ADD14R,0.701600X0.701600*%
%ADD15R,0.401600X1.001600*%
%ADD16R,1.001600X0.401600*%
%ADD17R,1.901600X1.901600*%
%ADD18C,1.201600*%
%ADD19C,1.601600*%
%ADD20C,0.601600*%
%ADD21R,0.601600X0.701600*%
%ADD22R,1.151600X0.871600*%
%ADD23R,0.571600X0.451600*%
%ADD24C,2.101600*%
%ADD25R,0.501600X0.701600*%
%ADD26R,1.101600X1.351600*%
%ADD27R,1.701600X0.581600*%
%ADD28R,0.351600X0.601600*%
G04 APERTURE END LIST*
D10*
X31080000Y-19650000D03*
D11*
X31480000Y-21400000D03*
X30680000Y-21400000D03*
X31480000Y-20600000D03*
X30680000Y-20600000D03*
D12*
G36*
X31838789Y-20075092D02*
X31856763Y-20077758D01*
X31874389Y-20082173D01*
X31891498Y-20088294D01*
X31907924Y-20096063D01*
X31923509Y-20105405D01*
X31938104Y-20116229D01*
X31951568Y-20128432D01*
X31963771Y-20141896D01*
X31974595Y-20156491D01*
X31983937Y-20172076D01*
X31991706Y-20188502D01*
X31997827Y-20205611D01*
X32002242Y-20223237D01*
X32004908Y-20241211D01*
X32005800Y-20259360D01*
X32005800Y-21740640D01*
X32004908Y-21758789D01*
X32002242Y-21776763D01*
X31997827Y-21794389D01*
X31991706Y-21811498D01*
X31983937Y-21827924D01*
X31974595Y-21843509D01*
X31963771Y-21858104D01*
X31951568Y-21871568D01*
X31938104Y-21883771D01*
X31923509Y-21894595D01*
X31907924Y-21903937D01*
X31891498Y-21911706D01*
X31874389Y-21917827D01*
X31856763Y-21922242D01*
X31838789Y-21924908D01*
X31820640Y-21925800D01*
X30339360Y-21925800D01*
X30321211Y-21924908D01*
X30303237Y-21922242D01*
X30285611Y-21917827D01*
X30268502Y-21911706D01*
X30252076Y-21903937D01*
X30236491Y-21894595D01*
X30221896Y-21883771D01*
X30208432Y-21871568D01*
X30196229Y-21858104D01*
X30185405Y-21843509D01*
X30176063Y-21827924D01*
X30168294Y-21811498D01*
X30162173Y-21794389D01*
X30157758Y-21776763D01*
X30155092Y-21758789D01*
X30154200Y-21740640D01*
X30154200Y-20259360D01*
X30155092Y-20241211D01*
X30157758Y-20223237D01*
X30162173Y-20205611D01*
X30168294Y-20188502D01*
X30176063Y-20172076D01*
X30185405Y-20156491D01*
X30196229Y-20141896D01*
X30208432Y-20128432D01*
X30221896Y-20116229D01*
X30236491Y-20105405D01*
X30252076Y-20096063D01*
X30268502Y-20088294D01*
X30285611Y-20082173D01*
X30303237Y-20077758D01*
X30321211Y-20075092D01*
X30339360Y-20074200D01*
X31820640Y-20074200D01*
X31838789Y-20075092D01*
X31838789Y-20075092D01*
G37*
D10*
X31080000Y-21000000D03*
X28920000Y-19650000D03*
D11*
X29320000Y-21400000D03*
X28520000Y-21400000D03*
X29320000Y-20600000D03*
X28520000Y-20600000D03*
D12*
G36*
X29678789Y-20075092D02*
X29696763Y-20077758D01*
X29714389Y-20082173D01*
X29731498Y-20088294D01*
X29747924Y-20096063D01*
X29763509Y-20105405D01*
X29778104Y-20116229D01*
X29791568Y-20128432D01*
X29803771Y-20141896D01*
X29814595Y-20156491D01*
X29823937Y-20172076D01*
X29831706Y-20188502D01*
X29837827Y-20205611D01*
X29842242Y-20223237D01*
X29844908Y-20241211D01*
X29845800Y-20259360D01*
X29845800Y-21740640D01*
X29844908Y-21758789D01*
X29842242Y-21776763D01*
X29837827Y-21794389D01*
X29831706Y-21811498D01*
X29823937Y-21827924D01*
X29814595Y-21843509D01*
X29803771Y-21858104D01*
X29791568Y-21871568D01*
X29778104Y-21883771D01*
X29763509Y-21894595D01*
X29747924Y-21903937D01*
X29731498Y-21911706D01*
X29714389Y-21917827D01*
X29696763Y-21922242D01*
X29678789Y-21924908D01*
X29660640Y-21925800D01*
X28179360Y-21925800D01*
X28161211Y-21924908D01*
X28143237Y-21922242D01*
X28125611Y-21917827D01*
X28108502Y-21911706D01*
X28092076Y-21903937D01*
X28076491Y-21894595D01*
X28061896Y-21883771D01*
X28048432Y-21871568D01*
X28036229Y-21858104D01*
X28025405Y-21843509D01*
X28016063Y-21827924D01*
X28008294Y-21811498D01*
X28002173Y-21794389D01*
X27997758Y-21776763D01*
X27995092Y-21758789D01*
X27994200Y-21740640D01*
X27994200Y-20259360D01*
X27995092Y-20241211D01*
X27997758Y-20223237D01*
X28002173Y-20205611D01*
X28008294Y-20188502D01*
X28016063Y-20172076D01*
X28025405Y-20156491D01*
X28036229Y-20141896D01*
X28048432Y-20128432D01*
X28061896Y-20116229D01*
X28076491Y-20105405D01*
X28092076Y-20096063D01*
X28108502Y-20088294D01*
X28125611Y-20082173D01*
X28143237Y-20077758D01*
X28161211Y-20075092D01*
X28179360Y-20074200D01*
X29660640Y-20074200D01*
X29678789Y-20075092D01*
X29678789Y-20075092D01*
G37*
D10*
X28920000Y-21000000D03*
D13*
X37020000Y-30790000D03*
X35920000Y-30790000D03*
D14*
X35530000Y-31800000D03*
X35530000Y-34600000D03*
X32730000Y-31800000D03*
D15*
X34880000Y-31650000D03*
X34880000Y-34750000D03*
X34380000Y-31650000D03*
X34380000Y-34750000D03*
X33880000Y-31650000D03*
X33880000Y-34750000D03*
X33380000Y-31650000D03*
D16*
X35680000Y-32450000D03*
X35680000Y-32950000D03*
X35680000Y-33450000D03*
X35680000Y-33950000D03*
X32580000Y-32450000D03*
X32580000Y-32950000D03*
X32580000Y-33450000D03*
X32580000Y-33950000D03*
D17*
X34130000Y-33200000D03*
D15*
X33380000Y-34750000D03*
D14*
X32730000Y-34600000D03*
D12*
G36*
X19688227Y-36950068D02*
X19705723Y-36952663D01*
X19722881Y-36956961D01*
X19739535Y-36962920D01*
X19755525Y-36970483D01*
X19770696Y-36979576D01*
X19784903Y-36990113D01*
X19798009Y-37001991D01*
X19809887Y-37015097D01*
X19820424Y-37029304D01*
X19829517Y-37044475D01*
X19837080Y-37060465D01*
X19843039Y-37077119D01*
X19847337Y-37094277D01*
X19849932Y-37111773D01*
X19850800Y-37129440D01*
X19850800Y-38370560D01*
X19849932Y-38388227D01*
X19847337Y-38405723D01*
X19843039Y-38422881D01*
X19837080Y-38439535D01*
X19829517Y-38455525D01*
X19820424Y-38470696D01*
X19809887Y-38484903D01*
X19798009Y-38498009D01*
X19784903Y-38509887D01*
X19770696Y-38520424D01*
X19755525Y-38529517D01*
X19739535Y-38537080D01*
X19722881Y-38543039D01*
X19705723Y-38547337D01*
X19688227Y-38549932D01*
X19670560Y-38550800D01*
X18829440Y-38550800D01*
X18811773Y-38549932D01*
X18794277Y-38547337D01*
X18777119Y-38543039D01*
X18760465Y-38537080D01*
X18744475Y-38529517D01*
X18729304Y-38520424D01*
X18715097Y-38509887D01*
X18701991Y-38498009D01*
X18690113Y-38484903D01*
X18679576Y-38470696D01*
X18670483Y-38455525D01*
X18662920Y-38439535D01*
X18656961Y-38422881D01*
X18652663Y-38405723D01*
X18650068Y-38388227D01*
X18649200Y-38370560D01*
X18649200Y-37129440D01*
X18650068Y-37111773D01*
X18652663Y-37094277D01*
X18656961Y-37077119D01*
X18662920Y-37060465D01*
X18670483Y-37044475D01*
X18679576Y-37029304D01*
X18690113Y-37015097D01*
X18701991Y-37001991D01*
X18715097Y-36990113D01*
X18729304Y-36979576D01*
X18744475Y-36970483D01*
X18760465Y-36962920D01*
X18777119Y-36956961D01*
X18794277Y-36952663D01*
X18811773Y-36950068D01*
X18829440Y-36949200D01*
X19670560Y-36949200D01*
X19688227Y-36950068D01*
X19688227Y-36950068D01*
G37*
D18*
X19250000Y-37750000D03*
D19*
X18700000Y-37750000D03*
D20*
X19550000Y-37250000D03*
X19550000Y-38250000D03*
D12*
G36*
X41188227Y-36950068D02*
X41205723Y-36952663D01*
X41222881Y-36956961D01*
X41239535Y-36962920D01*
X41255525Y-36970483D01*
X41270696Y-36979576D01*
X41284903Y-36990113D01*
X41298009Y-37001991D01*
X41309887Y-37015097D01*
X41320424Y-37029304D01*
X41329517Y-37044475D01*
X41337080Y-37060465D01*
X41343039Y-37077119D01*
X41347337Y-37094277D01*
X41349932Y-37111773D01*
X41350800Y-37129440D01*
X41350800Y-38370560D01*
X41349932Y-38388227D01*
X41347337Y-38405723D01*
X41343039Y-38422881D01*
X41337080Y-38439535D01*
X41329517Y-38455525D01*
X41320424Y-38470696D01*
X41309887Y-38484903D01*
X41298009Y-38498009D01*
X41284903Y-38509887D01*
X41270696Y-38520424D01*
X41255525Y-38529517D01*
X41239535Y-38537080D01*
X41222881Y-38543039D01*
X41205723Y-38547337D01*
X41188227Y-38549932D01*
X41170560Y-38550800D01*
X40329440Y-38550800D01*
X40311773Y-38549932D01*
X40294277Y-38547337D01*
X40277119Y-38543039D01*
X40260465Y-38537080D01*
X40244475Y-38529517D01*
X40229304Y-38520424D01*
X40215097Y-38509887D01*
X40201991Y-38498009D01*
X40190113Y-38484903D01*
X40179576Y-38470696D01*
X40170483Y-38455525D01*
X40162920Y-38439535D01*
X40156961Y-38422881D01*
X40152663Y-38405723D01*
X40150068Y-38388227D01*
X40149200Y-38370560D01*
X40149200Y-37129440D01*
X40150068Y-37111773D01*
X40152663Y-37094277D01*
X40156961Y-37077119D01*
X40162920Y-37060465D01*
X40170483Y-37044475D01*
X40179576Y-37029304D01*
X40190113Y-37015097D01*
X40201991Y-37001991D01*
X40215097Y-36990113D01*
X40229304Y-36979576D01*
X40244475Y-36970483D01*
X40260465Y-36962920D01*
X40277119Y-36956961D01*
X40294277Y-36952663D01*
X40311773Y-36950068D01*
X40329440Y-36949200D01*
X41170560Y-36949200D01*
X41188227Y-36950068D01*
X41188227Y-36950068D01*
G37*
D18*
X40750000Y-37750000D03*
D19*
X41300000Y-37750000D03*
D20*
X40450000Y-37250000D03*
X40450000Y-38250000D03*
D12*
G36*
X19688227Y-33950068D02*
X19705723Y-33952663D01*
X19722881Y-33956961D01*
X19739535Y-33962920D01*
X19755525Y-33970483D01*
X19770696Y-33979576D01*
X19784903Y-33990113D01*
X19798009Y-34001991D01*
X19809887Y-34015097D01*
X19820424Y-34029304D01*
X19829517Y-34044475D01*
X19837080Y-34060465D01*
X19843039Y-34077119D01*
X19847337Y-34094277D01*
X19849932Y-34111773D01*
X19850800Y-34129440D01*
X19850800Y-35370560D01*
X19849932Y-35388227D01*
X19847337Y-35405723D01*
X19843039Y-35422881D01*
X19837080Y-35439535D01*
X19829517Y-35455525D01*
X19820424Y-35470696D01*
X19809887Y-35484903D01*
X19798009Y-35498009D01*
X19784903Y-35509887D01*
X19770696Y-35520424D01*
X19755525Y-35529517D01*
X19739535Y-35537080D01*
X19722881Y-35543039D01*
X19705723Y-35547337D01*
X19688227Y-35549932D01*
X19670560Y-35550800D01*
X18829440Y-35550800D01*
X18811773Y-35549932D01*
X18794277Y-35547337D01*
X18777119Y-35543039D01*
X18760465Y-35537080D01*
X18744475Y-35529517D01*
X18729304Y-35520424D01*
X18715097Y-35509887D01*
X18701991Y-35498009D01*
X18690113Y-35484903D01*
X18679576Y-35470696D01*
X18670483Y-35455525D01*
X18662920Y-35439535D01*
X18656961Y-35422881D01*
X18652663Y-35405723D01*
X18650068Y-35388227D01*
X18649200Y-35370560D01*
X18649200Y-34129440D01*
X18650068Y-34111773D01*
X18652663Y-34094277D01*
X18656961Y-34077119D01*
X18662920Y-34060465D01*
X18670483Y-34044475D01*
X18679576Y-34029304D01*
X18690113Y-34015097D01*
X18701991Y-34001991D01*
X18715097Y-33990113D01*
X18729304Y-33979576D01*
X18744475Y-33970483D01*
X18760465Y-33962920D01*
X18777119Y-33956961D01*
X18794277Y-33952663D01*
X18811773Y-33950068D01*
X18829440Y-33949200D01*
X19670560Y-33949200D01*
X19688227Y-33950068D01*
X19688227Y-33950068D01*
G37*
D18*
X19250000Y-34750000D03*
D19*
X18700000Y-34750000D03*
D20*
X19550000Y-34250000D03*
X19550000Y-35250000D03*
X19550000Y-21750000D03*
X19550000Y-22750000D03*
D19*
X18700000Y-22250000D03*
D12*
G36*
X19688227Y-21450068D02*
X19705723Y-21452663D01*
X19722881Y-21456961D01*
X19739535Y-21462920D01*
X19755525Y-21470483D01*
X19770696Y-21479576D01*
X19784903Y-21490113D01*
X19798009Y-21501991D01*
X19809887Y-21515097D01*
X19820424Y-21529304D01*
X19829517Y-21544475D01*
X19837080Y-21560465D01*
X19843039Y-21577119D01*
X19847337Y-21594277D01*
X19849932Y-21611773D01*
X19850800Y-21629440D01*
X19850800Y-22870560D01*
X19849932Y-22888227D01*
X19847337Y-22905723D01*
X19843039Y-22922881D01*
X19837080Y-22939535D01*
X19829517Y-22955525D01*
X19820424Y-22970696D01*
X19809887Y-22984903D01*
X19798009Y-22998009D01*
X19784903Y-23009887D01*
X19770696Y-23020424D01*
X19755525Y-23029517D01*
X19739535Y-23037080D01*
X19722881Y-23043039D01*
X19705723Y-23047337D01*
X19688227Y-23049932D01*
X19670560Y-23050800D01*
X18829440Y-23050800D01*
X18811773Y-23049932D01*
X18794277Y-23047337D01*
X18777119Y-23043039D01*
X18760465Y-23037080D01*
X18744475Y-23029517D01*
X18729304Y-23020424D01*
X18715097Y-23009887D01*
X18701991Y-22998009D01*
X18690113Y-22984903D01*
X18679576Y-22970696D01*
X18670483Y-22955525D01*
X18662920Y-22939535D01*
X18656961Y-22922881D01*
X18652663Y-22905723D01*
X18650068Y-22888227D01*
X18649200Y-22870560D01*
X18649200Y-21629440D01*
X18650068Y-21611773D01*
X18652663Y-21594277D01*
X18656961Y-21577119D01*
X18662920Y-21560465D01*
X18670483Y-21544475D01*
X18679576Y-21529304D01*
X18690113Y-21515097D01*
X18701991Y-21501991D01*
X18715097Y-21490113D01*
X18729304Y-21479576D01*
X18744475Y-21470483D01*
X18760465Y-21462920D01*
X18777119Y-21456961D01*
X18794277Y-21452663D01*
X18811773Y-21450068D01*
X18829440Y-21449200D01*
X19670560Y-21449200D01*
X19688227Y-21450068D01*
X19688227Y-21450068D01*
G37*
D18*
X19250000Y-22250000D03*
D21*
X24030000Y-23260000D03*
X24030000Y-24360000D03*
D13*
X22980000Y-29210000D03*
X24080000Y-29210000D03*
D22*
X25705000Y-21125000D03*
X25705000Y-22095000D03*
D23*
X26620000Y-20960000D03*
X26620000Y-21610000D03*
X26620000Y-22260000D03*
X24790000Y-20960000D03*
X24790000Y-21610000D03*
X24790000Y-22260000D03*
D22*
X21190000Y-24500000D03*
X21190000Y-25470000D03*
D23*
X22105000Y-24335000D03*
X22105000Y-24985000D03*
X22105000Y-25635000D03*
X20275000Y-24335000D03*
X20275000Y-24985000D03*
X20275000Y-25635000D03*
D22*
X21240000Y-27930000D03*
X21240000Y-28900000D03*
D23*
X22155000Y-27765000D03*
X22155000Y-28415000D03*
X22155000Y-29065000D03*
X20325000Y-27765000D03*
X20325000Y-28415000D03*
X20325000Y-29065000D03*
D24*
X22000000Y-22000000D03*
D12*
G36*
X19688227Y-30950068D02*
X19705723Y-30952663D01*
X19722881Y-30956961D01*
X19739535Y-30962920D01*
X19755525Y-30970483D01*
X19770696Y-30979576D01*
X19784903Y-30990113D01*
X19798009Y-31001991D01*
X19809887Y-31015097D01*
X19820424Y-31029304D01*
X19829517Y-31044475D01*
X19837080Y-31060465D01*
X19843039Y-31077119D01*
X19847337Y-31094277D01*
X19849932Y-31111773D01*
X19850800Y-31129440D01*
X19850800Y-32370560D01*
X19849932Y-32388227D01*
X19847337Y-32405723D01*
X19843039Y-32422881D01*
X19837080Y-32439535D01*
X19829517Y-32455525D01*
X19820424Y-32470696D01*
X19809887Y-32484903D01*
X19798009Y-32498009D01*
X19784903Y-32509887D01*
X19770696Y-32520424D01*
X19755525Y-32529517D01*
X19739535Y-32537080D01*
X19722881Y-32543039D01*
X19705723Y-32547337D01*
X19688227Y-32549932D01*
X19670560Y-32550800D01*
X18829440Y-32550800D01*
X18811773Y-32549932D01*
X18794277Y-32547337D01*
X18777119Y-32543039D01*
X18760465Y-32537080D01*
X18744475Y-32529517D01*
X18729304Y-32520424D01*
X18715097Y-32509887D01*
X18701991Y-32498009D01*
X18690113Y-32484903D01*
X18679576Y-32470696D01*
X18670483Y-32455525D01*
X18662920Y-32439535D01*
X18656961Y-32422881D01*
X18652663Y-32405723D01*
X18650068Y-32388227D01*
X18649200Y-32370560D01*
X18649200Y-31129440D01*
X18650068Y-31111773D01*
X18652663Y-31094277D01*
X18656961Y-31077119D01*
X18662920Y-31060465D01*
X18670483Y-31044475D01*
X18679576Y-31029304D01*
X18690113Y-31015097D01*
X18701991Y-31001991D01*
X18715097Y-30990113D01*
X18729304Y-30979576D01*
X18744475Y-30970483D01*
X18760465Y-30962920D01*
X18777119Y-30956961D01*
X18794277Y-30952663D01*
X18811773Y-30950068D01*
X18829440Y-30949200D01*
X19670560Y-30949200D01*
X19688227Y-30950068D01*
X19688227Y-30950068D01*
G37*
D18*
X19250000Y-31750000D03*
D19*
X18700000Y-31750000D03*
D20*
X19550000Y-31250000D03*
X19550000Y-32250000D03*
D12*
G36*
X41188227Y-33950068D02*
X41205723Y-33952663D01*
X41222881Y-33956961D01*
X41239535Y-33962920D01*
X41255525Y-33970483D01*
X41270696Y-33979576D01*
X41284903Y-33990113D01*
X41298009Y-34001991D01*
X41309887Y-34015097D01*
X41320424Y-34029304D01*
X41329517Y-34044475D01*
X41337080Y-34060465D01*
X41343039Y-34077119D01*
X41347337Y-34094277D01*
X41349932Y-34111773D01*
X41350800Y-34129440D01*
X41350800Y-35370560D01*
X41349932Y-35388227D01*
X41347337Y-35405723D01*
X41343039Y-35422881D01*
X41337080Y-35439535D01*
X41329517Y-35455525D01*
X41320424Y-35470696D01*
X41309887Y-35484903D01*
X41298009Y-35498009D01*
X41284903Y-35509887D01*
X41270696Y-35520424D01*
X41255525Y-35529517D01*
X41239535Y-35537080D01*
X41222881Y-35543039D01*
X41205723Y-35547337D01*
X41188227Y-35549932D01*
X41170560Y-35550800D01*
X40329440Y-35550800D01*
X40311773Y-35549932D01*
X40294277Y-35547337D01*
X40277119Y-35543039D01*
X40260465Y-35537080D01*
X40244475Y-35529517D01*
X40229304Y-35520424D01*
X40215097Y-35509887D01*
X40201991Y-35498009D01*
X40190113Y-35484903D01*
X40179576Y-35470696D01*
X40170483Y-35455525D01*
X40162920Y-35439535D01*
X40156961Y-35422881D01*
X40152663Y-35405723D01*
X40150068Y-35388227D01*
X40149200Y-35370560D01*
X40149200Y-34129440D01*
X40150068Y-34111773D01*
X40152663Y-34094277D01*
X40156961Y-34077119D01*
X40162920Y-34060465D01*
X40170483Y-34044475D01*
X40179576Y-34029304D01*
X40190113Y-34015097D01*
X40201991Y-34001991D01*
X40215097Y-33990113D01*
X40229304Y-33979576D01*
X40244475Y-33970483D01*
X40260465Y-33962920D01*
X40277119Y-33956961D01*
X40294277Y-33952663D01*
X40311773Y-33950068D01*
X40329440Y-33949200D01*
X41170560Y-33949200D01*
X41188227Y-33950068D01*
X41188227Y-33950068D01*
G37*
D18*
X40750000Y-34750000D03*
D19*
X41300000Y-34750000D03*
D20*
X40450000Y-34250000D03*
X40450000Y-35250000D03*
D12*
G36*
X41188227Y-30950068D02*
X41205723Y-30952663D01*
X41222881Y-30956961D01*
X41239535Y-30962920D01*
X41255525Y-30970483D01*
X41270696Y-30979576D01*
X41284903Y-30990113D01*
X41298009Y-31001991D01*
X41309887Y-31015097D01*
X41320424Y-31029304D01*
X41329517Y-31044475D01*
X41337080Y-31060465D01*
X41343039Y-31077119D01*
X41347337Y-31094277D01*
X41349932Y-31111773D01*
X41350800Y-31129440D01*
X41350800Y-32370560D01*
X41349932Y-32388227D01*
X41347337Y-32405723D01*
X41343039Y-32422881D01*
X41337080Y-32439535D01*
X41329517Y-32455525D01*
X41320424Y-32470696D01*
X41309887Y-32484903D01*
X41298009Y-32498009D01*
X41284903Y-32509887D01*
X41270696Y-32520424D01*
X41255525Y-32529517D01*
X41239535Y-32537080D01*
X41222881Y-32543039D01*
X41205723Y-32547337D01*
X41188227Y-32549932D01*
X41170560Y-32550800D01*
X40329440Y-32550800D01*
X40311773Y-32549932D01*
X40294277Y-32547337D01*
X40277119Y-32543039D01*
X40260465Y-32537080D01*
X40244475Y-32529517D01*
X40229304Y-32520424D01*
X40215097Y-32509887D01*
X40201991Y-32498009D01*
X40190113Y-32484903D01*
X40179576Y-32470696D01*
X40170483Y-32455525D01*
X40162920Y-32439535D01*
X40156961Y-32422881D01*
X40152663Y-32405723D01*
X40150068Y-32388227D01*
X40149200Y-32370560D01*
X40149200Y-31129440D01*
X40150068Y-31111773D01*
X40152663Y-31094277D01*
X40156961Y-31077119D01*
X40162920Y-31060465D01*
X40170483Y-31044475D01*
X40179576Y-31029304D01*
X40190113Y-31015097D01*
X40201991Y-31001991D01*
X40215097Y-30990113D01*
X40229304Y-30979576D01*
X40244475Y-30970483D01*
X40260465Y-30962920D01*
X40277119Y-30956961D01*
X40294277Y-30952663D01*
X40311773Y-30950068D01*
X40329440Y-30949200D01*
X41170560Y-30949200D01*
X41188227Y-30950068D01*
X41188227Y-30950068D01*
G37*
D18*
X40750000Y-31750000D03*
D19*
X41300000Y-31750000D03*
D20*
X40450000Y-31250000D03*
X40450000Y-32250000D03*
X19550000Y-24750000D03*
X19550000Y-25750000D03*
D19*
X18700000Y-25250000D03*
D12*
G36*
X19688227Y-24450068D02*
X19705723Y-24452663D01*
X19722881Y-24456961D01*
X19739535Y-24462920D01*
X19755525Y-24470483D01*
X19770696Y-24479576D01*
X19784903Y-24490113D01*
X19798009Y-24501991D01*
X19809887Y-24515097D01*
X19820424Y-24529304D01*
X19829517Y-24544475D01*
X19837080Y-24560465D01*
X19843039Y-24577119D01*
X19847337Y-24594277D01*
X19849932Y-24611773D01*
X19850800Y-24629440D01*
X19850800Y-25870560D01*
X19849932Y-25888227D01*
X19847337Y-25905723D01*
X19843039Y-25922881D01*
X19837080Y-25939535D01*
X19829517Y-25955525D01*
X19820424Y-25970696D01*
X19809887Y-25984903D01*
X19798009Y-25998009D01*
X19784903Y-26009887D01*
X19770696Y-26020424D01*
X19755525Y-26029517D01*
X19739535Y-26037080D01*
X19722881Y-26043039D01*
X19705723Y-26047337D01*
X19688227Y-26049932D01*
X19670560Y-26050800D01*
X18829440Y-26050800D01*
X18811773Y-26049932D01*
X18794277Y-26047337D01*
X18777119Y-26043039D01*
X18760465Y-26037080D01*
X18744475Y-26029517D01*
X18729304Y-26020424D01*
X18715097Y-26009887D01*
X18701991Y-25998009D01*
X18690113Y-25984903D01*
X18679576Y-25970696D01*
X18670483Y-25955525D01*
X18662920Y-25939535D01*
X18656961Y-25922881D01*
X18652663Y-25905723D01*
X18650068Y-25888227D01*
X18649200Y-25870560D01*
X18649200Y-24629440D01*
X18650068Y-24611773D01*
X18652663Y-24594277D01*
X18656961Y-24577119D01*
X18662920Y-24560465D01*
X18670483Y-24544475D01*
X18679576Y-24529304D01*
X18690113Y-24515097D01*
X18701991Y-24501991D01*
X18715097Y-24490113D01*
X18729304Y-24479576D01*
X18744475Y-24470483D01*
X18760465Y-24462920D01*
X18777119Y-24456961D01*
X18794277Y-24452663D01*
X18811773Y-24450068D01*
X18829440Y-24449200D01*
X19670560Y-24449200D01*
X19688227Y-24450068D01*
X19688227Y-24450068D01*
G37*
D18*
X19250000Y-25250000D03*
D20*
X19550000Y-27750000D03*
X19550000Y-28750000D03*
D19*
X18700000Y-28250000D03*
D12*
G36*
X19688227Y-27450068D02*
X19705723Y-27452663D01*
X19722881Y-27456961D01*
X19739535Y-27462920D01*
X19755525Y-27470483D01*
X19770696Y-27479576D01*
X19784903Y-27490113D01*
X19798009Y-27501991D01*
X19809887Y-27515097D01*
X19820424Y-27529304D01*
X19829517Y-27544475D01*
X19837080Y-27560465D01*
X19843039Y-27577119D01*
X19847337Y-27594277D01*
X19849932Y-27611773D01*
X19850800Y-27629440D01*
X19850800Y-28870560D01*
X19849932Y-28888227D01*
X19847337Y-28905723D01*
X19843039Y-28922881D01*
X19837080Y-28939535D01*
X19829517Y-28955525D01*
X19820424Y-28970696D01*
X19809887Y-28984903D01*
X19798009Y-28998009D01*
X19784903Y-29009887D01*
X19770696Y-29020424D01*
X19755525Y-29029517D01*
X19739535Y-29037080D01*
X19722881Y-29043039D01*
X19705723Y-29047337D01*
X19688227Y-29049932D01*
X19670560Y-29050800D01*
X18829440Y-29050800D01*
X18811773Y-29049932D01*
X18794277Y-29047337D01*
X18777119Y-29043039D01*
X18760465Y-29037080D01*
X18744475Y-29029517D01*
X18729304Y-29020424D01*
X18715097Y-29009887D01*
X18701991Y-28998009D01*
X18690113Y-28984903D01*
X18679576Y-28970696D01*
X18670483Y-28955525D01*
X18662920Y-28939535D01*
X18656961Y-28922881D01*
X18652663Y-28905723D01*
X18650068Y-28888227D01*
X18649200Y-28870560D01*
X18649200Y-27629440D01*
X18650068Y-27611773D01*
X18652663Y-27594277D01*
X18656961Y-27577119D01*
X18662920Y-27560465D01*
X18670483Y-27544475D01*
X18679576Y-27529304D01*
X18690113Y-27515097D01*
X18701991Y-27501991D01*
X18715097Y-27490113D01*
X18729304Y-27479576D01*
X18744475Y-27470483D01*
X18760465Y-27462920D01*
X18777119Y-27456961D01*
X18794277Y-27452663D01*
X18811773Y-27450068D01*
X18829440Y-27449200D01*
X19670560Y-27449200D01*
X19688227Y-27450068D01*
X19688227Y-27450068D01*
G37*
D18*
X19250000Y-28250000D03*
D12*
G36*
X41188227Y-21450068D02*
X41205723Y-21452663D01*
X41222881Y-21456961D01*
X41239535Y-21462920D01*
X41255525Y-21470483D01*
X41270696Y-21479576D01*
X41284903Y-21490113D01*
X41298009Y-21501991D01*
X41309887Y-21515097D01*
X41320424Y-21529304D01*
X41329517Y-21544475D01*
X41337080Y-21560465D01*
X41343039Y-21577119D01*
X41347337Y-21594277D01*
X41349932Y-21611773D01*
X41350800Y-21629440D01*
X41350800Y-22870560D01*
X41349932Y-22888227D01*
X41347337Y-22905723D01*
X41343039Y-22922881D01*
X41337080Y-22939535D01*
X41329517Y-22955525D01*
X41320424Y-22970696D01*
X41309887Y-22984903D01*
X41298009Y-22998009D01*
X41284903Y-23009887D01*
X41270696Y-23020424D01*
X41255525Y-23029517D01*
X41239535Y-23037080D01*
X41222881Y-23043039D01*
X41205723Y-23047337D01*
X41188227Y-23049932D01*
X41170560Y-23050800D01*
X40329440Y-23050800D01*
X40311773Y-23049932D01*
X40294277Y-23047337D01*
X40277119Y-23043039D01*
X40260465Y-23037080D01*
X40244475Y-23029517D01*
X40229304Y-23020424D01*
X40215097Y-23009887D01*
X40201991Y-22998009D01*
X40190113Y-22984903D01*
X40179576Y-22970696D01*
X40170483Y-22955525D01*
X40162920Y-22939535D01*
X40156961Y-22922881D01*
X40152663Y-22905723D01*
X40150068Y-22888227D01*
X40149200Y-22870560D01*
X40149200Y-21629440D01*
X40150068Y-21611773D01*
X40152663Y-21594277D01*
X40156961Y-21577119D01*
X40162920Y-21560465D01*
X40170483Y-21544475D01*
X40179576Y-21529304D01*
X40190113Y-21515097D01*
X40201991Y-21501991D01*
X40215097Y-21490113D01*
X40229304Y-21479576D01*
X40244475Y-21470483D01*
X40260465Y-21462920D01*
X40277119Y-21456961D01*
X40294277Y-21452663D01*
X40311773Y-21450068D01*
X40329440Y-21449200D01*
X41170560Y-21449200D01*
X41188227Y-21450068D01*
X41188227Y-21450068D01*
G37*
D18*
X40750000Y-22250000D03*
D19*
X41300000Y-22250000D03*
D20*
X40450000Y-22750000D03*
X40450000Y-21750000D03*
D12*
G36*
X41188227Y-24450068D02*
X41205723Y-24452663D01*
X41222881Y-24456961D01*
X41239535Y-24462920D01*
X41255525Y-24470483D01*
X41270696Y-24479576D01*
X41284903Y-24490113D01*
X41298009Y-24501991D01*
X41309887Y-24515097D01*
X41320424Y-24529304D01*
X41329517Y-24544475D01*
X41337080Y-24560465D01*
X41343039Y-24577119D01*
X41347337Y-24594277D01*
X41349932Y-24611773D01*
X41350800Y-24629440D01*
X41350800Y-25870560D01*
X41349932Y-25888227D01*
X41347337Y-25905723D01*
X41343039Y-25922881D01*
X41337080Y-25939535D01*
X41329517Y-25955525D01*
X41320424Y-25970696D01*
X41309887Y-25984903D01*
X41298009Y-25998009D01*
X41284903Y-26009887D01*
X41270696Y-26020424D01*
X41255525Y-26029517D01*
X41239535Y-26037080D01*
X41222881Y-26043039D01*
X41205723Y-26047337D01*
X41188227Y-26049932D01*
X41170560Y-26050800D01*
X40329440Y-26050800D01*
X40311773Y-26049932D01*
X40294277Y-26047337D01*
X40277119Y-26043039D01*
X40260465Y-26037080D01*
X40244475Y-26029517D01*
X40229304Y-26020424D01*
X40215097Y-26009887D01*
X40201991Y-25998009D01*
X40190113Y-25984903D01*
X40179576Y-25970696D01*
X40170483Y-25955525D01*
X40162920Y-25939535D01*
X40156961Y-25922881D01*
X40152663Y-25905723D01*
X40150068Y-25888227D01*
X40149200Y-25870560D01*
X40149200Y-24629440D01*
X40150068Y-24611773D01*
X40152663Y-24594277D01*
X40156961Y-24577119D01*
X40162920Y-24560465D01*
X40170483Y-24544475D01*
X40179576Y-24529304D01*
X40190113Y-24515097D01*
X40201991Y-24501991D01*
X40215097Y-24490113D01*
X40229304Y-24479576D01*
X40244475Y-24470483D01*
X40260465Y-24462920D01*
X40277119Y-24456961D01*
X40294277Y-24452663D01*
X40311773Y-24450068D01*
X40329440Y-24449200D01*
X41170560Y-24449200D01*
X41188227Y-24450068D01*
X41188227Y-24450068D01*
G37*
D18*
X40750000Y-25250000D03*
D19*
X41300000Y-25250000D03*
D20*
X40450000Y-25750000D03*
X40450000Y-24750000D03*
D12*
G36*
X41188227Y-27450068D02*
X41205723Y-27452663D01*
X41222881Y-27456961D01*
X41239535Y-27462920D01*
X41255525Y-27470483D01*
X41270696Y-27479576D01*
X41284903Y-27490113D01*
X41298009Y-27501991D01*
X41309887Y-27515097D01*
X41320424Y-27529304D01*
X41329517Y-27544475D01*
X41337080Y-27560465D01*
X41343039Y-27577119D01*
X41347337Y-27594277D01*
X41349932Y-27611773D01*
X41350800Y-27629440D01*
X41350800Y-28870560D01*
X41349932Y-28888227D01*
X41347337Y-28905723D01*
X41343039Y-28922881D01*
X41337080Y-28939535D01*
X41329517Y-28955525D01*
X41320424Y-28970696D01*
X41309887Y-28984903D01*
X41298009Y-28998009D01*
X41284903Y-29009887D01*
X41270696Y-29020424D01*
X41255525Y-29029517D01*
X41239535Y-29037080D01*
X41222881Y-29043039D01*
X41205723Y-29047337D01*
X41188227Y-29049932D01*
X41170560Y-29050800D01*
X40329440Y-29050800D01*
X40311773Y-29049932D01*
X40294277Y-29047337D01*
X40277119Y-29043039D01*
X40260465Y-29037080D01*
X40244475Y-29029517D01*
X40229304Y-29020424D01*
X40215097Y-29009887D01*
X40201991Y-28998009D01*
X40190113Y-28984903D01*
X40179576Y-28970696D01*
X40170483Y-28955525D01*
X40162920Y-28939535D01*
X40156961Y-28922881D01*
X40152663Y-28905723D01*
X40150068Y-28888227D01*
X40149200Y-28870560D01*
X40149200Y-27629440D01*
X40150068Y-27611773D01*
X40152663Y-27594277D01*
X40156961Y-27577119D01*
X40162920Y-27560465D01*
X40170483Y-27544475D01*
X40179576Y-27529304D01*
X40190113Y-27515097D01*
X40201991Y-27501991D01*
X40215097Y-27490113D01*
X40229304Y-27479576D01*
X40244475Y-27470483D01*
X40260465Y-27462920D01*
X40277119Y-27456961D01*
X40294277Y-27452663D01*
X40311773Y-27450068D01*
X40329440Y-27449200D01*
X41170560Y-27449200D01*
X41188227Y-27450068D01*
X41188227Y-27450068D01*
G37*
D18*
X40750000Y-28250000D03*
D19*
X41300000Y-28250000D03*
D20*
X40450000Y-28750000D03*
X40450000Y-27750000D03*
D14*
X24470000Y-28200000D03*
X24470000Y-25400000D03*
X27270000Y-28200000D03*
D15*
X25120000Y-28350000D03*
X25120000Y-25250000D03*
X25620000Y-28350000D03*
X25620000Y-25250000D03*
X26120000Y-28350000D03*
X26120000Y-25250000D03*
X26620000Y-28350000D03*
D16*
X24320000Y-27550000D03*
X24320000Y-27050000D03*
X24320000Y-26550000D03*
X24320000Y-26050000D03*
X27420000Y-27550000D03*
X27420000Y-27050000D03*
X27420000Y-26550000D03*
X27420000Y-26050000D03*
D17*
X25870000Y-26800000D03*
D15*
X26620000Y-25250000D03*
D14*
X27270000Y-25400000D03*
D13*
X25290000Y-23250000D03*
X26390000Y-23250000D03*
D25*
X25410000Y-24040000D03*
X26310000Y-24040000D03*
D26*
X31000000Y-29500000D03*
X29000000Y-29500000D03*
X29000000Y-25000000D03*
X31000000Y-25000000D03*
X29000000Y-37000000D03*
X31000000Y-37000000D03*
X31000000Y-31000000D03*
X29000000Y-31000000D03*
X29000000Y-28000000D03*
X31000000Y-28000000D03*
X29000000Y-35500000D03*
X31000000Y-35500000D03*
X31000000Y-23500000D03*
X29000000Y-23500000D03*
X31000000Y-32500000D03*
X29000000Y-32500000D03*
X31000000Y-34000000D03*
X29000000Y-34000000D03*
X29000000Y-26500000D03*
X31000000Y-26500000D03*
X29000000Y-38500000D03*
X31000000Y-38500000D03*
D13*
X36440000Y-28825000D03*
X35340000Y-28825000D03*
D21*
X36670000Y-24450000D03*
X36670000Y-25550000D03*
X35880000Y-20925000D03*
X35880000Y-22025000D03*
D13*
X34710000Y-36750000D03*
X33610000Y-36750000D03*
D21*
X35970000Y-35640000D03*
X35970000Y-36740000D03*
D13*
X23560000Y-31175000D03*
X24660000Y-31175000D03*
D21*
X23330000Y-35550000D03*
X23330000Y-34450000D03*
X24120000Y-39075000D03*
X24120000Y-37975000D03*
D24*
X38000000Y-22000000D03*
X38000000Y-38000000D03*
X22000000Y-38000000D03*
D22*
X38760000Y-32070000D03*
X38760000Y-31100000D03*
D23*
X37845000Y-32235000D03*
X37845000Y-31585000D03*
X37845000Y-30935000D03*
X39675000Y-32235000D03*
X39675000Y-31585000D03*
X39675000Y-30935000D03*
D22*
X38810000Y-35500000D03*
X38810000Y-34530000D03*
D23*
X37895000Y-35665000D03*
X37895000Y-35015000D03*
X37895000Y-34365000D03*
X39725000Y-35665000D03*
X39725000Y-35015000D03*
X39725000Y-34365000D03*
X35210000Y-37740000D03*
X35210000Y-38390000D03*
X35210000Y-39040000D03*
X33380000Y-37740000D03*
X33380000Y-38390000D03*
X33380000Y-39040000D03*
D22*
X34295000Y-37905000D03*
X34295000Y-38875000D03*
D25*
X35240000Y-28190000D03*
X34340000Y-28190000D03*
X35240000Y-26580000D03*
X34340000Y-26580000D03*
X35240000Y-24970000D03*
X34340000Y-24970000D03*
X33739336Y-27383864D03*
X32839336Y-27383864D03*
X32839336Y-25773864D03*
X33739336Y-25773864D03*
X32839336Y-24163864D03*
X33739336Y-24163864D03*
X32840000Y-28250000D03*
X33740000Y-28250000D03*
X33740000Y-26580000D03*
X32840000Y-26580000D03*
X33740000Y-24970000D03*
X32840000Y-24970000D03*
X34590000Y-35960000D03*
X33690000Y-35960000D03*
X24760000Y-31810000D03*
X25660000Y-31810000D03*
X24760000Y-33420000D03*
X25660000Y-33420000D03*
X25660000Y-35030000D03*
X24760000Y-35030000D03*
X26260664Y-32616136D03*
X27160664Y-32616136D03*
X26260664Y-34226136D03*
X27160664Y-34226136D03*
X26260664Y-35836136D03*
X27160664Y-35836136D03*
X27160000Y-31750000D03*
X26260000Y-31750000D03*
X26260000Y-33420000D03*
X27160000Y-33420000D03*
X27160000Y-35030000D03*
X26260000Y-35030000D03*
X35239336Y-27383864D03*
X34339336Y-27383864D03*
X34339336Y-25773864D03*
X35239336Y-25773864D03*
X35239336Y-24163864D03*
X34339336Y-24163864D03*
X25660664Y-32616136D03*
X24760664Y-32616136D03*
X24760664Y-34226136D03*
X25660664Y-34226136D03*
X25660664Y-35836136D03*
X24760664Y-35836136D03*
D27*
X38415000Y-28415000D03*
D28*
X39165000Y-27465000D03*
X39165000Y-29365000D03*
X38665000Y-27465000D03*
X38665000Y-29365000D03*
X38165000Y-27465000D03*
X38165000Y-29365000D03*
X37665000Y-27465000D03*
X37665000Y-29365000D03*
D27*
X38465000Y-24985000D03*
D28*
X39215000Y-24035000D03*
X39215000Y-25935000D03*
X38715000Y-24035000D03*
X38715000Y-25935000D03*
X38215000Y-24035000D03*
X38215000Y-25935000D03*
X37715000Y-24035000D03*
X37715000Y-25935000D03*
X33200000Y-22560000D03*
X33200000Y-20660000D03*
X33700000Y-22560000D03*
X33700000Y-20660000D03*
X34200000Y-22560000D03*
X34200000Y-20660000D03*
X34700000Y-22560000D03*
X34700000Y-20660000D03*
D27*
X33950000Y-21610000D03*
X21585000Y-31585000D03*
D28*
X20835000Y-32535000D03*
X20835000Y-30635000D03*
X21335000Y-32535000D03*
X21335000Y-30635000D03*
X21835000Y-32535000D03*
X21835000Y-30635000D03*
X22335000Y-32535000D03*
X22335000Y-30635000D03*
D27*
X21535000Y-35015000D03*
D28*
X20785000Y-35965000D03*
X20785000Y-34065000D03*
X21285000Y-35965000D03*
X21285000Y-34065000D03*
X21785000Y-35965000D03*
X21785000Y-34065000D03*
X22285000Y-35965000D03*
X22285000Y-34065000D03*
D27*
X26050000Y-38390000D03*
D28*
X25300000Y-39340000D03*
X25300000Y-37440000D03*
X25800000Y-39340000D03*
X25800000Y-37440000D03*
X26300000Y-39340000D03*
X26300000Y-37440000D03*
X26800000Y-39340000D03*
X26800000Y-37440000D03*
M02*
