G04 #@! TF.GenerationSoftware,KiCad,Pcbnew,(2018-02-05 revision d1a45d147)-makepkg*
G04 #@! TF.CreationDate,2019-01-14T08:16:45-05:00*
G04 #@! TF.ProjectId,6s4in1,367334696E312E6B696361645F706362,rev?*
G04 #@! TF.SameCoordinates,Original*
G04 #@! TF.FileFunction,Copper,L3,Inr,Plane*
G04 #@! TF.FilePolarity,Positive*
%FSLAX46Y46*%
G04 Gerber Fmt 4.6, Leading zero omitted, Abs format (unit mm)*
G04 Created by KiCad (PCBNEW (2018-02-05 revision d1a45d147)-makepkg) date 01/14/19 08:16:45*
%MOMM*%
%LPD*%
G01*
G04 APERTURE LIST*
%ADD10C,0.508000*%
%ADD11C,1.750000*%
%ADD12C,1.500000*%
%ADD13C,0.500000*%
%ADD14C,0.457200*%
%ADD15C,0.127000*%
G04 APERTURE END LIST*
D10*
X29470000Y-21000000D03*
X28920000Y-21000000D03*
X28370000Y-21000000D03*
X28920000Y-21550000D03*
X28370000Y-20450000D03*
X29470000Y-20450000D03*
X28370000Y-21550000D03*
X29470000Y-21550000D03*
D11*
X28920000Y-19800000D03*
D10*
X31630000Y-21000000D03*
X31080000Y-21000000D03*
X30530000Y-21000000D03*
X31080000Y-21550000D03*
X30530000Y-20450000D03*
X31630000Y-20450000D03*
X30530000Y-21550000D03*
X31630000Y-21550000D03*
D11*
X31080000Y-19800000D03*
D12*
X18700000Y-37750000D03*
D13*
X19550000Y-37250000D03*
X19550000Y-38250000D03*
D12*
X41300000Y-37750000D03*
D13*
X40450000Y-37250000D03*
X40450000Y-38250000D03*
D12*
X18700000Y-34750000D03*
D13*
X19550000Y-34250000D03*
X19550000Y-35250000D03*
D12*
X18700000Y-22250000D03*
D13*
X19550000Y-22750000D03*
X19550000Y-21750000D03*
D12*
X18700000Y-31750000D03*
D13*
X19550000Y-31250000D03*
X19550000Y-32250000D03*
D12*
X41300000Y-34750000D03*
D13*
X40450000Y-34250000D03*
X40450000Y-35250000D03*
D12*
X41300000Y-31750000D03*
D13*
X40450000Y-31250000D03*
X40450000Y-32250000D03*
D12*
X18700000Y-25250000D03*
D13*
X19550000Y-25750000D03*
X19550000Y-24750000D03*
D12*
X18700000Y-28250000D03*
D13*
X19550000Y-28750000D03*
X19550000Y-27750000D03*
D12*
X41300000Y-22250000D03*
D13*
X40450000Y-22750000D03*
X40450000Y-21750000D03*
D12*
X41300000Y-25250000D03*
D13*
X40450000Y-25750000D03*
X40450000Y-24750000D03*
D12*
X41300000Y-28250000D03*
D13*
X40450000Y-28750000D03*
X40450000Y-27750000D03*
D14*
X23050001Y-29579999D03*
X23465810Y-30359079D03*
X22880000Y-30600000D03*
X23415259Y-29437241D03*
X35944185Y-23385664D03*
X27610000Y-22970000D03*
X24153742Y-23236724D03*
X22994531Y-29311613D03*
X27540000Y-37250000D03*
X27890000Y-37360000D03*
X32619998Y-37290000D03*
X35888750Y-36693773D03*
X38018915Y-33507674D03*
X38018914Y-33507673D03*
X37095169Y-30907242D03*
X36560000Y-29660000D03*
X36190000Y-29830000D03*
X35800000Y-29830000D03*
X36907347Y-30611225D03*
X37184388Y-30470000D03*
X32490000Y-22810000D03*
X32220000Y-22990000D03*
X32600000Y-23131253D03*
X23182857Y-30577855D03*
X29409728Y-29940907D03*
X29730000Y-27670000D03*
X29713863Y-28176464D03*
X29000000Y-23500000D03*
X29314343Y-24685657D03*
X28414684Y-31304357D03*
X29000000Y-34000000D03*
X28794398Y-35500000D03*
X29000000Y-37000000D03*
X29000000Y-38329400D03*
X32720000Y-36970000D03*
X24160583Y-36714056D03*
X29170000Y-30260000D03*
X30144398Y-35940000D03*
X32305599Y-23741064D03*
X29855602Y-34880000D03*
X29870000Y-26940000D03*
X28144388Y-36600000D03*
X36680000Y-22920000D03*
X33637929Y-39590177D03*
X31700000Y-22340000D03*
X33980000Y-30290000D03*
X25641223Y-29930567D03*
X30110000Y-26320000D03*
X23373709Y-22764013D03*
X26553639Y-20373140D03*
X24725602Y-20369400D03*
X33470000Y-20429398D03*
X35369790Y-20369400D03*
X36680000Y-37100000D03*
X35178366Y-39629812D03*
X23381811Y-37130380D03*
X28140000Y-38830000D03*
X26450000Y-39570602D03*
X24821634Y-39629812D03*
X28560000Y-22519398D03*
X31950000Y-36003781D03*
X31948173Y-36996591D03*
X31000000Y-23500000D03*
X30580000Y-23150000D03*
X30700000Y-24130000D03*
X27280620Y-39390000D03*
X27640000Y-39410000D03*
X31303135Y-24063855D03*
X27528089Y-39142975D03*
X37184388Y-32470000D03*
X36610000Y-32360000D03*
X36871817Y-32618174D03*
X27980000Y-29480000D03*
X27990000Y-29000000D03*
X30820157Y-29679843D03*
X30952881Y-25000000D03*
X31205602Y-31000000D03*
X30517198Y-34096870D03*
X31259892Y-35993345D03*
X30877399Y-37252601D03*
X30880155Y-38329400D03*
X22900000Y-23730000D03*
X22765612Y-23983826D03*
X37190000Y-23650000D03*
X37234398Y-23983826D03*
X32650000Y-20790000D03*
X32290000Y-20940000D03*
X32300000Y-20600000D03*
X22904538Y-36344852D03*
X37130000Y-36290000D03*
X37234398Y-36016172D03*
X32470000Y-39090000D03*
X32550000Y-39430000D03*
X32179741Y-39478708D03*
X22814213Y-36086255D03*
X27000000Y-29250000D03*
X24680000Y-22570000D03*
X25111309Y-29684611D03*
X21335000Y-29365000D03*
X35410000Y-22620000D03*
X34420000Y-29532611D03*
X38636230Y-29696148D03*
X33000000Y-30750000D03*
X35397701Y-37405744D03*
X34557392Y-30467389D03*
X24783811Y-37303811D03*
X25371056Y-30458626D03*
X21335000Y-30635000D03*
X27200760Y-24155142D03*
X31940000Y-29430000D03*
X32720000Y-24210000D03*
X32880389Y-35870000D03*
X27925601Y-31729407D03*
X27250098Y-22026556D03*
X24823985Y-21643985D03*
X20275000Y-24985000D03*
X22700000Y-25600000D03*
X22740602Y-28604398D03*
X20325000Y-28415000D03*
X32688029Y-21880600D03*
X35176698Y-21643302D03*
X39725000Y-24985000D03*
X37304398Y-25710000D03*
X37250000Y-28604398D03*
X39675000Y-28415000D03*
X35175887Y-38355887D03*
X32641935Y-37943403D03*
X37309398Y-35105399D03*
X39725000Y-35015000D03*
X39675000Y-31585000D03*
X37183146Y-31631789D03*
X24826349Y-38353651D03*
X27205612Y-38190610D03*
X22690602Y-35105399D03*
X20275000Y-35015000D03*
X20325000Y-31585000D03*
X22740602Y-31441790D03*
X27579058Y-24744502D03*
X27931030Y-27649699D03*
X27155005Y-28268125D03*
X32420948Y-24744504D03*
X31970000Y-28410000D03*
X21283702Y-23748719D03*
X38700000Y-23759344D03*
X35918597Y-33955612D03*
X38694607Y-36241720D03*
X21283702Y-36251281D03*
X20290000Y-32876400D03*
X23963305Y-34010625D03*
X27579062Y-35255488D03*
X27604629Y-35839129D03*
X20078750Y-34088750D03*
X20267208Y-36319335D03*
X20170000Y-36730000D03*
X20424102Y-36572309D03*
X23230000Y-32210000D03*
X22920000Y-32290000D03*
X23160000Y-32490000D03*
X23814376Y-31944388D03*
X26284700Y-36644700D03*
X24770632Y-35836136D03*
X21813609Y-33734588D03*
X22106926Y-33463381D03*
X22400000Y-33459386D03*
X27241808Y-37028490D03*
X27987479Y-27064354D03*
X27162681Y-31733898D03*
X28090000Y-32290000D03*
X39710000Y-27123600D03*
X36036695Y-25989375D03*
X39921250Y-25911250D03*
X39732792Y-23680665D03*
X39830000Y-23270000D03*
X39575898Y-23427691D03*
X36770000Y-27790000D03*
X37080000Y-27710000D03*
X36840000Y-27510000D03*
X36185624Y-28055612D03*
X33715300Y-23355300D03*
X35229368Y-24163864D03*
X38186391Y-26265412D03*
X37893074Y-26536619D03*
X37600000Y-26540614D03*
X32837319Y-28266102D03*
X20290000Y-27123600D03*
X23963305Y-25989375D03*
X20078750Y-25911250D03*
X20267208Y-23680665D03*
X20170000Y-23270000D03*
X20424102Y-23427691D03*
X27280602Y-20825000D03*
X27502020Y-21047980D03*
X27578044Y-20699307D03*
X23230000Y-27790000D03*
X22920000Y-27710000D03*
X23160000Y-27510000D03*
X23814376Y-28055612D03*
X26284700Y-23355300D03*
X24770632Y-24163864D03*
X21813609Y-26265412D03*
X22106926Y-26536619D03*
X22400000Y-26540614D03*
X27650000Y-22570000D03*
X27241808Y-22971510D03*
X31910000Y-32290000D03*
X32837319Y-31733898D03*
X31900297Y-33003929D03*
X32350000Y-37430000D03*
X38186391Y-33734588D03*
X35229368Y-35836136D03*
X33715300Y-36644700D03*
X36185624Y-31944388D03*
X39575898Y-36572309D03*
X39830000Y-36730000D03*
X39732792Y-36319335D03*
X39921250Y-34088750D03*
X38665000Y-30635000D03*
X32420938Y-35255488D03*
X39710000Y-32876400D03*
D15*
G36*
X24306502Y-20286036D02*
X24306502Y-20452764D01*
X24370306Y-20606801D01*
X24488201Y-20724696D01*
X24642238Y-20788500D01*
X24808966Y-20788500D01*
X24963003Y-20724696D01*
X25080898Y-20606801D01*
X25144702Y-20452764D01*
X25144702Y-20286036D01*
X25125840Y-20240500D01*
X26154950Y-20240500D01*
X26134539Y-20289776D01*
X26134539Y-20456504D01*
X26198343Y-20610541D01*
X26316238Y-20728436D01*
X26470275Y-20792240D01*
X26637003Y-20792240D01*
X26759172Y-20741636D01*
X26861502Y-20741636D01*
X26861502Y-20908364D01*
X26925306Y-21062401D01*
X27043201Y-21180296D01*
X27115622Y-21210294D01*
X27146724Y-21285381D01*
X27264619Y-21403276D01*
X27418656Y-21467080D01*
X27585384Y-21467080D01*
X27739421Y-21403276D01*
X27857316Y-21285381D01*
X27921120Y-21131344D01*
X27921120Y-20964616D01*
X27916525Y-20953523D01*
X27933340Y-20936708D01*
X27997144Y-20782671D01*
X27997144Y-20615943D01*
X27933340Y-20461906D01*
X27815445Y-20344011D01*
X27661408Y-20280207D01*
X27494680Y-20280207D01*
X27340643Y-20344011D01*
X27278754Y-20405900D01*
X27197238Y-20405900D01*
X27043201Y-20469704D01*
X26925306Y-20587599D01*
X26861502Y-20741636D01*
X26759172Y-20741636D01*
X26791040Y-20728436D01*
X26908935Y-20610541D01*
X26972739Y-20456504D01*
X26972739Y-20289776D01*
X26952328Y-20240500D01*
X30109172Y-20240500D01*
X30122413Y-20272467D01*
X30085500Y-20361584D01*
X30085500Y-20538416D01*
X30153171Y-20701789D01*
X30176382Y-20725000D01*
X30153171Y-20748211D01*
X30085500Y-20911584D01*
X30085500Y-21088416D01*
X30153171Y-21251789D01*
X30176382Y-21275000D01*
X30153171Y-21298211D01*
X30085500Y-21461584D01*
X30085500Y-21638416D01*
X30153171Y-21801789D01*
X30278211Y-21926829D01*
X30441584Y-21994500D01*
X30618416Y-21994500D01*
X30781789Y-21926829D01*
X30805000Y-21903618D01*
X30828211Y-21926829D01*
X30991584Y-21994500D01*
X31168416Y-21994500D01*
X31331789Y-21926829D01*
X31355000Y-21903618D01*
X31378211Y-21926829D01*
X31490267Y-21973244D01*
X31462599Y-21984704D01*
X31344704Y-22102599D01*
X31280900Y-22256636D01*
X31280900Y-22423364D01*
X31344704Y-22577401D01*
X31462599Y-22695296D01*
X31616636Y-22759100D01*
X31783364Y-22759100D01*
X31937401Y-22695296D01*
X32055296Y-22577401D01*
X32072181Y-22536636D01*
X34990900Y-22536636D01*
X34990900Y-22703364D01*
X35054704Y-22857401D01*
X35172599Y-22975296D01*
X35326636Y-23039100D01*
X35493364Y-23039100D01*
X35647401Y-22975296D01*
X35765296Y-22857401D01*
X35773897Y-22836636D01*
X36260900Y-22836636D01*
X36260900Y-23003364D01*
X36324704Y-23157401D01*
X36442599Y-23275296D01*
X36596636Y-23339100D01*
X36763364Y-23339100D01*
X36917401Y-23275296D01*
X37035296Y-23157401D01*
X37099100Y-23003364D01*
X37099100Y-22841646D01*
X37122834Y-22877166D01*
X37525281Y-23146073D01*
X38000000Y-23240500D01*
X38474719Y-23146073D01*
X38877166Y-22877166D01*
X39146073Y-22474719D01*
X39240500Y-22000000D01*
X39146073Y-21525281D01*
X38877166Y-21122834D01*
X38474719Y-20853927D01*
X38000000Y-20759500D01*
X37525281Y-20853927D01*
X37122834Y-21122834D01*
X36853927Y-21525281D01*
X36759500Y-22000000D01*
X36853927Y-22474719D01*
X36912772Y-22562787D01*
X36763364Y-22500900D01*
X36596636Y-22500900D01*
X36442599Y-22564704D01*
X36324704Y-22682599D01*
X36260900Y-22836636D01*
X35773897Y-22836636D01*
X35829100Y-22703364D01*
X35829100Y-22536636D01*
X35765296Y-22382599D01*
X35647401Y-22264704D01*
X35493364Y-22200900D01*
X35326636Y-22200900D01*
X35172599Y-22264704D01*
X35054704Y-22382599D01*
X34990900Y-22536636D01*
X32072181Y-22536636D01*
X32119100Y-22423364D01*
X32119100Y-22256636D01*
X32055296Y-22102599D01*
X31937401Y-21984704D01*
X31839733Y-21944249D01*
X31881789Y-21926829D01*
X32006829Y-21801789D01*
X32008714Y-21797236D01*
X32268929Y-21797236D01*
X32268929Y-21963964D01*
X32332733Y-22118001D01*
X32450628Y-22235896D01*
X32604665Y-22299700D01*
X32771393Y-22299700D01*
X32925430Y-22235896D01*
X33043325Y-22118001D01*
X33107129Y-21963964D01*
X33107129Y-21797236D01*
X33043325Y-21643199D01*
X32960064Y-21559938D01*
X34757598Y-21559938D01*
X34757598Y-21726666D01*
X34821402Y-21880703D01*
X34939297Y-21998598D01*
X35093334Y-22062402D01*
X35260062Y-22062402D01*
X35414099Y-21998598D01*
X35531994Y-21880703D01*
X35595798Y-21726666D01*
X35595798Y-21559938D01*
X35531994Y-21405901D01*
X35414099Y-21288006D01*
X35260062Y-21224202D01*
X35093334Y-21224202D01*
X34939297Y-21288006D01*
X34821402Y-21405901D01*
X34757598Y-21559938D01*
X32960064Y-21559938D01*
X32925430Y-21525304D01*
X32771393Y-21461500D01*
X32604665Y-21461500D01*
X32450628Y-21525304D01*
X32332733Y-21643199D01*
X32268929Y-21797236D01*
X32008714Y-21797236D01*
X32074500Y-21638416D01*
X32074500Y-21461584D01*
X32006829Y-21298211D01*
X31983618Y-21275000D01*
X32006829Y-21251789D01*
X32007492Y-21250189D01*
X32052599Y-21295296D01*
X32206636Y-21359100D01*
X32373364Y-21359100D01*
X32527401Y-21295296D01*
X32613597Y-21209100D01*
X32733364Y-21209100D01*
X32887401Y-21145296D01*
X33005296Y-21027401D01*
X33069100Y-20873364D01*
X33069100Y-20706636D01*
X33005296Y-20552599D01*
X32887401Y-20434704D01*
X32733364Y-20370900D01*
X32658734Y-20370900D01*
X32655296Y-20362599D01*
X32537401Y-20244704D01*
X32527252Y-20240500D01*
X33094613Y-20240500D01*
X33050900Y-20346034D01*
X33050900Y-20512762D01*
X33114704Y-20666799D01*
X33232599Y-20784694D01*
X33386636Y-20848498D01*
X33553364Y-20848498D01*
X33707401Y-20784694D01*
X33825296Y-20666799D01*
X33889100Y-20512762D01*
X33889100Y-20346034D01*
X33845387Y-20240500D01*
X34969552Y-20240500D01*
X34950690Y-20286036D01*
X34950690Y-20452764D01*
X35014494Y-20606801D01*
X35132389Y-20724696D01*
X35286426Y-20788500D01*
X35453154Y-20788500D01*
X35607191Y-20724696D01*
X35725086Y-20606801D01*
X35788890Y-20452764D01*
X35788890Y-20286036D01*
X35770028Y-20240500D01*
X38976312Y-20240500D01*
X39288845Y-20302666D01*
X39533716Y-20466284D01*
X39697334Y-20711155D01*
X39764121Y-21046919D01*
X39790763Y-21180858D01*
X39826673Y-21267553D01*
X39826674Y-21267554D01*
X39902543Y-21381100D01*
X39936500Y-21415057D01*
X39936500Y-22860483D01*
X39913364Y-22850900D01*
X39746636Y-22850900D01*
X39592599Y-22914704D01*
X39498712Y-23008591D01*
X39492534Y-23008591D01*
X39338497Y-23072395D01*
X39220602Y-23190290D01*
X39156798Y-23344327D01*
X39156798Y-23511055D01*
X39220602Y-23665092D01*
X39313692Y-23758182D01*
X39313692Y-23764029D01*
X39377496Y-23918066D01*
X39495391Y-24035961D01*
X39649428Y-24099765D01*
X39816156Y-24099765D01*
X39836618Y-24091290D01*
X39845703Y-24113224D01*
X39845704Y-24113225D01*
X39936500Y-24249110D01*
X39936500Y-24618975D01*
X39808364Y-24565900D01*
X39641636Y-24565900D01*
X39487599Y-24629704D01*
X39369704Y-24747599D01*
X39305900Y-24901636D01*
X39305900Y-25068364D01*
X39369704Y-25222401D01*
X39487599Y-25340296D01*
X39641636Y-25404100D01*
X39808364Y-25404100D01*
X39936500Y-25351025D01*
X39936500Y-25492150D01*
X39837886Y-25492150D01*
X39683849Y-25555954D01*
X39565954Y-25673849D01*
X39502150Y-25827886D01*
X39502150Y-25994614D01*
X39565954Y-26148651D01*
X39683849Y-26266546D01*
X39837886Y-26330350D01*
X39883406Y-26330350D01*
X39845704Y-26386775D01*
X39845703Y-26386776D01*
X39838832Y-26403364D01*
X39815642Y-26459351D01*
X39809793Y-26473471D01*
X39764121Y-26703081D01*
X39764121Y-26704500D01*
X39626636Y-26704500D01*
X39472599Y-26768304D01*
X39354704Y-26886199D01*
X39290900Y-27040236D01*
X39290900Y-27206964D01*
X39354704Y-27361001D01*
X39472599Y-27478896D01*
X39626636Y-27542700D01*
X39793364Y-27542700D01*
X39936500Y-27483411D01*
X39936500Y-28083803D01*
X39912401Y-28059704D01*
X39758364Y-27995900D01*
X39591636Y-27995900D01*
X39437599Y-28059704D01*
X39319704Y-28177599D01*
X39255900Y-28331636D01*
X39255900Y-28498364D01*
X39319704Y-28652401D01*
X39437599Y-28770296D01*
X39591636Y-28834100D01*
X39758364Y-28834100D01*
X39912401Y-28770296D01*
X39936500Y-28746197D01*
X39936500Y-29250890D01*
X39845704Y-29386775D01*
X39845703Y-29386776D01*
X39841619Y-29396636D01*
X39815642Y-29459351D01*
X39809793Y-29473471D01*
X39764121Y-29703081D01*
X39764121Y-29703091D01*
X39759501Y-29726317D01*
X39759500Y-30273682D01*
X39764121Y-30296913D01*
X39764121Y-30296919D01*
X39809793Y-30526529D01*
X39809793Y-30526530D01*
X39824668Y-30562440D01*
X39845703Y-30613224D01*
X39845704Y-30613225D01*
X39936500Y-30749110D01*
X39936500Y-31253803D01*
X39912401Y-31229704D01*
X39758364Y-31165900D01*
X39591636Y-31165900D01*
X39437599Y-31229704D01*
X39319704Y-31347599D01*
X39255900Y-31501636D01*
X39255900Y-31668364D01*
X39319704Y-31822401D01*
X39437599Y-31940296D01*
X39591636Y-32004100D01*
X39758364Y-32004100D01*
X39912401Y-31940296D01*
X39936500Y-31916197D01*
X39936500Y-32516589D01*
X39793364Y-32457300D01*
X39626636Y-32457300D01*
X39472599Y-32521104D01*
X39354704Y-32638999D01*
X39290900Y-32793036D01*
X39290900Y-32959764D01*
X39354704Y-33113801D01*
X39472599Y-33231696D01*
X39626636Y-33295500D01*
X39764121Y-33295500D01*
X39764121Y-33296919D01*
X39809793Y-33526529D01*
X39809793Y-33526530D01*
X39824668Y-33562440D01*
X39845703Y-33613224D01*
X39845704Y-33613225D01*
X39883406Y-33669650D01*
X39837886Y-33669650D01*
X39683849Y-33733454D01*
X39565954Y-33851349D01*
X39502150Y-34005386D01*
X39502150Y-34172114D01*
X39565954Y-34326151D01*
X39683849Y-34444046D01*
X39837886Y-34507850D01*
X39936500Y-34507850D01*
X39936500Y-34648975D01*
X39808364Y-34595900D01*
X39641636Y-34595900D01*
X39487599Y-34659704D01*
X39369704Y-34777599D01*
X39305900Y-34931636D01*
X39305900Y-35098364D01*
X39369704Y-35252401D01*
X39487599Y-35370296D01*
X39641636Y-35434100D01*
X39808364Y-35434100D01*
X39936500Y-35381025D01*
X39936500Y-35750890D01*
X39845704Y-35886775D01*
X39845703Y-35886776D01*
X39836618Y-35908710D01*
X39816156Y-35900235D01*
X39649428Y-35900235D01*
X39495391Y-35964039D01*
X39377496Y-36081934D01*
X39313692Y-36235971D01*
X39313692Y-36241818D01*
X39220602Y-36334908D01*
X39156798Y-36488945D01*
X39156798Y-36655673D01*
X39220602Y-36809710D01*
X39338497Y-36927605D01*
X39492534Y-36991409D01*
X39498712Y-36991409D01*
X39592599Y-37085296D01*
X39746636Y-37149100D01*
X39913364Y-37149100D01*
X39936500Y-37139517D01*
X39936500Y-38584943D01*
X39902545Y-38618898D01*
X39826675Y-38732445D01*
X39826673Y-38732447D01*
X39790763Y-38819142D01*
X39764121Y-38953081D01*
X39697334Y-39288845D01*
X39533716Y-39533716D01*
X39288845Y-39697334D01*
X38976312Y-39759500D01*
X35578278Y-39759500D01*
X35597466Y-39713176D01*
X35597466Y-39546448D01*
X35533662Y-39392411D01*
X35415767Y-39274516D01*
X35261730Y-39210712D01*
X35095002Y-39210712D01*
X34940965Y-39274516D01*
X34823070Y-39392411D01*
X34759266Y-39546448D01*
X34759266Y-39713176D01*
X34778454Y-39759500D01*
X34021424Y-39759500D01*
X34057029Y-39673541D01*
X34057029Y-39506813D01*
X33993225Y-39352776D01*
X33875330Y-39234881D01*
X33721293Y-39171077D01*
X33554565Y-39171077D01*
X33400528Y-39234881D01*
X33282633Y-39352776D01*
X33218829Y-39506813D01*
X33218829Y-39673541D01*
X33254434Y-39759500D01*
X32813197Y-39759500D01*
X32905296Y-39667401D01*
X32969100Y-39513364D01*
X32969100Y-39346636D01*
X32905296Y-39192599D01*
X32888210Y-39175513D01*
X32889100Y-39173364D01*
X32889100Y-39006636D01*
X32825296Y-38852599D01*
X32707401Y-38734704D01*
X32553364Y-38670900D01*
X32386636Y-38670900D01*
X32232599Y-38734704D01*
X32114704Y-38852599D01*
X32050900Y-39006636D01*
X32050900Y-39078445D01*
X31942340Y-39123412D01*
X31824445Y-39241307D01*
X31760641Y-39395344D01*
X31760641Y-39562072D01*
X31824445Y-39716109D01*
X31867836Y-39759500D01*
X27883197Y-39759500D01*
X27995296Y-39647401D01*
X28059100Y-39493364D01*
X28059100Y-39326636D01*
X28020842Y-39234274D01*
X28056636Y-39249100D01*
X28223364Y-39249100D01*
X28377401Y-39185296D01*
X28495296Y-39067401D01*
X28559100Y-38913364D01*
X28559100Y-38746636D01*
X28495296Y-38592599D01*
X28377401Y-38474704D01*
X28223364Y-38410900D01*
X28056636Y-38410900D01*
X27902599Y-38474704D01*
X27784704Y-38592599D01*
X27720900Y-38746636D01*
X27720900Y-38769209D01*
X27611453Y-38723875D01*
X27444725Y-38723875D01*
X27290688Y-38787679D01*
X27172793Y-38905574D01*
X27135064Y-38996661D01*
X27043219Y-39034704D01*
X26925324Y-39152599D01*
X26861520Y-39306636D01*
X26861520Y-39468938D01*
X26805296Y-39333201D01*
X26687401Y-39215306D01*
X26533364Y-39151502D01*
X26366636Y-39151502D01*
X26212599Y-39215306D01*
X26094704Y-39333201D01*
X26030900Y-39487238D01*
X26030900Y-39653966D01*
X26074613Y-39759500D01*
X25221546Y-39759500D01*
X25240734Y-39713176D01*
X25240734Y-39546448D01*
X25176930Y-39392411D01*
X25059035Y-39274516D01*
X24904998Y-39210712D01*
X24738270Y-39210712D01*
X24584233Y-39274516D01*
X24466338Y-39392411D01*
X24402534Y-39546448D01*
X24402534Y-39713176D01*
X24421722Y-39759500D01*
X21023688Y-39759500D01*
X20711155Y-39697334D01*
X20466284Y-39533716D01*
X20302666Y-39288845D01*
X20235879Y-38953081D01*
X20209237Y-38819142D01*
X20173327Y-38732447D01*
X20173326Y-38732446D01*
X20173326Y-38732445D01*
X20097455Y-38618898D01*
X20063500Y-38584943D01*
X20063500Y-38000000D01*
X20759500Y-38000000D01*
X20853927Y-38474719D01*
X21122834Y-38877166D01*
X21525281Y-39146073D01*
X22000000Y-39240500D01*
X22474719Y-39146073D01*
X22877166Y-38877166D01*
X23146073Y-38474719D01*
X23186736Y-38270287D01*
X24407249Y-38270287D01*
X24407249Y-38437015D01*
X24471053Y-38591052D01*
X24588948Y-38708947D01*
X24742985Y-38772751D01*
X24909713Y-38772751D01*
X25063750Y-38708947D01*
X25181645Y-38591052D01*
X25245449Y-38437015D01*
X25245449Y-38270287D01*
X25181645Y-38116250D01*
X25172641Y-38107246D01*
X26786512Y-38107246D01*
X26786512Y-38273974D01*
X26850316Y-38428011D01*
X26968211Y-38545906D01*
X27122248Y-38609710D01*
X27288976Y-38609710D01*
X27443013Y-38545906D01*
X27560908Y-38428011D01*
X27624712Y-38273974D01*
X27624712Y-38246036D01*
X30461055Y-38246036D01*
X30461055Y-38412764D01*
X30524859Y-38566801D01*
X30642754Y-38684696D01*
X30796791Y-38748500D01*
X30963519Y-38748500D01*
X31117556Y-38684696D01*
X31235451Y-38566801D01*
X31299255Y-38412764D01*
X31299255Y-38246036D01*
X31235451Y-38091999D01*
X31117556Y-37974104D01*
X30963519Y-37910300D01*
X30796791Y-37910300D01*
X30642754Y-37974104D01*
X30524859Y-38091999D01*
X30461055Y-38246036D01*
X27624712Y-38246036D01*
X27624712Y-38107246D01*
X27560908Y-37953209D01*
X27467738Y-37860039D01*
X32222835Y-37860039D01*
X32222835Y-38026767D01*
X32286639Y-38180804D01*
X32404534Y-38298699D01*
X32558571Y-38362503D01*
X32725299Y-38362503D01*
X32879336Y-38298699D01*
X32905512Y-38272523D01*
X34756787Y-38272523D01*
X34756787Y-38439251D01*
X34820591Y-38593288D01*
X34938486Y-38711183D01*
X35092523Y-38774987D01*
X35259251Y-38774987D01*
X35413288Y-38711183D01*
X35531183Y-38593288D01*
X35594987Y-38439251D01*
X35594987Y-38272523D01*
X35531183Y-38118486D01*
X35413288Y-38000591D01*
X35259251Y-37936787D01*
X35092523Y-37936787D01*
X34938486Y-38000591D01*
X34820591Y-38118486D01*
X34756787Y-38272523D01*
X32905512Y-38272523D01*
X32997231Y-38180804D01*
X33061035Y-38026767D01*
X33061035Y-37860039D01*
X32997231Y-37706002D01*
X32879336Y-37588107D01*
X32725299Y-37524303D01*
X32558571Y-37524303D01*
X32404534Y-37588107D01*
X32286639Y-37706002D01*
X32222835Y-37860039D01*
X27467738Y-37860039D01*
X27443013Y-37835314D01*
X27288976Y-37771510D01*
X27122248Y-37771510D01*
X26968211Y-37835314D01*
X26850316Y-37953209D01*
X26786512Y-38107246D01*
X25172641Y-38107246D01*
X25063750Y-37998355D01*
X24909713Y-37934551D01*
X24742985Y-37934551D01*
X24588948Y-37998355D01*
X24471053Y-38116250D01*
X24407249Y-38270287D01*
X23186736Y-38270287D01*
X23240500Y-38000000D01*
X23146073Y-37525281D01*
X23069670Y-37410936D01*
X23144410Y-37485676D01*
X23298447Y-37549480D01*
X23465175Y-37549480D01*
X23619212Y-37485676D01*
X23737107Y-37367781D01*
X23798134Y-37220447D01*
X24364711Y-37220447D01*
X24364711Y-37387175D01*
X24428515Y-37541212D01*
X24546410Y-37659107D01*
X24700447Y-37722911D01*
X24867175Y-37722911D01*
X25021212Y-37659107D01*
X25139107Y-37541212D01*
X25202911Y-37387175D01*
X25202911Y-37220447D01*
X25181700Y-37169237D01*
X30458299Y-37169237D01*
X30458299Y-37335965D01*
X30522103Y-37490002D01*
X30639998Y-37607897D01*
X30794035Y-37671701D01*
X30960763Y-37671701D01*
X31114800Y-37607897D01*
X31232695Y-37490002D01*
X31296499Y-37335965D01*
X31296499Y-37169237D01*
X31232695Y-37015200D01*
X31130722Y-36913227D01*
X31529073Y-36913227D01*
X31529073Y-37079955D01*
X31592877Y-37233992D01*
X31710772Y-37351887D01*
X31864809Y-37415691D01*
X32031537Y-37415691D01*
X32185574Y-37351887D01*
X32215081Y-37322380D01*
X34978601Y-37322380D01*
X34978601Y-37489108D01*
X35042405Y-37643145D01*
X35160300Y-37761040D01*
X35314337Y-37824844D01*
X35481065Y-37824844D01*
X35635102Y-37761040D01*
X35752997Y-37643145D01*
X35816801Y-37489108D01*
X35816801Y-37322380D01*
X35752997Y-37168343D01*
X35635102Y-37050448D01*
X35553473Y-37016636D01*
X36260900Y-37016636D01*
X36260900Y-37183364D01*
X36324704Y-37337401D01*
X36442599Y-37455296D01*
X36596636Y-37519100D01*
X36763364Y-37519100D01*
X36894294Y-37464867D01*
X36853927Y-37525281D01*
X36759500Y-38000000D01*
X36853927Y-38474719D01*
X37122834Y-38877166D01*
X37525281Y-39146073D01*
X38000000Y-39240500D01*
X38474719Y-39146073D01*
X38877166Y-38877166D01*
X39146073Y-38474719D01*
X39240500Y-38000000D01*
X39146073Y-37525281D01*
X38877166Y-37122834D01*
X38474719Y-36853927D01*
X38000000Y-36759500D01*
X37525281Y-36853927D01*
X37122834Y-37122834D01*
X37099100Y-37158354D01*
X37099100Y-37016636D01*
X37035296Y-36862599D01*
X36917401Y-36744704D01*
X36763364Y-36680900D01*
X36596636Y-36680900D01*
X36442599Y-36744704D01*
X36324704Y-36862599D01*
X36260900Y-37016636D01*
X35553473Y-37016636D01*
X35481065Y-36986644D01*
X35314337Y-36986644D01*
X35160300Y-37050448D01*
X35042405Y-37168343D01*
X34978601Y-37322380D01*
X32215081Y-37322380D01*
X32303469Y-37233992D01*
X32367273Y-37079955D01*
X32367273Y-36913227D01*
X32303469Y-36759190D01*
X32185574Y-36641295D01*
X32031537Y-36577491D01*
X31864809Y-36577491D01*
X31710772Y-36641295D01*
X31592877Y-36759190D01*
X31529073Y-36913227D01*
X31130722Y-36913227D01*
X31114800Y-36897305D01*
X30960763Y-36833501D01*
X30794035Y-36833501D01*
X30639998Y-36897305D01*
X30522103Y-37015200D01*
X30458299Y-37169237D01*
X25181700Y-37169237D01*
X25139107Y-37066410D01*
X25021212Y-36948515D01*
X24867175Y-36884711D01*
X24700447Y-36884711D01*
X24546410Y-36948515D01*
X24428515Y-37066410D01*
X24364711Y-37220447D01*
X23798134Y-37220447D01*
X23800911Y-37213744D01*
X23800911Y-37047016D01*
X23737107Y-36892979D01*
X23619212Y-36775084D01*
X23465175Y-36711280D01*
X23298447Y-36711280D01*
X23144410Y-36775084D01*
X23026515Y-36892979D01*
X22962711Y-37047016D01*
X22962711Y-37213744D01*
X23003160Y-37311397D01*
X22877166Y-37122834D01*
X22474719Y-36853927D01*
X22000000Y-36759500D01*
X21525281Y-36853927D01*
X21122834Y-37122834D01*
X20853927Y-37525281D01*
X20759500Y-38000000D01*
X20063500Y-38000000D01*
X20063500Y-37139517D01*
X20086636Y-37149100D01*
X20253364Y-37149100D01*
X20407401Y-37085296D01*
X20501288Y-36991409D01*
X20507466Y-36991409D01*
X20661503Y-36927605D01*
X20779398Y-36809710D01*
X20843202Y-36655673D01*
X20843202Y-36488945D01*
X20779398Y-36334908D01*
X20686308Y-36241818D01*
X20686308Y-36235971D01*
X20658120Y-36167917D01*
X20864602Y-36167917D01*
X20864602Y-36334645D01*
X20928406Y-36488682D01*
X21046301Y-36606577D01*
X21200338Y-36670381D01*
X21367066Y-36670381D01*
X21521103Y-36606577D01*
X21638998Y-36488682D01*
X21702802Y-36334645D01*
X21702802Y-36167917D01*
X21638998Y-36013880D01*
X21628009Y-36002891D01*
X22395113Y-36002891D01*
X22395113Y-36169619D01*
X22458917Y-36323656D01*
X22485438Y-36350177D01*
X22485438Y-36428216D01*
X22549242Y-36582253D01*
X22667137Y-36700148D01*
X22821174Y-36763952D01*
X22987902Y-36763952D01*
X23141939Y-36700148D01*
X23259834Y-36582253D01*
X23268498Y-36561336D01*
X25865600Y-36561336D01*
X25865600Y-36728064D01*
X25929404Y-36882101D01*
X26047299Y-36999996D01*
X26201336Y-37063800D01*
X26368064Y-37063800D01*
X26522101Y-36999996D01*
X26639996Y-36882101D01*
X26703800Y-36728064D01*
X26703800Y-36561336D01*
X26685285Y-36516636D01*
X27725288Y-36516636D01*
X27725288Y-36683364D01*
X27789092Y-36837401D01*
X27906987Y-36955296D01*
X28061024Y-37019100D01*
X28227752Y-37019100D01*
X28381789Y-36955296D01*
X28499684Y-36837401D01*
X28563488Y-36683364D01*
X28563488Y-36561336D01*
X33296200Y-36561336D01*
X33296200Y-36728064D01*
X33360004Y-36882101D01*
X33477899Y-36999996D01*
X33631936Y-37063800D01*
X33798664Y-37063800D01*
X33952701Y-36999996D01*
X34070596Y-36882101D01*
X34134400Y-36728064D01*
X34134400Y-36561336D01*
X34070596Y-36407299D01*
X33952701Y-36289404D01*
X33798664Y-36225600D01*
X33631936Y-36225600D01*
X33477899Y-36289404D01*
X33360004Y-36407299D01*
X33296200Y-36561336D01*
X28563488Y-36561336D01*
X28563488Y-36516636D01*
X28499684Y-36362599D01*
X28381789Y-36244704D01*
X28227752Y-36180900D01*
X28061024Y-36180900D01*
X27906987Y-36244704D01*
X27789092Y-36362599D01*
X27725288Y-36516636D01*
X26685285Y-36516636D01*
X26639996Y-36407299D01*
X26522101Y-36289404D01*
X26368064Y-36225600D01*
X26201336Y-36225600D01*
X26047299Y-36289404D01*
X25929404Y-36407299D01*
X25865600Y-36561336D01*
X23268498Y-36561336D01*
X23323638Y-36428216D01*
X23323638Y-36261488D01*
X23259834Y-36107451D01*
X23233313Y-36080930D01*
X23233313Y-36002891D01*
X23169509Y-35848854D01*
X23051614Y-35730959D01*
X22897577Y-35667155D01*
X22730849Y-35667155D01*
X22576812Y-35730959D01*
X22458917Y-35848854D01*
X22395113Y-36002891D01*
X21628009Y-36002891D01*
X21521103Y-35895985D01*
X21367066Y-35832181D01*
X21200338Y-35832181D01*
X21046301Y-35895985D01*
X20928406Y-36013880D01*
X20864602Y-36167917D01*
X20658120Y-36167917D01*
X20622504Y-36081934D01*
X20504609Y-35964039D01*
X20350572Y-35900235D01*
X20183844Y-35900235D01*
X20163383Y-35908710D01*
X20154297Y-35886775D01*
X20063500Y-35750889D01*
X20063500Y-35381025D01*
X20191636Y-35434100D01*
X20358364Y-35434100D01*
X20512401Y-35370296D01*
X20630296Y-35252401D01*
X20694100Y-35098364D01*
X20694100Y-35022035D01*
X22271502Y-35022035D01*
X22271502Y-35188763D01*
X22335306Y-35342800D01*
X22453201Y-35460695D01*
X22607238Y-35524499D01*
X22773966Y-35524499D01*
X22928003Y-35460695D01*
X23045898Y-35342800D01*
X23109702Y-35188763D01*
X23109702Y-35172124D01*
X27159962Y-35172124D01*
X27159962Y-35338852D01*
X27223766Y-35492889D01*
X27290969Y-35560092D01*
X27249333Y-35601728D01*
X27185529Y-35755765D01*
X27185529Y-35922493D01*
X27249333Y-36076530D01*
X27367228Y-36194425D01*
X27521265Y-36258229D01*
X27687993Y-36258229D01*
X27842030Y-36194425D01*
X27959925Y-36076530D01*
X28023729Y-35922493D01*
X28023729Y-35909981D01*
X30840792Y-35909981D01*
X30840792Y-36076709D01*
X30904596Y-36230746D01*
X31022491Y-36348641D01*
X31176528Y-36412445D01*
X31343256Y-36412445D01*
X31497293Y-36348641D01*
X31599728Y-36246206D01*
X31712599Y-36359077D01*
X31866636Y-36422881D01*
X32033364Y-36422881D01*
X32187401Y-36359077D01*
X32305296Y-36241182D01*
X32369100Y-36087145D01*
X32369100Y-35920417D01*
X32305296Y-35766380D01*
X32187401Y-35648485D01*
X32033364Y-35584681D01*
X31866636Y-35584681D01*
X31712599Y-35648485D01*
X31610164Y-35750920D01*
X31497293Y-35638049D01*
X31343256Y-35574245D01*
X31176528Y-35574245D01*
X31022491Y-35638049D01*
X30904596Y-35755944D01*
X30840792Y-35909981D01*
X28023729Y-35909981D01*
X28023729Y-35755765D01*
X27959925Y-35601728D01*
X27892722Y-35534525D01*
X27934358Y-35492889D01*
X27998162Y-35338852D01*
X27998162Y-35172124D01*
X27934358Y-35018087D01*
X27816463Y-34900192D01*
X27662426Y-34836388D01*
X27495698Y-34836388D01*
X27341661Y-34900192D01*
X27223766Y-35018087D01*
X27159962Y-35172124D01*
X23109702Y-35172124D01*
X23109702Y-35022035D01*
X23045898Y-34867998D01*
X22974536Y-34796636D01*
X29436502Y-34796636D01*
X29436502Y-34963364D01*
X29500306Y-35117401D01*
X29618201Y-35235296D01*
X29772238Y-35299100D01*
X29938966Y-35299100D01*
X30093003Y-35235296D01*
X30156175Y-35172124D01*
X32001838Y-35172124D01*
X32001838Y-35338852D01*
X32065642Y-35492889D01*
X32183537Y-35610784D01*
X32337574Y-35674588D01*
X32504302Y-35674588D01*
X32508405Y-35672889D01*
X32461289Y-35786636D01*
X32461289Y-35953364D01*
X32525093Y-36107401D01*
X32642988Y-36225296D01*
X32797025Y-36289100D01*
X32963753Y-36289100D01*
X33117790Y-36225296D01*
X33136450Y-36206636D01*
X36710900Y-36206636D01*
X36710900Y-36373364D01*
X36774704Y-36527401D01*
X36892599Y-36645296D01*
X37046636Y-36709100D01*
X37213364Y-36709100D01*
X37367401Y-36645296D01*
X37485296Y-36527401D01*
X37549100Y-36373364D01*
X37549100Y-36294167D01*
X37589694Y-36253573D01*
X37629134Y-36158356D01*
X38275507Y-36158356D01*
X38275507Y-36325084D01*
X38339311Y-36479121D01*
X38457206Y-36597016D01*
X38611243Y-36660820D01*
X38777971Y-36660820D01*
X38932008Y-36597016D01*
X39049903Y-36479121D01*
X39113707Y-36325084D01*
X39113707Y-36158356D01*
X39049903Y-36004319D01*
X38932008Y-35886424D01*
X38777971Y-35822620D01*
X38611243Y-35822620D01*
X38457206Y-35886424D01*
X38339311Y-36004319D01*
X38275507Y-36158356D01*
X37629134Y-36158356D01*
X37653498Y-36099536D01*
X37653498Y-35932808D01*
X37589694Y-35778771D01*
X37471799Y-35660876D01*
X37317762Y-35597072D01*
X37151034Y-35597072D01*
X36996997Y-35660876D01*
X36879102Y-35778771D01*
X36815298Y-35932808D01*
X36815298Y-36012005D01*
X36774704Y-36052599D01*
X36710900Y-36206636D01*
X33136450Y-36206636D01*
X33235685Y-36107401D01*
X33299489Y-35953364D01*
X33299489Y-35786636D01*
X33235685Y-35632599D01*
X33117790Y-35514704D01*
X32963753Y-35450900D01*
X32797025Y-35450900D01*
X32792922Y-35452599D01*
X32840038Y-35338852D01*
X32840038Y-35172124D01*
X32777870Y-35022035D01*
X36890298Y-35022035D01*
X36890298Y-35188763D01*
X36954102Y-35342800D01*
X37071997Y-35460695D01*
X37226034Y-35524499D01*
X37392762Y-35524499D01*
X37546799Y-35460695D01*
X37664694Y-35342800D01*
X37728498Y-35188763D01*
X37728498Y-35022035D01*
X37664694Y-34867998D01*
X37546799Y-34750103D01*
X37392762Y-34686299D01*
X37226034Y-34686299D01*
X37071997Y-34750103D01*
X36954102Y-34867998D01*
X36890298Y-35022035D01*
X32777870Y-35022035D01*
X32776234Y-35018087D01*
X32658339Y-34900192D01*
X32504302Y-34836388D01*
X32337574Y-34836388D01*
X32183537Y-34900192D01*
X32065642Y-35018087D01*
X32001838Y-35172124D01*
X30156175Y-35172124D01*
X30210898Y-35117401D01*
X30274702Y-34963364D01*
X30274702Y-34796636D01*
X30210898Y-34642599D01*
X30093003Y-34524704D01*
X29938966Y-34460900D01*
X29772238Y-34460900D01*
X29618201Y-34524704D01*
X29500306Y-34642599D01*
X29436502Y-34796636D01*
X22974536Y-34796636D01*
X22928003Y-34750103D01*
X22773966Y-34686299D01*
X22607238Y-34686299D01*
X22453201Y-34750103D01*
X22335306Y-34867998D01*
X22271502Y-35022035D01*
X20694100Y-35022035D01*
X20694100Y-34931636D01*
X20630296Y-34777599D01*
X20512401Y-34659704D01*
X20358364Y-34595900D01*
X20191636Y-34595900D01*
X20063500Y-34648975D01*
X20063500Y-34507850D01*
X20162114Y-34507850D01*
X20316151Y-34444046D01*
X20434046Y-34326151D01*
X20497850Y-34172114D01*
X20497850Y-34005386D01*
X20465490Y-33927261D01*
X23544205Y-33927261D01*
X23544205Y-34093989D01*
X23608009Y-34248026D01*
X23725904Y-34365921D01*
X23879941Y-34429725D01*
X24046669Y-34429725D01*
X24200706Y-34365921D01*
X24318601Y-34248026D01*
X24382405Y-34093989D01*
X24382405Y-34013506D01*
X30098098Y-34013506D01*
X30098098Y-34180234D01*
X30161902Y-34334271D01*
X30279797Y-34452166D01*
X30433834Y-34515970D01*
X30600562Y-34515970D01*
X30754599Y-34452166D01*
X30872494Y-34334271D01*
X30936298Y-34180234D01*
X30936298Y-34013506D01*
X30877788Y-33872248D01*
X35499497Y-33872248D01*
X35499497Y-34038976D01*
X35563301Y-34193013D01*
X35681196Y-34310908D01*
X35835233Y-34374712D01*
X36001961Y-34374712D01*
X36155998Y-34310908D01*
X36273893Y-34193013D01*
X36337697Y-34038976D01*
X36337697Y-33872248D01*
X36273893Y-33718211D01*
X36155998Y-33600316D01*
X36001961Y-33536512D01*
X35835233Y-33536512D01*
X35681196Y-33600316D01*
X35563301Y-33718211D01*
X35499497Y-33872248D01*
X30877788Y-33872248D01*
X30872494Y-33859469D01*
X30754599Y-33741574D01*
X30600562Y-33677770D01*
X30433834Y-33677770D01*
X30279797Y-33741574D01*
X30161902Y-33859469D01*
X30098098Y-34013506D01*
X24382405Y-34013506D01*
X24382405Y-33927261D01*
X24318601Y-33773224D01*
X24200706Y-33655329D01*
X24046669Y-33591525D01*
X23879941Y-33591525D01*
X23725904Y-33655329D01*
X23608009Y-33773224D01*
X23544205Y-33927261D01*
X20465490Y-33927261D01*
X20434046Y-33851349D01*
X20316151Y-33733454D01*
X20162114Y-33669650D01*
X20116595Y-33669650D01*
X20154297Y-33613225D01*
X20190207Y-33526529D01*
X20235879Y-33296919D01*
X20235879Y-33295500D01*
X20373364Y-33295500D01*
X20527401Y-33231696D01*
X20645296Y-33113801D01*
X20709100Y-32959764D01*
X20709100Y-32920565D01*
X31481197Y-32920565D01*
X31481197Y-33087293D01*
X31545001Y-33241330D01*
X31662896Y-33359225D01*
X31816933Y-33423029D01*
X31983661Y-33423029D01*
X32137698Y-33359225D01*
X32255593Y-33241330D01*
X32319397Y-33087293D01*
X32319397Y-32920565D01*
X32255593Y-32766528D01*
X32138180Y-32649115D01*
X32147401Y-32645296D01*
X32265296Y-32527401D01*
X32329100Y-32373364D01*
X32329100Y-32206636D01*
X32265296Y-32052599D01*
X32147401Y-31934704D01*
X31993364Y-31870900D01*
X31826636Y-31870900D01*
X31672599Y-31934704D01*
X31554704Y-32052599D01*
X31490900Y-32206636D01*
X31490900Y-32373364D01*
X31554704Y-32527401D01*
X31672117Y-32644814D01*
X31662896Y-32648633D01*
X31545001Y-32766528D01*
X31481197Y-32920565D01*
X20709100Y-32920565D01*
X20709100Y-32793036D01*
X20645296Y-32638999D01*
X20527401Y-32521104D01*
X20373364Y-32457300D01*
X20206636Y-32457300D01*
X20063500Y-32516589D01*
X20063500Y-32206636D01*
X22500900Y-32206636D01*
X22500900Y-32373364D01*
X22564704Y-32527401D01*
X22682599Y-32645296D01*
X22788940Y-32689344D01*
X22804704Y-32727401D01*
X22922599Y-32845296D01*
X23076636Y-32909100D01*
X23243364Y-32909100D01*
X23397401Y-32845296D01*
X23515296Y-32727401D01*
X23579100Y-32573364D01*
X23579100Y-32453597D01*
X23585296Y-32447401D01*
X23636303Y-32324258D01*
X23731012Y-32363488D01*
X23897740Y-32363488D01*
X24051777Y-32299684D01*
X24169672Y-32181789D01*
X24233476Y-32027752D01*
X24233476Y-31861024D01*
X24169672Y-31706987D01*
X24113219Y-31650534D01*
X26743581Y-31650534D01*
X26743581Y-31817262D01*
X26807385Y-31971299D01*
X26925280Y-32089194D01*
X27079317Y-32152998D01*
X27246045Y-32152998D01*
X27400082Y-32089194D01*
X27517977Y-31971299D01*
X27545071Y-31905888D01*
X27570305Y-31966808D01*
X27688200Y-32084703D01*
X27716543Y-32096443D01*
X27670900Y-32206636D01*
X27670900Y-32373364D01*
X27734704Y-32527401D01*
X27852599Y-32645296D01*
X28006636Y-32709100D01*
X28173364Y-32709100D01*
X28327401Y-32645296D01*
X28445296Y-32527401D01*
X28509100Y-32373364D01*
X28509100Y-32206636D01*
X28445296Y-32052599D01*
X28327401Y-31934704D01*
X28299058Y-31922964D01*
X28344701Y-31812771D01*
X28344701Y-31650534D01*
X32418219Y-31650534D01*
X32418219Y-31817262D01*
X32482023Y-31971299D01*
X32599918Y-32089194D01*
X32753955Y-32152998D01*
X32920683Y-32152998D01*
X33074720Y-32089194D01*
X33192615Y-31971299D01*
X33238292Y-31861024D01*
X35766524Y-31861024D01*
X35766524Y-32027752D01*
X35830328Y-32181789D01*
X35948223Y-32299684D01*
X36102260Y-32363488D01*
X36190900Y-32363488D01*
X36190900Y-32443364D01*
X36254704Y-32597401D01*
X36372599Y-32715296D01*
X36476189Y-32758204D01*
X36516521Y-32855575D01*
X36634416Y-32973470D01*
X36788453Y-33037274D01*
X36955181Y-33037274D01*
X37109218Y-32973470D01*
X37193588Y-32889100D01*
X37267752Y-32889100D01*
X37421789Y-32825296D01*
X37539684Y-32707401D01*
X37603488Y-32553364D01*
X37603488Y-32386636D01*
X37539684Y-32232599D01*
X37421789Y-32114704D01*
X37267752Y-32050900D01*
X37101024Y-32050900D01*
X36954351Y-32111654D01*
X36847401Y-32004704D01*
X36693364Y-31940900D01*
X36604724Y-31940900D01*
X36604724Y-31861024D01*
X36540920Y-31706987D01*
X36423025Y-31589092D01*
X36324846Y-31548425D01*
X36764046Y-31548425D01*
X36764046Y-31715153D01*
X36827850Y-31869190D01*
X36945745Y-31987085D01*
X37099782Y-32050889D01*
X37266510Y-32050889D01*
X37420547Y-31987085D01*
X37538442Y-31869190D01*
X37602246Y-31715153D01*
X37602246Y-31548425D01*
X37538442Y-31394388D01*
X37420547Y-31276493D01*
X37266510Y-31212689D01*
X37099782Y-31212689D01*
X36945745Y-31276493D01*
X36827850Y-31394388D01*
X36764046Y-31548425D01*
X36324846Y-31548425D01*
X36268988Y-31525288D01*
X36102260Y-31525288D01*
X35948223Y-31589092D01*
X35830328Y-31706987D01*
X35766524Y-31861024D01*
X33238292Y-31861024D01*
X33256419Y-31817262D01*
X33256419Y-31650534D01*
X33192615Y-31496497D01*
X33074720Y-31378602D01*
X32920683Y-31314798D01*
X32753955Y-31314798D01*
X32599918Y-31378602D01*
X32482023Y-31496497D01*
X32418219Y-31650534D01*
X28344701Y-31650534D01*
X28344701Y-31646043D01*
X28280897Y-31492006D01*
X28163002Y-31374111D01*
X28008965Y-31310307D01*
X27842237Y-31310307D01*
X27688200Y-31374111D01*
X27570305Y-31492006D01*
X27543211Y-31557417D01*
X27517977Y-31496497D01*
X27400082Y-31378602D01*
X27246045Y-31314798D01*
X27079317Y-31314798D01*
X26925280Y-31378602D01*
X26807385Y-31496497D01*
X26743581Y-31650534D01*
X24113219Y-31650534D01*
X24051777Y-31589092D01*
X23897740Y-31525288D01*
X23731012Y-31525288D01*
X23576975Y-31589092D01*
X23459080Y-31706987D01*
X23408073Y-31830130D01*
X23313364Y-31790900D01*
X23146636Y-31790900D01*
X22992599Y-31854704D01*
X22976403Y-31870900D01*
X22836636Y-31870900D01*
X22682599Y-31934704D01*
X22564704Y-32052599D01*
X22500900Y-32206636D01*
X20063500Y-32206636D01*
X20063500Y-31916197D01*
X20087599Y-31940296D01*
X20241636Y-32004100D01*
X20408364Y-32004100D01*
X20562401Y-31940296D01*
X20680296Y-31822401D01*
X20744100Y-31668364D01*
X20744100Y-31501636D01*
X20684781Y-31358426D01*
X22321502Y-31358426D01*
X22321502Y-31525154D01*
X22385306Y-31679191D01*
X22503201Y-31797086D01*
X22657238Y-31860890D01*
X22823966Y-31860890D01*
X22978003Y-31797086D01*
X23095898Y-31679191D01*
X23159702Y-31525154D01*
X23159702Y-31358426D01*
X23095898Y-31204389D01*
X22978003Y-31086494D01*
X22823966Y-31022690D01*
X22657238Y-31022690D01*
X22503201Y-31086494D01*
X22385306Y-31204389D01*
X22321502Y-31358426D01*
X20684781Y-31358426D01*
X20680296Y-31347599D01*
X20562401Y-31229704D01*
X20408364Y-31165900D01*
X20241636Y-31165900D01*
X20087599Y-31229704D01*
X20063500Y-31253803D01*
X20063500Y-30749112D01*
X20154297Y-30613225D01*
X20179807Y-30551636D01*
X20915900Y-30551636D01*
X20915900Y-30718364D01*
X20979704Y-30872401D01*
X21097599Y-30990296D01*
X21251636Y-31054100D01*
X21418364Y-31054100D01*
X21572401Y-30990296D01*
X21646061Y-30916636D01*
X30786502Y-30916636D01*
X30786502Y-31083364D01*
X30850306Y-31237401D01*
X30968201Y-31355296D01*
X31122238Y-31419100D01*
X31288966Y-31419100D01*
X31443003Y-31355296D01*
X31560898Y-31237401D01*
X31624702Y-31083364D01*
X31624702Y-30916636D01*
X31560898Y-30762599D01*
X31464935Y-30666636D01*
X32580900Y-30666636D01*
X32580900Y-30833364D01*
X32644704Y-30987401D01*
X32762599Y-31105296D01*
X32916636Y-31169100D01*
X33083364Y-31169100D01*
X33237401Y-31105296D01*
X33355296Y-30987401D01*
X33419100Y-30833364D01*
X33419100Y-30666636D01*
X33355296Y-30512599D01*
X33237401Y-30394704D01*
X33083364Y-30330900D01*
X32916636Y-30330900D01*
X32762599Y-30394704D01*
X32644704Y-30512599D01*
X32580900Y-30666636D01*
X31464935Y-30666636D01*
X31443003Y-30644704D01*
X31288966Y-30580900D01*
X31122238Y-30580900D01*
X30968201Y-30644704D01*
X30850306Y-30762599D01*
X30786502Y-30916636D01*
X21646061Y-30916636D01*
X21690296Y-30872401D01*
X21754100Y-30718364D01*
X21754100Y-30551636D01*
X21690296Y-30397599D01*
X21572401Y-30279704D01*
X21418364Y-30215900D01*
X21251636Y-30215900D01*
X21097599Y-30279704D01*
X20979704Y-30397599D01*
X20915900Y-30551636D01*
X20179807Y-30551636D01*
X20190207Y-30526529D01*
X20235879Y-30296919D01*
X20235879Y-30296914D01*
X20240500Y-30273683D01*
X20240500Y-29726317D01*
X20235879Y-29703086D01*
X20235879Y-29703081D01*
X20190207Y-29473471D01*
X20180173Y-29449247D01*
X20154297Y-29386775D01*
X20084045Y-29281636D01*
X20915900Y-29281636D01*
X20915900Y-29448364D01*
X20979704Y-29602401D01*
X21097599Y-29720296D01*
X21251636Y-29784100D01*
X21418364Y-29784100D01*
X21572401Y-29720296D01*
X21690296Y-29602401D01*
X21690774Y-29601247D01*
X24692209Y-29601247D01*
X24692209Y-29767975D01*
X24756013Y-29922012D01*
X24873908Y-30039907D01*
X25027945Y-30103711D01*
X25133274Y-30103711D01*
X25015760Y-30221225D01*
X24951956Y-30375262D01*
X24951956Y-30541990D01*
X25015760Y-30696027D01*
X25133655Y-30813922D01*
X25287692Y-30877726D01*
X25454420Y-30877726D01*
X25608457Y-30813922D01*
X25726352Y-30696027D01*
X25790156Y-30541990D01*
X25790156Y-30375262D01*
X25771505Y-30330233D01*
X25878624Y-30285863D01*
X25957851Y-30206636D01*
X33560900Y-30206636D01*
X33560900Y-30373364D01*
X33624704Y-30527401D01*
X33742599Y-30645296D01*
X33896636Y-30709100D01*
X34063364Y-30709100D01*
X34183303Y-30659420D01*
X34202096Y-30704790D01*
X34319991Y-30822685D01*
X34474028Y-30886489D01*
X34640756Y-30886489D01*
X34794793Y-30822685D01*
X34912688Y-30704790D01*
X34976126Y-30551636D01*
X38245900Y-30551636D01*
X38245900Y-30718364D01*
X38309704Y-30872401D01*
X38427599Y-30990296D01*
X38581636Y-31054100D01*
X38748364Y-31054100D01*
X38902401Y-30990296D01*
X39020296Y-30872401D01*
X39084100Y-30718364D01*
X39084100Y-30551636D01*
X39020296Y-30397599D01*
X38902401Y-30279704D01*
X38748364Y-30215900D01*
X38581636Y-30215900D01*
X38427599Y-30279704D01*
X38309704Y-30397599D01*
X38245900Y-30551636D01*
X34976126Y-30551636D01*
X34976492Y-30550753D01*
X34976492Y-30384025D01*
X34912688Y-30229988D01*
X34794793Y-30112093D01*
X34640756Y-30048289D01*
X34474028Y-30048289D01*
X34354089Y-30097969D01*
X34335296Y-30052599D01*
X34217401Y-29934704D01*
X34063364Y-29870900D01*
X33896636Y-29870900D01*
X33742599Y-29934704D01*
X33624704Y-30052599D01*
X33560900Y-30206636D01*
X25957851Y-30206636D01*
X25996519Y-30167968D01*
X26060323Y-30013931D01*
X26060323Y-29847203D01*
X25996519Y-29693166D01*
X25878624Y-29575271D01*
X25724587Y-29511467D01*
X25557859Y-29511467D01*
X25502687Y-29534320D01*
X25466605Y-29447210D01*
X25348710Y-29329315D01*
X25194673Y-29265511D01*
X25027945Y-29265511D01*
X24873908Y-29329315D01*
X24756013Y-29447210D01*
X24692209Y-29601247D01*
X21690774Y-29601247D01*
X21754100Y-29448364D01*
X21754100Y-29281636D01*
X21706466Y-29166636D01*
X26580900Y-29166636D01*
X26580900Y-29333364D01*
X26644704Y-29487401D01*
X26762599Y-29605296D01*
X26916636Y-29669100D01*
X27083364Y-29669100D01*
X27237401Y-29605296D01*
X27355296Y-29487401D01*
X27392891Y-29396636D01*
X27560900Y-29396636D01*
X27560900Y-29563364D01*
X27624704Y-29717401D01*
X27742599Y-29835296D01*
X27896636Y-29899100D01*
X28063364Y-29899100D01*
X28217401Y-29835296D01*
X28335296Y-29717401D01*
X28385383Y-29596479D01*
X30401057Y-29596479D01*
X30401057Y-29763207D01*
X30464861Y-29917244D01*
X30582756Y-30035139D01*
X30736793Y-30098943D01*
X30903521Y-30098943D01*
X31057558Y-30035139D01*
X31175453Y-29917244D01*
X31239257Y-29763207D01*
X31239257Y-29596479D01*
X31175453Y-29442442D01*
X31079647Y-29346636D01*
X31520900Y-29346636D01*
X31520900Y-29513364D01*
X31584704Y-29667401D01*
X31702599Y-29785296D01*
X31856636Y-29849100D01*
X32023364Y-29849100D01*
X32177401Y-29785296D01*
X32295296Y-29667401D01*
X32359100Y-29513364D01*
X32359100Y-29449247D01*
X34000900Y-29449247D01*
X34000900Y-29615975D01*
X34064704Y-29770012D01*
X34182599Y-29887907D01*
X34336636Y-29951711D01*
X34503364Y-29951711D01*
X34657401Y-29887907D01*
X34775296Y-29770012D01*
X34839100Y-29615975D01*
X34839100Y-29612784D01*
X38217130Y-29612784D01*
X38217130Y-29779512D01*
X38280934Y-29933549D01*
X38398829Y-30051444D01*
X38552866Y-30115248D01*
X38719594Y-30115248D01*
X38873631Y-30051444D01*
X38991526Y-29933549D01*
X39055330Y-29779512D01*
X39055330Y-29612784D01*
X38991526Y-29458747D01*
X38873631Y-29340852D01*
X38719594Y-29277048D01*
X38552866Y-29277048D01*
X38398829Y-29340852D01*
X38280934Y-29458747D01*
X38217130Y-29612784D01*
X34839100Y-29612784D01*
X34839100Y-29449247D01*
X34775296Y-29295210D01*
X34657401Y-29177315D01*
X34503364Y-29113511D01*
X34336636Y-29113511D01*
X34182599Y-29177315D01*
X34064704Y-29295210D01*
X34000900Y-29449247D01*
X32359100Y-29449247D01*
X32359100Y-29346636D01*
X32295296Y-29192599D01*
X32177401Y-29074704D01*
X32023364Y-29010900D01*
X31856636Y-29010900D01*
X31702599Y-29074704D01*
X31584704Y-29192599D01*
X31520900Y-29346636D01*
X31079647Y-29346636D01*
X31057558Y-29324547D01*
X30903521Y-29260743D01*
X30736793Y-29260743D01*
X30582756Y-29324547D01*
X30464861Y-29442442D01*
X30401057Y-29596479D01*
X28385383Y-29596479D01*
X28399100Y-29563364D01*
X28399100Y-29396636D01*
X28336702Y-29245995D01*
X28345296Y-29237401D01*
X28409100Y-29083364D01*
X28409100Y-28916636D01*
X28345296Y-28762599D01*
X28227401Y-28644704D01*
X28073364Y-28580900D01*
X27906636Y-28580900D01*
X27752599Y-28644704D01*
X27634704Y-28762599D01*
X27570900Y-28916636D01*
X27570900Y-29083364D01*
X27633298Y-29234005D01*
X27624704Y-29242599D01*
X27560900Y-29396636D01*
X27392891Y-29396636D01*
X27419100Y-29333364D01*
X27419100Y-29166636D01*
X27355296Y-29012599D01*
X27237401Y-28894704D01*
X27083364Y-28830900D01*
X26916636Y-28830900D01*
X26762599Y-28894704D01*
X26644704Y-29012599D01*
X26580900Y-29166636D01*
X21706466Y-29166636D01*
X21690296Y-29127599D01*
X21572401Y-29009704D01*
X21418364Y-28945900D01*
X21251636Y-28945900D01*
X21097599Y-29009704D01*
X20979704Y-29127599D01*
X20915900Y-29281636D01*
X20084045Y-29281636D01*
X20063500Y-29250889D01*
X20063500Y-28746197D01*
X20087599Y-28770296D01*
X20241636Y-28834100D01*
X20408364Y-28834100D01*
X20562401Y-28770296D01*
X20680296Y-28652401D01*
X20734709Y-28521034D01*
X22321502Y-28521034D01*
X22321502Y-28687762D01*
X22385306Y-28841799D01*
X22503201Y-28959694D01*
X22657238Y-29023498D01*
X22823966Y-29023498D01*
X22978003Y-28959694D01*
X23095898Y-28841799D01*
X23159702Y-28687762D01*
X23159702Y-28521034D01*
X23095898Y-28366997D01*
X22978003Y-28249102D01*
X22823966Y-28185298D01*
X22657238Y-28185298D01*
X22503201Y-28249102D01*
X22385306Y-28366997D01*
X22321502Y-28521034D01*
X20734709Y-28521034D01*
X20744100Y-28498364D01*
X20744100Y-28331636D01*
X20680296Y-28177599D01*
X20562401Y-28059704D01*
X20408364Y-27995900D01*
X20241636Y-27995900D01*
X20087599Y-28059704D01*
X20063500Y-28083803D01*
X20063500Y-27626636D01*
X22500900Y-27626636D01*
X22500900Y-27793364D01*
X22564704Y-27947401D01*
X22682599Y-28065296D01*
X22836636Y-28129100D01*
X22976403Y-28129100D01*
X22992599Y-28145296D01*
X23146636Y-28209100D01*
X23313364Y-28209100D01*
X23408073Y-28169870D01*
X23459080Y-28293013D01*
X23576975Y-28410908D01*
X23731012Y-28474712D01*
X23897740Y-28474712D01*
X24051777Y-28410908D01*
X24169672Y-28293013D01*
X24214511Y-28184761D01*
X26735905Y-28184761D01*
X26735905Y-28351489D01*
X26799709Y-28505526D01*
X26917604Y-28623421D01*
X27071641Y-28687225D01*
X27238369Y-28687225D01*
X27392406Y-28623421D01*
X27510301Y-28505526D01*
X27574105Y-28351489D01*
X27574105Y-28326636D01*
X31550900Y-28326636D01*
X31550900Y-28493364D01*
X31614704Y-28647401D01*
X31732599Y-28765296D01*
X31886636Y-28829100D01*
X32053364Y-28829100D01*
X32207401Y-28765296D01*
X32325296Y-28647401D01*
X32389100Y-28493364D01*
X32389100Y-28326636D01*
X32329496Y-28182738D01*
X32418219Y-28182738D01*
X32418219Y-28349466D01*
X32482023Y-28503503D01*
X32599918Y-28621398D01*
X32753955Y-28685202D01*
X32920683Y-28685202D01*
X33074720Y-28621398D01*
X33175084Y-28521034D01*
X36830900Y-28521034D01*
X36830900Y-28687762D01*
X36894704Y-28841799D01*
X37012599Y-28959694D01*
X37166636Y-29023498D01*
X37333364Y-29023498D01*
X37487401Y-28959694D01*
X37605296Y-28841799D01*
X37669100Y-28687762D01*
X37669100Y-28521034D01*
X37605296Y-28366997D01*
X37487401Y-28249102D01*
X37333364Y-28185298D01*
X37166636Y-28185298D01*
X37012599Y-28249102D01*
X36894704Y-28366997D01*
X36830900Y-28521034D01*
X33175084Y-28521034D01*
X33192615Y-28503503D01*
X33256419Y-28349466D01*
X33256419Y-28182738D01*
X33192615Y-28028701D01*
X33136162Y-27972248D01*
X35766524Y-27972248D01*
X35766524Y-28138976D01*
X35830328Y-28293013D01*
X35948223Y-28410908D01*
X36102260Y-28474712D01*
X36268988Y-28474712D01*
X36423025Y-28410908D01*
X36540920Y-28293013D01*
X36591927Y-28169870D01*
X36686636Y-28209100D01*
X36853364Y-28209100D01*
X37007401Y-28145296D01*
X37023597Y-28129100D01*
X37163364Y-28129100D01*
X37317401Y-28065296D01*
X37435296Y-27947401D01*
X37499100Y-27793364D01*
X37499100Y-27626636D01*
X37435296Y-27472599D01*
X37317401Y-27354704D01*
X37211060Y-27310656D01*
X37195296Y-27272599D01*
X37077401Y-27154704D01*
X36923364Y-27090900D01*
X36756636Y-27090900D01*
X36602599Y-27154704D01*
X36484704Y-27272599D01*
X36420900Y-27426636D01*
X36420900Y-27546403D01*
X36414704Y-27552599D01*
X36363697Y-27675742D01*
X36268988Y-27636512D01*
X36102260Y-27636512D01*
X35948223Y-27700316D01*
X35830328Y-27818211D01*
X35766524Y-27972248D01*
X33136162Y-27972248D01*
X33074720Y-27910806D01*
X32920683Y-27847002D01*
X32753955Y-27847002D01*
X32599918Y-27910806D01*
X32482023Y-28028701D01*
X32418219Y-28182738D01*
X32329496Y-28182738D01*
X32325296Y-28172599D01*
X32207401Y-28054704D01*
X32053364Y-27990900D01*
X31886636Y-27990900D01*
X31732599Y-28054704D01*
X31614704Y-28172599D01*
X31550900Y-28326636D01*
X27574105Y-28326636D01*
X27574105Y-28184761D01*
X27510301Y-28030724D01*
X27392406Y-27912829D01*
X27238369Y-27849025D01*
X27071641Y-27849025D01*
X26917604Y-27912829D01*
X26799709Y-28030724D01*
X26735905Y-28184761D01*
X24214511Y-28184761D01*
X24233476Y-28138976D01*
X24233476Y-27972248D01*
X24169672Y-27818211D01*
X24051777Y-27700316D01*
X23897740Y-27636512D01*
X23731012Y-27636512D01*
X23636303Y-27675742D01*
X23590986Y-27566335D01*
X27511930Y-27566335D01*
X27511930Y-27733063D01*
X27575734Y-27887100D01*
X27693629Y-28004995D01*
X27847666Y-28068799D01*
X28014394Y-28068799D01*
X28168431Y-28004995D01*
X28286326Y-27887100D01*
X28350130Y-27733063D01*
X28350130Y-27566335D01*
X28286326Y-27412298D01*
X28259279Y-27385251D01*
X28342775Y-27301755D01*
X28406579Y-27147718D01*
X28406579Y-26980990D01*
X28355071Y-26856636D01*
X29450900Y-26856636D01*
X29450900Y-27023364D01*
X29514704Y-27177401D01*
X29632599Y-27295296D01*
X29786636Y-27359100D01*
X29953364Y-27359100D01*
X30107401Y-27295296D01*
X30225296Y-27177401D01*
X30289100Y-27023364D01*
X30289100Y-26856636D01*
X30233525Y-26722465D01*
X30347401Y-26675296D01*
X30465296Y-26557401D01*
X30529100Y-26403364D01*
X30529100Y-26236636D01*
X30465296Y-26082599D01*
X30347401Y-25964704D01*
X30205704Y-25906011D01*
X35617595Y-25906011D01*
X35617595Y-26072739D01*
X35681399Y-26226776D01*
X35799294Y-26344671D01*
X35953331Y-26408475D01*
X36120059Y-26408475D01*
X36274096Y-26344671D01*
X36391991Y-26226776D01*
X36455795Y-26072739D01*
X36455795Y-25906011D01*
X36391991Y-25751974D01*
X36274096Y-25634079D01*
X36256127Y-25626636D01*
X36885298Y-25626636D01*
X36885298Y-25793364D01*
X36949102Y-25947401D01*
X37066997Y-26065296D01*
X37221034Y-26129100D01*
X37387762Y-26129100D01*
X37541799Y-26065296D01*
X37659694Y-25947401D01*
X37723498Y-25793364D01*
X37723498Y-25626636D01*
X37659694Y-25472599D01*
X37541799Y-25354704D01*
X37387762Y-25290900D01*
X37221034Y-25290900D01*
X37066997Y-25354704D01*
X36949102Y-25472599D01*
X36885298Y-25626636D01*
X36256127Y-25626636D01*
X36120059Y-25570275D01*
X35953331Y-25570275D01*
X35799294Y-25634079D01*
X35681399Y-25751974D01*
X35617595Y-25906011D01*
X30205704Y-25906011D01*
X30193364Y-25900900D01*
X30026636Y-25900900D01*
X29872599Y-25964704D01*
X29754704Y-26082599D01*
X29690900Y-26236636D01*
X29690900Y-26403364D01*
X29746475Y-26537535D01*
X29632599Y-26584704D01*
X29514704Y-26702599D01*
X29450900Y-26856636D01*
X28355071Y-26856636D01*
X28342775Y-26826953D01*
X28224880Y-26709058D01*
X28070843Y-26645254D01*
X27904115Y-26645254D01*
X27750078Y-26709058D01*
X27632183Y-26826953D01*
X27568379Y-26980990D01*
X27568379Y-27147718D01*
X27632183Y-27301755D01*
X27659230Y-27328802D01*
X27575734Y-27412298D01*
X27511930Y-27566335D01*
X23590986Y-27566335D01*
X23585296Y-27552599D01*
X23579100Y-27546403D01*
X23579100Y-27426636D01*
X23515296Y-27272599D01*
X23397401Y-27154704D01*
X23243364Y-27090900D01*
X23076636Y-27090900D01*
X22922599Y-27154704D01*
X22804704Y-27272599D01*
X22788940Y-27310656D01*
X22682599Y-27354704D01*
X22564704Y-27472599D01*
X22500900Y-27626636D01*
X20063500Y-27626636D01*
X20063500Y-27483411D01*
X20206636Y-27542700D01*
X20373364Y-27542700D01*
X20527401Y-27478896D01*
X20645296Y-27361001D01*
X20709100Y-27206964D01*
X20709100Y-27040236D01*
X20645296Y-26886199D01*
X20527401Y-26768304D01*
X20373364Y-26704500D01*
X20235879Y-26704500D01*
X20235879Y-26703081D01*
X20190207Y-26473471D01*
X20154297Y-26386776D01*
X20154297Y-26386775D01*
X20116595Y-26330350D01*
X20162114Y-26330350D01*
X20316151Y-26266546D01*
X20434046Y-26148651D01*
X20497850Y-25994614D01*
X20497850Y-25827886D01*
X20434046Y-25673849D01*
X20316151Y-25555954D01*
X20221229Y-25516636D01*
X22280900Y-25516636D01*
X22280900Y-25683364D01*
X22344704Y-25837401D01*
X22462599Y-25955296D01*
X22616636Y-26019100D01*
X22783364Y-26019100D01*
X22937401Y-25955296D01*
X22986686Y-25906011D01*
X23544205Y-25906011D01*
X23544205Y-26072739D01*
X23608009Y-26226776D01*
X23725904Y-26344671D01*
X23879941Y-26408475D01*
X24046669Y-26408475D01*
X24200706Y-26344671D01*
X24318601Y-26226776D01*
X24382405Y-26072739D01*
X24382405Y-25906011D01*
X24318601Y-25751974D01*
X24200706Y-25634079D01*
X24046669Y-25570275D01*
X23879941Y-25570275D01*
X23725904Y-25634079D01*
X23608009Y-25751974D01*
X23544205Y-25906011D01*
X22986686Y-25906011D01*
X23055296Y-25837401D01*
X23119100Y-25683364D01*
X23119100Y-25516636D01*
X23055296Y-25362599D01*
X22937401Y-25244704D01*
X22783364Y-25180900D01*
X22616636Y-25180900D01*
X22462599Y-25244704D01*
X22344704Y-25362599D01*
X22280900Y-25516636D01*
X20221229Y-25516636D01*
X20162114Y-25492150D01*
X20063500Y-25492150D01*
X20063500Y-25351025D01*
X20191636Y-25404100D01*
X20358364Y-25404100D01*
X20512401Y-25340296D01*
X20630296Y-25222401D01*
X20694100Y-25068364D01*
X20694100Y-24901636D01*
X20630296Y-24747599D01*
X20512401Y-24629704D01*
X20358364Y-24565900D01*
X20191636Y-24565900D01*
X20063500Y-24618975D01*
X20063500Y-24249112D01*
X20154297Y-24113225D01*
X20163383Y-24091290D01*
X20183844Y-24099765D01*
X20350572Y-24099765D01*
X20504609Y-24035961D01*
X20622504Y-23918066D01*
X20686308Y-23764029D01*
X20686308Y-23758182D01*
X20779135Y-23665355D01*
X20864602Y-23665355D01*
X20864602Y-23832083D01*
X20928406Y-23986120D01*
X21046301Y-24104015D01*
X21200338Y-24167819D01*
X21367066Y-24167819D01*
X21521103Y-24104015D01*
X21638998Y-23986120D01*
X21674478Y-23900462D01*
X22346512Y-23900462D01*
X22346512Y-24067190D01*
X22410316Y-24221227D01*
X22528211Y-24339122D01*
X22682248Y-24402926D01*
X22848976Y-24402926D01*
X23003013Y-24339122D01*
X23120908Y-24221227D01*
X23182811Y-24071778D01*
X26781660Y-24071778D01*
X26781660Y-24238506D01*
X26845464Y-24392543D01*
X26963359Y-24510438D01*
X27117396Y-24574242D01*
X27195951Y-24574242D01*
X27159958Y-24661138D01*
X27159958Y-24827866D01*
X27223762Y-24981903D01*
X27341657Y-25099798D01*
X27495694Y-25163602D01*
X27662422Y-25163602D01*
X27816459Y-25099798D01*
X27934354Y-24981903D01*
X27961388Y-24916636D01*
X30533781Y-24916636D01*
X30533781Y-25083364D01*
X30597585Y-25237401D01*
X30715480Y-25355296D01*
X30869517Y-25419100D01*
X31036245Y-25419100D01*
X31190282Y-25355296D01*
X31308177Y-25237401D01*
X31371981Y-25083364D01*
X31371981Y-24916636D01*
X31308177Y-24762599D01*
X31190282Y-24644704D01*
X31036245Y-24580900D01*
X30869517Y-24580900D01*
X30715480Y-24644704D01*
X30597585Y-24762599D01*
X30533781Y-24916636D01*
X27961388Y-24916636D01*
X27998158Y-24827866D01*
X27998158Y-24661138D01*
X27934354Y-24507101D01*
X27816459Y-24389206D01*
X27662422Y-24325402D01*
X27583867Y-24325402D01*
X27619860Y-24238506D01*
X27619860Y-24071778D01*
X27556056Y-23917741D01*
X27438161Y-23799846D01*
X27284124Y-23736042D01*
X27117396Y-23736042D01*
X26963359Y-23799846D01*
X26845464Y-23917741D01*
X26781660Y-24071778D01*
X23182811Y-24071778D01*
X23184712Y-24067190D01*
X23184712Y-24037985D01*
X23255296Y-23967401D01*
X23319100Y-23813364D01*
X23319100Y-23646636D01*
X23255296Y-23492599D01*
X23137401Y-23374704D01*
X22983364Y-23310900D01*
X22816636Y-23310900D01*
X22662599Y-23374704D01*
X22544704Y-23492599D01*
X22480900Y-23646636D01*
X22480900Y-23675841D01*
X22410316Y-23746425D01*
X22346512Y-23900462D01*
X21674478Y-23900462D01*
X21702802Y-23832083D01*
X21702802Y-23665355D01*
X21638998Y-23511318D01*
X21521103Y-23393423D01*
X21367066Y-23329619D01*
X21200338Y-23329619D01*
X21046301Y-23393423D01*
X20928406Y-23511318D01*
X20864602Y-23665355D01*
X20779135Y-23665355D01*
X20779398Y-23665092D01*
X20843202Y-23511055D01*
X20843202Y-23344327D01*
X20813217Y-23271936D01*
X25865600Y-23271936D01*
X25865600Y-23438664D01*
X25929404Y-23592701D01*
X26047299Y-23710596D01*
X26201336Y-23774400D01*
X26368064Y-23774400D01*
X26522101Y-23710596D01*
X26639996Y-23592701D01*
X26703800Y-23438664D01*
X26703800Y-23271936D01*
X26639996Y-23117899D01*
X26588733Y-23066636D01*
X30160900Y-23066636D01*
X30160900Y-23233364D01*
X30224704Y-23387401D01*
X30342599Y-23505296D01*
X30496636Y-23569100D01*
X30580900Y-23569100D01*
X30580900Y-23583364D01*
X30633727Y-23710900D01*
X30616636Y-23710900D01*
X30462599Y-23774704D01*
X30344704Y-23892599D01*
X30280900Y-24046636D01*
X30280900Y-24213364D01*
X30344704Y-24367401D01*
X30462599Y-24485296D01*
X30616636Y-24549100D01*
X30783364Y-24549100D01*
X30937401Y-24485296D01*
X31034640Y-24388057D01*
X31065734Y-24419151D01*
X31219771Y-24482955D01*
X31386499Y-24482955D01*
X31540536Y-24419151D01*
X31658431Y-24301256D01*
X31722235Y-24147219D01*
X31722235Y-23980491D01*
X31658431Y-23826454D01*
X31540536Y-23708559D01*
X31417751Y-23657700D01*
X31886499Y-23657700D01*
X31886499Y-23824428D01*
X31950303Y-23978465D01*
X32068198Y-24096360D01*
X32222235Y-24160164D01*
X32300900Y-24160164D01*
X32300900Y-24293364D01*
X32317600Y-24333682D01*
X32183547Y-24389208D01*
X32065652Y-24507103D01*
X32001848Y-24661140D01*
X32001848Y-24827868D01*
X32065652Y-24981905D01*
X32183547Y-25099800D01*
X32337584Y-25163604D01*
X32504312Y-25163604D01*
X32658349Y-25099800D01*
X32776244Y-24981905D01*
X32840048Y-24827868D01*
X32840048Y-24661140D01*
X32823348Y-24620822D01*
X32957401Y-24565296D01*
X33075296Y-24447401D01*
X33139100Y-24293364D01*
X33139100Y-24126636D01*
X33075296Y-23972599D01*
X32957401Y-23854704D01*
X32803364Y-23790900D01*
X32724699Y-23790900D01*
X32724699Y-23657700D01*
X32660895Y-23503663D01*
X32543000Y-23385768D01*
X32388963Y-23321964D01*
X32222235Y-23321964D01*
X32068198Y-23385768D01*
X31950303Y-23503663D01*
X31886499Y-23657700D01*
X31417751Y-23657700D01*
X31392621Y-23647291D01*
X31419100Y-23583364D01*
X31419100Y-23416636D01*
X31359164Y-23271936D01*
X33296200Y-23271936D01*
X33296200Y-23438664D01*
X33360004Y-23592701D01*
X33477899Y-23710596D01*
X33631936Y-23774400D01*
X33798664Y-23774400D01*
X33952701Y-23710596D01*
X34070596Y-23592701D01*
X34081392Y-23566636D01*
X36770900Y-23566636D01*
X36770900Y-23733364D01*
X36827706Y-23870506D01*
X36815298Y-23900462D01*
X36815298Y-24067190D01*
X36879102Y-24221227D01*
X36996997Y-24339122D01*
X37151034Y-24402926D01*
X37317762Y-24402926D01*
X37471799Y-24339122D01*
X37589694Y-24221227D01*
X37653498Y-24067190D01*
X37653498Y-23900462D01*
X37596692Y-23763320D01*
X37609100Y-23733364D01*
X37609100Y-23675980D01*
X38280900Y-23675980D01*
X38280900Y-23842708D01*
X38344704Y-23996745D01*
X38462599Y-24114640D01*
X38616636Y-24178444D01*
X38783364Y-24178444D01*
X38937401Y-24114640D01*
X39055296Y-23996745D01*
X39119100Y-23842708D01*
X39119100Y-23675980D01*
X39055296Y-23521943D01*
X38937401Y-23404048D01*
X38783364Y-23340244D01*
X38616636Y-23340244D01*
X38462599Y-23404048D01*
X38344704Y-23521943D01*
X38280900Y-23675980D01*
X37609100Y-23675980D01*
X37609100Y-23566636D01*
X37545296Y-23412599D01*
X37427401Y-23294704D01*
X37273364Y-23230900D01*
X37106636Y-23230900D01*
X36952599Y-23294704D01*
X36834704Y-23412599D01*
X36770900Y-23566636D01*
X34081392Y-23566636D01*
X34134400Y-23438664D01*
X34134400Y-23271936D01*
X34070596Y-23117899D01*
X33952701Y-23000004D01*
X33798664Y-22936200D01*
X33631936Y-22936200D01*
X33477899Y-23000004D01*
X33360004Y-23117899D01*
X33296200Y-23271936D01*
X31359164Y-23271936D01*
X31355296Y-23262599D01*
X31237401Y-23144704D01*
X31083364Y-23080900D01*
X30999100Y-23080900D01*
X30999100Y-23066636D01*
X30935296Y-22912599D01*
X30817401Y-22794704D01*
X30663364Y-22730900D01*
X30496636Y-22730900D01*
X30342599Y-22794704D01*
X30224704Y-22912599D01*
X30160900Y-23066636D01*
X26588733Y-23066636D01*
X26522101Y-23000004D01*
X26368064Y-22936200D01*
X26201336Y-22936200D01*
X26047299Y-23000004D01*
X25929404Y-23117899D01*
X25865600Y-23271936D01*
X20813217Y-23271936D01*
X20779398Y-23190290D01*
X20661503Y-23072395D01*
X20507466Y-23008591D01*
X20501288Y-23008591D01*
X20407401Y-22914704D01*
X20253364Y-22850900D01*
X20086636Y-22850900D01*
X20063500Y-22860483D01*
X20063500Y-22000000D01*
X20759500Y-22000000D01*
X20853927Y-22474719D01*
X21122834Y-22877166D01*
X21525281Y-23146073D01*
X22000000Y-23240500D01*
X22474719Y-23146073D01*
X22877166Y-22877166D01*
X22954609Y-22761265D01*
X22954609Y-22847377D01*
X23018413Y-23001414D01*
X23136308Y-23119309D01*
X23290345Y-23183113D01*
X23457073Y-23183113D01*
X23611110Y-23119309D01*
X23729005Y-23001414D01*
X23792809Y-22847377D01*
X23792809Y-22680649D01*
X23729005Y-22526612D01*
X23689029Y-22486636D01*
X24260900Y-22486636D01*
X24260900Y-22653364D01*
X24324704Y-22807401D01*
X24442599Y-22925296D01*
X24596636Y-22989100D01*
X24763364Y-22989100D01*
X24917401Y-22925296D01*
X25035296Y-22807401D01*
X25099100Y-22653364D01*
X25099100Y-22486636D01*
X25035296Y-22332599D01*
X24917401Y-22214704D01*
X24763364Y-22150900D01*
X24596636Y-22150900D01*
X24442599Y-22214704D01*
X24324704Y-22332599D01*
X24260900Y-22486636D01*
X23689029Y-22486636D01*
X23611110Y-22408717D01*
X23457073Y-22344913D01*
X23290345Y-22344913D01*
X23161257Y-22398383D01*
X23240500Y-22000000D01*
X23153103Y-21560621D01*
X24404885Y-21560621D01*
X24404885Y-21727349D01*
X24468689Y-21881386D01*
X24586584Y-21999281D01*
X24740621Y-22063085D01*
X24907349Y-22063085D01*
X25061386Y-21999281D01*
X25117475Y-21943192D01*
X26830998Y-21943192D01*
X26830998Y-22109920D01*
X26894802Y-22263957D01*
X27012697Y-22381852D01*
X27166734Y-22445656D01*
X27333462Y-22445656D01*
X27356691Y-22436034D01*
X28140900Y-22436034D01*
X28140900Y-22602762D01*
X28204704Y-22756799D01*
X28322599Y-22874694D01*
X28476636Y-22938498D01*
X28643364Y-22938498D01*
X28797401Y-22874694D01*
X28915296Y-22756799D01*
X28979100Y-22602762D01*
X28979100Y-22436034D01*
X28915296Y-22281997D01*
X28797401Y-22164102D01*
X28643364Y-22100298D01*
X28476636Y-22100298D01*
X28322599Y-22164102D01*
X28204704Y-22281997D01*
X28140900Y-22436034D01*
X27356691Y-22436034D01*
X27487499Y-22381852D01*
X27605394Y-22263957D01*
X27669198Y-22109920D01*
X27669198Y-21943192D01*
X27605394Y-21789155D01*
X27487499Y-21671260D01*
X27333462Y-21607456D01*
X27166734Y-21607456D01*
X27012697Y-21671260D01*
X26894802Y-21789155D01*
X26830998Y-21943192D01*
X25117475Y-21943192D01*
X25179281Y-21881386D01*
X25243085Y-21727349D01*
X25243085Y-21560621D01*
X25179281Y-21406584D01*
X25061386Y-21288689D01*
X24907349Y-21224885D01*
X24740621Y-21224885D01*
X24586584Y-21288689D01*
X24468689Y-21406584D01*
X24404885Y-21560621D01*
X23153103Y-21560621D01*
X23146073Y-21525281D01*
X22877166Y-21122834D01*
X22474719Y-20853927D01*
X22000000Y-20759500D01*
X21525281Y-20853927D01*
X21122834Y-21122834D01*
X20853927Y-21525281D01*
X20759500Y-22000000D01*
X20063500Y-22000000D01*
X20063500Y-21415057D01*
X20097455Y-21381102D01*
X20173326Y-21267555D01*
X20178045Y-21256162D01*
X20209237Y-21180858D01*
X20235879Y-21046919D01*
X20302666Y-20711155D01*
X20466284Y-20466284D01*
X20711155Y-20302666D01*
X21023688Y-20240500D01*
X24325364Y-20240500D01*
X24306502Y-20286036D01*
X24306502Y-20286036D01*
G37*
X24306502Y-20286036D02*
X24306502Y-20452764D01*
X24370306Y-20606801D01*
X24488201Y-20724696D01*
X24642238Y-20788500D01*
X24808966Y-20788500D01*
X24963003Y-20724696D01*
X25080898Y-20606801D01*
X25144702Y-20452764D01*
X25144702Y-20286036D01*
X25125840Y-20240500D01*
X26154950Y-20240500D01*
X26134539Y-20289776D01*
X26134539Y-20456504D01*
X26198343Y-20610541D01*
X26316238Y-20728436D01*
X26470275Y-20792240D01*
X26637003Y-20792240D01*
X26759172Y-20741636D01*
X26861502Y-20741636D01*
X26861502Y-20908364D01*
X26925306Y-21062401D01*
X27043201Y-21180296D01*
X27115622Y-21210294D01*
X27146724Y-21285381D01*
X27264619Y-21403276D01*
X27418656Y-21467080D01*
X27585384Y-21467080D01*
X27739421Y-21403276D01*
X27857316Y-21285381D01*
X27921120Y-21131344D01*
X27921120Y-20964616D01*
X27916525Y-20953523D01*
X27933340Y-20936708D01*
X27997144Y-20782671D01*
X27997144Y-20615943D01*
X27933340Y-20461906D01*
X27815445Y-20344011D01*
X27661408Y-20280207D01*
X27494680Y-20280207D01*
X27340643Y-20344011D01*
X27278754Y-20405900D01*
X27197238Y-20405900D01*
X27043201Y-20469704D01*
X26925306Y-20587599D01*
X26861502Y-20741636D01*
X26759172Y-20741636D01*
X26791040Y-20728436D01*
X26908935Y-20610541D01*
X26972739Y-20456504D01*
X26972739Y-20289776D01*
X26952328Y-20240500D01*
X30109172Y-20240500D01*
X30122413Y-20272467D01*
X30085500Y-20361584D01*
X30085500Y-20538416D01*
X30153171Y-20701789D01*
X30176382Y-20725000D01*
X30153171Y-20748211D01*
X30085500Y-20911584D01*
X30085500Y-21088416D01*
X30153171Y-21251789D01*
X30176382Y-21275000D01*
X30153171Y-21298211D01*
X30085500Y-21461584D01*
X30085500Y-21638416D01*
X30153171Y-21801789D01*
X30278211Y-21926829D01*
X30441584Y-21994500D01*
X30618416Y-21994500D01*
X30781789Y-21926829D01*
X30805000Y-21903618D01*
X30828211Y-21926829D01*
X30991584Y-21994500D01*
X31168416Y-21994500D01*
X31331789Y-21926829D01*
X31355000Y-21903618D01*
X31378211Y-21926829D01*
X31490267Y-21973244D01*
X31462599Y-21984704D01*
X31344704Y-22102599D01*
X31280900Y-22256636D01*
X31280900Y-22423364D01*
X31344704Y-22577401D01*
X31462599Y-22695296D01*
X31616636Y-22759100D01*
X31783364Y-22759100D01*
X31937401Y-22695296D01*
X32055296Y-22577401D01*
X32072181Y-22536636D01*
X34990900Y-22536636D01*
X34990900Y-22703364D01*
X35054704Y-22857401D01*
X35172599Y-22975296D01*
X35326636Y-23039100D01*
X35493364Y-23039100D01*
X35647401Y-22975296D01*
X35765296Y-22857401D01*
X35773897Y-22836636D01*
X36260900Y-22836636D01*
X36260900Y-23003364D01*
X36324704Y-23157401D01*
X36442599Y-23275296D01*
X36596636Y-23339100D01*
X36763364Y-23339100D01*
X36917401Y-23275296D01*
X37035296Y-23157401D01*
X37099100Y-23003364D01*
X37099100Y-22841646D01*
X37122834Y-22877166D01*
X37525281Y-23146073D01*
X38000000Y-23240500D01*
X38474719Y-23146073D01*
X38877166Y-22877166D01*
X39146073Y-22474719D01*
X39240500Y-22000000D01*
X39146073Y-21525281D01*
X38877166Y-21122834D01*
X38474719Y-20853927D01*
X38000000Y-20759500D01*
X37525281Y-20853927D01*
X37122834Y-21122834D01*
X36853927Y-21525281D01*
X36759500Y-22000000D01*
X36853927Y-22474719D01*
X36912772Y-22562787D01*
X36763364Y-22500900D01*
X36596636Y-22500900D01*
X36442599Y-22564704D01*
X36324704Y-22682599D01*
X36260900Y-22836636D01*
X35773897Y-22836636D01*
X35829100Y-22703364D01*
X35829100Y-22536636D01*
X35765296Y-22382599D01*
X35647401Y-22264704D01*
X35493364Y-22200900D01*
X35326636Y-22200900D01*
X35172599Y-22264704D01*
X35054704Y-22382599D01*
X34990900Y-22536636D01*
X32072181Y-22536636D01*
X32119100Y-22423364D01*
X32119100Y-22256636D01*
X32055296Y-22102599D01*
X31937401Y-21984704D01*
X31839733Y-21944249D01*
X31881789Y-21926829D01*
X32006829Y-21801789D01*
X32008714Y-21797236D01*
X32268929Y-21797236D01*
X32268929Y-21963964D01*
X32332733Y-22118001D01*
X32450628Y-22235896D01*
X32604665Y-22299700D01*
X32771393Y-22299700D01*
X32925430Y-22235896D01*
X33043325Y-22118001D01*
X33107129Y-21963964D01*
X33107129Y-21797236D01*
X33043325Y-21643199D01*
X32960064Y-21559938D01*
X34757598Y-21559938D01*
X34757598Y-21726666D01*
X34821402Y-21880703D01*
X34939297Y-21998598D01*
X35093334Y-22062402D01*
X35260062Y-22062402D01*
X35414099Y-21998598D01*
X35531994Y-21880703D01*
X35595798Y-21726666D01*
X35595798Y-21559938D01*
X35531994Y-21405901D01*
X35414099Y-21288006D01*
X35260062Y-21224202D01*
X35093334Y-21224202D01*
X34939297Y-21288006D01*
X34821402Y-21405901D01*
X34757598Y-21559938D01*
X32960064Y-21559938D01*
X32925430Y-21525304D01*
X32771393Y-21461500D01*
X32604665Y-21461500D01*
X32450628Y-21525304D01*
X32332733Y-21643199D01*
X32268929Y-21797236D01*
X32008714Y-21797236D01*
X32074500Y-21638416D01*
X32074500Y-21461584D01*
X32006829Y-21298211D01*
X31983618Y-21275000D01*
X32006829Y-21251789D01*
X32007492Y-21250189D01*
X32052599Y-21295296D01*
X32206636Y-21359100D01*
X32373364Y-21359100D01*
X32527401Y-21295296D01*
X32613597Y-21209100D01*
X32733364Y-21209100D01*
X32887401Y-21145296D01*
X33005296Y-21027401D01*
X33069100Y-20873364D01*
X33069100Y-20706636D01*
X33005296Y-20552599D01*
X32887401Y-20434704D01*
X32733364Y-20370900D01*
X32658734Y-20370900D01*
X32655296Y-20362599D01*
X32537401Y-20244704D01*
X32527252Y-20240500D01*
X33094613Y-20240500D01*
X33050900Y-20346034D01*
X33050900Y-20512762D01*
X33114704Y-20666799D01*
X33232599Y-20784694D01*
X33386636Y-20848498D01*
X33553364Y-20848498D01*
X33707401Y-20784694D01*
X33825296Y-20666799D01*
X33889100Y-20512762D01*
X33889100Y-20346034D01*
X33845387Y-20240500D01*
X34969552Y-20240500D01*
X34950690Y-20286036D01*
X34950690Y-20452764D01*
X35014494Y-20606801D01*
X35132389Y-20724696D01*
X35286426Y-20788500D01*
X35453154Y-20788500D01*
X35607191Y-20724696D01*
X35725086Y-20606801D01*
X35788890Y-20452764D01*
X35788890Y-20286036D01*
X35770028Y-20240500D01*
X38976312Y-20240500D01*
X39288845Y-20302666D01*
X39533716Y-20466284D01*
X39697334Y-20711155D01*
X39764121Y-21046919D01*
X39790763Y-21180858D01*
X39826673Y-21267553D01*
X39826674Y-21267554D01*
X39902543Y-21381100D01*
X39936500Y-21415057D01*
X39936500Y-22860483D01*
X39913364Y-22850900D01*
X39746636Y-22850900D01*
X39592599Y-22914704D01*
X39498712Y-23008591D01*
X39492534Y-23008591D01*
X39338497Y-23072395D01*
X39220602Y-23190290D01*
X39156798Y-23344327D01*
X39156798Y-23511055D01*
X39220602Y-23665092D01*
X39313692Y-23758182D01*
X39313692Y-23764029D01*
X39377496Y-23918066D01*
X39495391Y-24035961D01*
X39649428Y-24099765D01*
X39816156Y-24099765D01*
X39836618Y-24091290D01*
X39845703Y-24113224D01*
X39845704Y-24113225D01*
X39936500Y-24249110D01*
X39936500Y-24618975D01*
X39808364Y-24565900D01*
X39641636Y-24565900D01*
X39487599Y-24629704D01*
X39369704Y-24747599D01*
X39305900Y-24901636D01*
X39305900Y-25068364D01*
X39369704Y-25222401D01*
X39487599Y-25340296D01*
X39641636Y-25404100D01*
X39808364Y-25404100D01*
X39936500Y-25351025D01*
X39936500Y-25492150D01*
X39837886Y-25492150D01*
X39683849Y-25555954D01*
X39565954Y-25673849D01*
X39502150Y-25827886D01*
X39502150Y-25994614D01*
X39565954Y-26148651D01*
X39683849Y-26266546D01*
X39837886Y-26330350D01*
X39883406Y-26330350D01*
X39845704Y-26386775D01*
X39845703Y-26386776D01*
X39838832Y-26403364D01*
X39815642Y-26459351D01*
X39809793Y-26473471D01*
X39764121Y-26703081D01*
X39764121Y-26704500D01*
X39626636Y-26704500D01*
X39472599Y-26768304D01*
X39354704Y-26886199D01*
X39290900Y-27040236D01*
X39290900Y-27206964D01*
X39354704Y-27361001D01*
X39472599Y-27478896D01*
X39626636Y-27542700D01*
X39793364Y-27542700D01*
X39936500Y-27483411D01*
X39936500Y-28083803D01*
X39912401Y-28059704D01*
X39758364Y-27995900D01*
X39591636Y-27995900D01*
X39437599Y-28059704D01*
X39319704Y-28177599D01*
X39255900Y-28331636D01*
X39255900Y-28498364D01*
X39319704Y-28652401D01*
X39437599Y-28770296D01*
X39591636Y-28834100D01*
X39758364Y-28834100D01*
X39912401Y-28770296D01*
X39936500Y-28746197D01*
X39936500Y-29250890D01*
X39845704Y-29386775D01*
X39845703Y-29386776D01*
X39841619Y-29396636D01*
X39815642Y-29459351D01*
X39809793Y-29473471D01*
X39764121Y-29703081D01*
X39764121Y-29703091D01*
X39759501Y-29726317D01*
X39759500Y-30273682D01*
X39764121Y-30296913D01*
X39764121Y-30296919D01*
X39809793Y-30526529D01*
X39809793Y-30526530D01*
X39824668Y-30562440D01*
X39845703Y-30613224D01*
X39845704Y-30613225D01*
X39936500Y-30749110D01*
X39936500Y-31253803D01*
X39912401Y-31229704D01*
X39758364Y-31165900D01*
X39591636Y-31165900D01*
X39437599Y-31229704D01*
X39319704Y-31347599D01*
X39255900Y-31501636D01*
X39255900Y-31668364D01*
X39319704Y-31822401D01*
X39437599Y-31940296D01*
X39591636Y-32004100D01*
X39758364Y-32004100D01*
X39912401Y-31940296D01*
X39936500Y-31916197D01*
X39936500Y-32516589D01*
X39793364Y-32457300D01*
X39626636Y-32457300D01*
X39472599Y-32521104D01*
X39354704Y-32638999D01*
X39290900Y-32793036D01*
X39290900Y-32959764D01*
X39354704Y-33113801D01*
X39472599Y-33231696D01*
X39626636Y-33295500D01*
X39764121Y-33295500D01*
X39764121Y-33296919D01*
X39809793Y-33526529D01*
X39809793Y-33526530D01*
X39824668Y-33562440D01*
X39845703Y-33613224D01*
X39845704Y-33613225D01*
X39883406Y-33669650D01*
X39837886Y-33669650D01*
X39683849Y-33733454D01*
X39565954Y-33851349D01*
X39502150Y-34005386D01*
X39502150Y-34172114D01*
X39565954Y-34326151D01*
X39683849Y-34444046D01*
X39837886Y-34507850D01*
X39936500Y-34507850D01*
X39936500Y-34648975D01*
X39808364Y-34595900D01*
X39641636Y-34595900D01*
X39487599Y-34659704D01*
X39369704Y-34777599D01*
X39305900Y-34931636D01*
X39305900Y-35098364D01*
X39369704Y-35252401D01*
X39487599Y-35370296D01*
X39641636Y-35434100D01*
X39808364Y-35434100D01*
X39936500Y-35381025D01*
X39936500Y-35750890D01*
X39845704Y-35886775D01*
X39845703Y-35886776D01*
X39836618Y-35908710D01*
X39816156Y-35900235D01*
X39649428Y-35900235D01*
X39495391Y-35964039D01*
X39377496Y-36081934D01*
X39313692Y-36235971D01*
X39313692Y-36241818D01*
X39220602Y-36334908D01*
X39156798Y-36488945D01*
X39156798Y-36655673D01*
X39220602Y-36809710D01*
X39338497Y-36927605D01*
X39492534Y-36991409D01*
X39498712Y-36991409D01*
X39592599Y-37085296D01*
X39746636Y-37149100D01*
X39913364Y-37149100D01*
X39936500Y-37139517D01*
X39936500Y-38584943D01*
X39902545Y-38618898D01*
X39826675Y-38732445D01*
X39826673Y-38732447D01*
X39790763Y-38819142D01*
X39764121Y-38953081D01*
X39697334Y-39288845D01*
X39533716Y-39533716D01*
X39288845Y-39697334D01*
X38976312Y-39759500D01*
X35578278Y-39759500D01*
X35597466Y-39713176D01*
X35597466Y-39546448D01*
X35533662Y-39392411D01*
X35415767Y-39274516D01*
X35261730Y-39210712D01*
X35095002Y-39210712D01*
X34940965Y-39274516D01*
X34823070Y-39392411D01*
X34759266Y-39546448D01*
X34759266Y-39713176D01*
X34778454Y-39759500D01*
X34021424Y-39759500D01*
X34057029Y-39673541D01*
X34057029Y-39506813D01*
X33993225Y-39352776D01*
X33875330Y-39234881D01*
X33721293Y-39171077D01*
X33554565Y-39171077D01*
X33400528Y-39234881D01*
X33282633Y-39352776D01*
X33218829Y-39506813D01*
X33218829Y-39673541D01*
X33254434Y-39759500D01*
X32813197Y-39759500D01*
X32905296Y-39667401D01*
X32969100Y-39513364D01*
X32969100Y-39346636D01*
X32905296Y-39192599D01*
X32888210Y-39175513D01*
X32889100Y-39173364D01*
X32889100Y-39006636D01*
X32825296Y-38852599D01*
X32707401Y-38734704D01*
X32553364Y-38670900D01*
X32386636Y-38670900D01*
X32232599Y-38734704D01*
X32114704Y-38852599D01*
X32050900Y-39006636D01*
X32050900Y-39078445D01*
X31942340Y-39123412D01*
X31824445Y-39241307D01*
X31760641Y-39395344D01*
X31760641Y-39562072D01*
X31824445Y-39716109D01*
X31867836Y-39759500D01*
X27883197Y-39759500D01*
X27995296Y-39647401D01*
X28059100Y-39493364D01*
X28059100Y-39326636D01*
X28020842Y-39234274D01*
X28056636Y-39249100D01*
X28223364Y-39249100D01*
X28377401Y-39185296D01*
X28495296Y-39067401D01*
X28559100Y-38913364D01*
X28559100Y-38746636D01*
X28495296Y-38592599D01*
X28377401Y-38474704D01*
X28223364Y-38410900D01*
X28056636Y-38410900D01*
X27902599Y-38474704D01*
X27784704Y-38592599D01*
X27720900Y-38746636D01*
X27720900Y-38769209D01*
X27611453Y-38723875D01*
X27444725Y-38723875D01*
X27290688Y-38787679D01*
X27172793Y-38905574D01*
X27135064Y-38996661D01*
X27043219Y-39034704D01*
X26925324Y-39152599D01*
X26861520Y-39306636D01*
X26861520Y-39468938D01*
X26805296Y-39333201D01*
X26687401Y-39215306D01*
X26533364Y-39151502D01*
X26366636Y-39151502D01*
X26212599Y-39215306D01*
X26094704Y-39333201D01*
X26030900Y-39487238D01*
X26030900Y-39653966D01*
X26074613Y-39759500D01*
X25221546Y-39759500D01*
X25240734Y-39713176D01*
X25240734Y-39546448D01*
X25176930Y-39392411D01*
X25059035Y-39274516D01*
X24904998Y-39210712D01*
X24738270Y-39210712D01*
X24584233Y-39274516D01*
X24466338Y-39392411D01*
X24402534Y-39546448D01*
X24402534Y-39713176D01*
X24421722Y-39759500D01*
X21023688Y-39759500D01*
X20711155Y-39697334D01*
X20466284Y-39533716D01*
X20302666Y-39288845D01*
X20235879Y-38953081D01*
X20209237Y-38819142D01*
X20173327Y-38732447D01*
X20173326Y-38732446D01*
X20173326Y-38732445D01*
X20097455Y-38618898D01*
X20063500Y-38584943D01*
X20063500Y-38000000D01*
X20759500Y-38000000D01*
X20853927Y-38474719D01*
X21122834Y-38877166D01*
X21525281Y-39146073D01*
X22000000Y-39240500D01*
X22474719Y-39146073D01*
X22877166Y-38877166D01*
X23146073Y-38474719D01*
X23186736Y-38270287D01*
X24407249Y-38270287D01*
X24407249Y-38437015D01*
X24471053Y-38591052D01*
X24588948Y-38708947D01*
X24742985Y-38772751D01*
X24909713Y-38772751D01*
X25063750Y-38708947D01*
X25181645Y-38591052D01*
X25245449Y-38437015D01*
X25245449Y-38270287D01*
X25181645Y-38116250D01*
X25172641Y-38107246D01*
X26786512Y-38107246D01*
X26786512Y-38273974D01*
X26850316Y-38428011D01*
X26968211Y-38545906D01*
X27122248Y-38609710D01*
X27288976Y-38609710D01*
X27443013Y-38545906D01*
X27560908Y-38428011D01*
X27624712Y-38273974D01*
X27624712Y-38246036D01*
X30461055Y-38246036D01*
X30461055Y-38412764D01*
X30524859Y-38566801D01*
X30642754Y-38684696D01*
X30796791Y-38748500D01*
X30963519Y-38748500D01*
X31117556Y-38684696D01*
X31235451Y-38566801D01*
X31299255Y-38412764D01*
X31299255Y-38246036D01*
X31235451Y-38091999D01*
X31117556Y-37974104D01*
X30963519Y-37910300D01*
X30796791Y-37910300D01*
X30642754Y-37974104D01*
X30524859Y-38091999D01*
X30461055Y-38246036D01*
X27624712Y-38246036D01*
X27624712Y-38107246D01*
X27560908Y-37953209D01*
X27467738Y-37860039D01*
X32222835Y-37860039D01*
X32222835Y-38026767D01*
X32286639Y-38180804D01*
X32404534Y-38298699D01*
X32558571Y-38362503D01*
X32725299Y-38362503D01*
X32879336Y-38298699D01*
X32905512Y-38272523D01*
X34756787Y-38272523D01*
X34756787Y-38439251D01*
X34820591Y-38593288D01*
X34938486Y-38711183D01*
X35092523Y-38774987D01*
X35259251Y-38774987D01*
X35413288Y-38711183D01*
X35531183Y-38593288D01*
X35594987Y-38439251D01*
X35594987Y-38272523D01*
X35531183Y-38118486D01*
X35413288Y-38000591D01*
X35259251Y-37936787D01*
X35092523Y-37936787D01*
X34938486Y-38000591D01*
X34820591Y-38118486D01*
X34756787Y-38272523D01*
X32905512Y-38272523D01*
X32997231Y-38180804D01*
X33061035Y-38026767D01*
X33061035Y-37860039D01*
X32997231Y-37706002D01*
X32879336Y-37588107D01*
X32725299Y-37524303D01*
X32558571Y-37524303D01*
X32404534Y-37588107D01*
X32286639Y-37706002D01*
X32222835Y-37860039D01*
X27467738Y-37860039D01*
X27443013Y-37835314D01*
X27288976Y-37771510D01*
X27122248Y-37771510D01*
X26968211Y-37835314D01*
X26850316Y-37953209D01*
X26786512Y-38107246D01*
X25172641Y-38107246D01*
X25063750Y-37998355D01*
X24909713Y-37934551D01*
X24742985Y-37934551D01*
X24588948Y-37998355D01*
X24471053Y-38116250D01*
X24407249Y-38270287D01*
X23186736Y-38270287D01*
X23240500Y-38000000D01*
X23146073Y-37525281D01*
X23069670Y-37410936D01*
X23144410Y-37485676D01*
X23298447Y-37549480D01*
X23465175Y-37549480D01*
X23619212Y-37485676D01*
X23737107Y-37367781D01*
X23798134Y-37220447D01*
X24364711Y-37220447D01*
X24364711Y-37387175D01*
X24428515Y-37541212D01*
X24546410Y-37659107D01*
X24700447Y-37722911D01*
X24867175Y-37722911D01*
X25021212Y-37659107D01*
X25139107Y-37541212D01*
X25202911Y-37387175D01*
X25202911Y-37220447D01*
X25181700Y-37169237D01*
X30458299Y-37169237D01*
X30458299Y-37335965D01*
X30522103Y-37490002D01*
X30639998Y-37607897D01*
X30794035Y-37671701D01*
X30960763Y-37671701D01*
X31114800Y-37607897D01*
X31232695Y-37490002D01*
X31296499Y-37335965D01*
X31296499Y-37169237D01*
X31232695Y-37015200D01*
X31130722Y-36913227D01*
X31529073Y-36913227D01*
X31529073Y-37079955D01*
X31592877Y-37233992D01*
X31710772Y-37351887D01*
X31864809Y-37415691D01*
X32031537Y-37415691D01*
X32185574Y-37351887D01*
X32215081Y-37322380D01*
X34978601Y-37322380D01*
X34978601Y-37489108D01*
X35042405Y-37643145D01*
X35160300Y-37761040D01*
X35314337Y-37824844D01*
X35481065Y-37824844D01*
X35635102Y-37761040D01*
X35752997Y-37643145D01*
X35816801Y-37489108D01*
X35816801Y-37322380D01*
X35752997Y-37168343D01*
X35635102Y-37050448D01*
X35553473Y-37016636D01*
X36260900Y-37016636D01*
X36260900Y-37183364D01*
X36324704Y-37337401D01*
X36442599Y-37455296D01*
X36596636Y-37519100D01*
X36763364Y-37519100D01*
X36894294Y-37464867D01*
X36853927Y-37525281D01*
X36759500Y-38000000D01*
X36853927Y-38474719D01*
X37122834Y-38877166D01*
X37525281Y-39146073D01*
X38000000Y-39240500D01*
X38474719Y-39146073D01*
X38877166Y-38877166D01*
X39146073Y-38474719D01*
X39240500Y-38000000D01*
X39146073Y-37525281D01*
X38877166Y-37122834D01*
X38474719Y-36853927D01*
X38000000Y-36759500D01*
X37525281Y-36853927D01*
X37122834Y-37122834D01*
X37099100Y-37158354D01*
X37099100Y-37016636D01*
X37035296Y-36862599D01*
X36917401Y-36744704D01*
X36763364Y-36680900D01*
X36596636Y-36680900D01*
X36442599Y-36744704D01*
X36324704Y-36862599D01*
X36260900Y-37016636D01*
X35553473Y-37016636D01*
X35481065Y-36986644D01*
X35314337Y-36986644D01*
X35160300Y-37050448D01*
X35042405Y-37168343D01*
X34978601Y-37322380D01*
X32215081Y-37322380D01*
X32303469Y-37233992D01*
X32367273Y-37079955D01*
X32367273Y-36913227D01*
X32303469Y-36759190D01*
X32185574Y-36641295D01*
X32031537Y-36577491D01*
X31864809Y-36577491D01*
X31710772Y-36641295D01*
X31592877Y-36759190D01*
X31529073Y-36913227D01*
X31130722Y-36913227D01*
X31114800Y-36897305D01*
X30960763Y-36833501D01*
X30794035Y-36833501D01*
X30639998Y-36897305D01*
X30522103Y-37015200D01*
X30458299Y-37169237D01*
X25181700Y-37169237D01*
X25139107Y-37066410D01*
X25021212Y-36948515D01*
X24867175Y-36884711D01*
X24700447Y-36884711D01*
X24546410Y-36948515D01*
X24428515Y-37066410D01*
X24364711Y-37220447D01*
X23798134Y-37220447D01*
X23800911Y-37213744D01*
X23800911Y-37047016D01*
X23737107Y-36892979D01*
X23619212Y-36775084D01*
X23465175Y-36711280D01*
X23298447Y-36711280D01*
X23144410Y-36775084D01*
X23026515Y-36892979D01*
X22962711Y-37047016D01*
X22962711Y-37213744D01*
X23003160Y-37311397D01*
X22877166Y-37122834D01*
X22474719Y-36853927D01*
X22000000Y-36759500D01*
X21525281Y-36853927D01*
X21122834Y-37122834D01*
X20853927Y-37525281D01*
X20759500Y-38000000D01*
X20063500Y-38000000D01*
X20063500Y-37139517D01*
X20086636Y-37149100D01*
X20253364Y-37149100D01*
X20407401Y-37085296D01*
X20501288Y-36991409D01*
X20507466Y-36991409D01*
X20661503Y-36927605D01*
X20779398Y-36809710D01*
X20843202Y-36655673D01*
X20843202Y-36488945D01*
X20779398Y-36334908D01*
X20686308Y-36241818D01*
X20686308Y-36235971D01*
X20658120Y-36167917D01*
X20864602Y-36167917D01*
X20864602Y-36334645D01*
X20928406Y-36488682D01*
X21046301Y-36606577D01*
X21200338Y-36670381D01*
X21367066Y-36670381D01*
X21521103Y-36606577D01*
X21638998Y-36488682D01*
X21702802Y-36334645D01*
X21702802Y-36167917D01*
X21638998Y-36013880D01*
X21628009Y-36002891D01*
X22395113Y-36002891D01*
X22395113Y-36169619D01*
X22458917Y-36323656D01*
X22485438Y-36350177D01*
X22485438Y-36428216D01*
X22549242Y-36582253D01*
X22667137Y-36700148D01*
X22821174Y-36763952D01*
X22987902Y-36763952D01*
X23141939Y-36700148D01*
X23259834Y-36582253D01*
X23268498Y-36561336D01*
X25865600Y-36561336D01*
X25865600Y-36728064D01*
X25929404Y-36882101D01*
X26047299Y-36999996D01*
X26201336Y-37063800D01*
X26368064Y-37063800D01*
X26522101Y-36999996D01*
X26639996Y-36882101D01*
X26703800Y-36728064D01*
X26703800Y-36561336D01*
X26685285Y-36516636D01*
X27725288Y-36516636D01*
X27725288Y-36683364D01*
X27789092Y-36837401D01*
X27906987Y-36955296D01*
X28061024Y-37019100D01*
X28227752Y-37019100D01*
X28381789Y-36955296D01*
X28499684Y-36837401D01*
X28563488Y-36683364D01*
X28563488Y-36561336D01*
X33296200Y-36561336D01*
X33296200Y-36728064D01*
X33360004Y-36882101D01*
X33477899Y-36999996D01*
X33631936Y-37063800D01*
X33798664Y-37063800D01*
X33952701Y-36999996D01*
X34070596Y-36882101D01*
X34134400Y-36728064D01*
X34134400Y-36561336D01*
X34070596Y-36407299D01*
X33952701Y-36289404D01*
X33798664Y-36225600D01*
X33631936Y-36225600D01*
X33477899Y-36289404D01*
X33360004Y-36407299D01*
X33296200Y-36561336D01*
X28563488Y-36561336D01*
X28563488Y-36516636D01*
X28499684Y-36362599D01*
X28381789Y-36244704D01*
X28227752Y-36180900D01*
X28061024Y-36180900D01*
X27906987Y-36244704D01*
X27789092Y-36362599D01*
X27725288Y-36516636D01*
X26685285Y-36516636D01*
X26639996Y-36407299D01*
X26522101Y-36289404D01*
X26368064Y-36225600D01*
X26201336Y-36225600D01*
X26047299Y-36289404D01*
X25929404Y-36407299D01*
X25865600Y-36561336D01*
X23268498Y-36561336D01*
X23323638Y-36428216D01*
X23323638Y-36261488D01*
X23259834Y-36107451D01*
X23233313Y-36080930D01*
X23233313Y-36002891D01*
X23169509Y-35848854D01*
X23051614Y-35730959D01*
X22897577Y-35667155D01*
X22730849Y-35667155D01*
X22576812Y-35730959D01*
X22458917Y-35848854D01*
X22395113Y-36002891D01*
X21628009Y-36002891D01*
X21521103Y-35895985D01*
X21367066Y-35832181D01*
X21200338Y-35832181D01*
X21046301Y-35895985D01*
X20928406Y-36013880D01*
X20864602Y-36167917D01*
X20658120Y-36167917D01*
X20622504Y-36081934D01*
X20504609Y-35964039D01*
X20350572Y-35900235D01*
X20183844Y-35900235D01*
X20163383Y-35908710D01*
X20154297Y-35886775D01*
X20063500Y-35750889D01*
X20063500Y-35381025D01*
X20191636Y-35434100D01*
X20358364Y-35434100D01*
X20512401Y-35370296D01*
X20630296Y-35252401D01*
X20694100Y-35098364D01*
X20694100Y-35022035D01*
X22271502Y-35022035D01*
X22271502Y-35188763D01*
X22335306Y-35342800D01*
X22453201Y-35460695D01*
X22607238Y-35524499D01*
X22773966Y-35524499D01*
X22928003Y-35460695D01*
X23045898Y-35342800D01*
X23109702Y-35188763D01*
X23109702Y-35172124D01*
X27159962Y-35172124D01*
X27159962Y-35338852D01*
X27223766Y-35492889D01*
X27290969Y-35560092D01*
X27249333Y-35601728D01*
X27185529Y-35755765D01*
X27185529Y-35922493D01*
X27249333Y-36076530D01*
X27367228Y-36194425D01*
X27521265Y-36258229D01*
X27687993Y-36258229D01*
X27842030Y-36194425D01*
X27959925Y-36076530D01*
X28023729Y-35922493D01*
X28023729Y-35909981D01*
X30840792Y-35909981D01*
X30840792Y-36076709D01*
X30904596Y-36230746D01*
X31022491Y-36348641D01*
X31176528Y-36412445D01*
X31343256Y-36412445D01*
X31497293Y-36348641D01*
X31599728Y-36246206D01*
X31712599Y-36359077D01*
X31866636Y-36422881D01*
X32033364Y-36422881D01*
X32187401Y-36359077D01*
X32305296Y-36241182D01*
X32369100Y-36087145D01*
X32369100Y-35920417D01*
X32305296Y-35766380D01*
X32187401Y-35648485D01*
X32033364Y-35584681D01*
X31866636Y-35584681D01*
X31712599Y-35648485D01*
X31610164Y-35750920D01*
X31497293Y-35638049D01*
X31343256Y-35574245D01*
X31176528Y-35574245D01*
X31022491Y-35638049D01*
X30904596Y-35755944D01*
X30840792Y-35909981D01*
X28023729Y-35909981D01*
X28023729Y-35755765D01*
X27959925Y-35601728D01*
X27892722Y-35534525D01*
X27934358Y-35492889D01*
X27998162Y-35338852D01*
X27998162Y-35172124D01*
X27934358Y-35018087D01*
X27816463Y-34900192D01*
X27662426Y-34836388D01*
X27495698Y-34836388D01*
X27341661Y-34900192D01*
X27223766Y-35018087D01*
X27159962Y-35172124D01*
X23109702Y-35172124D01*
X23109702Y-35022035D01*
X23045898Y-34867998D01*
X22974536Y-34796636D01*
X29436502Y-34796636D01*
X29436502Y-34963364D01*
X29500306Y-35117401D01*
X29618201Y-35235296D01*
X29772238Y-35299100D01*
X29938966Y-35299100D01*
X30093003Y-35235296D01*
X30156175Y-35172124D01*
X32001838Y-35172124D01*
X32001838Y-35338852D01*
X32065642Y-35492889D01*
X32183537Y-35610784D01*
X32337574Y-35674588D01*
X32504302Y-35674588D01*
X32508405Y-35672889D01*
X32461289Y-35786636D01*
X32461289Y-35953364D01*
X32525093Y-36107401D01*
X32642988Y-36225296D01*
X32797025Y-36289100D01*
X32963753Y-36289100D01*
X33117790Y-36225296D01*
X33136450Y-36206636D01*
X36710900Y-36206636D01*
X36710900Y-36373364D01*
X36774704Y-36527401D01*
X36892599Y-36645296D01*
X37046636Y-36709100D01*
X37213364Y-36709100D01*
X37367401Y-36645296D01*
X37485296Y-36527401D01*
X37549100Y-36373364D01*
X37549100Y-36294167D01*
X37589694Y-36253573D01*
X37629134Y-36158356D01*
X38275507Y-36158356D01*
X38275507Y-36325084D01*
X38339311Y-36479121D01*
X38457206Y-36597016D01*
X38611243Y-36660820D01*
X38777971Y-36660820D01*
X38932008Y-36597016D01*
X39049903Y-36479121D01*
X39113707Y-36325084D01*
X39113707Y-36158356D01*
X39049903Y-36004319D01*
X38932008Y-35886424D01*
X38777971Y-35822620D01*
X38611243Y-35822620D01*
X38457206Y-35886424D01*
X38339311Y-36004319D01*
X38275507Y-36158356D01*
X37629134Y-36158356D01*
X37653498Y-36099536D01*
X37653498Y-35932808D01*
X37589694Y-35778771D01*
X37471799Y-35660876D01*
X37317762Y-35597072D01*
X37151034Y-35597072D01*
X36996997Y-35660876D01*
X36879102Y-35778771D01*
X36815298Y-35932808D01*
X36815298Y-36012005D01*
X36774704Y-36052599D01*
X36710900Y-36206636D01*
X33136450Y-36206636D01*
X33235685Y-36107401D01*
X33299489Y-35953364D01*
X33299489Y-35786636D01*
X33235685Y-35632599D01*
X33117790Y-35514704D01*
X32963753Y-35450900D01*
X32797025Y-35450900D01*
X32792922Y-35452599D01*
X32840038Y-35338852D01*
X32840038Y-35172124D01*
X32777870Y-35022035D01*
X36890298Y-35022035D01*
X36890298Y-35188763D01*
X36954102Y-35342800D01*
X37071997Y-35460695D01*
X37226034Y-35524499D01*
X37392762Y-35524499D01*
X37546799Y-35460695D01*
X37664694Y-35342800D01*
X37728498Y-35188763D01*
X37728498Y-35022035D01*
X37664694Y-34867998D01*
X37546799Y-34750103D01*
X37392762Y-34686299D01*
X37226034Y-34686299D01*
X37071997Y-34750103D01*
X36954102Y-34867998D01*
X36890298Y-35022035D01*
X32777870Y-35022035D01*
X32776234Y-35018087D01*
X32658339Y-34900192D01*
X32504302Y-34836388D01*
X32337574Y-34836388D01*
X32183537Y-34900192D01*
X32065642Y-35018087D01*
X32001838Y-35172124D01*
X30156175Y-35172124D01*
X30210898Y-35117401D01*
X30274702Y-34963364D01*
X30274702Y-34796636D01*
X30210898Y-34642599D01*
X30093003Y-34524704D01*
X29938966Y-34460900D01*
X29772238Y-34460900D01*
X29618201Y-34524704D01*
X29500306Y-34642599D01*
X29436502Y-34796636D01*
X22974536Y-34796636D01*
X22928003Y-34750103D01*
X22773966Y-34686299D01*
X22607238Y-34686299D01*
X22453201Y-34750103D01*
X22335306Y-34867998D01*
X22271502Y-35022035D01*
X20694100Y-35022035D01*
X20694100Y-34931636D01*
X20630296Y-34777599D01*
X20512401Y-34659704D01*
X20358364Y-34595900D01*
X20191636Y-34595900D01*
X20063500Y-34648975D01*
X20063500Y-34507850D01*
X20162114Y-34507850D01*
X20316151Y-34444046D01*
X20434046Y-34326151D01*
X20497850Y-34172114D01*
X20497850Y-34005386D01*
X20465490Y-33927261D01*
X23544205Y-33927261D01*
X23544205Y-34093989D01*
X23608009Y-34248026D01*
X23725904Y-34365921D01*
X23879941Y-34429725D01*
X24046669Y-34429725D01*
X24200706Y-34365921D01*
X24318601Y-34248026D01*
X24382405Y-34093989D01*
X24382405Y-34013506D01*
X30098098Y-34013506D01*
X30098098Y-34180234D01*
X30161902Y-34334271D01*
X30279797Y-34452166D01*
X30433834Y-34515970D01*
X30600562Y-34515970D01*
X30754599Y-34452166D01*
X30872494Y-34334271D01*
X30936298Y-34180234D01*
X30936298Y-34013506D01*
X30877788Y-33872248D01*
X35499497Y-33872248D01*
X35499497Y-34038976D01*
X35563301Y-34193013D01*
X35681196Y-34310908D01*
X35835233Y-34374712D01*
X36001961Y-34374712D01*
X36155998Y-34310908D01*
X36273893Y-34193013D01*
X36337697Y-34038976D01*
X36337697Y-33872248D01*
X36273893Y-33718211D01*
X36155998Y-33600316D01*
X36001961Y-33536512D01*
X35835233Y-33536512D01*
X35681196Y-33600316D01*
X35563301Y-33718211D01*
X35499497Y-33872248D01*
X30877788Y-33872248D01*
X30872494Y-33859469D01*
X30754599Y-33741574D01*
X30600562Y-33677770D01*
X30433834Y-33677770D01*
X30279797Y-33741574D01*
X30161902Y-33859469D01*
X30098098Y-34013506D01*
X24382405Y-34013506D01*
X24382405Y-33927261D01*
X24318601Y-33773224D01*
X24200706Y-33655329D01*
X24046669Y-33591525D01*
X23879941Y-33591525D01*
X23725904Y-33655329D01*
X23608009Y-33773224D01*
X23544205Y-33927261D01*
X20465490Y-33927261D01*
X20434046Y-33851349D01*
X20316151Y-33733454D01*
X20162114Y-33669650D01*
X20116595Y-33669650D01*
X20154297Y-33613225D01*
X20190207Y-33526529D01*
X20235879Y-33296919D01*
X20235879Y-33295500D01*
X20373364Y-33295500D01*
X20527401Y-33231696D01*
X20645296Y-33113801D01*
X20709100Y-32959764D01*
X20709100Y-32920565D01*
X31481197Y-32920565D01*
X31481197Y-33087293D01*
X31545001Y-33241330D01*
X31662896Y-33359225D01*
X31816933Y-33423029D01*
X31983661Y-33423029D01*
X32137698Y-33359225D01*
X32255593Y-33241330D01*
X32319397Y-33087293D01*
X32319397Y-32920565D01*
X32255593Y-32766528D01*
X32138180Y-32649115D01*
X32147401Y-32645296D01*
X32265296Y-32527401D01*
X32329100Y-32373364D01*
X32329100Y-32206636D01*
X32265296Y-32052599D01*
X32147401Y-31934704D01*
X31993364Y-31870900D01*
X31826636Y-31870900D01*
X31672599Y-31934704D01*
X31554704Y-32052599D01*
X31490900Y-32206636D01*
X31490900Y-32373364D01*
X31554704Y-32527401D01*
X31672117Y-32644814D01*
X31662896Y-32648633D01*
X31545001Y-32766528D01*
X31481197Y-32920565D01*
X20709100Y-32920565D01*
X20709100Y-32793036D01*
X20645296Y-32638999D01*
X20527401Y-32521104D01*
X20373364Y-32457300D01*
X20206636Y-32457300D01*
X20063500Y-32516589D01*
X20063500Y-32206636D01*
X22500900Y-32206636D01*
X22500900Y-32373364D01*
X22564704Y-32527401D01*
X22682599Y-32645296D01*
X22788940Y-32689344D01*
X22804704Y-32727401D01*
X22922599Y-32845296D01*
X23076636Y-32909100D01*
X23243364Y-32909100D01*
X23397401Y-32845296D01*
X23515296Y-32727401D01*
X23579100Y-32573364D01*
X23579100Y-32453597D01*
X23585296Y-32447401D01*
X23636303Y-32324258D01*
X23731012Y-32363488D01*
X23897740Y-32363488D01*
X24051777Y-32299684D01*
X24169672Y-32181789D01*
X24233476Y-32027752D01*
X24233476Y-31861024D01*
X24169672Y-31706987D01*
X24113219Y-31650534D01*
X26743581Y-31650534D01*
X26743581Y-31817262D01*
X26807385Y-31971299D01*
X26925280Y-32089194D01*
X27079317Y-32152998D01*
X27246045Y-32152998D01*
X27400082Y-32089194D01*
X27517977Y-31971299D01*
X27545071Y-31905888D01*
X27570305Y-31966808D01*
X27688200Y-32084703D01*
X27716543Y-32096443D01*
X27670900Y-32206636D01*
X27670900Y-32373364D01*
X27734704Y-32527401D01*
X27852599Y-32645296D01*
X28006636Y-32709100D01*
X28173364Y-32709100D01*
X28327401Y-32645296D01*
X28445296Y-32527401D01*
X28509100Y-32373364D01*
X28509100Y-32206636D01*
X28445296Y-32052599D01*
X28327401Y-31934704D01*
X28299058Y-31922964D01*
X28344701Y-31812771D01*
X28344701Y-31650534D01*
X32418219Y-31650534D01*
X32418219Y-31817262D01*
X32482023Y-31971299D01*
X32599918Y-32089194D01*
X32753955Y-32152998D01*
X32920683Y-32152998D01*
X33074720Y-32089194D01*
X33192615Y-31971299D01*
X33238292Y-31861024D01*
X35766524Y-31861024D01*
X35766524Y-32027752D01*
X35830328Y-32181789D01*
X35948223Y-32299684D01*
X36102260Y-32363488D01*
X36190900Y-32363488D01*
X36190900Y-32443364D01*
X36254704Y-32597401D01*
X36372599Y-32715296D01*
X36476189Y-32758204D01*
X36516521Y-32855575D01*
X36634416Y-32973470D01*
X36788453Y-33037274D01*
X36955181Y-33037274D01*
X37109218Y-32973470D01*
X37193588Y-32889100D01*
X37267752Y-32889100D01*
X37421789Y-32825296D01*
X37539684Y-32707401D01*
X37603488Y-32553364D01*
X37603488Y-32386636D01*
X37539684Y-32232599D01*
X37421789Y-32114704D01*
X37267752Y-32050900D01*
X37101024Y-32050900D01*
X36954351Y-32111654D01*
X36847401Y-32004704D01*
X36693364Y-31940900D01*
X36604724Y-31940900D01*
X36604724Y-31861024D01*
X36540920Y-31706987D01*
X36423025Y-31589092D01*
X36324846Y-31548425D01*
X36764046Y-31548425D01*
X36764046Y-31715153D01*
X36827850Y-31869190D01*
X36945745Y-31987085D01*
X37099782Y-32050889D01*
X37266510Y-32050889D01*
X37420547Y-31987085D01*
X37538442Y-31869190D01*
X37602246Y-31715153D01*
X37602246Y-31548425D01*
X37538442Y-31394388D01*
X37420547Y-31276493D01*
X37266510Y-31212689D01*
X37099782Y-31212689D01*
X36945745Y-31276493D01*
X36827850Y-31394388D01*
X36764046Y-31548425D01*
X36324846Y-31548425D01*
X36268988Y-31525288D01*
X36102260Y-31525288D01*
X35948223Y-31589092D01*
X35830328Y-31706987D01*
X35766524Y-31861024D01*
X33238292Y-31861024D01*
X33256419Y-31817262D01*
X33256419Y-31650534D01*
X33192615Y-31496497D01*
X33074720Y-31378602D01*
X32920683Y-31314798D01*
X32753955Y-31314798D01*
X32599918Y-31378602D01*
X32482023Y-31496497D01*
X32418219Y-31650534D01*
X28344701Y-31650534D01*
X28344701Y-31646043D01*
X28280897Y-31492006D01*
X28163002Y-31374111D01*
X28008965Y-31310307D01*
X27842237Y-31310307D01*
X27688200Y-31374111D01*
X27570305Y-31492006D01*
X27543211Y-31557417D01*
X27517977Y-31496497D01*
X27400082Y-31378602D01*
X27246045Y-31314798D01*
X27079317Y-31314798D01*
X26925280Y-31378602D01*
X26807385Y-31496497D01*
X26743581Y-31650534D01*
X24113219Y-31650534D01*
X24051777Y-31589092D01*
X23897740Y-31525288D01*
X23731012Y-31525288D01*
X23576975Y-31589092D01*
X23459080Y-31706987D01*
X23408073Y-31830130D01*
X23313364Y-31790900D01*
X23146636Y-31790900D01*
X22992599Y-31854704D01*
X22976403Y-31870900D01*
X22836636Y-31870900D01*
X22682599Y-31934704D01*
X22564704Y-32052599D01*
X22500900Y-32206636D01*
X20063500Y-32206636D01*
X20063500Y-31916197D01*
X20087599Y-31940296D01*
X20241636Y-32004100D01*
X20408364Y-32004100D01*
X20562401Y-31940296D01*
X20680296Y-31822401D01*
X20744100Y-31668364D01*
X20744100Y-31501636D01*
X20684781Y-31358426D01*
X22321502Y-31358426D01*
X22321502Y-31525154D01*
X22385306Y-31679191D01*
X22503201Y-31797086D01*
X22657238Y-31860890D01*
X22823966Y-31860890D01*
X22978003Y-31797086D01*
X23095898Y-31679191D01*
X23159702Y-31525154D01*
X23159702Y-31358426D01*
X23095898Y-31204389D01*
X22978003Y-31086494D01*
X22823966Y-31022690D01*
X22657238Y-31022690D01*
X22503201Y-31086494D01*
X22385306Y-31204389D01*
X22321502Y-31358426D01*
X20684781Y-31358426D01*
X20680296Y-31347599D01*
X20562401Y-31229704D01*
X20408364Y-31165900D01*
X20241636Y-31165900D01*
X20087599Y-31229704D01*
X20063500Y-31253803D01*
X20063500Y-30749112D01*
X20154297Y-30613225D01*
X20179807Y-30551636D01*
X20915900Y-30551636D01*
X20915900Y-30718364D01*
X20979704Y-30872401D01*
X21097599Y-30990296D01*
X21251636Y-31054100D01*
X21418364Y-31054100D01*
X21572401Y-30990296D01*
X21646061Y-30916636D01*
X30786502Y-30916636D01*
X30786502Y-31083364D01*
X30850306Y-31237401D01*
X30968201Y-31355296D01*
X31122238Y-31419100D01*
X31288966Y-31419100D01*
X31443003Y-31355296D01*
X31560898Y-31237401D01*
X31624702Y-31083364D01*
X31624702Y-30916636D01*
X31560898Y-30762599D01*
X31464935Y-30666636D01*
X32580900Y-30666636D01*
X32580900Y-30833364D01*
X32644704Y-30987401D01*
X32762599Y-31105296D01*
X32916636Y-31169100D01*
X33083364Y-31169100D01*
X33237401Y-31105296D01*
X33355296Y-30987401D01*
X33419100Y-30833364D01*
X33419100Y-30666636D01*
X33355296Y-30512599D01*
X33237401Y-30394704D01*
X33083364Y-30330900D01*
X32916636Y-30330900D01*
X32762599Y-30394704D01*
X32644704Y-30512599D01*
X32580900Y-30666636D01*
X31464935Y-30666636D01*
X31443003Y-30644704D01*
X31288966Y-30580900D01*
X31122238Y-30580900D01*
X30968201Y-30644704D01*
X30850306Y-30762599D01*
X30786502Y-30916636D01*
X21646061Y-30916636D01*
X21690296Y-30872401D01*
X21754100Y-30718364D01*
X21754100Y-30551636D01*
X21690296Y-30397599D01*
X21572401Y-30279704D01*
X21418364Y-30215900D01*
X21251636Y-30215900D01*
X21097599Y-30279704D01*
X20979704Y-30397599D01*
X20915900Y-30551636D01*
X20179807Y-30551636D01*
X20190207Y-30526529D01*
X20235879Y-30296919D01*
X20235879Y-30296914D01*
X20240500Y-30273683D01*
X20240500Y-29726317D01*
X20235879Y-29703086D01*
X20235879Y-29703081D01*
X20190207Y-29473471D01*
X20180173Y-29449247D01*
X20154297Y-29386775D01*
X20084045Y-29281636D01*
X20915900Y-29281636D01*
X20915900Y-29448364D01*
X20979704Y-29602401D01*
X21097599Y-29720296D01*
X21251636Y-29784100D01*
X21418364Y-29784100D01*
X21572401Y-29720296D01*
X21690296Y-29602401D01*
X21690774Y-29601247D01*
X24692209Y-29601247D01*
X24692209Y-29767975D01*
X24756013Y-29922012D01*
X24873908Y-30039907D01*
X25027945Y-30103711D01*
X25133274Y-30103711D01*
X25015760Y-30221225D01*
X24951956Y-30375262D01*
X24951956Y-30541990D01*
X25015760Y-30696027D01*
X25133655Y-30813922D01*
X25287692Y-30877726D01*
X25454420Y-30877726D01*
X25608457Y-30813922D01*
X25726352Y-30696027D01*
X25790156Y-30541990D01*
X25790156Y-30375262D01*
X25771505Y-30330233D01*
X25878624Y-30285863D01*
X25957851Y-30206636D01*
X33560900Y-30206636D01*
X33560900Y-30373364D01*
X33624704Y-30527401D01*
X33742599Y-30645296D01*
X33896636Y-30709100D01*
X34063364Y-30709100D01*
X34183303Y-30659420D01*
X34202096Y-30704790D01*
X34319991Y-30822685D01*
X34474028Y-30886489D01*
X34640756Y-30886489D01*
X34794793Y-30822685D01*
X34912688Y-30704790D01*
X34976126Y-30551636D01*
X38245900Y-30551636D01*
X38245900Y-30718364D01*
X38309704Y-30872401D01*
X38427599Y-30990296D01*
X38581636Y-31054100D01*
X38748364Y-31054100D01*
X38902401Y-30990296D01*
X39020296Y-30872401D01*
X39084100Y-30718364D01*
X39084100Y-30551636D01*
X39020296Y-30397599D01*
X38902401Y-30279704D01*
X38748364Y-30215900D01*
X38581636Y-30215900D01*
X38427599Y-30279704D01*
X38309704Y-30397599D01*
X38245900Y-30551636D01*
X34976126Y-30551636D01*
X34976492Y-30550753D01*
X34976492Y-30384025D01*
X34912688Y-30229988D01*
X34794793Y-30112093D01*
X34640756Y-30048289D01*
X34474028Y-30048289D01*
X34354089Y-30097969D01*
X34335296Y-30052599D01*
X34217401Y-29934704D01*
X34063364Y-29870900D01*
X33896636Y-29870900D01*
X33742599Y-29934704D01*
X33624704Y-30052599D01*
X33560900Y-30206636D01*
X25957851Y-30206636D01*
X25996519Y-30167968D01*
X26060323Y-30013931D01*
X26060323Y-29847203D01*
X25996519Y-29693166D01*
X25878624Y-29575271D01*
X25724587Y-29511467D01*
X25557859Y-29511467D01*
X25502687Y-29534320D01*
X25466605Y-29447210D01*
X25348710Y-29329315D01*
X25194673Y-29265511D01*
X25027945Y-29265511D01*
X24873908Y-29329315D01*
X24756013Y-29447210D01*
X24692209Y-29601247D01*
X21690774Y-29601247D01*
X21754100Y-29448364D01*
X21754100Y-29281636D01*
X21706466Y-29166636D01*
X26580900Y-29166636D01*
X26580900Y-29333364D01*
X26644704Y-29487401D01*
X26762599Y-29605296D01*
X26916636Y-29669100D01*
X27083364Y-29669100D01*
X27237401Y-29605296D01*
X27355296Y-29487401D01*
X27392891Y-29396636D01*
X27560900Y-29396636D01*
X27560900Y-29563364D01*
X27624704Y-29717401D01*
X27742599Y-29835296D01*
X27896636Y-29899100D01*
X28063364Y-29899100D01*
X28217401Y-29835296D01*
X28335296Y-29717401D01*
X28385383Y-29596479D01*
X30401057Y-29596479D01*
X30401057Y-29763207D01*
X30464861Y-29917244D01*
X30582756Y-30035139D01*
X30736793Y-30098943D01*
X30903521Y-30098943D01*
X31057558Y-30035139D01*
X31175453Y-29917244D01*
X31239257Y-29763207D01*
X31239257Y-29596479D01*
X31175453Y-29442442D01*
X31079647Y-29346636D01*
X31520900Y-29346636D01*
X31520900Y-29513364D01*
X31584704Y-29667401D01*
X31702599Y-29785296D01*
X31856636Y-29849100D01*
X32023364Y-29849100D01*
X32177401Y-29785296D01*
X32295296Y-29667401D01*
X32359100Y-29513364D01*
X32359100Y-29449247D01*
X34000900Y-29449247D01*
X34000900Y-29615975D01*
X34064704Y-29770012D01*
X34182599Y-29887907D01*
X34336636Y-29951711D01*
X34503364Y-29951711D01*
X34657401Y-29887907D01*
X34775296Y-29770012D01*
X34839100Y-29615975D01*
X34839100Y-29612784D01*
X38217130Y-29612784D01*
X38217130Y-29779512D01*
X38280934Y-29933549D01*
X38398829Y-30051444D01*
X38552866Y-30115248D01*
X38719594Y-30115248D01*
X38873631Y-30051444D01*
X38991526Y-29933549D01*
X39055330Y-29779512D01*
X39055330Y-29612784D01*
X38991526Y-29458747D01*
X38873631Y-29340852D01*
X38719594Y-29277048D01*
X38552866Y-29277048D01*
X38398829Y-29340852D01*
X38280934Y-29458747D01*
X38217130Y-29612784D01*
X34839100Y-29612784D01*
X34839100Y-29449247D01*
X34775296Y-29295210D01*
X34657401Y-29177315D01*
X34503364Y-29113511D01*
X34336636Y-29113511D01*
X34182599Y-29177315D01*
X34064704Y-29295210D01*
X34000900Y-29449247D01*
X32359100Y-29449247D01*
X32359100Y-29346636D01*
X32295296Y-29192599D01*
X32177401Y-29074704D01*
X32023364Y-29010900D01*
X31856636Y-29010900D01*
X31702599Y-29074704D01*
X31584704Y-29192599D01*
X31520900Y-29346636D01*
X31079647Y-29346636D01*
X31057558Y-29324547D01*
X30903521Y-29260743D01*
X30736793Y-29260743D01*
X30582756Y-29324547D01*
X30464861Y-29442442D01*
X30401057Y-29596479D01*
X28385383Y-29596479D01*
X28399100Y-29563364D01*
X28399100Y-29396636D01*
X28336702Y-29245995D01*
X28345296Y-29237401D01*
X28409100Y-29083364D01*
X28409100Y-28916636D01*
X28345296Y-28762599D01*
X28227401Y-28644704D01*
X28073364Y-28580900D01*
X27906636Y-28580900D01*
X27752599Y-28644704D01*
X27634704Y-28762599D01*
X27570900Y-28916636D01*
X27570900Y-29083364D01*
X27633298Y-29234005D01*
X27624704Y-29242599D01*
X27560900Y-29396636D01*
X27392891Y-29396636D01*
X27419100Y-29333364D01*
X27419100Y-29166636D01*
X27355296Y-29012599D01*
X27237401Y-28894704D01*
X27083364Y-28830900D01*
X26916636Y-28830900D01*
X26762599Y-28894704D01*
X26644704Y-29012599D01*
X26580900Y-29166636D01*
X21706466Y-29166636D01*
X21690296Y-29127599D01*
X21572401Y-29009704D01*
X21418364Y-28945900D01*
X21251636Y-28945900D01*
X21097599Y-29009704D01*
X20979704Y-29127599D01*
X20915900Y-29281636D01*
X20084045Y-29281636D01*
X20063500Y-29250889D01*
X20063500Y-28746197D01*
X20087599Y-28770296D01*
X20241636Y-28834100D01*
X20408364Y-28834100D01*
X20562401Y-28770296D01*
X20680296Y-28652401D01*
X20734709Y-28521034D01*
X22321502Y-28521034D01*
X22321502Y-28687762D01*
X22385306Y-28841799D01*
X22503201Y-28959694D01*
X22657238Y-29023498D01*
X22823966Y-29023498D01*
X22978003Y-28959694D01*
X23095898Y-28841799D01*
X23159702Y-28687762D01*
X23159702Y-28521034D01*
X23095898Y-28366997D01*
X22978003Y-28249102D01*
X22823966Y-28185298D01*
X22657238Y-28185298D01*
X22503201Y-28249102D01*
X22385306Y-28366997D01*
X22321502Y-28521034D01*
X20734709Y-28521034D01*
X20744100Y-28498364D01*
X20744100Y-28331636D01*
X20680296Y-28177599D01*
X20562401Y-28059704D01*
X20408364Y-27995900D01*
X20241636Y-27995900D01*
X20087599Y-28059704D01*
X20063500Y-28083803D01*
X20063500Y-27626636D01*
X22500900Y-27626636D01*
X22500900Y-27793364D01*
X22564704Y-27947401D01*
X22682599Y-28065296D01*
X22836636Y-28129100D01*
X22976403Y-28129100D01*
X22992599Y-28145296D01*
X23146636Y-28209100D01*
X23313364Y-28209100D01*
X23408073Y-28169870D01*
X23459080Y-28293013D01*
X23576975Y-28410908D01*
X23731012Y-28474712D01*
X23897740Y-28474712D01*
X24051777Y-28410908D01*
X24169672Y-28293013D01*
X24214511Y-28184761D01*
X26735905Y-28184761D01*
X26735905Y-28351489D01*
X26799709Y-28505526D01*
X26917604Y-28623421D01*
X27071641Y-28687225D01*
X27238369Y-28687225D01*
X27392406Y-28623421D01*
X27510301Y-28505526D01*
X27574105Y-28351489D01*
X27574105Y-28326636D01*
X31550900Y-28326636D01*
X31550900Y-28493364D01*
X31614704Y-28647401D01*
X31732599Y-28765296D01*
X31886636Y-28829100D01*
X32053364Y-28829100D01*
X32207401Y-28765296D01*
X32325296Y-28647401D01*
X32389100Y-28493364D01*
X32389100Y-28326636D01*
X32329496Y-28182738D01*
X32418219Y-28182738D01*
X32418219Y-28349466D01*
X32482023Y-28503503D01*
X32599918Y-28621398D01*
X32753955Y-28685202D01*
X32920683Y-28685202D01*
X33074720Y-28621398D01*
X33175084Y-28521034D01*
X36830900Y-28521034D01*
X36830900Y-28687762D01*
X36894704Y-28841799D01*
X37012599Y-28959694D01*
X37166636Y-29023498D01*
X37333364Y-29023498D01*
X37487401Y-28959694D01*
X37605296Y-28841799D01*
X37669100Y-28687762D01*
X37669100Y-28521034D01*
X37605296Y-28366997D01*
X37487401Y-28249102D01*
X37333364Y-28185298D01*
X37166636Y-28185298D01*
X37012599Y-28249102D01*
X36894704Y-28366997D01*
X36830900Y-28521034D01*
X33175084Y-28521034D01*
X33192615Y-28503503D01*
X33256419Y-28349466D01*
X33256419Y-28182738D01*
X33192615Y-28028701D01*
X33136162Y-27972248D01*
X35766524Y-27972248D01*
X35766524Y-28138976D01*
X35830328Y-28293013D01*
X35948223Y-28410908D01*
X36102260Y-28474712D01*
X36268988Y-28474712D01*
X36423025Y-28410908D01*
X36540920Y-28293013D01*
X36591927Y-28169870D01*
X36686636Y-28209100D01*
X36853364Y-28209100D01*
X37007401Y-28145296D01*
X37023597Y-28129100D01*
X37163364Y-28129100D01*
X37317401Y-28065296D01*
X37435296Y-27947401D01*
X37499100Y-27793364D01*
X37499100Y-27626636D01*
X37435296Y-27472599D01*
X37317401Y-27354704D01*
X37211060Y-27310656D01*
X37195296Y-27272599D01*
X37077401Y-27154704D01*
X36923364Y-27090900D01*
X36756636Y-27090900D01*
X36602599Y-27154704D01*
X36484704Y-27272599D01*
X36420900Y-27426636D01*
X36420900Y-27546403D01*
X36414704Y-27552599D01*
X36363697Y-27675742D01*
X36268988Y-27636512D01*
X36102260Y-27636512D01*
X35948223Y-27700316D01*
X35830328Y-27818211D01*
X35766524Y-27972248D01*
X33136162Y-27972248D01*
X33074720Y-27910806D01*
X32920683Y-27847002D01*
X32753955Y-27847002D01*
X32599918Y-27910806D01*
X32482023Y-28028701D01*
X32418219Y-28182738D01*
X32329496Y-28182738D01*
X32325296Y-28172599D01*
X32207401Y-28054704D01*
X32053364Y-27990900D01*
X31886636Y-27990900D01*
X31732599Y-28054704D01*
X31614704Y-28172599D01*
X31550900Y-28326636D01*
X27574105Y-28326636D01*
X27574105Y-28184761D01*
X27510301Y-28030724D01*
X27392406Y-27912829D01*
X27238369Y-27849025D01*
X27071641Y-27849025D01*
X26917604Y-27912829D01*
X26799709Y-28030724D01*
X26735905Y-28184761D01*
X24214511Y-28184761D01*
X24233476Y-28138976D01*
X24233476Y-27972248D01*
X24169672Y-27818211D01*
X24051777Y-27700316D01*
X23897740Y-27636512D01*
X23731012Y-27636512D01*
X23636303Y-27675742D01*
X23590986Y-27566335D01*
X27511930Y-27566335D01*
X27511930Y-27733063D01*
X27575734Y-27887100D01*
X27693629Y-28004995D01*
X27847666Y-28068799D01*
X28014394Y-28068799D01*
X28168431Y-28004995D01*
X28286326Y-27887100D01*
X28350130Y-27733063D01*
X28350130Y-27566335D01*
X28286326Y-27412298D01*
X28259279Y-27385251D01*
X28342775Y-27301755D01*
X28406579Y-27147718D01*
X28406579Y-26980990D01*
X28355071Y-26856636D01*
X29450900Y-26856636D01*
X29450900Y-27023364D01*
X29514704Y-27177401D01*
X29632599Y-27295296D01*
X29786636Y-27359100D01*
X29953364Y-27359100D01*
X30107401Y-27295296D01*
X30225296Y-27177401D01*
X30289100Y-27023364D01*
X30289100Y-26856636D01*
X30233525Y-26722465D01*
X30347401Y-26675296D01*
X30465296Y-26557401D01*
X30529100Y-26403364D01*
X30529100Y-26236636D01*
X30465296Y-26082599D01*
X30347401Y-25964704D01*
X30205704Y-25906011D01*
X35617595Y-25906011D01*
X35617595Y-26072739D01*
X35681399Y-26226776D01*
X35799294Y-26344671D01*
X35953331Y-26408475D01*
X36120059Y-26408475D01*
X36274096Y-26344671D01*
X36391991Y-26226776D01*
X36455795Y-26072739D01*
X36455795Y-25906011D01*
X36391991Y-25751974D01*
X36274096Y-25634079D01*
X36256127Y-25626636D01*
X36885298Y-25626636D01*
X36885298Y-25793364D01*
X36949102Y-25947401D01*
X37066997Y-26065296D01*
X37221034Y-26129100D01*
X37387762Y-26129100D01*
X37541799Y-26065296D01*
X37659694Y-25947401D01*
X37723498Y-25793364D01*
X37723498Y-25626636D01*
X37659694Y-25472599D01*
X37541799Y-25354704D01*
X37387762Y-25290900D01*
X37221034Y-25290900D01*
X37066997Y-25354704D01*
X36949102Y-25472599D01*
X36885298Y-25626636D01*
X36256127Y-25626636D01*
X36120059Y-25570275D01*
X35953331Y-25570275D01*
X35799294Y-25634079D01*
X35681399Y-25751974D01*
X35617595Y-25906011D01*
X30205704Y-25906011D01*
X30193364Y-25900900D01*
X30026636Y-25900900D01*
X29872599Y-25964704D01*
X29754704Y-26082599D01*
X29690900Y-26236636D01*
X29690900Y-26403364D01*
X29746475Y-26537535D01*
X29632599Y-26584704D01*
X29514704Y-26702599D01*
X29450900Y-26856636D01*
X28355071Y-26856636D01*
X28342775Y-26826953D01*
X28224880Y-26709058D01*
X28070843Y-26645254D01*
X27904115Y-26645254D01*
X27750078Y-26709058D01*
X27632183Y-26826953D01*
X27568379Y-26980990D01*
X27568379Y-27147718D01*
X27632183Y-27301755D01*
X27659230Y-27328802D01*
X27575734Y-27412298D01*
X27511930Y-27566335D01*
X23590986Y-27566335D01*
X23585296Y-27552599D01*
X23579100Y-27546403D01*
X23579100Y-27426636D01*
X23515296Y-27272599D01*
X23397401Y-27154704D01*
X23243364Y-27090900D01*
X23076636Y-27090900D01*
X22922599Y-27154704D01*
X22804704Y-27272599D01*
X22788940Y-27310656D01*
X22682599Y-27354704D01*
X22564704Y-27472599D01*
X22500900Y-27626636D01*
X20063500Y-27626636D01*
X20063500Y-27483411D01*
X20206636Y-27542700D01*
X20373364Y-27542700D01*
X20527401Y-27478896D01*
X20645296Y-27361001D01*
X20709100Y-27206964D01*
X20709100Y-27040236D01*
X20645296Y-26886199D01*
X20527401Y-26768304D01*
X20373364Y-26704500D01*
X20235879Y-26704500D01*
X20235879Y-26703081D01*
X20190207Y-26473471D01*
X20154297Y-26386776D01*
X20154297Y-26386775D01*
X20116595Y-26330350D01*
X20162114Y-26330350D01*
X20316151Y-26266546D01*
X20434046Y-26148651D01*
X20497850Y-25994614D01*
X20497850Y-25827886D01*
X20434046Y-25673849D01*
X20316151Y-25555954D01*
X20221229Y-25516636D01*
X22280900Y-25516636D01*
X22280900Y-25683364D01*
X22344704Y-25837401D01*
X22462599Y-25955296D01*
X22616636Y-26019100D01*
X22783364Y-26019100D01*
X22937401Y-25955296D01*
X22986686Y-25906011D01*
X23544205Y-25906011D01*
X23544205Y-26072739D01*
X23608009Y-26226776D01*
X23725904Y-26344671D01*
X23879941Y-26408475D01*
X24046669Y-26408475D01*
X24200706Y-26344671D01*
X24318601Y-26226776D01*
X24382405Y-26072739D01*
X24382405Y-25906011D01*
X24318601Y-25751974D01*
X24200706Y-25634079D01*
X24046669Y-25570275D01*
X23879941Y-25570275D01*
X23725904Y-25634079D01*
X23608009Y-25751974D01*
X23544205Y-25906011D01*
X22986686Y-25906011D01*
X23055296Y-25837401D01*
X23119100Y-25683364D01*
X23119100Y-25516636D01*
X23055296Y-25362599D01*
X22937401Y-25244704D01*
X22783364Y-25180900D01*
X22616636Y-25180900D01*
X22462599Y-25244704D01*
X22344704Y-25362599D01*
X22280900Y-25516636D01*
X20221229Y-25516636D01*
X20162114Y-25492150D01*
X20063500Y-25492150D01*
X20063500Y-25351025D01*
X20191636Y-25404100D01*
X20358364Y-25404100D01*
X20512401Y-25340296D01*
X20630296Y-25222401D01*
X20694100Y-25068364D01*
X20694100Y-24901636D01*
X20630296Y-24747599D01*
X20512401Y-24629704D01*
X20358364Y-24565900D01*
X20191636Y-24565900D01*
X20063500Y-24618975D01*
X20063500Y-24249112D01*
X20154297Y-24113225D01*
X20163383Y-24091290D01*
X20183844Y-24099765D01*
X20350572Y-24099765D01*
X20504609Y-24035961D01*
X20622504Y-23918066D01*
X20686308Y-23764029D01*
X20686308Y-23758182D01*
X20779135Y-23665355D01*
X20864602Y-23665355D01*
X20864602Y-23832083D01*
X20928406Y-23986120D01*
X21046301Y-24104015D01*
X21200338Y-24167819D01*
X21367066Y-24167819D01*
X21521103Y-24104015D01*
X21638998Y-23986120D01*
X21674478Y-23900462D01*
X22346512Y-23900462D01*
X22346512Y-24067190D01*
X22410316Y-24221227D01*
X22528211Y-24339122D01*
X22682248Y-24402926D01*
X22848976Y-24402926D01*
X23003013Y-24339122D01*
X23120908Y-24221227D01*
X23182811Y-24071778D01*
X26781660Y-24071778D01*
X26781660Y-24238506D01*
X26845464Y-24392543D01*
X26963359Y-24510438D01*
X27117396Y-24574242D01*
X27195951Y-24574242D01*
X27159958Y-24661138D01*
X27159958Y-24827866D01*
X27223762Y-24981903D01*
X27341657Y-25099798D01*
X27495694Y-25163602D01*
X27662422Y-25163602D01*
X27816459Y-25099798D01*
X27934354Y-24981903D01*
X27961388Y-24916636D01*
X30533781Y-24916636D01*
X30533781Y-25083364D01*
X30597585Y-25237401D01*
X30715480Y-25355296D01*
X30869517Y-25419100D01*
X31036245Y-25419100D01*
X31190282Y-25355296D01*
X31308177Y-25237401D01*
X31371981Y-25083364D01*
X31371981Y-24916636D01*
X31308177Y-24762599D01*
X31190282Y-24644704D01*
X31036245Y-24580900D01*
X30869517Y-24580900D01*
X30715480Y-24644704D01*
X30597585Y-24762599D01*
X30533781Y-24916636D01*
X27961388Y-24916636D01*
X27998158Y-24827866D01*
X27998158Y-24661138D01*
X27934354Y-24507101D01*
X27816459Y-24389206D01*
X27662422Y-24325402D01*
X27583867Y-24325402D01*
X27619860Y-24238506D01*
X27619860Y-24071778D01*
X27556056Y-23917741D01*
X27438161Y-23799846D01*
X27284124Y-23736042D01*
X27117396Y-23736042D01*
X26963359Y-23799846D01*
X26845464Y-23917741D01*
X26781660Y-24071778D01*
X23182811Y-24071778D01*
X23184712Y-24067190D01*
X23184712Y-24037985D01*
X23255296Y-23967401D01*
X23319100Y-23813364D01*
X23319100Y-23646636D01*
X23255296Y-23492599D01*
X23137401Y-23374704D01*
X22983364Y-23310900D01*
X22816636Y-23310900D01*
X22662599Y-23374704D01*
X22544704Y-23492599D01*
X22480900Y-23646636D01*
X22480900Y-23675841D01*
X22410316Y-23746425D01*
X22346512Y-23900462D01*
X21674478Y-23900462D01*
X21702802Y-23832083D01*
X21702802Y-23665355D01*
X21638998Y-23511318D01*
X21521103Y-23393423D01*
X21367066Y-23329619D01*
X21200338Y-23329619D01*
X21046301Y-23393423D01*
X20928406Y-23511318D01*
X20864602Y-23665355D01*
X20779135Y-23665355D01*
X20779398Y-23665092D01*
X20843202Y-23511055D01*
X20843202Y-23344327D01*
X20813217Y-23271936D01*
X25865600Y-23271936D01*
X25865600Y-23438664D01*
X25929404Y-23592701D01*
X26047299Y-23710596D01*
X26201336Y-23774400D01*
X26368064Y-23774400D01*
X26522101Y-23710596D01*
X26639996Y-23592701D01*
X26703800Y-23438664D01*
X26703800Y-23271936D01*
X26639996Y-23117899D01*
X26588733Y-23066636D01*
X30160900Y-23066636D01*
X30160900Y-23233364D01*
X30224704Y-23387401D01*
X30342599Y-23505296D01*
X30496636Y-23569100D01*
X30580900Y-23569100D01*
X30580900Y-23583364D01*
X30633727Y-23710900D01*
X30616636Y-23710900D01*
X30462599Y-23774704D01*
X30344704Y-23892599D01*
X30280900Y-24046636D01*
X30280900Y-24213364D01*
X30344704Y-24367401D01*
X30462599Y-24485296D01*
X30616636Y-24549100D01*
X30783364Y-24549100D01*
X30937401Y-24485296D01*
X31034640Y-24388057D01*
X31065734Y-24419151D01*
X31219771Y-24482955D01*
X31386499Y-24482955D01*
X31540536Y-24419151D01*
X31658431Y-24301256D01*
X31722235Y-24147219D01*
X31722235Y-23980491D01*
X31658431Y-23826454D01*
X31540536Y-23708559D01*
X31417751Y-23657700D01*
X31886499Y-23657700D01*
X31886499Y-23824428D01*
X31950303Y-23978465D01*
X32068198Y-24096360D01*
X32222235Y-24160164D01*
X32300900Y-24160164D01*
X32300900Y-24293364D01*
X32317600Y-24333682D01*
X32183547Y-24389208D01*
X32065652Y-24507103D01*
X32001848Y-24661140D01*
X32001848Y-24827868D01*
X32065652Y-24981905D01*
X32183547Y-25099800D01*
X32337584Y-25163604D01*
X32504312Y-25163604D01*
X32658349Y-25099800D01*
X32776244Y-24981905D01*
X32840048Y-24827868D01*
X32840048Y-24661140D01*
X32823348Y-24620822D01*
X32957401Y-24565296D01*
X33075296Y-24447401D01*
X33139100Y-24293364D01*
X33139100Y-24126636D01*
X33075296Y-23972599D01*
X32957401Y-23854704D01*
X32803364Y-23790900D01*
X32724699Y-23790900D01*
X32724699Y-23657700D01*
X32660895Y-23503663D01*
X32543000Y-23385768D01*
X32388963Y-23321964D01*
X32222235Y-23321964D01*
X32068198Y-23385768D01*
X31950303Y-23503663D01*
X31886499Y-23657700D01*
X31417751Y-23657700D01*
X31392621Y-23647291D01*
X31419100Y-23583364D01*
X31419100Y-23416636D01*
X31359164Y-23271936D01*
X33296200Y-23271936D01*
X33296200Y-23438664D01*
X33360004Y-23592701D01*
X33477899Y-23710596D01*
X33631936Y-23774400D01*
X33798664Y-23774400D01*
X33952701Y-23710596D01*
X34070596Y-23592701D01*
X34081392Y-23566636D01*
X36770900Y-23566636D01*
X36770900Y-23733364D01*
X36827706Y-23870506D01*
X36815298Y-23900462D01*
X36815298Y-24067190D01*
X36879102Y-24221227D01*
X36996997Y-24339122D01*
X37151034Y-24402926D01*
X37317762Y-24402926D01*
X37471799Y-24339122D01*
X37589694Y-24221227D01*
X37653498Y-24067190D01*
X37653498Y-23900462D01*
X37596692Y-23763320D01*
X37609100Y-23733364D01*
X37609100Y-23675980D01*
X38280900Y-23675980D01*
X38280900Y-23842708D01*
X38344704Y-23996745D01*
X38462599Y-24114640D01*
X38616636Y-24178444D01*
X38783364Y-24178444D01*
X38937401Y-24114640D01*
X39055296Y-23996745D01*
X39119100Y-23842708D01*
X39119100Y-23675980D01*
X39055296Y-23521943D01*
X38937401Y-23404048D01*
X38783364Y-23340244D01*
X38616636Y-23340244D01*
X38462599Y-23404048D01*
X38344704Y-23521943D01*
X38280900Y-23675980D01*
X37609100Y-23675980D01*
X37609100Y-23566636D01*
X37545296Y-23412599D01*
X37427401Y-23294704D01*
X37273364Y-23230900D01*
X37106636Y-23230900D01*
X36952599Y-23294704D01*
X36834704Y-23412599D01*
X36770900Y-23566636D01*
X34081392Y-23566636D01*
X34134400Y-23438664D01*
X34134400Y-23271936D01*
X34070596Y-23117899D01*
X33952701Y-23000004D01*
X33798664Y-22936200D01*
X33631936Y-22936200D01*
X33477899Y-23000004D01*
X33360004Y-23117899D01*
X33296200Y-23271936D01*
X31359164Y-23271936D01*
X31355296Y-23262599D01*
X31237401Y-23144704D01*
X31083364Y-23080900D01*
X30999100Y-23080900D01*
X30999100Y-23066636D01*
X30935296Y-22912599D01*
X30817401Y-22794704D01*
X30663364Y-22730900D01*
X30496636Y-22730900D01*
X30342599Y-22794704D01*
X30224704Y-22912599D01*
X30160900Y-23066636D01*
X26588733Y-23066636D01*
X26522101Y-23000004D01*
X26368064Y-22936200D01*
X26201336Y-22936200D01*
X26047299Y-23000004D01*
X25929404Y-23117899D01*
X25865600Y-23271936D01*
X20813217Y-23271936D01*
X20779398Y-23190290D01*
X20661503Y-23072395D01*
X20507466Y-23008591D01*
X20501288Y-23008591D01*
X20407401Y-22914704D01*
X20253364Y-22850900D01*
X20086636Y-22850900D01*
X20063500Y-22860483D01*
X20063500Y-22000000D01*
X20759500Y-22000000D01*
X20853927Y-22474719D01*
X21122834Y-22877166D01*
X21525281Y-23146073D01*
X22000000Y-23240500D01*
X22474719Y-23146073D01*
X22877166Y-22877166D01*
X22954609Y-22761265D01*
X22954609Y-22847377D01*
X23018413Y-23001414D01*
X23136308Y-23119309D01*
X23290345Y-23183113D01*
X23457073Y-23183113D01*
X23611110Y-23119309D01*
X23729005Y-23001414D01*
X23792809Y-22847377D01*
X23792809Y-22680649D01*
X23729005Y-22526612D01*
X23689029Y-22486636D01*
X24260900Y-22486636D01*
X24260900Y-22653364D01*
X24324704Y-22807401D01*
X24442599Y-22925296D01*
X24596636Y-22989100D01*
X24763364Y-22989100D01*
X24917401Y-22925296D01*
X25035296Y-22807401D01*
X25099100Y-22653364D01*
X25099100Y-22486636D01*
X25035296Y-22332599D01*
X24917401Y-22214704D01*
X24763364Y-22150900D01*
X24596636Y-22150900D01*
X24442599Y-22214704D01*
X24324704Y-22332599D01*
X24260900Y-22486636D01*
X23689029Y-22486636D01*
X23611110Y-22408717D01*
X23457073Y-22344913D01*
X23290345Y-22344913D01*
X23161257Y-22398383D01*
X23240500Y-22000000D01*
X23153103Y-21560621D01*
X24404885Y-21560621D01*
X24404885Y-21727349D01*
X24468689Y-21881386D01*
X24586584Y-21999281D01*
X24740621Y-22063085D01*
X24907349Y-22063085D01*
X25061386Y-21999281D01*
X25117475Y-21943192D01*
X26830998Y-21943192D01*
X26830998Y-22109920D01*
X26894802Y-22263957D01*
X27012697Y-22381852D01*
X27166734Y-22445656D01*
X27333462Y-22445656D01*
X27356691Y-22436034D01*
X28140900Y-22436034D01*
X28140900Y-22602762D01*
X28204704Y-22756799D01*
X28322599Y-22874694D01*
X28476636Y-22938498D01*
X28643364Y-22938498D01*
X28797401Y-22874694D01*
X28915296Y-22756799D01*
X28979100Y-22602762D01*
X28979100Y-22436034D01*
X28915296Y-22281997D01*
X28797401Y-22164102D01*
X28643364Y-22100298D01*
X28476636Y-22100298D01*
X28322599Y-22164102D01*
X28204704Y-22281997D01*
X28140900Y-22436034D01*
X27356691Y-22436034D01*
X27487499Y-22381852D01*
X27605394Y-22263957D01*
X27669198Y-22109920D01*
X27669198Y-21943192D01*
X27605394Y-21789155D01*
X27487499Y-21671260D01*
X27333462Y-21607456D01*
X27166734Y-21607456D01*
X27012697Y-21671260D01*
X26894802Y-21789155D01*
X26830998Y-21943192D01*
X25117475Y-21943192D01*
X25179281Y-21881386D01*
X25243085Y-21727349D01*
X25243085Y-21560621D01*
X25179281Y-21406584D01*
X25061386Y-21288689D01*
X24907349Y-21224885D01*
X24740621Y-21224885D01*
X24586584Y-21288689D01*
X24468689Y-21406584D01*
X24404885Y-21560621D01*
X23153103Y-21560621D01*
X23146073Y-21525281D01*
X22877166Y-21122834D01*
X22474719Y-20853927D01*
X22000000Y-20759500D01*
X21525281Y-20853927D01*
X21122834Y-21122834D01*
X20853927Y-21525281D01*
X20759500Y-22000000D01*
X20063500Y-22000000D01*
X20063500Y-21415057D01*
X20097455Y-21381102D01*
X20173326Y-21267555D01*
X20178045Y-21256162D01*
X20209237Y-21180858D01*
X20235879Y-21046919D01*
X20302666Y-20711155D01*
X20466284Y-20466284D01*
X20711155Y-20302666D01*
X21023688Y-20240500D01*
X24325364Y-20240500D01*
X24306502Y-20286036D01*
M02*
