M48
;DRILL file {KiCad (2018-02-05 revision d1a45d147)-makepkg} date 03/20/18 19:43:31
;FORMAT={-:-/ absolute / inch / decimal}
FMAT,2
INCH,TZ
T1C0.0098
T2C0.0100
T3C0.0354
T4C0.0787
%
G90
G05
M72
T1
X0.7697Y-1.5059
X0.7697Y-0.9744
X0.7697Y-1.2303
X1.5925Y-1.0925
X1.5925Y-1.1319
X1.5925Y-0.9744
X1.5925Y-1.0138
X1.5925Y-0.8563
X1.5925Y-0.8957
X0.7697Y-1.4665
X0.7697Y-1.0138
X1.5925Y-1.3878
X1.5925Y-1.4665
X1.5925Y-1.5059
X0.7697Y-1.2697
X0.7697Y-1.3484
X0.7697Y-1.3878
X1.5925Y-1.3484
X1.5925Y-1.2303
X0.7697Y-0.8563
X0.7697Y-0.8957
X1.5925Y-1.2697
X0.7697Y-1.0925
X0.7697Y-1.1319
T2
X0.8004Y-1.1592
X0.8004Y-1.203
X0.8012Y-0.9151
X0.8012Y-1.4471
X0.8091Y-1.0551
X0.8091Y-1.3071
X0.8177Y-1.026
X0.8177Y-1.3362
X0.8206Y-0.9832
X0.8206Y-1.379
X0.8222Y-1.1106
X0.8222Y-1.2516
X0.8598Y-1.1642
X0.8598Y-1.198
X0.8598Y-1.0572
X0.8598Y-1.305
X0.9172Y-1.1182
X0.9172Y-1.244
X0.9186Y-0.9429
X0.9186Y-1.4193
X0.9226Y-0.8061
X0.9226Y-1.5561
X0.9266Y-1.0088
X0.9266Y-1.3534
X0.9362Y-0.8862
X0.9362Y-1.476
X0.9451Y-0.8586
X0.9451Y-1.5036
X0.9642Y-0.9671
X0.9642Y-1.3951
X0.9896Y-1.1704
X0.9979Y-1.0791
X0.9979Y-1.2831
X1.002Y-1.2106
X1.0025Y-0.9569
X1.0025Y-1.4053
X1.0177Y-1.2106
X1.0297Y-1.0203
X1.0297Y-1.3419
X1.0445Y-0.8591
X1.0445Y-1.5031
X1.0525Y-1.0592
X1.0525Y-1.303
X1.0554Y-1.4782
X1.0689Y-0.8
X1.0721Y-0.8737
X1.0721Y-1.4885
X1.0746Y-1.5366
X1.0751Y-0.8261
X1.0752Y-0.9629
X1.0752Y-1.3986
X1.0827Y-0.8
X1.0884Y-1.103
X1.0886Y-1.26
X1.1016Y-1.1539
X1.102Y-1.5366
X1.1034Y-1.0817
X1.104Y-0.909
X1.1043Y-1.211
X1.1043Y-1.2294
X1.1058Y-1.015
X1.1063Y-1.2805
X1.1064Y-1.3483
X1.1081Y-1.3772
X1.1082Y-1.1199
X1.1107Y-0.9005
X1.111Y-1.1458
X1.1121Y-1.322
X1.1122Y-1.0402
X1.1134Y-0.9642
X1.1165Y-1.537
X1.1319Y-1.4852
X1.1372Y-0.9386
X1.1429Y-1.3114
X1.1457Y-1.4862
X1.1522Y-0.8441
X1.1522Y-0.8681
X1.1567Y-1.2211
X1.1575Y-1.4862
X1.1587Y-1.1166
X1.1587Y-1.1315
X1.1594Y-1.5067
X1.1622Y-1.0123
X1.1622Y-1.2087
X1.1665Y-0.8681
X1.1669Y-1.5181
X1.1673Y-0.8441
X1.1677Y-1.2283
X1.1683Y-1.4859
X1.1689Y-1.1996
X1.1937Y-1.2783
X1.1943Y-1.1276
X1.1945Y-1.2933
X1.1949Y-0.8002
X1.1949Y-0.8189
X1.1957Y-1.1138
X1.2106Y-0.8179
X1.211Y-1.4
X1.2116Y-0.8012
X1.2134Y-1.5417
X1.2146Y-1.5571
X1.215Y-0.8694
X1.2303Y-0.8694
X1.2303Y-1.5551
X1.2307Y-1.5425
X1.2501Y-1.322
X1.2501Y-1.0402
X1.2512Y-1.1923
X1.2513Y-1.5266
X1.2519Y-1.4443
X1.2524Y-1.4165
X1.2537Y-0.9936
X1.2541Y-1.2428
X1.2549Y-1.4557
X1.2563Y-1.2793
X1.2563Y-1.3473
X1.2577Y-1.0817
X1.2594Y-0.9508
X1.2608Y-1.537
X1.2657Y-1.1923
X1.2736Y-1.1023
X1.2736Y-1.26
X1.2783Y-0.8
X1.2857Y-1.3955
X1.287Y-0.9616
X1.2931Y-1.4926
X1.2933Y-0.8
X1.2953Y-1.5354
X1.3003Y-0.8833
X1.3097Y-1.0592
X1.3097Y-1.303
X1.3177Y-1.5031
X1.3178Y-0.8588
X1.3181Y-0.8328
X1.3325Y-1.0203
X1.3325Y-1.3419
X1.3406Y-1.1514
X1.357Y-1.1483
X1.3597Y-0.9569
X1.3597Y-1.4053
X1.3643Y-1.0791
X1.3643Y-1.2819
X1.3726Y-1.1918
X1.398Y-0.9671
X1.398Y-1.3951
X1.4171Y-0.8586
X1.4171Y-1.5036
X1.426Y-0.8862
X1.426Y-1.476
X1.4356Y-1.0088
X1.4356Y-1.3534
X1.4396Y-0.8061
X1.4396Y-1.5561
X1.4436Y-0.9429
X1.4436Y-1.4193
X1.4444Y-1.12
X1.445Y-1.244
X1.5024Y-1.0572
X1.5024Y-1.305
X1.5024Y-1.1642
X1.5024Y-1.198
X1.54Y-1.1106
X1.54Y-1.2516
X1.5416Y-0.9832
X1.5416Y-1.379
X1.5445Y-1.026
X1.5445Y-1.3362
X1.5531Y-1.0551
X1.5531Y-1.3071
X1.561Y-0.9151
X1.561Y-1.4471
X1.5618Y-1.203
X1.562Y-1.1616
T3
X0.7362Y-1.3681
X0.7362Y-1.4862
X1.626Y-1.25
X0.7362Y-1.25
X1.626Y-1.4862
X1.626Y-1.3681
X0.7362Y-1.1122
X1.626Y-0.876
X1.626Y-0.9941
X0.7362Y-0.876
X0.7362Y-0.9941
X1.626Y-1.1122
T4
X1.4961Y-1.4961
X0.8661Y-0.8661
X1.4961Y-0.8661
X0.8661Y-1.4961
T0
M30
