G04 #@! TF.GenerationSoftware,KiCad,Pcbnew,(2018-02-05 revision d1a45d147)-makepkg*
G04 #@! TF.CreationDate,2019-01-14T08:16:46-05:00*
G04 #@! TF.ProjectId,6s4in1,367334696E312E6B696361645F706362,rev?*
G04 #@! TF.SameCoordinates,Original*
G04 #@! TF.FileFunction,Legend,Bot*
G04 #@! TF.FilePolarity,Positive*
%FSLAX46Y46*%
G04 Gerber Fmt 4.6, Leading zero omitted, Abs format (unit mm)*
G04 Created by KiCad (PCBNEW (2018-02-05 revision d1a45d147)-makepkg) date 01/14/19 08:16:46*
%MOMM*%
%LPD*%
G01*
G04 APERTURE LIST*
%ADD10C,0.125000*%
%ADD11C,0.100000*%
%ADD12C,0.150000*%
%ADD13C,0.062500*%
G04 APERTURE END LIST*
D10*
X29490476Y-22435714D02*
X29109523Y-22435714D01*
X31190476Y-22435714D02*
X30809523Y-22435714D01*
X31000000Y-22626190D02*
X31000000Y-22245238D01*
X27945238Y-29026190D02*
X28111904Y-28788095D01*
X28230952Y-29026190D02*
X28230952Y-28526190D01*
X28040476Y-28526190D01*
X27992857Y-28550000D01*
X27969047Y-28573809D01*
X27945238Y-28621428D01*
X27945238Y-28692857D01*
X27969047Y-28740476D01*
X27992857Y-28764285D01*
X28040476Y-28788095D01*
X28230952Y-28788095D01*
X28142857Y-26126190D02*
X27857142Y-26126190D01*
X28000000Y-26626190D02*
X28000000Y-26126190D01*
X31842857Y-26926190D02*
X31557142Y-26926190D01*
X31700000Y-27426190D02*
X31700000Y-26926190D01*
X31745238Y-29526190D02*
X31911904Y-29288095D01*
X32030952Y-29526190D02*
X32030952Y-29026190D01*
X31840476Y-29026190D01*
X31792857Y-29050000D01*
X31769047Y-29073809D01*
X31745238Y-29121428D01*
X31745238Y-29192857D01*
X31769047Y-29240476D01*
X31792857Y-29264285D01*
X31840476Y-29288095D01*
X32030952Y-29288095D01*
X32042857Y-33426190D02*
X31757142Y-33426190D01*
X31900000Y-33926190D02*
X31900000Y-33426190D01*
X31745238Y-31826190D02*
X31911904Y-31588095D01*
X32030952Y-31826190D02*
X32030952Y-31326190D01*
X31840476Y-31326190D01*
X31792857Y-31350000D01*
X31769047Y-31373809D01*
X31745238Y-31421428D01*
X31745238Y-31492857D01*
X31769047Y-31540476D01*
X31792857Y-31564285D01*
X31840476Y-31588095D01*
X32030952Y-31588095D01*
X28542857Y-33426190D02*
X28257142Y-33426190D01*
X28400000Y-33926190D02*
X28400000Y-33426190D01*
X28245238Y-31826190D02*
X28411904Y-31588095D01*
X28530952Y-31826190D02*
X28530952Y-31326190D01*
X28340476Y-31326190D01*
X28292857Y-31350000D01*
X28269047Y-31373809D01*
X28245238Y-31421428D01*
X28245238Y-31492857D01*
X28269047Y-31540476D01*
X28292857Y-31564285D01*
X28340476Y-31588095D01*
X28530952Y-31588095D01*
D11*
X20905711Y-27065000D02*
G75*
G03X20905711Y-27065000I-70711J0D01*
G01*
D12*
X20585000Y-29415000D02*
X20585000Y-27415000D01*
X22585000Y-29415000D02*
X20585000Y-29415000D01*
X22585000Y-27415000D02*
X22585000Y-29415000D01*
X20585000Y-27415000D02*
X22585000Y-27415000D01*
D11*
X20855711Y-23635000D02*
G75*
G03X20855711Y-23635000I-70711J0D01*
G01*
D12*
X20535000Y-25985000D02*
X20535000Y-23985000D01*
X22535000Y-25985000D02*
X20535000Y-25985000D01*
X22535000Y-23985000D02*
X22535000Y-25985000D01*
X20535000Y-23985000D02*
X22535000Y-23985000D01*
D11*
X25370711Y-20260000D02*
G75*
G03X25370711Y-20260000I-70711J0D01*
G01*
D12*
X25050000Y-22610000D02*
X25050000Y-20610000D01*
X27050000Y-22610000D02*
X25050000Y-22610000D01*
X27050000Y-20610000D02*
X27050000Y-22610000D01*
X25050000Y-20610000D02*
X27050000Y-20610000D01*
D11*
X40030711Y-27165000D02*
G75*
G03X40030711Y-27165000I-70711J0D01*
G01*
D12*
X37760000Y-29415000D02*
X39760000Y-29415000D01*
X37760000Y-27415000D02*
X37760000Y-29415000D01*
X39760000Y-27415000D02*
X37760000Y-27415000D01*
X39760000Y-29415000D02*
X39760000Y-27415000D01*
D11*
X40080711Y-23735000D02*
G75*
G03X40080711Y-23735000I-70711J0D01*
G01*
D12*
X37810000Y-25985000D02*
X39810000Y-25985000D01*
X37810000Y-23985000D02*
X37810000Y-25985000D01*
X39810000Y-23985000D02*
X37810000Y-23985000D01*
X39810000Y-25985000D02*
X39810000Y-23985000D01*
D11*
X35565711Y-20360000D02*
G75*
G03X35565711Y-20360000I-70711J0D01*
G01*
D12*
X33295000Y-22610000D02*
X35295000Y-22610000D01*
X33295000Y-20610000D02*
X33295000Y-22610000D01*
X35295000Y-20610000D02*
X33295000Y-20610000D01*
X35295000Y-22610000D02*
X35295000Y-20610000D01*
D11*
X20110711Y-32835000D02*
G75*
G03X20110711Y-32835000I-70711J0D01*
G01*
D12*
X22240000Y-30585000D02*
X20240000Y-30585000D01*
X22240000Y-32585000D02*
X22240000Y-30585000D01*
X20240000Y-32585000D02*
X22240000Y-32585000D01*
X20240000Y-30585000D02*
X20240000Y-32585000D01*
D11*
X20060711Y-36265000D02*
G75*
G03X20060711Y-36265000I-70711J0D01*
G01*
D12*
X22190000Y-34015000D02*
X20190000Y-34015000D01*
X22190000Y-36015000D02*
X22190000Y-34015000D01*
X20190000Y-36015000D02*
X22190000Y-36015000D01*
X20190000Y-34015000D02*
X20190000Y-36015000D01*
D11*
X24575711Y-39640000D02*
G75*
G03X24575711Y-39640000I-70711J0D01*
G01*
D12*
X26705000Y-37390000D02*
X24705000Y-37390000D01*
X26705000Y-39390000D02*
X26705000Y-37390000D01*
X24705000Y-39390000D02*
X26705000Y-39390000D01*
X24705000Y-37390000D02*
X24705000Y-39390000D01*
X31520000Y-26200000D02*
X31520000Y-24800000D01*
X28480000Y-24800000D02*
X31520000Y-24800000D01*
X28480000Y-26200000D02*
X28480000Y-24800000D01*
X31520000Y-26200000D02*
X28480000Y-26200000D01*
X29000000Y-34575000D02*
X31000000Y-34575000D01*
X29000000Y-33325000D02*
X29000000Y-34575000D01*
X31000000Y-33325000D02*
X31000000Y-34575000D01*
X29000000Y-33325000D02*
X31000000Y-33325000D01*
D11*
X32200711Y-25300000D02*
G75*
G03X32200711Y-25300000I-70711J0D01*
G01*
D12*
X32630000Y-28300000D02*
X32630000Y-25300000D01*
X35630000Y-28300000D02*
X32630000Y-28300000D01*
X35630000Y-25300000D02*
X35630000Y-28300000D01*
X32630000Y-25300000D02*
X35630000Y-25300000D01*
D11*
X39235711Y-32935000D02*
G75*
G03X39235711Y-32935000I-70711J0D01*
G01*
D12*
X39415000Y-30585000D02*
X39415000Y-32585000D01*
X37415000Y-30585000D02*
X39415000Y-30585000D01*
X37415000Y-32585000D02*
X37415000Y-30585000D01*
X39415000Y-32585000D02*
X37415000Y-32585000D01*
D11*
X39285711Y-36365000D02*
G75*
G03X39285711Y-36365000I-70711J0D01*
G01*
D12*
X39465000Y-34015000D02*
X39465000Y-36015000D01*
X37465000Y-34015000D02*
X39465000Y-34015000D01*
X37465000Y-36015000D02*
X37465000Y-34015000D01*
X39465000Y-36015000D02*
X37465000Y-36015000D01*
D11*
X34770711Y-39740000D02*
G75*
G03X34770711Y-39740000I-70711J0D01*
G01*
D12*
X34950000Y-37390000D02*
X34950000Y-39390000D01*
X32950000Y-37390000D02*
X34950000Y-37390000D01*
X32950000Y-39390000D02*
X32950000Y-37390000D01*
X34950000Y-39390000D02*
X32950000Y-39390000D01*
D11*
X27940711Y-34700000D02*
G75*
G03X27940711Y-34700000I-70711J0D01*
G01*
D12*
X27370000Y-31700000D02*
X27370000Y-34700000D01*
X24370000Y-31700000D02*
X27370000Y-31700000D01*
X24370000Y-34700000D02*
X24370000Y-31700000D01*
X27370000Y-34700000D02*
X24370000Y-34700000D01*
D13*
X33402431Y-35675421D02*
X33283383Y-35592088D01*
X33402431Y-35532564D02*
X33152431Y-35532564D01*
X33152431Y-35627802D01*
X33164336Y-35651612D01*
X33176240Y-35663516D01*
X33200050Y-35675421D01*
X33235764Y-35675421D01*
X33259574Y-35663516D01*
X33271478Y-35651612D01*
X33283383Y-35627802D01*
X33283383Y-35532564D01*
X33176240Y-35770659D02*
X33164336Y-35782564D01*
X33152431Y-35806374D01*
X33152431Y-35865897D01*
X33164336Y-35889707D01*
X33176240Y-35901612D01*
X33200050Y-35913516D01*
X33223859Y-35913516D01*
X33259574Y-35901612D01*
X33402431Y-35758755D01*
X33402431Y-35913516D01*
X33152431Y-35996850D02*
X33152431Y-36163516D01*
X33402431Y-36056374D01*
X17313095Y-37446428D02*
X17063095Y-37446428D01*
X17063095Y-37541666D01*
X17075000Y-37565476D01*
X17086904Y-37577380D01*
X17110714Y-37589285D01*
X17146428Y-37589285D01*
X17170238Y-37577380D01*
X17182142Y-37565476D01*
X17194047Y-37541666D01*
X17194047Y-37446428D01*
X17313095Y-37827380D02*
X17313095Y-37684523D01*
X17313095Y-37755952D02*
X17063095Y-37755952D01*
X17098809Y-37732142D01*
X17122619Y-37708333D01*
X17134523Y-37684523D01*
X17170238Y-37970238D02*
X17158333Y-37946428D01*
X17146428Y-37934523D01*
X17122619Y-37922619D01*
X17110714Y-37922619D01*
X17086904Y-37934523D01*
X17075000Y-37946428D01*
X17063095Y-37970238D01*
X17063095Y-38017857D01*
X17075000Y-38041666D01*
X17086904Y-38053571D01*
X17110714Y-38065476D01*
X17122619Y-38065476D01*
X17146428Y-38053571D01*
X17158333Y-38041666D01*
X17170238Y-38017857D01*
X17170238Y-37970238D01*
X17182142Y-37946428D01*
X17194047Y-37934523D01*
X17217857Y-37922619D01*
X17265476Y-37922619D01*
X17289285Y-37934523D01*
X17301190Y-37946428D01*
X17313095Y-37970238D01*
X17313095Y-38017857D01*
X17301190Y-38041666D01*
X17289285Y-38053571D01*
X17265476Y-38065476D01*
X17217857Y-38065476D01*
X17194047Y-38053571D01*
X17182142Y-38041666D01*
X17170238Y-38017857D01*
X26596904Y-25130714D02*
X26715952Y-25214047D01*
X26596904Y-25273571D02*
X26846904Y-25273571D01*
X26846904Y-25178333D01*
X26835000Y-25154523D01*
X26823095Y-25142619D01*
X26799285Y-25130714D01*
X26763571Y-25130714D01*
X26739761Y-25142619D01*
X26727857Y-25154523D01*
X26715952Y-25178333D01*
X26715952Y-25273571D01*
X26596904Y-24892619D02*
X26596904Y-25035476D01*
X26596904Y-24964047D02*
X26846904Y-24964047D01*
X26811190Y-24987857D01*
X26787380Y-25011666D01*
X26775476Y-25035476D01*
X26846904Y-24737857D02*
X26846904Y-24714047D01*
X26835000Y-24690238D01*
X26823095Y-24678333D01*
X26799285Y-24666428D01*
X26751666Y-24654523D01*
X26692142Y-24654523D01*
X26644523Y-24666428D01*
X26620714Y-24678333D01*
X26608809Y-24690238D01*
X26596904Y-24714047D01*
X26596904Y-24737857D01*
X26608809Y-24761666D01*
X26620714Y-24773571D01*
X26644523Y-24785476D01*
X26692142Y-24797380D01*
X26751666Y-24797380D01*
X26799285Y-24785476D01*
X26823095Y-24773571D01*
X26835000Y-24761666D01*
X26846904Y-24737857D01*
X17313095Y-34446428D02*
X17063095Y-34446428D01*
X17063095Y-34541666D01*
X17075000Y-34565476D01*
X17086904Y-34577380D01*
X17110714Y-34589285D01*
X17146428Y-34589285D01*
X17170238Y-34577380D01*
X17182142Y-34565476D01*
X17194047Y-34541666D01*
X17194047Y-34446428D01*
X17313095Y-34827380D02*
X17313095Y-34684523D01*
X17313095Y-34755952D02*
X17063095Y-34755952D01*
X17098809Y-34732142D01*
X17122619Y-34708333D01*
X17134523Y-34684523D01*
X17063095Y-34910714D02*
X17063095Y-35077380D01*
X17313095Y-34970238D01*
X25097568Y-25934578D02*
X25216616Y-26017911D01*
X25097568Y-26077435D02*
X25347568Y-26077435D01*
X25347568Y-25982197D01*
X25335664Y-25958387D01*
X25323759Y-25946483D01*
X25299949Y-25934578D01*
X25264235Y-25934578D01*
X25240425Y-25946483D01*
X25228521Y-25958387D01*
X25216616Y-25982197D01*
X25216616Y-26077435D01*
X25264235Y-25720292D02*
X25097568Y-25720292D01*
X25359473Y-25779816D02*
X25180902Y-25839340D01*
X25180902Y-25684578D01*
X25323759Y-25601244D02*
X25335664Y-25589340D01*
X25347568Y-25565530D01*
X25347568Y-25506006D01*
X25335664Y-25482197D01*
X25323759Y-25470292D01*
X25299949Y-25458387D01*
X25276140Y-25458387D01*
X25240425Y-25470292D01*
X25097568Y-25613149D01*
X25097568Y-25458387D01*
X25096904Y-25011666D02*
X25215952Y-25095000D01*
X25096904Y-25154523D02*
X25346904Y-25154523D01*
X25346904Y-25059285D01*
X25335000Y-25035476D01*
X25323095Y-25023571D01*
X25299285Y-25011666D01*
X25263571Y-25011666D01*
X25239761Y-25023571D01*
X25227857Y-25035476D01*
X25215952Y-25059285D01*
X25215952Y-25154523D01*
X25263571Y-24797380D02*
X25096904Y-24797380D01*
X25358809Y-24856904D02*
X25180238Y-24916428D01*
X25180238Y-24761666D01*
X26596904Y-26621666D02*
X26715952Y-26705000D01*
X26596904Y-26764523D02*
X26846904Y-26764523D01*
X26846904Y-26669285D01*
X26835000Y-26645476D01*
X26823095Y-26633571D01*
X26799285Y-26621666D01*
X26763571Y-26621666D01*
X26739761Y-26633571D01*
X26727857Y-26645476D01*
X26715952Y-26669285D01*
X26715952Y-26764523D01*
X26596904Y-26502619D02*
X26596904Y-26455000D01*
X26608809Y-26431190D01*
X26620714Y-26419285D01*
X26656428Y-26395476D01*
X26704047Y-26383571D01*
X26799285Y-26383571D01*
X26823095Y-26395476D01*
X26835000Y-26407380D01*
X26846904Y-26431190D01*
X26846904Y-26478809D01*
X26835000Y-26502619D01*
X26823095Y-26514523D01*
X26799285Y-26526428D01*
X26739761Y-26526428D01*
X26715952Y-26514523D01*
X26704047Y-26502619D01*
X26692142Y-26478809D01*
X26692142Y-26431190D01*
X26704047Y-26407380D01*
X26715952Y-26395476D01*
X26739761Y-26383571D01*
X17313095Y-31446428D02*
X17063095Y-31446428D01*
X17063095Y-31541666D01*
X17075000Y-31565476D01*
X17086904Y-31577380D01*
X17110714Y-31589285D01*
X17146428Y-31589285D01*
X17170238Y-31577380D01*
X17182142Y-31565476D01*
X17194047Y-31541666D01*
X17194047Y-31446428D01*
X17313095Y-31827380D02*
X17313095Y-31684523D01*
X17313095Y-31755952D02*
X17063095Y-31755952D01*
X17098809Y-31732142D01*
X17122619Y-31708333D01*
X17134523Y-31684523D01*
X17063095Y-32041666D02*
X17063095Y-31994047D01*
X17075000Y-31970238D01*
X17086904Y-31958333D01*
X17122619Y-31934523D01*
X17170238Y-31922619D01*
X17265476Y-31922619D01*
X17289285Y-31934523D01*
X17301190Y-31946428D01*
X17313095Y-31970238D01*
X17313095Y-32017857D01*
X17301190Y-32041666D01*
X17289285Y-32053571D01*
X17265476Y-32065476D01*
X17205952Y-32065476D01*
X17182142Y-32053571D01*
X17170238Y-32041666D01*
X17158333Y-32017857D01*
X17158333Y-31970238D01*
X17170238Y-31946428D01*
X17182142Y-31934523D01*
X17205952Y-31922619D01*
X42913095Y-21946428D02*
X42663095Y-21946428D01*
X42663095Y-22041666D01*
X42675000Y-22065476D01*
X42686904Y-22077380D01*
X42710714Y-22089285D01*
X42746428Y-22089285D01*
X42770238Y-22077380D01*
X42782142Y-22065476D01*
X42794047Y-22041666D01*
X42794047Y-21946428D01*
X42913095Y-22327380D02*
X42913095Y-22184523D01*
X42913095Y-22255952D02*
X42663095Y-22255952D01*
X42698809Y-22232142D01*
X42722619Y-22208333D01*
X42734523Y-22184523D01*
X42663095Y-22482142D02*
X42663095Y-22505952D01*
X42675000Y-22529761D01*
X42686904Y-22541666D01*
X42710714Y-22553571D01*
X42758333Y-22565476D01*
X42817857Y-22565476D01*
X42865476Y-22553571D01*
X42889285Y-22541666D01*
X42901190Y-22529761D01*
X42913095Y-22505952D01*
X42913095Y-22482142D01*
X42901190Y-22458333D01*
X42889285Y-22446428D01*
X42865476Y-22434523D01*
X42817857Y-22422619D01*
X42758333Y-22422619D01*
X42710714Y-22434523D01*
X42686904Y-22446428D01*
X42675000Y-22458333D01*
X42663095Y-22482142D01*
X42913095Y-25065476D02*
X42663095Y-25065476D01*
X42663095Y-25160714D01*
X42675000Y-25184523D01*
X42686904Y-25196428D01*
X42710714Y-25208333D01*
X42746428Y-25208333D01*
X42770238Y-25196428D01*
X42782142Y-25184523D01*
X42794047Y-25160714D01*
X42794047Y-25065476D01*
X42913095Y-25327380D02*
X42913095Y-25375000D01*
X42901190Y-25398809D01*
X42889285Y-25410714D01*
X42853571Y-25434523D01*
X42805952Y-25446428D01*
X42710714Y-25446428D01*
X42686904Y-25434523D01*
X42675000Y-25422619D01*
X42663095Y-25398809D01*
X42663095Y-25351190D01*
X42675000Y-25327380D01*
X42686904Y-25315476D01*
X42710714Y-25303571D01*
X42770238Y-25303571D01*
X42794047Y-25315476D01*
X42805952Y-25327380D01*
X42817857Y-25351190D01*
X42817857Y-25398809D01*
X42805952Y-25422619D01*
X42794047Y-25434523D01*
X42770238Y-25446428D01*
X42913095Y-28065476D02*
X42663095Y-28065476D01*
X42663095Y-28160714D01*
X42675000Y-28184523D01*
X42686904Y-28196428D01*
X42710714Y-28208333D01*
X42746428Y-28208333D01*
X42770238Y-28196428D01*
X42782142Y-28184523D01*
X42794047Y-28160714D01*
X42794047Y-28065476D01*
X42770238Y-28351190D02*
X42758333Y-28327380D01*
X42746428Y-28315476D01*
X42722619Y-28303571D01*
X42710714Y-28303571D01*
X42686904Y-28315476D01*
X42675000Y-28327380D01*
X42663095Y-28351190D01*
X42663095Y-28398809D01*
X42675000Y-28422619D01*
X42686904Y-28434523D01*
X42710714Y-28446428D01*
X42722619Y-28446428D01*
X42746428Y-28434523D01*
X42758333Y-28422619D01*
X42770238Y-28398809D01*
X42770238Y-28351190D01*
X42782142Y-28327380D01*
X42794047Y-28315476D01*
X42817857Y-28303571D01*
X42865476Y-28303571D01*
X42889285Y-28315476D01*
X42901190Y-28327380D01*
X42913095Y-28351190D01*
X42913095Y-28398809D01*
X42901190Y-28422619D01*
X42889285Y-28434523D01*
X42865476Y-28446428D01*
X42817857Y-28446428D01*
X42794047Y-28434523D01*
X42782142Y-28422619D01*
X42770238Y-28398809D01*
X30089285Y-31068333D02*
X30101190Y-31056428D01*
X30113095Y-31020714D01*
X30113095Y-30996904D01*
X30101190Y-30961190D01*
X30077380Y-30937380D01*
X30053571Y-30925476D01*
X30005952Y-30913571D01*
X29970238Y-30913571D01*
X29922619Y-30925476D01*
X29898809Y-30937380D01*
X29875000Y-30961190D01*
X29863095Y-30996904D01*
X29863095Y-31020714D01*
X29875000Y-31056428D01*
X29886904Y-31068333D01*
X29886904Y-31163571D02*
X29875000Y-31175476D01*
X29863095Y-31199285D01*
X29863095Y-31258809D01*
X29875000Y-31282619D01*
X29886904Y-31294523D01*
X29910714Y-31306428D01*
X29934523Y-31306428D01*
X29970238Y-31294523D01*
X30113095Y-31151666D01*
X30113095Y-31306428D01*
X24199285Y-28783333D02*
X24211190Y-28771428D01*
X24223095Y-28735714D01*
X24223095Y-28711904D01*
X24211190Y-28676190D01*
X24187380Y-28652380D01*
X24163571Y-28640476D01*
X24115952Y-28628571D01*
X24080238Y-28628571D01*
X24032619Y-28640476D01*
X24008809Y-28652380D01*
X23985000Y-28676190D01*
X23973095Y-28711904D01*
X23973095Y-28735714D01*
X23985000Y-28771428D01*
X23996904Y-28783333D01*
X23973095Y-28866666D02*
X23973095Y-29033333D01*
X24223095Y-28926190D01*
X23371666Y-25089285D02*
X23383571Y-25101190D01*
X23419285Y-25113095D01*
X23443095Y-25113095D01*
X23478809Y-25101190D01*
X23502619Y-25077380D01*
X23514523Y-25053571D01*
X23526428Y-25005952D01*
X23526428Y-24970238D01*
X23514523Y-24922619D01*
X23502619Y-24898809D01*
X23478809Y-24875000D01*
X23443095Y-24863095D01*
X23419285Y-24863095D01*
X23383571Y-24875000D01*
X23371666Y-24886904D01*
X23252619Y-25113095D02*
X23205000Y-25113095D01*
X23181190Y-25101190D01*
X23169285Y-25089285D01*
X23145476Y-25053571D01*
X23133571Y-25005952D01*
X23133571Y-24910714D01*
X23145476Y-24886904D01*
X23157380Y-24875000D01*
X23181190Y-24863095D01*
X23228809Y-24863095D01*
X23252619Y-24875000D01*
X23264523Y-24886904D01*
X23276428Y-24910714D01*
X23276428Y-24970238D01*
X23264523Y-24994047D01*
X23252619Y-25005952D01*
X23228809Y-25017857D01*
X23181190Y-25017857D01*
X23157380Y-25005952D01*
X23145476Y-24994047D01*
X23133571Y-24970238D01*
X24280714Y-21564285D02*
X24292619Y-21576190D01*
X24328333Y-21588095D01*
X24352142Y-21588095D01*
X24387857Y-21576190D01*
X24411666Y-21552380D01*
X24423571Y-21528571D01*
X24435476Y-21480952D01*
X24435476Y-21445238D01*
X24423571Y-21397619D01*
X24411666Y-21373809D01*
X24387857Y-21350000D01*
X24352142Y-21338095D01*
X24328333Y-21338095D01*
X24292619Y-21350000D01*
X24280714Y-21361904D01*
X24042619Y-21588095D02*
X24185476Y-21588095D01*
X24114047Y-21588095D02*
X24114047Y-21338095D01*
X24137857Y-21373809D01*
X24161666Y-21397619D01*
X24185476Y-21409523D01*
X23804523Y-21588095D02*
X23947380Y-21588095D01*
X23875952Y-21588095D02*
X23875952Y-21338095D01*
X23899761Y-21373809D01*
X23923571Y-21397619D01*
X23947380Y-21409523D01*
X28720714Y-23229285D02*
X28732619Y-23241190D01*
X28768333Y-23253095D01*
X28792142Y-23253095D01*
X28827857Y-23241190D01*
X28851666Y-23217380D01*
X28863571Y-23193571D01*
X28875476Y-23145952D01*
X28875476Y-23110238D01*
X28863571Y-23062619D01*
X28851666Y-23038809D01*
X28827857Y-23015000D01*
X28792142Y-23003095D01*
X28768333Y-23003095D01*
X28732619Y-23015000D01*
X28720714Y-23026904D01*
X28482619Y-23253095D02*
X28625476Y-23253095D01*
X28554047Y-23253095D02*
X28554047Y-23003095D01*
X28577857Y-23038809D01*
X28601666Y-23062619D01*
X28625476Y-23074523D01*
X28387380Y-23026904D02*
X28375476Y-23015000D01*
X28351666Y-23003095D01*
X28292142Y-23003095D01*
X28268333Y-23015000D01*
X28256428Y-23026904D01*
X28244523Y-23050714D01*
X28244523Y-23074523D01*
X28256428Y-23110238D01*
X28399285Y-23253095D01*
X28244523Y-23253095D01*
X25096904Y-28231666D02*
X25215952Y-28315000D01*
X25096904Y-28374523D02*
X25346904Y-28374523D01*
X25346904Y-28279285D01*
X25335000Y-28255476D01*
X25323095Y-28243571D01*
X25299285Y-28231666D01*
X25263571Y-28231666D01*
X25239761Y-28243571D01*
X25227857Y-28255476D01*
X25215952Y-28279285D01*
X25215952Y-28374523D01*
X25323095Y-28136428D02*
X25335000Y-28124523D01*
X25346904Y-28100714D01*
X25346904Y-28041190D01*
X25335000Y-28017380D01*
X25323095Y-28005476D01*
X25299285Y-27993571D01*
X25275476Y-27993571D01*
X25239761Y-28005476D01*
X25096904Y-28148333D01*
X25096904Y-27993571D01*
X25096904Y-26621666D02*
X25215952Y-26705000D01*
X25096904Y-26764523D02*
X25346904Y-26764523D01*
X25346904Y-26669285D01*
X25335000Y-26645476D01*
X25323095Y-26633571D01*
X25299285Y-26621666D01*
X25263571Y-26621666D01*
X25239761Y-26633571D01*
X25227857Y-26645476D01*
X25215952Y-26669285D01*
X25215952Y-26764523D01*
X25346904Y-26538333D02*
X25346904Y-26383571D01*
X25251666Y-26466904D01*
X25251666Y-26431190D01*
X25239761Y-26407380D01*
X25227857Y-26395476D01*
X25204047Y-26383571D01*
X25144523Y-26383571D01*
X25120714Y-26395476D01*
X25108809Y-26407380D01*
X25096904Y-26431190D01*
X25096904Y-26502619D01*
X25108809Y-26526428D01*
X25120714Y-26538333D01*
X26823759Y-27342197D02*
X26704711Y-27258864D01*
X26823759Y-27199340D02*
X26573759Y-27199340D01*
X26573759Y-27294578D01*
X26585664Y-27318387D01*
X26597568Y-27330292D01*
X26621378Y-27342197D01*
X26657092Y-27342197D01*
X26680902Y-27330292D01*
X26692806Y-27318387D01*
X26704711Y-27294578D01*
X26704711Y-27199340D01*
X26573759Y-27568387D02*
X26573759Y-27449340D01*
X26692806Y-27437435D01*
X26680902Y-27449340D01*
X26668997Y-27473149D01*
X26668997Y-27532673D01*
X26680902Y-27556483D01*
X26692806Y-27568387D01*
X26716616Y-27580292D01*
X26776140Y-27580292D01*
X26799949Y-27568387D01*
X26811854Y-27556483D01*
X26823759Y-27532673D01*
X26823759Y-27473149D01*
X26811854Y-27449340D01*
X26799949Y-27437435D01*
X26823759Y-25732197D02*
X26704711Y-25648864D01*
X26823759Y-25589340D02*
X26573759Y-25589340D01*
X26573759Y-25684578D01*
X26585664Y-25708387D01*
X26597568Y-25720292D01*
X26621378Y-25732197D01*
X26657092Y-25732197D01*
X26680902Y-25720292D01*
X26692806Y-25708387D01*
X26704711Y-25684578D01*
X26704711Y-25589340D01*
X26573759Y-25946483D02*
X26573759Y-25898864D01*
X26585664Y-25875054D01*
X26597568Y-25863149D01*
X26633283Y-25839340D01*
X26680902Y-25827435D01*
X26776140Y-25827435D01*
X26799949Y-25839340D01*
X26811854Y-25851244D01*
X26823759Y-25875054D01*
X26823759Y-25922673D01*
X26811854Y-25946483D01*
X26799949Y-25958387D01*
X26776140Y-25970292D01*
X26716616Y-25970292D01*
X26692806Y-25958387D01*
X26680902Y-25946483D01*
X26668997Y-25922673D01*
X26668997Y-25875054D01*
X26680902Y-25851244D01*
X26692806Y-25839340D01*
X26716616Y-25827435D01*
X26823759Y-24122197D02*
X26704711Y-24038864D01*
X26823759Y-23979340D02*
X26573759Y-23979340D01*
X26573759Y-24074578D01*
X26585664Y-24098387D01*
X26597568Y-24110292D01*
X26621378Y-24122197D01*
X26657092Y-24122197D01*
X26680902Y-24110292D01*
X26692806Y-24098387D01*
X26704711Y-24074578D01*
X26704711Y-23979340D01*
X26573759Y-24205530D02*
X26573759Y-24372197D01*
X26823759Y-24265054D01*
X26596904Y-28291666D02*
X26715952Y-28375000D01*
X26596904Y-28434523D02*
X26846904Y-28434523D01*
X26846904Y-28339285D01*
X26835000Y-28315476D01*
X26823095Y-28303571D01*
X26799285Y-28291666D01*
X26763571Y-28291666D01*
X26739761Y-28303571D01*
X26727857Y-28315476D01*
X26715952Y-28339285D01*
X26715952Y-28434523D01*
X26739761Y-28148809D02*
X26751666Y-28172619D01*
X26763571Y-28184523D01*
X26787380Y-28196428D01*
X26799285Y-28196428D01*
X26823095Y-28184523D01*
X26835000Y-28172619D01*
X26846904Y-28148809D01*
X26846904Y-28101190D01*
X26835000Y-28077380D01*
X26823095Y-28065476D01*
X26799285Y-28053571D01*
X26787380Y-28053571D01*
X26763571Y-28065476D01*
X26751666Y-28077380D01*
X26739761Y-28101190D01*
X26739761Y-28148809D01*
X26727857Y-28172619D01*
X26715952Y-28184523D01*
X26692142Y-28196428D01*
X26644523Y-28196428D01*
X26620714Y-28184523D01*
X26608809Y-28172619D01*
X26596904Y-28148809D01*
X26596904Y-28101190D01*
X26608809Y-28077380D01*
X26620714Y-28065476D01*
X26644523Y-28053571D01*
X26692142Y-28053571D01*
X26715952Y-28065476D01*
X26727857Y-28077380D01*
X26739761Y-28101190D01*
X21725476Y-27828095D02*
X21725476Y-28030476D01*
X21713571Y-28054285D01*
X21701666Y-28066190D01*
X21677857Y-28078095D01*
X21630238Y-28078095D01*
X21606428Y-28066190D01*
X21594523Y-28054285D01*
X21582619Y-28030476D01*
X21582619Y-27828095D01*
X21356428Y-27911428D02*
X21356428Y-28078095D01*
X21415952Y-27816190D02*
X21475476Y-27994761D01*
X21320714Y-27994761D01*
X21675476Y-24398095D02*
X21675476Y-24600476D01*
X21663571Y-24624285D01*
X21651666Y-24636190D01*
X21627857Y-24648095D01*
X21580238Y-24648095D01*
X21556428Y-24636190D01*
X21544523Y-24624285D01*
X21532619Y-24600476D01*
X21532619Y-24398095D01*
X21294523Y-24398095D02*
X21413571Y-24398095D01*
X21425476Y-24517142D01*
X21413571Y-24505238D01*
X21389761Y-24493333D01*
X21330238Y-24493333D01*
X21306428Y-24505238D01*
X21294523Y-24517142D01*
X21282619Y-24540952D01*
X21282619Y-24600476D01*
X21294523Y-24624285D01*
X21306428Y-24636190D01*
X21330238Y-24648095D01*
X21389761Y-24648095D01*
X21413571Y-24636190D01*
X21425476Y-24624285D01*
X26190476Y-21023095D02*
X26190476Y-21225476D01*
X26178571Y-21249285D01*
X26166666Y-21261190D01*
X26142857Y-21273095D01*
X26095238Y-21273095D01*
X26071428Y-21261190D01*
X26059523Y-21249285D01*
X26047619Y-21225476D01*
X26047619Y-21023095D01*
X25821428Y-21023095D02*
X25869047Y-21023095D01*
X25892857Y-21035000D01*
X25904761Y-21046904D01*
X25928571Y-21082619D01*
X25940476Y-21130238D01*
X25940476Y-21225476D01*
X25928571Y-21249285D01*
X25916666Y-21261190D01*
X25892857Y-21273095D01*
X25845238Y-21273095D01*
X25821428Y-21261190D01*
X25809523Y-21249285D01*
X25797619Y-21225476D01*
X25797619Y-21165952D01*
X25809523Y-21142142D01*
X25821428Y-21130238D01*
X25845238Y-21118333D01*
X25892857Y-21118333D01*
X25916666Y-21130238D01*
X25928571Y-21142142D01*
X25940476Y-21165952D01*
X25097568Y-27544578D02*
X25216616Y-27627911D01*
X25097568Y-27687435D02*
X25347568Y-27687435D01*
X25347568Y-27592197D01*
X25335664Y-27568387D01*
X25323759Y-27556483D01*
X25299949Y-27544578D01*
X25264235Y-27544578D01*
X25240425Y-27556483D01*
X25228521Y-27568387D01*
X25216616Y-27592197D01*
X25216616Y-27687435D01*
X25264235Y-27330292D02*
X25097568Y-27330292D01*
X25359473Y-27389816D02*
X25180902Y-27449340D01*
X25180902Y-27294578D01*
X25097568Y-27068387D02*
X25097568Y-27211244D01*
X25097568Y-27139816D02*
X25347568Y-27139816D01*
X25311854Y-27163625D01*
X25288044Y-27187435D01*
X25276140Y-27211244D01*
X25097568Y-24324578D02*
X25216616Y-24407911D01*
X25097568Y-24467435D02*
X25347568Y-24467435D01*
X25347568Y-24372197D01*
X25335664Y-24348387D01*
X25323759Y-24336483D01*
X25299949Y-24324578D01*
X25264235Y-24324578D01*
X25240425Y-24336483D01*
X25228521Y-24348387D01*
X25216616Y-24372197D01*
X25216616Y-24467435D01*
X25264235Y-24110292D02*
X25097568Y-24110292D01*
X25359473Y-24169816D02*
X25180902Y-24229340D01*
X25180902Y-24074578D01*
X25347568Y-24003149D02*
X25347568Y-23848387D01*
X25252330Y-23931721D01*
X25252330Y-23896006D01*
X25240425Y-23872197D01*
X25228521Y-23860292D01*
X25204711Y-23848387D01*
X25145187Y-23848387D01*
X25121378Y-23860292D01*
X25109473Y-23872197D01*
X25097568Y-23896006D01*
X25097568Y-23967435D01*
X25109473Y-23991244D01*
X25121378Y-24003149D01*
X29910714Y-31911666D02*
X29898809Y-31923571D01*
X29886904Y-31959285D01*
X29886904Y-31983095D01*
X29898809Y-32018809D01*
X29922619Y-32042619D01*
X29946428Y-32054523D01*
X29994047Y-32066428D01*
X30029761Y-32066428D01*
X30077380Y-32054523D01*
X30101190Y-32042619D01*
X30125000Y-32018809D01*
X30136904Y-31983095D01*
X30136904Y-31959285D01*
X30125000Y-31923571D01*
X30113095Y-31911666D01*
X30136904Y-31828333D02*
X30136904Y-31673571D01*
X30041666Y-31756904D01*
X30041666Y-31721190D01*
X30029761Y-31697380D01*
X30017857Y-31685476D01*
X29994047Y-31673571D01*
X29934523Y-31673571D01*
X29910714Y-31685476D01*
X29898809Y-31697380D01*
X29886904Y-31721190D01*
X29886904Y-31792619D01*
X29898809Y-31816428D01*
X29910714Y-31828333D01*
X29910714Y-36311666D02*
X29898809Y-36323571D01*
X29886904Y-36359285D01*
X29886904Y-36383095D01*
X29898809Y-36418809D01*
X29922619Y-36442619D01*
X29946428Y-36454523D01*
X29994047Y-36466428D01*
X30029761Y-36466428D01*
X30077380Y-36454523D01*
X30101190Y-36442619D01*
X30125000Y-36418809D01*
X30136904Y-36383095D01*
X30136904Y-36359285D01*
X30125000Y-36323571D01*
X30113095Y-36311666D01*
X30053571Y-36097380D02*
X29886904Y-36097380D01*
X30148809Y-36156904D02*
X29970238Y-36216428D01*
X29970238Y-36061666D01*
X34249285Y-23089285D02*
X34261190Y-23077380D01*
X34273095Y-23041666D01*
X34273095Y-23017857D01*
X34261190Y-22982142D01*
X34237380Y-22958333D01*
X34213571Y-22946428D01*
X34165952Y-22934523D01*
X34130238Y-22934523D01*
X34082619Y-22946428D01*
X34058809Y-22958333D01*
X34035000Y-22982142D01*
X34023095Y-23017857D01*
X34023095Y-23041666D01*
X34035000Y-23077380D01*
X34046904Y-23089285D01*
X34273095Y-23327380D02*
X34273095Y-23184523D01*
X34273095Y-23255952D02*
X34023095Y-23255952D01*
X34058809Y-23232142D01*
X34082619Y-23208333D01*
X34094523Y-23184523D01*
X34106428Y-23541666D02*
X34273095Y-23541666D01*
X34011190Y-23482142D02*
X34189761Y-23422619D01*
X34189761Y-23577380D01*
X36559285Y-29049285D02*
X36571190Y-29037380D01*
X36583095Y-29001666D01*
X36583095Y-28977857D01*
X36571190Y-28942142D01*
X36547380Y-28918333D01*
X36523571Y-28906428D01*
X36475952Y-28894523D01*
X36440238Y-28894523D01*
X36392619Y-28906428D01*
X36368809Y-28918333D01*
X36345000Y-28942142D01*
X36333095Y-28977857D01*
X36333095Y-29001666D01*
X36345000Y-29037380D01*
X36356904Y-29049285D01*
X36583095Y-29287380D02*
X36583095Y-29144523D01*
X36583095Y-29215952D02*
X36333095Y-29215952D01*
X36368809Y-29192142D01*
X36392619Y-29168333D01*
X36404523Y-29144523D01*
X36333095Y-29501666D02*
X36333095Y-29454047D01*
X36345000Y-29430238D01*
X36356904Y-29418333D01*
X36392619Y-29394523D01*
X36440238Y-29382619D01*
X36535476Y-29382619D01*
X36559285Y-29394523D01*
X36571190Y-29406428D01*
X36583095Y-29430238D01*
X36583095Y-29477857D01*
X36571190Y-29501666D01*
X36559285Y-29513571D01*
X36535476Y-29525476D01*
X36475952Y-29525476D01*
X36452142Y-29513571D01*
X36440238Y-29501666D01*
X36428333Y-29477857D01*
X36428333Y-29430238D01*
X36440238Y-29406428D01*
X36452142Y-29394523D01*
X36475952Y-29382619D01*
X36130714Y-23899285D02*
X36142619Y-23911190D01*
X36178333Y-23923095D01*
X36202142Y-23923095D01*
X36237857Y-23911190D01*
X36261666Y-23887380D01*
X36273571Y-23863571D01*
X36285476Y-23815952D01*
X36285476Y-23780238D01*
X36273571Y-23732619D01*
X36261666Y-23708809D01*
X36237857Y-23685000D01*
X36202142Y-23673095D01*
X36178333Y-23673095D01*
X36142619Y-23685000D01*
X36130714Y-23696904D01*
X35892619Y-23923095D02*
X36035476Y-23923095D01*
X35964047Y-23923095D02*
X35964047Y-23673095D01*
X35987857Y-23708809D01*
X36011666Y-23732619D01*
X36035476Y-23744523D01*
X35749761Y-23780238D02*
X35773571Y-23768333D01*
X35785476Y-23756428D01*
X35797380Y-23732619D01*
X35797380Y-23720714D01*
X35785476Y-23696904D01*
X35773571Y-23685000D01*
X35749761Y-23673095D01*
X35702142Y-23673095D01*
X35678333Y-23685000D01*
X35666428Y-23696904D01*
X35654523Y-23720714D01*
X35654523Y-23732619D01*
X35666428Y-23756428D01*
X35678333Y-23768333D01*
X35702142Y-23780238D01*
X35749761Y-23780238D01*
X35773571Y-23792142D01*
X35785476Y-23804047D01*
X35797380Y-23827857D01*
X35797380Y-23875476D01*
X35785476Y-23899285D01*
X35773571Y-23911190D01*
X35749761Y-23923095D01*
X35702142Y-23923095D01*
X35678333Y-23911190D01*
X35666428Y-23899285D01*
X35654523Y-23875476D01*
X35654523Y-23827857D01*
X35666428Y-23804047D01*
X35678333Y-23792142D01*
X35702142Y-23780238D01*
X31860714Y-22979285D02*
X31872619Y-22991190D01*
X31908333Y-23003095D01*
X31932142Y-23003095D01*
X31967857Y-22991190D01*
X31991666Y-22967380D01*
X32003571Y-22943571D01*
X32015476Y-22895952D01*
X32015476Y-22860238D01*
X32003571Y-22812619D01*
X31991666Y-22788809D01*
X31967857Y-22765000D01*
X31932142Y-22753095D01*
X31908333Y-22753095D01*
X31872619Y-22765000D01*
X31860714Y-22776904D01*
X31765476Y-22776904D02*
X31753571Y-22765000D01*
X31729761Y-22753095D01*
X31670238Y-22753095D01*
X31646428Y-22765000D01*
X31634523Y-22776904D01*
X31622619Y-22800714D01*
X31622619Y-22824523D01*
X31634523Y-22860238D01*
X31777380Y-23003095D01*
X31622619Y-23003095D01*
X31467857Y-22753095D02*
X31444047Y-22753095D01*
X31420238Y-22765000D01*
X31408333Y-22776904D01*
X31396428Y-22800714D01*
X31384523Y-22848333D01*
X31384523Y-22907857D01*
X31396428Y-22955476D01*
X31408333Y-22979285D01*
X31420238Y-22991190D01*
X31444047Y-23003095D01*
X31467857Y-23003095D01*
X31491666Y-22991190D01*
X31503571Y-22979285D01*
X31515476Y-22955476D01*
X31527380Y-22907857D01*
X31527380Y-22848333D01*
X31515476Y-22800714D01*
X31503571Y-22776904D01*
X31491666Y-22765000D01*
X31467857Y-22753095D01*
X35800714Y-31335714D02*
X35788809Y-31347619D01*
X35776904Y-31383333D01*
X35776904Y-31407142D01*
X35788809Y-31442857D01*
X35812619Y-31466666D01*
X35836428Y-31478571D01*
X35884047Y-31490476D01*
X35919761Y-31490476D01*
X35967380Y-31478571D01*
X35991190Y-31466666D01*
X36015000Y-31442857D01*
X36026904Y-31407142D01*
X36026904Y-31383333D01*
X36015000Y-31347619D01*
X36003095Y-31335714D01*
X36003095Y-31240476D02*
X36015000Y-31228571D01*
X36026904Y-31204761D01*
X36026904Y-31145238D01*
X36015000Y-31121428D01*
X36003095Y-31109523D01*
X35979285Y-31097619D01*
X35955476Y-31097619D01*
X35919761Y-31109523D01*
X35776904Y-31252380D01*
X35776904Y-31097619D01*
X36026904Y-31014285D02*
X36026904Y-30859523D01*
X35931666Y-30942857D01*
X35931666Y-30907142D01*
X35919761Y-30883333D01*
X35907857Y-30871428D01*
X35884047Y-30859523D01*
X35824523Y-30859523D01*
X35800714Y-30871428D01*
X35788809Y-30883333D01*
X35776904Y-30907142D01*
X35776904Y-30978571D01*
X35788809Y-31002380D01*
X35800714Y-31014285D01*
X36830714Y-35089285D02*
X36842619Y-35101190D01*
X36878333Y-35113095D01*
X36902142Y-35113095D01*
X36937857Y-35101190D01*
X36961666Y-35077380D01*
X36973571Y-35053571D01*
X36985476Y-35005952D01*
X36985476Y-34970238D01*
X36973571Y-34922619D01*
X36961666Y-34898809D01*
X36937857Y-34875000D01*
X36902142Y-34863095D01*
X36878333Y-34863095D01*
X36842619Y-34875000D01*
X36830714Y-34886904D01*
X36735476Y-34886904D02*
X36723571Y-34875000D01*
X36699761Y-34863095D01*
X36640238Y-34863095D01*
X36616428Y-34875000D01*
X36604523Y-34886904D01*
X36592619Y-34910714D01*
X36592619Y-34934523D01*
X36604523Y-34970238D01*
X36747380Y-35113095D01*
X36592619Y-35113095D01*
X36366428Y-34863095D02*
X36485476Y-34863095D01*
X36497380Y-34982142D01*
X36485476Y-34970238D01*
X36461666Y-34958333D01*
X36402142Y-34958333D01*
X36378333Y-34970238D01*
X36366428Y-34982142D01*
X36354523Y-35005952D01*
X36354523Y-35065476D01*
X36366428Y-35089285D01*
X36378333Y-35101190D01*
X36402142Y-35113095D01*
X36461666Y-35113095D01*
X36485476Y-35101190D01*
X36497380Y-35089285D01*
X36040714Y-38614285D02*
X36052619Y-38626190D01*
X36088333Y-38638095D01*
X36112142Y-38638095D01*
X36147857Y-38626190D01*
X36171666Y-38602380D01*
X36183571Y-38578571D01*
X36195476Y-38530952D01*
X36195476Y-38495238D01*
X36183571Y-38447619D01*
X36171666Y-38423809D01*
X36147857Y-38400000D01*
X36112142Y-38388095D01*
X36088333Y-38388095D01*
X36052619Y-38400000D01*
X36040714Y-38411904D01*
X35945476Y-38411904D02*
X35933571Y-38400000D01*
X35909761Y-38388095D01*
X35850238Y-38388095D01*
X35826428Y-38400000D01*
X35814523Y-38411904D01*
X35802619Y-38435714D01*
X35802619Y-38459523D01*
X35814523Y-38495238D01*
X35957380Y-38638095D01*
X35802619Y-38638095D01*
X35719285Y-38388095D02*
X35552619Y-38388095D01*
X35659761Y-38638095D01*
X32020714Y-38369285D02*
X32032619Y-38381190D01*
X32068333Y-38393095D01*
X32092142Y-38393095D01*
X32127857Y-38381190D01*
X32151666Y-38357380D01*
X32163571Y-38333571D01*
X32175476Y-38285952D01*
X32175476Y-38250238D01*
X32163571Y-38202619D01*
X32151666Y-38178809D01*
X32127857Y-38155000D01*
X32092142Y-38143095D01*
X32068333Y-38143095D01*
X32032619Y-38155000D01*
X32020714Y-38166904D01*
X31925476Y-38166904D02*
X31913571Y-38155000D01*
X31889761Y-38143095D01*
X31830238Y-38143095D01*
X31806428Y-38155000D01*
X31794523Y-38166904D01*
X31782619Y-38190714D01*
X31782619Y-38214523D01*
X31794523Y-38250238D01*
X31937380Y-38393095D01*
X31782619Y-38393095D01*
X31639761Y-38250238D02*
X31663571Y-38238333D01*
X31675476Y-38226428D01*
X31687380Y-38202619D01*
X31687380Y-38190714D01*
X31675476Y-38166904D01*
X31663571Y-38155000D01*
X31639761Y-38143095D01*
X31592142Y-38143095D01*
X31568333Y-38155000D01*
X31556428Y-38166904D01*
X31544523Y-38190714D01*
X31544523Y-38202619D01*
X31556428Y-38226428D01*
X31568333Y-38238333D01*
X31592142Y-38250238D01*
X31639761Y-38250238D01*
X31663571Y-38262142D01*
X31675476Y-38274047D01*
X31687380Y-38297857D01*
X31687380Y-38345476D01*
X31675476Y-38369285D01*
X31663571Y-38381190D01*
X31639761Y-38393095D01*
X31592142Y-38393095D01*
X31568333Y-38381190D01*
X31556428Y-38369285D01*
X31544523Y-38345476D01*
X31544523Y-38297857D01*
X31556428Y-38274047D01*
X31568333Y-38262142D01*
X31592142Y-38250238D01*
X25750714Y-36910714D02*
X25738809Y-36922619D01*
X25726904Y-36958333D01*
X25726904Y-36982142D01*
X25738809Y-37017857D01*
X25762619Y-37041666D01*
X25786428Y-37053571D01*
X25834047Y-37065476D01*
X25869761Y-37065476D01*
X25917380Y-37053571D01*
X25941190Y-37041666D01*
X25965000Y-37017857D01*
X25976904Y-36982142D01*
X25976904Y-36958333D01*
X25965000Y-36922619D01*
X25953095Y-36910714D01*
X25976904Y-36827380D02*
X25976904Y-36672619D01*
X25881666Y-36755952D01*
X25881666Y-36720238D01*
X25869761Y-36696428D01*
X25857857Y-36684523D01*
X25834047Y-36672619D01*
X25774523Y-36672619D01*
X25750714Y-36684523D01*
X25738809Y-36696428D01*
X25726904Y-36720238D01*
X25726904Y-36791666D01*
X25738809Y-36815476D01*
X25750714Y-36827380D01*
X25976904Y-36517857D02*
X25976904Y-36494047D01*
X25965000Y-36470238D01*
X25953095Y-36458333D01*
X25929285Y-36446428D01*
X25881666Y-36434523D01*
X25822142Y-36434523D01*
X25774523Y-36446428D01*
X25750714Y-36458333D01*
X25738809Y-36470238D01*
X25726904Y-36494047D01*
X25726904Y-36517857D01*
X25738809Y-36541666D01*
X25750714Y-36553571D01*
X25774523Y-36565476D01*
X25822142Y-36577380D01*
X25881666Y-36577380D01*
X25929285Y-36565476D01*
X25953095Y-36553571D01*
X25965000Y-36541666D01*
X25976904Y-36517857D01*
X23440714Y-30950714D02*
X23428809Y-30962619D01*
X23416904Y-30998333D01*
X23416904Y-31022142D01*
X23428809Y-31057857D01*
X23452619Y-31081666D01*
X23476428Y-31093571D01*
X23524047Y-31105476D01*
X23559761Y-31105476D01*
X23607380Y-31093571D01*
X23631190Y-31081666D01*
X23655000Y-31057857D01*
X23666904Y-31022142D01*
X23666904Y-30998333D01*
X23655000Y-30962619D01*
X23643095Y-30950714D01*
X23666904Y-30867380D02*
X23666904Y-30712619D01*
X23571666Y-30795952D01*
X23571666Y-30760238D01*
X23559761Y-30736428D01*
X23547857Y-30724523D01*
X23524047Y-30712619D01*
X23464523Y-30712619D01*
X23440714Y-30724523D01*
X23428809Y-30736428D01*
X23416904Y-30760238D01*
X23416904Y-30831666D01*
X23428809Y-30855476D01*
X23440714Y-30867380D01*
X23643095Y-30617380D02*
X23655000Y-30605476D01*
X23666904Y-30581666D01*
X23666904Y-30522142D01*
X23655000Y-30498333D01*
X23643095Y-30486428D01*
X23619285Y-30474523D01*
X23595476Y-30474523D01*
X23559761Y-30486428D01*
X23416904Y-30629285D01*
X23416904Y-30474523D01*
X24190714Y-36279285D02*
X24202619Y-36291190D01*
X24238333Y-36303095D01*
X24262142Y-36303095D01*
X24297857Y-36291190D01*
X24321666Y-36267380D01*
X24333571Y-36243571D01*
X24345476Y-36195952D01*
X24345476Y-36160238D01*
X24333571Y-36112619D01*
X24321666Y-36088809D01*
X24297857Y-36065000D01*
X24262142Y-36053095D01*
X24238333Y-36053095D01*
X24202619Y-36065000D01*
X24190714Y-36076904D01*
X24107380Y-36053095D02*
X23952619Y-36053095D01*
X24035952Y-36148333D01*
X24000238Y-36148333D01*
X23976428Y-36160238D01*
X23964523Y-36172142D01*
X23952619Y-36195952D01*
X23952619Y-36255476D01*
X23964523Y-36279285D01*
X23976428Y-36291190D01*
X24000238Y-36303095D01*
X24071666Y-36303095D01*
X24095476Y-36291190D01*
X24107380Y-36279285D01*
X23738333Y-36136428D02*
X23738333Y-36303095D01*
X23797857Y-36041190D02*
X23857380Y-36219761D01*
X23702619Y-36219761D01*
X28300714Y-38369285D02*
X28312619Y-38381190D01*
X28348333Y-38393095D01*
X28372142Y-38393095D01*
X28407857Y-38381190D01*
X28431666Y-38357380D01*
X28443571Y-38333571D01*
X28455476Y-38285952D01*
X28455476Y-38250238D01*
X28443571Y-38202619D01*
X28431666Y-38178809D01*
X28407857Y-38155000D01*
X28372142Y-38143095D01*
X28348333Y-38143095D01*
X28312619Y-38155000D01*
X28300714Y-38166904D01*
X28217380Y-38143095D02*
X28062619Y-38143095D01*
X28145952Y-38238333D01*
X28110238Y-38238333D01*
X28086428Y-38250238D01*
X28074523Y-38262142D01*
X28062619Y-38285952D01*
X28062619Y-38345476D01*
X28074523Y-38369285D01*
X28086428Y-38381190D01*
X28110238Y-38393095D01*
X28181666Y-38393095D01*
X28205476Y-38381190D01*
X28217380Y-38369285D01*
X27848333Y-38143095D02*
X27895952Y-38143095D01*
X27919761Y-38155000D01*
X27931666Y-38166904D01*
X27955476Y-38202619D01*
X27967380Y-38250238D01*
X27967380Y-38345476D01*
X27955476Y-38369285D01*
X27943571Y-38381190D01*
X27919761Y-38393095D01*
X27872142Y-38393095D01*
X27848333Y-38381190D01*
X27836428Y-38369285D01*
X27824523Y-38345476D01*
X27824523Y-38285952D01*
X27836428Y-38262142D01*
X27848333Y-38250238D01*
X27872142Y-38238333D01*
X27919761Y-38238333D01*
X27943571Y-38250238D01*
X27955476Y-38262142D01*
X27967380Y-38285952D01*
X40246904Y-28391190D02*
X40235000Y-28367380D01*
X40211190Y-28343571D01*
X40175476Y-28307857D01*
X40163571Y-28284047D01*
X40163571Y-28260238D01*
X40223095Y-28272142D02*
X40211190Y-28248333D01*
X40187380Y-28224523D01*
X40139761Y-28212619D01*
X40056428Y-28212619D01*
X40008809Y-28224523D01*
X39985000Y-28248333D01*
X39973095Y-28272142D01*
X39973095Y-28319761D01*
X39985000Y-28343571D01*
X40008809Y-28367380D01*
X40056428Y-28379285D01*
X40139761Y-28379285D01*
X40187380Y-28367380D01*
X40211190Y-28343571D01*
X40223095Y-28319761D01*
X40223095Y-28272142D01*
X40056428Y-28593571D02*
X40223095Y-28593571D01*
X39961190Y-28534047D02*
X40139761Y-28474523D01*
X40139761Y-28629285D01*
X40296904Y-24961190D02*
X40285000Y-24937380D01*
X40261190Y-24913571D01*
X40225476Y-24877857D01*
X40213571Y-24854047D01*
X40213571Y-24830238D01*
X40273095Y-24842142D02*
X40261190Y-24818333D01*
X40237380Y-24794523D01*
X40189761Y-24782619D01*
X40106428Y-24782619D01*
X40058809Y-24794523D01*
X40035000Y-24818333D01*
X40023095Y-24842142D01*
X40023095Y-24889761D01*
X40035000Y-24913571D01*
X40058809Y-24937380D01*
X40106428Y-24949285D01*
X40189761Y-24949285D01*
X40237380Y-24937380D01*
X40261190Y-24913571D01*
X40273095Y-24889761D01*
X40273095Y-24842142D01*
X40023095Y-25175476D02*
X40023095Y-25056428D01*
X40142142Y-25044523D01*
X40130238Y-25056428D01*
X40118333Y-25080238D01*
X40118333Y-25139761D01*
X40130238Y-25163571D01*
X40142142Y-25175476D01*
X40165952Y-25187380D01*
X40225476Y-25187380D01*
X40249285Y-25175476D01*
X40261190Y-25163571D01*
X40273095Y-25139761D01*
X40273095Y-25080238D01*
X40261190Y-25056428D01*
X40249285Y-25044523D01*
X35781904Y-21586190D02*
X35770000Y-21562380D01*
X35746190Y-21538571D01*
X35710476Y-21502857D01*
X35698571Y-21479047D01*
X35698571Y-21455238D01*
X35758095Y-21467142D02*
X35746190Y-21443333D01*
X35722380Y-21419523D01*
X35674761Y-21407619D01*
X35591428Y-21407619D01*
X35543809Y-21419523D01*
X35520000Y-21443333D01*
X35508095Y-21467142D01*
X35508095Y-21514761D01*
X35520000Y-21538571D01*
X35543809Y-21562380D01*
X35591428Y-21574285D01*
X35674761Y-21574285D01*
X35722380Y-21562380D01*
X35746190Y-21538571D01*
X35758095Y-21514761D01*
X35758095Y-21467142D01*
X35508095Y-21788571D02*
X35508095Y-21740952D01*
X35520000Y-21717142D01*
X35531904Y-21705238D01*
X35567619Y-21681428D01*
X35615238Y-21669523D01*
X35710476Y-21669523D01*
X35734285Y-21681428D01*
X35746190Y-21693333D01*
X35758095Y-21717142D01*
X35758095Y-21764761D01*
X35746190Y-21788571D01*
X35734285Y-21800476D01*
X35710476Y-21812380D01*
X35650952Y-21812380D01*
X35627142Y-21800476D01*
X35615238Y-21788571D01*
X35603333Y-21764761D01*
X35603333Y-21717142D01*
X35615238Y-21693333D01*
X35627142Y-21681428D01*
X35650952Y-21669523D01*
X20026904Y-31442142D02*
X20015000Y-31418333D01*
X19991190Y-31394523D01*
X19955476Y-31358809D01*
X19943571Y-31335000D01*
X19943571Y-31311190D01*
X20003095Y-31323095D02*
X19991190Y-31299285D01*
X19967380Y-31275476D01*
X19919761Y-31263571D01*
X19836428Y-31263571D01*
X19788809Y-31275476D01*
X19765000Y-31299285D01*
X19753095Y-31323095D01*
X19753095Y-31370714D01*
X19765000Y-31394523D01*
X19788809Y-31418333D01*
X19836428Y-31430238D01*
X19919761Y-31430238D01*
X19967380Y-31418333D01*
X19991190Y-31394523D01*
X20003095Y-31370714D01*
X20003095Y-31323095D01*
X20003095Y-31668333D02*
X20003095Y-31525476D01*
X20003095Y-31596904D02*
X19753095Y-31596904D01*
X19788809Y-31573095D01*
X19812619Y-31549285D01*
X19824523Y-31525476D01*
X19753095Y-31823095D02*
X19753095Y-31846904D01*
X19765000Y-31870714D01*
X19776904Y-31882619D01*
X19800714Y-31894523D01*
X19848333Y-31906428D01*
X19907857Y-31906428D01*
X19955476Y-31894523D01*
X19979285Y-31882619D01*
X19991190Y-31870714D01*
X20003095Y-31846904D01*
X20003095Y-31823095D01*
X19991190Y-31799285D01*
X19979285Y-31787380D01*
X19955476Y-31775476D01*
X19907857Y-31763571D01*
X19848333Y-31763571D01*
X19800714Y-31775476D01*
X19776904Y-31787380D01*
X19765000Y-31799285D01*
X19753095Y-31823095D01*
X19976904Y-34872142D02*
X19965000Y-34848333D01*
X19941190Y-34824523D01*
X19905476Y-34788809D01*
X19893571Y-34765000D01*
X19893571Y-34741190D01*
X19953095Y-34753095D02*
X19941190Y-34729285D01*
X19917380Y-34705476D01*
X19869761Y-34693571D01*
X19786428Y-34693571D01*
X19738809Y-34705476D01*
X19715000Y-34729285D01*
X19703095Y-34753095D01*
X19703095Y-34800714D01*
X19715000Y-34824523D01*
X19738809Y-34848333D01*
X19786428Y-34860238D01*
X19869761Y-34860238D01*
X19917380Y-34848333D01*
X19941190Y-34824523D01*
X19953095Y-34800714D01*
X19953095Y-34753095D01*
X19953095Y-35098333D02*
X19953095Y-34955476D01*
X19953095Y-35026904D02*
X19703095Y-35026904D01*
X19738809Y-35003095D01*
X19762619Y-34979285D01*
X19774523Y-34955476D01*
X19953095Y-35336428D02*
X19953095Y-35193571D01*
X19953095Y-35265000D02*
X19703095Y-35265000D01*
X19738809Y-35241190D01*
X19762619Y-35217380D01*
X19774523Y-35193571D01*
X24491904Y-38247142D02*
X24480000Y-38223333D01*
X24456190Y-38199523D01*
X24420476Y-38163809D01*
X24408571Y-38140000D01*
X24408571Y-38116190D01*
X24468095Y-38128095D02*
X24456190Y-38104285D01*
X24432380Y-38080476D01*
X24384761Y-38068571D01*
X24301428Y-38068571D01*
X24253809Y-38080476D01*
X24230000Y-38104285D01*
X24218095Y-38128095D01*
X24218095Y-38175714D01*
X24230000Y-38199523D01*
X24253809Y-38223333D01*
X24301428Y-38235238D01*
X24384761Y-38235238D01*
X24432380Y-38223333D01*
X24456190Y-38199523D01*
X24468095Y-38175714D01*
X24468095Y-38128095D01*
X24468095Y-38473333D02*
X24468095Y-38330476D01*
X24468095Y-38401904D02*
X24218095Y-38401904D01*
X24253809Y-38378095D01*
X24277619Y-38354285D01*
X24289523Y-38330476D01*
X24241904Y-38568571D02*
X24230000Y-38580476D01*
X24218095Y-38604285D01*
X24218095Y-38663809D01*
X24230000Y-38687619D01*
X24241904Y-38699523D01*
X24265714Y-38711428D01*
X24289523Y-38711428D01*
X24325238Y-38699523D01*
X24468095Y-38556666D01*
X24468095Y-38711428D01*
X34253095Y-23879285D02*
X34134047Y-23795952D01*
X34253095Y-23736428D02*
X34003095Y-23736428D01*
X34003095Y-23831666D01*
X34015000Y-23855476D01*
X34026904Y-23867380D01*
X34050714Y-23879285D01*
X34086428Y-23879285D01*
X34110238Y-23867380D01*
X34122142Y-23855476D01*
X34134047Y-23831666D01*
X34134047Y-23736428D01*
X34253095Y-24117380D02*
X34253095Y-23974523D01*
X34253095Y-24045952D02*
X34003095Y-24045952D01*
X34038809Y-24022142D01*
X34062619Y-23998333D01*
X34074523Y-23974523D01*
X34253095Y-24355476D02*
X34253095Y-24212619D01*
X34253095Y-24284047D02*
X34003095Y-24284047D01*
X34038809Y-24260238D01*
X34062619Y-24236428D01*
X34074523Y-24212619D01*
X34676904Y-31970714D02*
X34795952Y-32054047D01*
X34676904Y-32113571D02*
X34926904Y-32113571D01*
X34926904Y-32018333D01*
X34915000Y-31994523D01*
X34903095Y-31982619D01*
X34879285Y-31970714D01*
X34843571Y-31970714D01*
X34819761Y-31982619D01*
X34807857Y-31994523D01*
X34795952Y-32018333D01*
X34795952Y-32113571D01*
X34903095Y-31875476D02*
X34915000Y-31863571D01*
X34926904Y-31839761D01*
X34926904Y-31780238D01*
X34915000Y-31756428D01*
X34903095Y-31744523D01*
X34879285Y-31732619D01*
X34855476Y-31732619D01*
X34819761Y-31744523D01*
X34676904Y-31887380D01*
X34676904Y-31732619D01*
X34903095Y-31637380D02*
X34915000Y-31625476D01*
X34926904Y-31601666D01*
X34926904Y-31542142D01*
X34915000Y-31518333D01*
X34903095Y-31506428D01*
X34879285Y-31494523D01*
X34855476Y-31494523D01*
X34819761Y-31506428D01*
X34676904Y-31649285D01*
X34676904Y-31494523D01*
X34676904Y-33580714D02*
X34795952Y-33664047D01*
X34676904Y-33723571D02*
X34926904Y-33723571D01*
X34926904Y-33628333D01*
X34915000Y-33604523D01*
X34903095Y-33592619D01*
X34879285Y-33580714D01*
X34843571Y-33580714D01*
X34819761Y-33592619D01*
X34807857Y-33604523D01*
X34795952Y-33628333D01*
X34795952Y-33723571D01*
X34903095Y-33485476D02*
X34915000Y-33473571D01*
X34926904Y-33449761D01*
X34926904Y-33390238D01*
X34915000Y-33366428D01*
X34903095Y-33354523D01*
X34879285Y-33342619D01*
X34855476Y-33342619D01*
X34819761Y-33354523D01*
X34676904Y-33497380D01*
X34676904Y-33342619D01*
X34926904Y-33259285D02*
X34926904Y-33104523D01*
X34831666Y-33187857D01*
X34831666Y-33152142D01*
X34819761Y-33128333D01*
X34807857Y-33116428D01*
X34784047Y-33104523D01*
X34724523Y-33104523D01*
X34700714Y-33116428D01*
X34688809Y-33128333D01*
X34676904Y-33152142D01*
X34676904Y-33223571D01*
X34688809Y-33247380D01*
X34700714Y-33259285D01*
X34676904Y-35190714D02*
X34795952Y-35274047D01*
X34676904Y-35333571D02*
X34926904Y-35333571D01*
X34926904Y-35238333D01*
X34915000Y-35214523D01*
X34903095Y-35202619D01*
X34879285Y-35190714D01*
X34843571Y-35190714D01*
X34819761Y-35202619D01*
X34807857Y-35214523D01*
X34795952Y-35238333D01*
X34795952Y-35333571D01*
X34903095Y-35095476D02*
X34915000Y-35083571D01*
X34926904Y-35059761D01*
X34926904Y-35000238D01*
X34915000Y-34976428D01*
X34903095Y-34964523D01*
X34879285Y-34952619D01*
X34855476Y-34952619D01*
X34819761Y-34964523D01*
X34676904Y-35107380D01*
X34676904Y-34952619D01*
X34843571Y-34738333D02*
X34676904Y-34738333D01*
X34938809Y-34797857D02*
X34760238Y-34857380D01*
X34760238Y-34702619D01*
X33402431Y-32455421D02*
X33283383Y-32372088D01*
X33402431Y-32312564D02*
X33152431Y-32312564D01*
X33152431Y-32407802D01*
X33164336Y-32431612D01*
X33176240Y-32443516D01*
X33200050Y-32455421D01*
X33235764Y-32455421D01*
X33259574Y-32443516D01*
X33271478Y-32431612D01*
X33283383Y-32407802D01*
X33283383Y-32312564D01*
X33176240Y-32550659D02*
X33164336Y-32562564D01*
X33152431Y-32586374D01*
X33152431Y-32645897D01*
X33164336Y-32669707D01*
X33176240Y-32681612D01*
X33200050Y-32693516D01*
X33223859Y-32693516D01*
X33259574Y-32681612D01*
X33402431Y-32538755D01*
X33402431Y-32693516D01*
X33152431Y-32919707D02*
X33152431Y-32800659D01*
X33271478Y-32788755D01*
X33259574Y-32800659D01*
X33247669Y-32824469D01*
X33247669Y-32883993D01*
X33259574Y-32907802D01*
X33271478Y-32919707D01*
X33295288Y-32931612D01*
X33354812Y-32931612D01*
X33378621Y-32919707D01*
X33390526Y-32907802D01*
X33402431Y-32883993D01*
X33402431Y-32824469D01*
X33390526Y-32800659D01*
X33378621Y-32788755D01*
X33402431Y-34065421D02*
X33283383Y-33982088D01*
X33402431Y-33922564D02*
X33152431Y-33922564D01*
X33152431Y-34017802D01*
X33164336Y-34041612D01*
X33176240Y-34053516D01*
X33200050Y-34065421D01*
X33235764Y-34065421D01*
X33259574Y-34053516D01*
X33271478Y-34041612D01*
X33283383Y-34017802D01*
X33283383Y-33922564D01*
X33176240Y-34160659D02*
X33164336Y-34172564D01*
X33152431Y-34196374D01*
X33152431Y-34255897D01*
X33164336Y-34279707D01*
X33176240Y-34291612D01*
X33200050Y-34303516D01*
X33223859Y-34303516D01*
X33259574Y-34291612D01*
X33402431Y-34148755D01*
X33402431Y-34303516D01*
X33152431Y-34517802D02*
X33152431Y-34470183D01*
X33164336Y-34446374D01*
X33176240Y-34434469D01*
X33211955Y-34410659D01*
X33259574Y-34398755D01*
X33354812Y-34398755D01*
X33378621Y-34410659D01*
X33390526Y-34422564D01*
X33402431Y-34446374D01*
X33402431Y-34493993D01*
X33390526Y-34517802D01*
X33378621Y-34529707D01*
X33354812Y-34541612D01*
X33295288Y-34541612D01*
X33271478Y-34529707D01*
X33259574Y-34517802D01*
X33247669Y-34493993D01*
X33247669Y-34446374D01*
X33259574Y-34422564D01*
X33271478Y-34410659D01*
X33295288Y-34398755D01*
X33176904Y-31910714D02*
X33295952Y-31994047D01*
X33176904Y-32053571D02*
X33426904Y-32053571D01*
X33426904Y-31958333D01*
X33415000Y-31934523D01*
X33403095Y-31922619D01*
X33379285Y-31910714D01*
X33343571Y-31910714D01*
X33319761Y-31922619D01*
X33307857Y-31934523D01*
X33295952Y-31958333D01*
X33295952Y-32053571D01*
X33403095Y-31815476D02*
X33415000Y-31803571D01*
X33426904Y-31779761D01*
X33426904Y-31720238D01*
X33415000Y-31696428D01*
X33403095Y-31684523D01*
X33379285Y-31672619D01*
X33355476Y-31672619D01*
X33319761Y-31684523D01*
X33176904Y-31827380D01*
X33176904Y-31672619D01*
X33319761Y-31529761D02*
X33331666Y-31553571D01*
X33343571Y-31565476D01*
X33367380Y-31577380D01*
X33379285Y-31577380D01*
X33403095Y-31565476D01*
X33415000Y-31553571D01*
X33426904Y-31529761D01*
X33426904Y-31482142D01*
X33415000Y-31458333D01*
X33403095Y-31446428D01*
X33379285Y-31434523D01*
X33367380Y-31434523D01*
X33343571Y-31446428D01*
X33331666Y-31458333D01*
X33319761Y-31482142D01*
X33319761Y-31529761D01*
X33307857Y-31553571D01*
X33295952Y-31565476D01*
X33272142Y-31577380D01*
X33224523Y-31577380D01*
X33200714Y-31565476D01*
X33188809Y-31553571D01*
X33176904Y-31529761D01*
X33176904Y-31482142D01*
X33188809Y-31458333D01*
X33200714Y-31446428D01*
X33224523Y-31434523D01*
X33272142Y-31434523D01*
X33295952Y-31446428D01*
X33307857Y-31458333D01*
X33319761Y-31482142D01*
X33176904Y-33580714D02*
X33295952Y-33664047D01*
X33176904Y-33723571D02*
X33426904Y-33723571D01*
X33426904Y-33628333D01*
X33415000Y-33604523D01*
X33403095Y-33592619D01*
X33379285Y-33580714D01*
X33343571Y-33580714D01*
X33319761Y-33592619D01*
X33307857Y-33604523D01*
X33295952Y-33628333D01*
X33295952Y-33723571D01*
X33403095Y-33485476D02*
X33415000Y-33473571D01*
X33426904Y-33449761D01*
X33426904Y-33390238D01*
X33415000Y-33366428D01*
X33403095Y-33354523D01*
X33379285Y-33342619D01*
X33355476Y-33342619D01*
X33319761Y-33354523D01*
X33176904Y-33497380D01*
X33176904Y-33342619D01*
X33176904Y-33223571D02*
X33176904Y-33175952D01*
X33188809Y-33152142D01*
X33200714Y-33140238D01*
X33236428Y-33116428D01*
X33284047Y-33104523D01*
X33379285Y-33104523D01*
X33403095Y-33116428D01*
X33415000Y-33128333D01*
X33426904Y-33152142D01*
X33426904Y-33199761D01*
X33415000Y-33223571D01*
X33403095Y-33235476D01*
X33379285Y-33247380D01*
X33319761Y-33247380D01*
X33295952Y-33235476D01*
X33284047Y-33223571D01*
X33272142Y-33199761D01*
X33272142Y-33152142D01*
X33284047Y-33128333D01*
X33295952Y-33116428D01*
X33319761Y-33104523D01*
X33176904Y-35190714D02*
X33295952Y-35274047D01*
X33176904Y-35333571D02*
X33426904Y-35333571D01*
X33426904Y-35238333D01*
X33415000Y-35214523D01*
X33403095Y-35202619D01*
X33379285Y-35190714D01*
X33343571Y-35190714D01*
X33319761Y-35202619D01*
X33307857Y-35214523D01*
X33295952Y-35238333D01*
X33295952Y-35333571D01*
X33426904Y-35107380D02*
X33426904Y-34952619D01*
X33331666Y-35035952D01*
X33331666Y-35000238D01*
X33319761Y-34976428D01*
X33307857Y-34964523D01*
X33284047Y-34952619D01*
X33224523Y-34952619D01*
X33200714Y-34964523D01*
X33188809Y-34976428D01*
X33176904Y-35000238D01*
X33176904Y-35071666D01*
X33188809Y-35095476D01*
X33200714Y-35107380D01*
X33426904Y-34797857D02*
X33426904Y-34774047D01*
X33415000Y-34750238D01*
X33403095Y-34738333D01*
X33379285Y-34726428D01*
X33331666Y-34714523D01*
X33272142Y-34714523D01*
X33224523Y-34726428D01*
X33200714Y-34738333D01*
X33188809Y-34750238D01*
X33176904Y-34774047D01*
X33176904Y-34797857D01*
X33188809Y-34821666D01*
X33200714Y-34833571D01*
X33224523Y-34845476D01*
X33272142Y-34857380D01*
X33331666Y-34857380D01*
X33379285Y-34845476D01*
X33403095Y-34833571D01*
X33415000Y-34821666D01*
X33426904Y-34797857D01*
X25973095Y-35799285D02*
X25854047Y-35715952D01*
X25973095Y-35656428D02*
X25723095Y-35656428D01*
X25723095Y-35751666D01*
X25735000Y-35775476D01*
X25746904Y-35787380D01*
X25770714Y-35799285D01*
X25806428Y-35799285D01*
X25830238Y-35787380D01*
X25842142Y-35775476D01*
X25854047Y-35751666D01*
X25854047Y-35656428D01*
X25723095Y-35882619D02*
X25723095Y-36037380D01*
X25818333Y-35954047D01*
X25818333Y-35989761D01*
X25830238Y-36013571D01*
X25842142Y-36025476D01*
X25865952Y-36037380D01*
X25925476Y-36037380D01*
X25949285Y-36025476D01*
X25961190Y-36013571D01*
X25973095Y-35989761D01*
X25973095Y-35918333D01*
X25961190Y-35894523D01*
X25949285Y-35882619D01*
X25973095Y-36275476D02*
X25973095Y-36132619D01*
X25973095Y-36204047D02*
X25723095Y-36204047D01*
X25758809Y-36180238D01*
X25782619Y-36156428D01*
X25794523Y-36132619D01*
X34676240Y-32776850D02*
X34795288Y-32860183D01*
X34676240Y-32919707D02*
X34926240Y-32919707D01*
X34926240Y-32824469D01*
X34914336Y-32800659D01*
X34902431Y-32788755D01*
X34878621Y-32776850D01*
X34842907Y-32776850D01*
X34819097Y-32788755D01*
X34807193Y-32800659D01*
X34795288Y-32824469D01*
X34795288Y-32919707D01*
X34842907Y-32562564D02*
X34676240Y-32562564D01*
X34938145Y-32622088D02*
X34759574Y-32681612D01*
X34759574Y-32526850D01*
X34926240Y-32455421D02*
X34926240Y-32288755D01*
X34676240Y-32395897D01*
X34676240Y-34386850D02*
X34795288Y-34470183D01*
X34676240Y-34529707D02*
X34926240Y-34529707D01*
X34926240Y-34434469D01*
X34914336Y-34410659D01*
X34902431Y-34398755D01*
X34878621Y-34386850D01*
X34842907Y-34386850D01*
X34819097Y-34398755D01*
X34807193Y-34410659D01*
X34795288Y-34434469D01*
X34795288Y-34529707D01*
X34842907Y-34172564D02*
X34676240Y-34172564D01*
X34938145Y-34232088D02*
X34759574Y-34291612D01*
X34759574Y-34136850D01*
X34819097Y-34005897D02*
X34831002Y-34029707D01*
X34842907Y-34041612D01*
X34866716Y-34053516D01*
X34878621Y-34053516D01*
X34902431Y-34041612D01*
X34914336Y-34029707D01*
X34926240Y-34005897D01*
X34926240Y-33958278D01*
X34914336Y-33934469D01*
X34902431Y-33922564D01*
X34878621Y-33910659D01*
X34866716Y-33910659D01*
X34842907Y-33922564D01*
X34831002Y-33934469D01*
X34819097Y-33958278D01*
X34819097Y-34005897D01*
X34807193Y-34029707D01*
X34795288Y-34041612D01*
X34771478Y-34053516D01*
X34723859Y-34053516D01*
X34700050Y-34041612D01*
X34688145Y-34029707D01*
X34676240Y-34005897D01*
X34676240Y-33958278D01*
X34688145Y-33934469D01*
X34700050Y-33922564D01*
X34723859Y-33910659D01*
X34771478Y-33910659D01*
X34795288Y-33922564D01*
X34807193Y-33934469D01*
X34819097Y-33958278D01*
X34676240Y-35996850D02*
X34795288Y-36080183D01*
X34676240Y-36139707D02*
X34926240Y-36139707D01*
X34926240Y-36044469D01*
X34914336Y-36020659D01*
X34902431Y-36008755D01*
X34878621Y-35996850D01*
X34842907Y-35996850D01*
X34819097Y-36008755D01*
X34807193Y-36020659D01*
X34795288Y-36044469D01*
X34795288Y-36139707D01*
X34842907Y-35782564D02*
X34676240Y-35782564D01*
X34938145Y-35842088D02*
X34759574Y-35901612D01*
X34759574Y-35746850D01*
X34676240Y-35639707D02*
X34676240Y-35592088D01*
X34688145Y-35568278D01*
X34700050Y-35556374D01*
X34735764Y-35532564D01*
X34783383Y-35520659D01*
X34878621Y-35520659D01*
X34902431Y-35532564D01*
X34914336Y-35544469D01*
X34926240Y-35568278D01*
X34926240Y-35615897D01*
X34914336Y-35639707D01*
X34902431Y-35651612D01*
X34878621Y-35663516D01*
X34819097Y-35663516D01*
X34795288Y-35651612D01*
X34783383Y-35639707D01*
X34771478Y-35615897D01*
X34771478Y-35568278D01*
X34783383Y-35544469D01*
X34795288Y-35532564D01*
X34819097Y-35520659D01*
D10*
X30380952Y-25226190D02*
X30380952Y-25630952D01*
X30357142Y-25678571D01*
X30333333Y-25702380D01*
X30285714Y-25726190D01*
X30190476Y-25726190D01*
X30142857Y-25702380D01*
X30119047Y-25678571D01*
X30095238Y-25630952D01*
X30095238Y-25226190D01*
X29595238Y-25726190D02*
X29880952Y-25726190D01*
X29738095Y-25726190D02*
X29738095Y-25226190D01*
X29785714Y-25297619D01*
X29833333Y-25345238D01*
X29880952Y-25369047D01*
D13*
X30190476Y-33813095D02*
X30190476Y-34015476D01*
X30178571Y-34039285D01*
X30166666Y-34051190D01*
X30142857Y-34063095D01*
X30095238Y-34063095D01*
X30071428Y-34051190D01*
X30059523Y-34039285D01*
X30047619Y-34015476D01*
X30047619Y-33813095D01*
X29940476Y-33836904D02*
X29928571Y-33825000D01*
X29904761Y-33813095D01*
X29845238Y-33813095D01*
X29821428Y-33825000D01*
X29809523Y-33836904D01*
X29797619Y-33860714D01*
X29797619Y-33884523D01*
X29809523Y-33920238D01*
X29952380Y-34063095D01*
X29797619Y-34063095D01*
X38774523Y-31898095D02*
X38774523Y-32100476D01*
X38762619Y-32124285D01*
X38750714Y-32136190D01*
X38726904Y-32148095D01*
X38679285Y-32148095D01*
X38655476Y-32136190D01*
X38643571Y-32124285D01*
X38631666Y-32100476D01*
X38631666Y-31898095D01*
X38381666Y-32148095D02*
X38524523Y-32148095D01*
X38453095Y-32148095D02*
X38453095Y-31898095D01*
X38476904Y-31933809D01*
X38500714Y-31957619D01*
X38524523Y-31969523D01*
X38286428Y-31921904D02*
X38274523Y-31910000D01*
X38250714Y-31898095D01*
X38191190Y-31898095D01*
X38167380Y-31910000D01*
X38155476Y-31921904D01*
X38143571Y-31945714D01*
X38143571Y-31969523D01*
X38155476Y-32005238D01*
X38298333Y-32148095D01*
X38143571Y-32148095D01*
X38824523Y-35328095D02*
X38824523Y-35530476D01*
X38812619Y-35554285D01*
X38800714Y-35566190D01*
X38776904Y-35578095D01*
X38729285Y-35578095D01*
X38705476Y-35566190D01*
X38693571Y-35554285D01*
X38681666Y-35530476D01*
X38681666Y-35328095D01*
X38431666Y-35578095D02*
X38574523Y-35578095D01*
X38503095Y-35578095D02*
X38503095Y-35328095D01*
X38526904Y-35363809D01*
X38550714Y-35387619D01*
X38574523Y-35399523D01*
X38348333Y-35328095D02*
X38193571Y-35328095D01*
X38276904Y-35423333D01*
X38241190Y-35423333D01*
X38217380Y-35435238D01*
X38205476Y-35447142D01*
X38193571Y-35470952D01*
X38193571Y-35530476D01*
X38205476Y-35554285D01*
X38217380Y-35566190D01*
X38241190Y-35578095D01*
X38312619Y-35578095D01*
X38336428Y-35566190D01*
X38348333Y-35554285D01*
X34309523Y-38703095D02*
X34309523Y-38905476D01*
X34297619Y-38929285D01*
X34285714Y-38941190D01*
X34261904Y-38953095D01*
X34214285Y-38953095D01*
X34190476Y-38941190D01*
X34178571Y-38929285D01*
X34166666Y-38905476D01*
X34166666Y-38703095D01*
X33916666Y-38953095D02*
X34059523Y-38953095D01*
X33988095Y-38953095D02*
X33988095Y-38703095D01*
X34011904Y-38738809D01*
X34035714Y-38762619D01*
X34059523Y-38774523D01*
X33702380Y-38786428D02*
X33702380Y-38953095D01*
X33761904Y-38691190D02*
X33821428Y-38869761D01*
X33666666Y-38869761D01*
M02*
