G04 #@! TF.GenerationSoftware,KiCad,Pcbnew,(2018-02-05 revision d1a45d147)-makepkg*
G04 #@! TF.CreationDate,2018-03-20T19:43:10-04:00*
G04 #@! TF.ProjectId,6s4in1,367334696E312E6B696361645F706362,rev?*
G04 #@! TF.SameCoordinates,Original*
G04 #@! TF.FileFunction,Soldermask,Bot*
G04 #@! TF.FilePolarity,Negative*
%FSLAX46Y46*%
G04 Gerber Fmt 4.6, Leading zero omitted, Abs format (unit mm)*
G04 Created by KiCad (PCBNEW (2018-02-05 revision d1a45d147)-makepkg) date 03/20/18 19:43:10*
%MOMM*%
%LPD*%
G01*
G04 APERTURE LIST*
%ADD10C,0.100000*%
%ADD11C,1.201600*%
%ADD12C,1.601600*%
%ADD13C,0.601600*%
%ADD14R,0.501600X1.001600*%
%ADD15R,0.501600X0.701600*%
%ADD16R,0.601600X0.701600*%
%ADD17R,0.701600X0.601600*%
%ADD18C,0.701600*%
%ADD19R,0.701600X0.701600*%
%ADD20R,0.401600X1.001600*%
%ADD21R,1.901600X1.901600*%
%ADD22R,1.001600X0.401600*%
%ADD23R,0.571600X0.451600*%
%ADD24R,1.151600X0.871600*%
%ADD25C,2.101600*%
%ADD26R,1.301600X0.701600*%
%ADD27R,0.701600X0.501600*%
%ADD28R,0.351600X0.601600*%
%ADD29R,1.701600X0.581600*%
G04 APERTURE END LIST*
D10*
G36*
X19688227Y-33950068D02*
X19705723Y-33952663D01*
X19722881Y-33956961D01*
X19739535Y-33962920D01*
X19755525Y-33970483D01*
X19770696Y-33979576D01*
X19784903Y-33990113D01*
X19798009Y-34001991D01*
X19809887Y-34015097D01*
X19820424Y-34029304D01*
X19829517Y-34044475D01*
X19837080Y-34060465D01*
X19843039Y-34077119D01*
X19847337Y-34094277D01*
X19849932Y-34111773D01*
X19850800Y-34129440D01*
X19850800Y-35370560D01*
X19849932Y-35388227D01*
X19847337Y-35405723D01*
X19843039Y-35422881D01*
X19837080Y-35439535D01*
X19829517Y-35455525D01*
X19820424Y-35470696D01*
X19809887Y-35484903D01*
X19798009Y-35498009D01*
X19784903Y-35509887D01*
X19770696Y-35520424D01*
X19755525Y-35529517D01*
X19739535Y-35537080D01*
X19722881Y-35543039D01*
X19705723Y-35547337D01*
X19688227Y-35549932D01*
X19670560Y-35550800D01*
X18829440Y-35550800D01*
X18811773Y-35549932D01*
X18794277Y-35547337D01*
X18777119Y-35543039D01*
X18760465Y-35537080D01*
X18744475Y-35529517D01*
X18729304Y-35520424D01*
X18715097Y-35509887D01*
X18701991Y-35498009D01*
X18690113Y-35484903D01*
X18679576Y-35470696D01*
X18670483Y-35455525D01*
X18662920Y-35439535D01*
X18656961Y-35422881D01*
X18652663Y-35405723D01*
X18650068Y-35388227D01*
X18649200Y-35370560D01*
X18649200Y-34129440D01*
X18650068Y-34111773D01*
X18652663Y-34094277D01*
X18656961Y-34077119D01*
X18662920Y-34060465D01*
X18670483Y-34044475D01*
X18679576Y-34029304D01*
X18690113Y-34015097D01*
X18701991Y-34001991D01*
X18715097Y-33990113D01*
X18729304Y-33979576D01*
X18744475Y-33970483D01*
X18760465Y-33962920D01*
X18777119Y-33956961D01*
X18794277Y-33952663D01*
X18811773Y-33950068D01*
X18829440Y-33949200D01*
X19670560Y-33949200D01*
X19688227Y-33950068D01*
X19688227Y-33950068D01*
G37*
D11*
X19250000Y-34750000D03*
D12*
X18700000Y-34750000D03*
D13*
X19550000Y-34250000D03*
X19550000Y-35250000D03*
D10*
G36*
X19688227Y-36950068D02*
X19705723Y-36952663D01*
X19722881Y-36956961D01*
X19739535Y-36962920D01*
X19755525Y-36970483D01*
X19770696Y-36979576D01*
X19784903Y-36990113D01*
X19798009Y-37001991D01*
X19809887Y-37015097D01*
X19820424Y-37029304D01*
X19829517Y-37044475D01*
X19837080Y-37060465D01*
X19843039Y-37077119D01*
X19847337Y-37094277D01*
X19849932Y-37111773D01*
X19850800Y-37129440D01*
X19850800Y-38370560D01*
X19849932Y-38388227D01*
X19847337Y-38405723D01*
X19843039Y-38422881D01*
X19837080Y-38439535D01*
X19829517Y-38455525D01*
X19820424Y-38470696D01*
X19809887Y-38484903D01*
X19798009Y-38498009D01*
X19784903Y-38509887D01*
X19770696Y-38520424D01*
X19755525Y-38529517D01*
X19739535Y-38537080D01*
X19722881Y-38543039D01*
X19705723Y-38547337D01*
X19688227Y-38549932D01*
X19670560Y-38550800D01*
X18829440Y-38550800D01*
X18811773Y-38549932D01*
X18794277Y-38547337D01*
X18777119Y-38543039D01*
X18760465Y-38537080D01*
X18744475Y-38529517D01*
X18729304Y-38520424D01*
X18715097Y-38509887D01*
X18701991Y-38498009D01*
X18690113Y-38484903D01*
X18679576Y-38470696D01*
X18670483Y-38455525D01*
X18662920Y-38439535D01*
X18656961Y-38422881D01*
X18652663Y-38405723D01*
X18650068Y-38388227D01*
X18649200Y-38370560D01*
X18649200Y-37129440D01*
X18650068Y-37111773D01*
X18652663Y-37094277D01*
X18656961Y-37077119D01*
X18662920Y-37060465D01*
X18670483Y-37044475D01*
X18679576Y-37029304D01*
X18690113Y-37015097D01*
X18701991Y-37001991D01*
X18715097Y-36990113D01*
X18729304Y-36979576D01*
X18744475Y-36970483D01*
X18760465Y-36962920D01*
X18777119Y-36956961D01*
X18794277Y-36952663D01*
X18811773Y-36950068D01*
X18829440Y-36949200D01*
X19670560Y-36949200D01*
X19688227Y-36950068D01*
X19688227Y-36950068D01*
G37*
D11*
X19250000Y-37750000D03*
D12*
X18700000Y-37750000D03*
D13*
X19550000Y-37250000D03*
X19550000Y-38250000D03*
D10*
G36*
X19688227Y-21450068D02*
X19705723Y-21452663D01*
X19722881Y-21456961D01*
X19739535Y-21462920D01*
X19755525Y-21470483D01*
X19770696Y-21479576D01*
X19784903Y-21490113D01*
X19798009Y-21501991D01*
X19809887Y-21515097D01*
X19820424Y-21529304D01*
X19829517Y-21544475D01*
X19837080Y-21560465D01*
X19843039Y-21577119D01*
X19847337Y-21594277D01*
X19849932Y-21611773D01*
X19850800Y-21629440D01*
X19850800Y-22870560D01*
X19849932Y-22888227D01*
X19847337Y-22905723D01*
X19843039Y-22922881D01*
X19837080Y-22939535D01*
X19829517Y-22955525D01*
X19820424Y-22970696D01*
X19809887Y-22984903D01*
X19798009Y-22998009D01*
X19784903Y-23009887D01*
X19770696Y-23020424D01*
X19755525Y-23029517D01*
X19739535Y-23037080D01*
X19722881Y-23043039D01*
X19705723Y-23047337D01*
X19688227Y-23049932D01*
X19670560Y-23050800D01*
X18829440Y-23050800D01*
X18811773Y-23049932D01*
X18794277Y-23047337D01*
X18777119Y-23043039D01*
X18760465Y-23037080D01*
X18744475Y-23029517D01*
X18729304Y-23020424D01*
X18715097Y-23009887D01*
X18701991Y-22998009D01*
X18690113Y-22984903D01*
X18679576Y-22970696D01*
X18670483Y-22955525D01*
X18662920Y-22939535D01*
X18656961Y-22922881D01*
X18652663Y-22905723D01*
X18650068Y-22888227D01*
X18649200Y-22870560D01*
X18649200Y-21629440D01*
X18650068Y-21611773D01*
X18652663Y-21594277D01*
X18656961Y-21577119D01*
X18662920Y-21560465D01*
X18670483Y-21544475D01*
X18679576Y-21529304D01*
X18690113Y-21515097D01*
X18701991Y-21501991D01*
X18715097Y-21490113D01*
X18729304Y-21479576D01*
X18744475Y-21470483D01*
X18760465Y-21462920D01*
X18777119Y-21456961D01*
X18794277Y-21452663D01*
X18811773Y-21450068D01*
X18829440Y-21449200D01*
X19670560Y-21449200D01*
X19688227Y-21450068D01*
X19688227Y-21450068D01*
G37*
D11*
X19250000Y-22250000D03*
D12*
X18700000Y-22250000D03*
D13*
X19550000Y-22750000D03*
X19550000Y-21750000D03*
D14*
X30840000Y-24370000D03*
X29540000Y-24370000D03*
X30840000Y-26570000D03*
X30190000Y-26570000D03*
X29540000Y-26570000D03*
D15*
X25454000Y-25581000D03*
X24554000Y-25581000D03*
D16*
X23640000Y-24670000D03*
X23640000Y-25770000D03*
D15*
X24610000Y-26530000D03*
X23710000Y-26530000D03*
D17*
X23600000Y-27440000D03*
X24700000Y-27440000D03*
D10*
G36*
X30108276Y-36959480D02*
X30113928Y-36960319D01*
X30119472Y-36961707D01*
X30124852Y-36963633D01*
X30130018Y-36966076D01*
X30134920Y-36969014D01*
X30139510Y-36972418D01*
X30143744Y-36976256D01*
X30147582Y-36980490D01*
X30150986Y-36985080D01*
X30153924Y-36989982D01*
X30156367Y-36995148D01*
X30158293Y-37000528D01*
X30159681Y-37006072D01*
X30160520Y-37011724D01*
X30160800Y-37017432D01*
X30160800Y-38302568D01*
X30160520Y-38308276D01*
X30159681Y-38313928D01*
X30158293Y-38319472D01*
X30156367Y-38324852D01*
X30153924Y-38330018D01*
X30150986Y-38334920D01*
X30147582Y-38339510D01*
X30143744Y-38343744D01*
X30139510Y-38347582D01*
X30134920Y-38350986D01*
X30130018Y-38353924D01*
X30124852Y-38356367D01*
X30119472Y-38358293D01*
X30113928Y-38359681D01*
X30108276Y-38360520D01*
X30102568Y-38360800D01*
X29517432Y-38360800D01*
X29511724Y-38360520D01*
X29506072Y-38359681D01*
X29500528Y-38358293D01*
X29495148Y-38356367D01*
X29489982Y-38353924D01*
X29485080Y-38350986D01*
X29480490Y-38347582D01*
X29476256Y-38343744D01*
X29472418Y-38339510D01*
X29469014Y-38334920D01*
X29466076Y-38330018D01*
X29463633Y-38324852D01*
X29461707Y-38319472D01*
X29460319Y-38313928D01*
X29459480Y-38308276D01*
X29459200Y-38302568D01*
X29459200Y-37017432D01*
X29459480Y-37011724D01*
X29460319Y-37006072D01*
X29461707Y-37000528D01*
X29463633Y-36995148D01*
X29466076Y-36989982D01*
X29469014Y-36985080D01*
X29472418Y-36980490D01*
X29476256Y-36976256D01*
X29480490Y-36972418D01*
X29485080Y-36969014D01*
X29489982Y-36966076D01*
X29495148Y-36963633D01*
X29500528Y-36961707D01*
X29506072Y-36960319D01*
X29511724Y-36959480D01*
X29517432Y-36959200D01*
X30102568Y-36959200D01*
X30108276Y-36959480D01*
X30108276Y-36959480D01*
G37*
D18*
X29810000Y-37660000D03*
D10*
G36*
X31058276Y-34859480D02*
X31063928Y-34860319D01*
X31069472Y-34861707D01*
X31074852Y-34863633D01*
X31080018Y-34866076D01*
X31084920Y-34869014D01*
X31089510Y-34872418D01*
X31093744Y-34876256D01*
X31097582Y-34880490D01*
X31100986Y-34885080D01*
X31103924Y-34889982D01*
X31106367Y-34895148D01*
X31108293Y-34900528D01*
X31109681Y-34906072D01*
X31110520Y-34911724D01*
X31110800Y-34917432D01*
X31110800Y-36202568D01*
X31110520Y-36208276D01*
X31109681Y-36213928D01*
X31108293Y-36219472D01*
X31106367Y-36224852D01*
X31103924Y-36230018D01*
X31100986Y-36234920D01*
X31097582Y-36239510D01*
X31093744Y-36243744D01*
X31089510Y-36247582D01*
X31084920Y-36250986D01*
X31080018Y-36253924D01*
X31074852Y-36256367D01*
X31069472Y-36258293D01*
X31063928Y-36259681D01*
X31058276Y-36260520D01*
X31052568Y-36260800D01*
X30467432Y-36260800D01*
X30461724Y-36260520D01*
X30456072Y-36259681D01*
X30450528Y-36258293D01*
X30445148Y-36256367D01*
X30439982Y-36253924D01*
X30435080Y-36250986D01*
X30430490Y-36247582D01*
X30426256Y-36243744D01*
X30422418Y-36239510D01*
X30419014Y-36234920D01*
X30416076Y-36230018D01*
X30413633Y-36224852D01*
X30411707Y-36219472D01*
X30410319Y-36213928D01*
X30409480Y-36208276D01*
X30409200Y-36202568D01*
X30409200Y-34917432D01*
X30409480Y-34911724D01*
X30410319Y-34906072D01*
X30411707Y-34900528D01*
X30413633Y-34895148D01*
X30416076Y-34889982D01*
X30419014Y-34885080D01*
X30422418Y-34880490D01*
X30426256Y-34876256D01*
X30430490Y-34872418D01*
X30435080Y-34869014D01*
X30439982Y-34866076D01*
X30445148Y-34863633D01*
X30450528Y-34861707D01*
X30456072Y-34860319D01*
X30461724Y-34859480D01*
X30467432Y-34859200D01*
X31052568Y-34859200D01*
X31058276Y-34859480D01*
X31058276Y-34859480D01*
G37*
D18*
X30760000Y-35560000D03*
D10*
G36*
X29158276Y-34859480D02*
X29163928Y-34860319D01*
X29169472Y-34861707D01*
X29174852Y-34863633D01*
X29180018Y-34866076D01*
X29184920Y-34869014D01*
X29189510Y-34872418D01*
X29193744Y-34876256D01*
X29197582Y-34880490D01*
X29200986Y-34885080D01*
X29203924Y-34889982D01*
X29206367Y-34895148D01*
X29208293Y-34900528D01*
X29209681Y-34906072D01*
X29210520Y-34911724D01*
X29210800Y-34917432D01*
X29210800Y-36202568D01*
X29210520Y-36208276D01*
X29209681Y-36213928D01*
X29208293Y-36219472D01*
X29206367Y-36224852D01*
X29203924Y-36230018D01*
X29200986Y-36234920D01*
X29197582Y-36239510D01*
X29193744Y-36243744D01*
X29189510Y-36247582D01*
X29184920Y-36250986D01*
X29180018Y-36253924D01*
X29174852Y-36256367D01*
X29169472Y-36258293D01*
X29163928Y-36259681D01*
X29158276Y-36260520D01*
X29152568Y-36260800D01*
X28567432Y-36260800D01*
X28561724Y-36260520D01*
X28556072Y-36259681D01*
X28550528Y-36258293D01*
X28545148Y-36256367D01*
X28539982Y-36253924D01*
X28535080Y-36250986D01*
X28530490Y-36247582D01*
X28526256Y-36243744D01*
X28522418Y-36239510D01*
X28519014Y-36234920D01*
X28516076Y-36230018D01*
X28513633Y-36224852D01*
X28511707Y-36219472D01*
X28510319Y-36213928D01*
X28509480Y-36208276D01*
X28509200Y-36202568D01*
X28509200Y-34917432D01*
X28509480Y-34911724D01*
X28510319Y-34906072D01*
X28511707Y-34900528D01*
X28513633Y-34895148D01*
X28516076Y-34889982D01*
X28519014Y-34885080D01*
X28522418Y-34880490D01*
X28526256Y-34876256D01*
X28530490Y-34872418D01*
X28535080Y-34869014D01*
X28539982Y-34866076D01*
X28545148Y-34863633D01*
X28550528Y-34861707D01*
X28556072Y-34860319D01*
X28561724Y-34859480D01*
X28567432Y-34859200D01*
X29152568Y-34859200D01*
X29158276Y-34859480D01*
X29158276Y-34859480D01*
G37*
D18*
X28860000Y-35560000D03*
D19*
X27440000Y-34730000D03*
D20*
X26790000Y-34880000D03*
D21*
X26040000Y-33330000D03*
D22*
X27590000Y-34080000D03*
X27590000Y-33580000D03*
X27590000Y-33080000D03*
X27590000Y-32580000D03*
X24490000Y-34080000D03*
X24490000Y-33580000D03*
X24490000Y-33080000D03*
X24490000Y-32580000D03*
D20*
X26790000Y-31780000D03*
X26290000Y-34880000D03*
X26290000Y-31780000D03*
X25790000Y-34880000D03*
X25790000Y-31780000D03*
X25290000Y-34880000D03*
X25290000Y-31780000D03*
D19*
X27440000Y-31930000D03*
X24640000Y-34730000D03*
X24640000Y-31930000D03*
D23*
X24025000Y-37610000D03*
X24025000Y-38260000D03*
X24025000Y-38910000D03*
X25855000Y-37610000D03*
X25855000Y-38260000D03*
X25855000Y-38910000D03*
D24*
X24940000Y-37775000D03*
X24940000Y-38745000D03*
D23*
X20865000Y-34430000D03*
X20865000Y-35080000D03*
X20865000Y-35730000D03*
X22695000Y-34430000D03*
X22695000Y-35080000D03*
X22695000Y-35730000D03*
D24*
X21780000Y-34595000D03*
X21780000Y-35565000D03*
D23*
X20905000Y-31140000D03*
X20905000Y-31790000D03*
X20905000Y-32440000D03*
X22735000Y-31140000D03*
X22735000Y-31790000D03*
X22735000Y-32440000D03*
D24*
X21820000Y-31305000D03*
X21820000Y-32275000D03*
D25*
X22000000Y-38000000D03*
X38000000Y-38000000D03*
X22000000Y-22000000D03*
D10*
G36*
X19688227Y-30950068D02*
X19705723Y-30952663D01*
X19722881Y-30956961D01*
X19739535Y-30962920D01*
X19755525Y-30970483D01*
X19770696Y-30979576D01*
X19784903Y-30990113D01*
X19798009Y-31001991D01*
X19809887Y-31015097D01*
X19820424Y-31029304D01*
X19829517Y-31044475D01*
X19837080Y-31060465D01*
X19843039Y-31077119D01*
X19847337Y-31094277D01*
X19849932Y-31111773D01*
X19850800Y-31129440D01*
X19850800Y-32370560D01*
X19849932Y-32388227D01*
X19847337Y-32405723D01*
X19843039Y-32422881D01*
X19837080Y-32439535D01*
X19829517Y-32455525D01*
X19820424Y-32470696D01*
X19809887Y-32484903D01*
X19798009Y-32498009D01*
X19784903Y-32509887D01*
X19770696Y-32520424D01*
X19755525Y-32529517D01*
X19739535Y-32537080D01*
X19722881Y-32543039D01*
X19705723Y-32547337D01*
X19688227Y-32549932D01*
X19670560Y-32550800D01*
X18829440Y-32550800D01*
X18811773Y-32549932D01*
X18794277Y-32547337D01*
X18777119Y-32543039D01*
X18760465Y-32537080D01*
X18744475Y-32529517D01*
X18729304Y-32520424D01*
X18715097Y-32509887D01*
X18701991Y-32498009D01*
X18690113Y-32484903D01*
X18679576Y-32470696D01*
X18670483Y-32455525D01*
X18662920Y-32439535D01*
X18656961Y-32422881D01*
X18652663Y-32405723D01*
X18650068Y-32388227D01*
X18649200Y-32370560D01*
X18649200Y-31129440D01*
X18650068Y-31111773D01*
X18652663Y-31094277D01*
X18656961Y-31077119D01*
X18662920Y-31060465D01*
X18670483Y-31044475D01*
X18679576Y-31029304D01*
X18690113Y-31015097D01*
X18701991Y-31001991D01*
X18715097Y-30990113D01*
X18729304Y-30979576D01*
X18744475Y-30970483D01*
X18760465Y-30962920D01*
X18777119Y-30956961D01*
X18794277Y-30952663D01*
X18811773Y-30950068D01*
X18829440Y-30949200D01*
X19670560Y-30949200D01*
X19688227Y-30950068D01*
X19688227Y-30950068D01*
G37*
D11*
X19250000Y-31750000D03*
D12*
X18700000Y-31750000D03*
D13*
X19550000Y-31250000D03*
X19550000Y-32250000D03*
D26*
X26975000Y-30700000D03*
D10*
G36*
X41188227Y-36950068D02*
X41205723Y-36952663D01*
X41222881Y-36956961D01*
X41239535Y-36962920D01*
X41255525Y-36970483D01*
X41270696Y-36979576D01*
X41284903Y-36990113D01*
X41298009Y-37001991D01*
X41309887Y-37015097D01*
X41320424Y-37029304D01*
X41329517Y-37044475D01*
X41337080Y-37060465D01*
X41343039Y-37077119D01*
X41347337Y-37094277D01*
X41349932Y-37111773D01*
X41350800Y-37129440D01*
X41350800Y-38370560D01*
X41349932Y-38388227D01*
X41347337Y-38405723D01*
X41343039Y-38422881D01*
X41337080Y-38439535D01*
X41329517Y-38455525D01*
X41320424Y-38470696D01*
X41309887Y-38484903D01*
X41298009Y-38498009D01*
X41284903Y-38509887D01*
X41270696Y-38520424D01*
X41255525Y-38529517D01*
X41239535Y-38537080D01*
X41222881Y-38543039D01*
X41205723Y-38547337D01*
X41188227Y-38549932D01*
X41170560Y-38550800D01*
X40329440Y-38550800D01*
X40311773Y-38549932D01*
X40294277Y-38547337D01*
X40277119Y-38543039D01*
X40260465Y-38537080D01*
X40244475Y-38529517D01*
X40229304Y-38520424D01*
X40215097Y-38509887D01*
X40201991Y-38498009D01*
X40190113Y-38484903D01*
X40179576Y-38470696D01*
X40170483Y-38455525D01*
X40162920Y-38439535D01*
X40156961Y-38422881D01*
X40152663Y-38405723D01*
X40150068Y-38388227D01*
X40149200Y-38370560D01*
X40149200Y-37129440D01*
X40150068Y-37111773D01*
X40152663Y-37094277D01*
X40156961Y-37077119D01*
X40162920Y-37060465D01*
X40170483Y-37044475D01*
X40179576Y-37029304D01*
X40190113Y-37015097D01*
X40201991Y-37001991D01*
X40215097Y-36990113D01*
X40229304Y-36979576D01*
X40244475Y-36970483D01*
X40260465Y-36962920D01*
X40277119Y-36956961D01*
X40294277Y-36952663D01*
X40311773Y-36950068D01*
X40329440Y-36949200D01*
X41170560Y-36949200D01*
X41188227Y-36950068D01*
X41188227Y-36950068D01*
G37*
D11*
X40750000Y-37750000D03*
D12*
X41300000Y-37750000D03*
D13*
X40450000Y-37250000D03*
X40450000Y-38250000D03*
D10*
G36*
X41188227Y-33950068D02*
X41205723Y-33952663D01*
X41222881Y-33956961D01*
X41239535Y-33962920D01*
X41255525Y-33970483D01*
X41270696Y-33979576D01*
X41284903Y-33990113D01*
X41298009Y-34001991D01*
X41309887Y-34015097D01*
X41320424Y-34029304D01*
X41329517Y-34044475D01*
X41337080Y-34060465D01*
X41343039Y-34077119D01*
X41347337Y-34094277D01*
X41349932Y-34111773D01*
X41350800Y-34129440D01*
X41350800Y-35370560D01*
X41349932Y-35388227D01*
X41347337Y-35405723D01*
X41343039Y-35422881D01*
X41337080Y-35439535D01*
X41329517Y-35455525D01*
X41320424Y-35470696D01*
X41309887Y-35484903D01*
X41298009Y-35498009D01*
X41284903Y-35509887D01*
X41270696Y-35520424D01*
X41255525Y-35529517D01*
X41239535Y-35537080D01*
X41222881Y-35543039D01*
X41205723Y-35547337D01*
X41188227Y-35549932D01*
X41170560Y-35550800D01*
X40329440Y-35550800D01*
X40311773Y-35549932D01*
X40294277Y-35547337D01*
X40277119Y-35543039D01*
X40260465Y-35537080D01*
X40244475Y-35529517D01*
X40229304Y-35520424D01*
X40215097Y-35509887D01*
X40201991Y-35498009D01*
X40190113Y-35484903D01*
X40179576Y-35470696D01*
X40170483Y-35455525D01*
X40162920Y-35439535D01*
X40156961Y-35422881D01*
X40152663Y-35405723D01*
X40150068Y-35388227D01*
X40149200Y-35370560D01*
X40149200Y-34129440D01*
X40150068Y-34111773D01*
X40152663Y-34094277D01*
X40156961Y-34077119D01*
X40162920Y-34060465D01*
X40170483Y-34044475D01*
X40179576Y-34029304D01*
X40190113Y-34015097D01*
X40201991Y-34001991D01*
X40215097Y-33990113D01*
X40229304Y-33979576D01*
X40244475Y-33970483D01*
X40260465Y-33962920D01*
X40277119Y-33956961D01*
X40294277Y-33952663D01*
X40311773Y-33950068D01*
X40329440Y-33949200D01*
X41170560Y-33949200D01*
X41188227Y-33950068D01*
X41188227Y-33950068D01*
G37*
D11*
X40750000Y-34750000D03*
D12*
X41300000Y-34750000D03*
D13*
X40450000Y-34250000D03*
X40450000Y-35250000D03*
D10*
G36*
X41188227Y-30950068D02*
X41205723Y-30952663D01*
X41222881Y-30956961D01*
X41239535Y-30962920D01*
X41255525Y-30970483D01*
X41270696Y-30979576D01*
X41284903Y-30990113D01*
X41298009Y-31001991D01*
X41309887Y-31015097D01*
X41320424Y-31029304D01*
X41329517Y-31044475D01*
X41337080Y-31060465D01*
X41343039Y-31077119D01*
X41347337Y-31094277D01*
X41349932Y-31111773D01*
X41350800Y-31129440D01*
X41350800Y-32370560D01*
X41349932Y-32388227D01*
X41347337Y-32405723D01*
X41343039Y-32422881D01*
X41337080Y-32439535D01*
X41329517Y-32455525D01*
X41320424Y-32470696D01*
X41309887Y-32484903D01*
X41298009Y-32498009D01*
X41284903Y-32509887D01*
X41270696Y-32520424D01*
X41255525Y-32529517D01*
X41239535Y-32537080D01*
X41222881Y-32543039D01*
X41205723Y-32547337D01*
X41188227Y-32549932D01*
X41170560Y-32550800D01*
X40329440Y-32550800D01*
X40311773Y-32549932D01*
X40294277Y-32547337D01*
X40277119Y-32543039D01*
X40260465Y-32537080D01*
X40244475Y-32529517D01*
X40229304Y-32520424D01*
X40215097Y-32509887D01*
X40201991Y-32498009D01*
X40190113Y-32484903D01*
X40179576Y-32470696D01*
X40170483Y-32455525D01*
X40162920Y-32439535D01*
X40156961Y-32422881D01*
X40152663Y-32405723D01*
X40150068Y-32388227D01*
X40149200Y-32370560D01*
X40149200Y-31129440D01*
X40150068Y-31111773D01*
X40152663Y-31094277D01*
X40156961Y-31077119D01*
X40162920Y-31060465D01*
X40170483Y-31044475D01*
X40179576Y-31029304D01*
X40190113Y-31015097D01*
X40201991Y-31001991D01*
X40215097Y-30990113D01*
X40229304Y-30979576D01*
X40244475Y-30970483D01*
X40260465Y-30962920D01*
X40277119Y-30956961D01*
X40294277Y-30952663D01*
X40311773Y-30950068D01*
X40329440Y-30949200D01*
X41170560Y-30949200D01*
X41188227Y-30950068D01*
X41188227Y-30950068D01*
G37*
D11*
X40750000Y-31750000D03*
D12*
X41300000Y-31750000D03*
D13*
X40450000Y-31250000D03*
X40450000Y-32250000D03*
D26*
X32160000Y-31120000D03*
D10*
G36*
X19688227Y-24450068D02*
X19705723Y-24452663D01*
X19722881Y-24456961D01*
X19739535Y-24462920D01*
X19755525Y-24470483D01*
X19770696Y-24479576D01*
X19784903Y-24490113D01*
X19798009Y-24501991D01*
X19809887Y-24515097D01*
X19820424Y-24529304D01*
X19829517Y-24544475D01*
X19837080Y-24560465D01*
X19843039Y-24577119D01*
X19847337Y-24594277D01*
X19849932Y-24611773D01*
X19850800Y-24629440D01*
X19850800Y-25870560D01*
X19849932Y-25888227D01*
X19847337Y-25905723D01*
X19843039Y-25922881D01*
X19837080Y-25939535D01*
X19829517Y-25955525D01*
X19820424Y-25970696D01*
X19809887Y-25984903D01*
X19798009Y-25998009D01*
X19784903Y-26009887D01*
X19770696Y-26020424D01*
X19755525Y-26029517D01*
X19739535Y-26037080D01*
X19722881Y-26043039D01*
X19705723Y-26047337D01*
X19688227Y-26049932D01*
X19670560Y-26050800D01*
X18829440Y-26050800D01*
X18811773Y-26049932D01*
X18794277Y-26047337D01*
X18777119Y-26043039D01*
X18760465Y-26037080D01*
X18744475Y-26029517D01*
X18729304Y-26020424D01*
X18715097Y-26009887D01*
X18701991Y-25998009D01*
X18690113Y-25984903D01*
X18679576Y-25970696D01*
X18670483Y-25955525D01*
X18662920Y-25939535D01*
X18656961Y-25922881D01*
X18652663Y-25905723D01*
X18650068Y-25888227D01*
X18649200Y-25870560D01*
X18649200Y-24629440D01*
X18650068Y-24611773D01*
X18652663Y-24594277D01*
X18656961Y-24577119D01*
X18662920Y-24560465D01*
X18670483Y-24544475D01*
X18679576Y-24529304D01*
X18690113Y-24515097D01*
X18701991Y-24501991D01*
X18715097Y-24490113D01*
X18729304Y-24479576D01*
X18744475Y-24470483D01*
X18760465Y-24462920D01*
X18777119Y-24456961D01*
X18794277Y-24452663D01*
X18811773Y-24450068D01*
X18829440Y-24449200D01*
X19670560Y-24449200D01*
X19688227Y-24450068D01*
X19688227Y-24450068D01*
G37*
D11*
X19250000Y-25250000D03*
D12*
X18700000Y-25250000D03*
D13*
X19550000Y-25750000D03*
X19550000Y-24750000D03*
D10*
G36*
X19688227Y-27450068D02*
X19705723Y-27452663D01*
X19722881Y-27456961D01*
X19739535Y-27462920D01*
X19755525Y-27470483D01*
X19770696Y-27479576D01*
X19784903Y-27490113D01*
X19798009Y-27501991D01*
X19809887Y-27515097D01*
X19820424Y-27529304D01*
X19829517Y-27544475D01*
X19837080Y-27560465D01*
X19843039Y-27577119D01*
X19847337Y-27594277D01*
X19849932Y-27611773D01*
X19850800Y-27629440D01*
X19850800Y-28870560D01*
X19849932Y-28888227D01*
X19847337Y-28905723D01*
X19843039Y-28922881D01*
X19837080Y-28939535D01*
X19829517Y-28955525D01*
X19820424Y-28970696D01*
X19809887Y-28984903D01*
X19798009Y-28998009D01*
X19784903Y-29009887D01*
X19770696Y-29020424D01*
X19755525Y-29029517D01*
X19739535Y-29037080D01*
X19722881Y-29043039D01*
X19705723Y-29047337D01*
X19688227Y-29049932D01*
X19670560Y-29050800D01*
X18829440Y-29050800D01*
X18811773Y-29049932D01*
X18794277Y-29047337D01*
X18777119Y-29043039D01*
X18760465Y-29037080D01*
X18744475Y-29029517D01*
X18729304Y-29020424D01*
X18715097Y-29009887D01*
X18701991Y-28998009D01*
X18690113Y-28984903D01*
X18679576Y-28970696D01*
X18670483Y-28955525D01*
X18662920Y-28939535D01*
X18656961Y-28922881D01*
X18652663Y-28905723D01*
X18650068Y-28888227D01*
X18649200Y-28870560D01*
X18649200Y-27629440D01*
X18650068Y-27611773D01*
X18652663Y-27594277D01*
X18656961Y-27577119D01*
X18662920Y-27560465D01*
X18670483Y-27544475D01*
X18679576Y-27529304D01*
X18690113Y-27515097D01*
X18701991Y-27501991D01*
X18715097Y-27490113D01*
X18729304Y-27479576D01*
X18744475Y-27470483D01*
X18760465Y-27462920D01*
X18777119Y-27456961D01*
X18794277Y-27452663D01*
X18811773Y-27450068D01*
X18829440Y-27449200D01*
X19670560Y-27449200D01*
X19688227Y-27450068D01*
X19688227Y-27450068D01*
G37*
D11*
X19250000Y-28250000D03*
D12*
X18700000Y-28250000D03*
D13*
X19550000Y-28750000D03*
X19550000Y-27750000D03*
D26*
X26975000Y-29125000D03*
D23*
X39135000Y-25570000D03*
X39135000Y-24920000D03*
X39135000Y-24270000D03*
X37305000Y-25570000D03*
X37305000Y-24920000D03*
X37305000Y-24270000D03*
D24*
X38220000Y-25405000D03*
X38220000Y-24435000D03*
D25*
X38000000Y-22000000D03*
D10*
G36*
X41188227Y-21450068D02*
X41205723Y-21452663D01*
X41222881Y-21456961D01*
X41239535Y-21462920D01*
X41255525Y-21470483D01*
X41270696Y-21479576D01*
X41284903Y-21490113D01*
X41298009Y-21501991D01*
X41309887Y-21515097D01*
X41320424Y-21529304D01*
X41329517Y-21544475D01*
X41337080Y-21560465D01*
X41343039Y-21577119D01*
X41347337Y-21594277D01*
X41349932Y-21611773D01*
X41350800Y-21629440D01*
X41350800Y-22870560D01*
X41349932Y-22888227D01*
X41347337Y-22905723D01*
X41343039Y-22922881D01*
X41337080Y-22939535D01*
X41329517Y-22955525D01*
X41320424Y-22970696D01*
X41309887Y-22984903D01*
X41298009Y-22998009D01*
X41284903Y-23009887D01*
X41270696Y-23020424D01*
X41255525Y-23029517D01*
X41239535Y-23037080D01*
X41222881Y-23043039D01*
X41205723Y-23047337D01*
X41188227Y-23049932D01*
X41170560Y-23050800D01*
X40329440Y-23050800D01*
X40311773Y-23049932D01*
X40294277Y-23047337D01*
X40277119Y-23043039D01*
X40260465Y-23037080D01*
X40244475Y-23029517D01*
X40229304Y-23020424D01*
X40215097Y-23009887D01*
X40201991Y-22998009D01*
X40190113Y-22984903D01*
X40179576Y-22970696D01*
X40170483Y-22955525D01*
X40162920Y-22939535D01*
X40156961Y-22922881D01*
X40152663Y-22905723D01*
X40150068Y-22888227D01*
X40149200Y-22870560D01*
X40149200Y-21629440D01*
X40150068Y-21611773D01*
X40152663Y-21594277D01*
X40156961Y-21577119D01*
X40162920Y-21560465D01*
X40170483Y-21544475D01*
X40179576Y-21529304D01*
X40190113Y-21515097D01*
X40201991Y-21501991D01*
X40215097Y-21490113D01*
X40229304Y-21479576D01*
X40244475Y-21470483D01*
X40260465Y-21462920D01*
X40277119Y-21456961D01*
X40294277Y-21452663D01*
X40311773Y-21450068D01*
X40329440Y-21449200D01*
X41170560Y-21449200D01*
X41188227Y-21450068D01*
X41188227Y-21450068D01*
G37*
D11*
X40750000Y-22250000D03*
D12*
X41300000Y-22250000D03*
D13*
X40450000Y-22750000D03*
X40450000Y-21750000D03*
D10*
G36*
X41188227Y-24450068D02*
X41205723Y-24452663D01*
X41222881Y-24456961D01*
X41239535Y-24462920D01*
X41255525Y-24470483D01*
X41270696Y-24479576D01*
X41284903Y-24490113D01*
X41298009Y-24501991D01*
X41309887Y-24515097D01*
X41320424Y-24529304D01*
X41329517Y-24544475D01*
X41337080Y-24560465D01*
X41343039Y-24577119D01*
X41347337Y-24594277D01*
X41349932Y-24611773D01*
X41350800Y-24629440D01*
X41350800Y-25870560D01*
X41349932Y-25888227D01*
X41347337Y-25905723D01*
X41343039Y-25922881D01*
X41337080Y-25939535D01*
X41329517Y-25955525D01*
X41320424Y-25970696D01*
X41309887Y-25984903D01*
X41298009Y-25998009D01*
X41284903Y-26009887D01*
X41270696Y-26020424D01*
X41255525Y-26029517D01*
X41239535Y-26037080D01*
X41222881Y-26043039D01*
X41205723Y-26047337D01*
X41188227Y-26049932D01*
X41170560Y-26050800D01*
X40329440Y-26050800D01*
X40311773Y-26049932D01*
X40294277Y-26047337D01*
X40277119Y-26043039D01*
X40260465Y-26037080D01*
X40244475Y-26029517D01*
X40229304Y-26020424D01*
X40215097Y-26009887D01*
X40201991Y-25998009D01*
X40190113Y-25984903D01*
X40179576Y-25970696D01*
X40170483Y-25955525D01*
X40162920Y-25939535D01*
X40156961Y-25922881D01*
X40152663Y-25905723D01*
X40150068Y-25888227D01*
X40149200Y-25870560D01*
X40149200Y-24629440D01*
X40150068Y-24611773D01*
X40152663Y-24594277D01*
X40156961Y-24577119D01*
X40162920Y-24560465D01*
X40170483Y-24544475D01*
X40179576Y-24529304D01*
X40190113Y-24515097D01*
X40201991Y-24501991D01*
X40215097Y-24490113D01*
X40229304Y-24479576D01*
X40244475Y-24470483D01*
X40260465Y-24462920D01*
X40277119Y-24456961D01*
X40294277Y-24452663D01*
X40311773Y-24450068D01*
X40329440Y-24449200D01*
X41170560Y-24449200D01*
X41188227Y-24450068D01*
X41188227Y-24450068D01*
G37*
D11*
X40750000Y-25250000D03*
D12*
X41300000Y-25250000D03*
D13*
X40450000Y-25750000D03*
X40450000Y-24750000D03*
D10*
G36*
X41188227Y-27450068D02*
X41205723Y-27452663D01*
X41222881Y-27456961D01*
X41239535Y-27462920D01*
X41255525Y-27470483D01*
X41270696Y-27479576D01*
X41284903Y-27490113D01*
X41298009Y-27501991D01*
X41309887Y-27515097D01*
X41320424Y-27529304D01*
X41329517Y-27544475D01*
X41337080Y-27560465D01*
X41343039Y-27577119D01*
X41347337Y-27594277D01*
X41349932Y-27611773D01*
X41350800Y-27629440D01*
X41350800Y-28870560D01*
X41349932Y-28888227D01*
X41347337Y-28905723D01*
X41343039Y-28922881D01*
X41337080Y-28939535D01*
X41329517Y-28955525D01*
X41320424Y-28970696D01*
X41309887Y-28984903D01*
X41298009Y-28998009D01*
X41284903Y-29009887D01*
X41270696Y-29020424D01*
X41255525Y-29029517D01*
X41239535Y-29037080D01*
X41222881Y-29043039D01*
X41205723Y-29047337D01*
X41188227Y-29049932D01*
X41170560Y-29050800D01*
X40329440Y-29050800D01*
X40311773Y-29049932D01*
X40294277Y-29047337D01*
X40277119Y-29043039D01*
X40260465Y-29037080D01*
X40244475Y-29029517D01*
X40229304Y-29020424D01*
X40215097Y-29009887D01*
X40201991Y-28998009D01*
X40190113Y-28984903D01*
X40179576Y-28970696D01*
X40170483Y-28955525D01*
X40162920Y-28939535D01*
X40156961Y-28922881D01*
X40152663Y-28905723D01*
X40150068Y-28888227D01*
X40149200Y-28870560D01*
X40149200Y-27629440D01*
X40150068Y-27611773D01*
X40152663Y-27594277D01*
X40156961Y-27577119D01*
X40162920Y-27560465D01*
X40170483Y-27544475D01*
X40179576Y-27529304D01*
X40190113Y-27515097D01*
X40201991Y-27501991D01*
X40215097Y-27490113D01*
X40229304Y-27479576D01*
X40244475Y-27470483D01*
X40260465Y-27462920D01*
X40277119Y-27456961D01*
X40294277Y-27452663D01*
X40311773Y-27450068D01*
X40329440Y-27449200D01*
X41170560Y-27449200D01*
X41188227Y-27450068D01*
X41188227Y-27450068D01*
G37*
D11*
X40750000Y-28250000D03*
D12*
X41300000Y-28250000D03*
D13*
X40450000Y-28750000D03*
X40450000Y-27750000D03*
D26*
X32160000Y-28880000D03*
D23*
X35975000Y-22390000D03*
X35975000Y-21740000D03*
X35975000Y-21090000D03*
X34145000Y-22390000D03*
X34145000Y-21740000D03*
X34145000Y-21090000D03*
D24*
X35060000Y-22225000D03*
X35060000Y-21255000D03*
D19*
X32560000Y-25270000D03*
D20*
X33210000Y-25120000D03*
D21*
X33960000Y-26670000D03*
D22*
X32410000Y-25920000D03*
X32410000Y-26420000D03*
X32410000Y-26920000D03*
X32410000Y-27420000D03*
X35510000Y-25920000D03*
X35510000Y-26420000D03*
X35510000Y-26920000D03*
X35510000Y-27420000D03*
D20*
X33210000Y-28220000D03*
X33710000Y-25120000D03*
X33710000Y-28220000D03*
X34210000Y-25120000D03*
X34210000Y-28220000D03*
X34710000Y-25120000D03*
X34710000Y-28220000D03*
D19*
X32560000Y-28070000D03*
X35360000Y-25270000D03*
X35360000Y-28070000D03*
D23*
X39095000Y-28860000D03*
X39095000Y-28210000D03*
X39095000Y-27560000D03*
X37265000Y-28860000D03*
X37265000Y-28210000D03*
X37265000Y-27560000D03*
D24*
X38180000Y-28695000D03*
X38180000Y-27725000D03*
D17*
X27785000Y-23840000D03*
X28885000Y-23840000D03*
D16*
X29030000Y-33310000D03*
X29030000Y-34410000D03*
X30200000Y-22640000D03*
X30200000Y-23740000D03*
D17*
X27400000Y-25360000D03*
X26300000Y-25360000D03*
D16*
X20280000Y-27660000D03*
X20280000Y-28760000D03*
X20330000Y-23970000D03*
X20330000Y-22870000D03*
D17*
X24190000Y-20330000D03*
X23090000Y-20330000D03*
D16*
X27320000Y-21040000D03*
X27320000Y-22140000D03*
D17*
X32600000Y-34640000D03*
X33700000Y-34640000D03*
D16*
X39720000Y-32340000D03*
X39720000Y-31240000D03*
D17*
X36400000Y-32560000D03*
X35300000Y-32560000D03*
D16*
X39670000Y-36030000D03*
X39670000Y-37130000D03*
X36360000Y-35330000D03*
X36360000Y-34230000D03*
D17*
X35810000Y-39670000D03*
X36910000Y-39670000D03*
D16*
X32680000Y-38960000D03*
X32680000Y-37860000D03*
D15*
X27300000Y-24650000D03*
X26400000Y-24650000D03*
D27*
X26650000Y-27510000D03*
X26650000Y-28410000D03*
D15*
X26125000Y-26625000D03*
X25225000Y-26625000D03*
D27*
X27620000Y-26870000D03*
X27620000Y-25970000D03*
X24430000Y-28350000D03*
X24430000Y-29250000D03*
D15*
X27130000Y-23530000D03*
X26230000Y-23530000D03*
D27*
X39595931Y-29740000D03*
X39595931Y-28840000D03*
X39630000Y-23440000D03*
X39630000Y-24340000D03*
D15*
X36240000Y-20360000D03*
X35340000Y-20360000D03*
X32700000Y-35350000D03*
X33600000Y-35350000D03*
D27*
X33350000Y-32490000D03*
X33350000Y-31590000D03*
D15*
X33875000Y-33375000D03*
X34775000Y-33375000D03*
D27*
X32380000Y-33130000D03*
X32380000Y-34030000D03*
X35570000Y-31650000D03*
X35570000Y-30750000D03*
D15*
X35390000Y-33470000D03*
X36290000Y-33470000D03*
X32870000Y-36470000D03*
X33770000Y-36470000D03*
D27*
X20410000Y-30320000D03*
X20410000Y-31220000D03*
X20370000Y-36560000D03*
X20370000Y-35660000D03*
D15*
X23760000Y-39640000D03*
X24660000Y-39640000D03*
D28*
X22840000Y-29160000D03*
X22840000Y-27260000D03*
X22340000Y-29160000D03*
X22340000Y-27260000D03*
X21840000Y-29160000D03*
X21840000Y-27260000D03*
X21340000Y-29160000D03*
X21340000Y-27260000D03*
D29*
X22090000Y-28210000D03*
D28*
X22800000Y-25870000D03*
X22800000Y-23970000D03*
X22300000Y-25870000D03*
X22300000Y-23970000D03*
X21800000Y-25870000D03*
X21800000Y-23970000D03*
X21300000Y-25870000D03*
X21300000Y-23970000D03*
D29*
X22050000Y-24920000D03*
D28*
X25990000Y-22820000D03*
X25990000Y-20920000D03*
X25490000Y-22820000D03*
X25490000Y-20920000D03*
X24990000Y-22820000D03*
X24990000Y-20920000D03*
X24490000Y-22820000D03*
X24490000Y-20920000D03*
D29*
X25240000Y-21870000D03*
D28*
X37160000Y-30840000D03*
X37160000Y-32740000D03*
X37660000Y-30840000D03*
X37660000Y-32740000D03*
X38160000Y-30840000D03*
X38160000Y-32740000D03*
X38660000Y-30840000D03*
X38660000Y-32740000D03*
D29*
X37910000Y-31790000D03*
D28*
X37200000Y-34130000D03*
X37200000Y-36030000D03*
X37700000Y-34130000D03*
X37700000Y-36030000D03*
X38200000Y-34130000D03*
X38200000Y-36030000D03*
X38700000Y-34130000D03*
X38700000Y-36030000D03*
D29*
X37950000Y-35080000D03*
D28*
X34010000Y-37180000D03*
X34010000Y-39080000D03*
X34510000Y-37180000D03*
X34510000Y-39080000D03*
X35010000Y-37180000D03*
X35010000Y-39080000D03*
X35510000Y-37180000D03*
X35510000Y-39080000D03*
D29*
X34760000Y-38130000D03*
D15*
X25090000Y-28540000D03*
X25990000Y-28540000D03*
D27*
X26860000Y-26870000D03*
X26860000Y-25970000D03*
D15*
X34910000Y-31460000D03*
X34010000Y-31460000D03*
X34546000Y-34419000D03*
X35446000Y-34419000D03*
D27*
X33140000Y-33130000D03*
X33140000Y-34030000D03*
M02*
