G04 #@! TF.GenerationSoftware,KiCad,Pcbnew,(2018-02-05 revision d1a45d147)-makepkg*
G04 #@! TF.CreationDate,2018-03-20T19:43:10-04:00*
G04 #@! TF.ProjectId,6s4in1,367334696E312E6B696361645F706362,rev?*
G04 #@! TF.SameCoordinates,Original*
G04 #@! TF.FileFunction,Copper,L1,Top,Signal*
G04 #@! TF.FilePolarity,Positive*
%FSLAX46Y46*%
G04 Gerber Fmt 4.6, Leading zero omitted, Abs format (unit mm)*
G04 Created by KiCad (PCBNEW (2018-02-05 revision d1a45d147)-makepkg) date 03/20/18 19:43:10*
%MOMM*%
%LPD*%
G01*
G04 APERTURE LIST*
%ADD10C,0.100000*%
%ADD11C,1.100000*%
%ADD12C,1.500000*%
%ADD13C,0.500000*%
%ADD14R,0.400000X0.600000*%
%ADD15C,2.000000*%
%ADD16R,0.800000X0.750000*%
%ADD17R,0.600000X0.600000*%
%ADD18R,0.300000X0.900000*%
%ADD19R,1.800000X1.800000*%
%ADD20R,0.900000X0.300000*%
%ADD21R,0.470000X0.350000*%
%ADD22R,1.050000X0.770000*%
%ADD23R,0.600000X0.500000*%
%ADD24R,0.500000X0.600000*%
%ADD25R,0.600000X0.400000*%
%ADD26R,0.250000X0.500000*%
%ADD27R,1.600000X0.480000*%
%ADD28C,0.508000*%
%ADD29C,0.152400*%
%ADD30C,0.470000*%
%ADD31C,0.254000*%
G04 APERTURE END LIST*
D10*
G36*
X19651173Y-34000795D02*
X19667190Y-34003170D01*
X19682897Y-34007105D01*
X19698143Y-34012560D01*
X19712780Y-34019483D01*
X19726669Y-34027808D01*
X19739675Y-34037453D01*
X19751673Y-34048327D01*
X19762547Y-34060325D01*
X19772192Y-34073331D01*
X19780517Y-34087220D01*
X19787440Y-34101857D01*
X19792895Y-34117103D01*
X19796830Y-34132810D01*
X19799205Y-34148827D01*
X19800000Y-34165000D01*
X19800000Y-35335000D01*
X19799205Y-35351173D01*
X19796830Y-35367190D01*
X19792895Y-35382897D01*
X19787440Y-35398143D01*
X19780517Y-35412780D01*
X19772192Y-35426669D01*
X19762547Y-35439675D01*
X19751673Y-35451673D01*
X19739675Y-35462547D01*
X19726669Y-35472192D01*
X19712780Y-35480517D01*
X19698143Y-35487440D01*
X19682897Y-35492895D01*
X19667190Y-35496830D01*
X19651173Y-35499205D01*
X19635000Y-35500000D01*
X18865000Y-35500000D01*
X18848827Y-35499205D01*
X18832810Y-35496830D01*
X18817103Y-35492895D01*
X18801857Y-35487440D01*
X18787220Y-35480517D01*
X18773331Y-35472192D01*
X18760325Y-35462547D01*
X18748327Y-35451673D01*
X18737453Y-35439675D01*
X18727808Y-35426669D01*
X18719483Y-35412780D01*
X18712560Y-35398143D01*
X18707105Y-35382897D01*
X18703170Y-35367190D01*
X18700795Y-35351173D01*
X18700000Y-35335000D01*
X18700000Y-34165000D01*
X18700795Y-34148827D01*
X18703170Y-34132810D01*
X18707105Y-34117103D01*
X18712560Y-34101857D01*
X18719483Y-34087220D01*
X18727808Y-34073331D01*
X18737453Y-34060325D01*
X18748327Y-34048327D01*
X18760325Y-34037453D01*
X18773331Y-34027808D01*
X18787220Y-34019483D01*
X18801857Y-34012560D01*
X18817103Y-34007105D01*
X18832810Y-34003170D01*
X18848827Y-34000795D01*
X18865000Y-34000000D01*
X19635000Y-34000000D01*
X19651173Y-34000795D01*
X19651173Y-34000795D01*
G37*
D11*
X19250000Y-34750000D03*
D12*
X18700000Y-34750000D03*
D13*
X19550000Y-34250000D03*
X19550000Y-35250000D03*
D10*
G36*
X19651173Y-37000795D02*
X19667190Y-37003170D01*
X19682897Y-37007105D01*
X19698143Y-37012560D01*
X19712780Y-37019483D01*
X19726669Y-37027808D01*
X19739675Y-37037453D01*
X19751673Y-37048327D01*
X19762547Y-37060325D01*
X19772192Y-37073331D01*
X19780517Y-37087220D01*
X19787440Y-37101857D01*
X19792895Y-37117103D01*
X19796830Y-37132810D01*
X19799205Y-37148827D01*
X19800000Y-37165000D01*
X19800000Y-38335000D01*
X19799205Y-38351173D01*
X19796830Y-38367190D01*
X19792895Y-38382897D01*
X19787440Y-38398143D01*
X19780517Y-38412780D01*
X19772192Y-38426669D01*
X19762547Y-38439675D01*
X19751673Y-38451673D01*
X19739675Y-38462547D01*
X19726669Y-38472192D01*
X19712780Y-38480517D01*
X19698143Y-38487440D01*
X19682897Y-38492895D01*
X19667190Y-38496830D01*
X19651173Y-38499205D01*
X19635000Y-38500000D01*
X18865000Y-38500000D01*
X18848827Y-38499205D01*
X18832810Y-38496830D01*
X18817103Y-38492895D01*
X18801857Y-38487440D01*
X18787220Y-38480517D01*
X18773331Y-38472192D01*
X18760325Y-38462547D01*
X18748327Y-38451673D01*
X18737453Y-38439675D01*
X18727808Y-38426669D01*
X18719483Y-38412780D01*
X18712560Y-38398143D01*
X18707105Y-38382897D01*
X18703170Y-38367190D01*
X18700795Y-38351173D01*
X18700000Y-38335000D01*
X18700000Y-37165000D01*
X18700795Y-37148827D01*
X18703170Y-37132810D01*
X18707105Y-37117103D01*
X18712560Y-37101857D01*
X18719483Y-37087220D01*
X18727808Y-37073331D01*
X18737453Y-37060325D01*
X18748327Y-37048327D01*
X18760325Y-37037453D01*
X18773331Y-37027808D01*
X18787220Y-37019483D01*
X18801857Y-37012560D01*
X18817103Y-37007105D01*
X18832810Y-37003170D01*
X18848827Y-37000795D01*
X18865000Y-37000000D01*
X19635000Y-37000000D01*
X19651173Y-37000795D01*
X19651173Y-37000795D01*
G37*
D11*
X19250000Y-37750000D03*
D12*
X18700000Y-37750000D03*
D13*
X19550000Y-37250000D03*
X19550000Y-38250000D03*
D10*
G36*
X19651173Y-21500795D02*
X19667190Y-21503170D01*
X19682897Y-21507105D01*
X19698143Y-21512560D01*
X19712780Y-21519483D01*
X19726669Y-21527808D01*
X19739675Y-21537453D01*
X19751673Y-21548327D01*
X19762547Y-21560325D01*
X19772192Y-21573331D01*
X19780517Y-21587220D01*
X19787440Y-21601857D01*
X19792895Y-21617103D01*
X19796830Y-21632810D01*
X19799205Y-21648827D01*
X19800000Y-21665000D01*
X19800000Y-22835000D01*
X19799205Y-22851173D01*
X19796830Y-22867190D01*
X19792895Y-22882897D01*
X19787440Y-22898143D01*
X19780517Y-22912780D01*
X19772192Y-22926669D01*
X19762547Y-22939675D01*
X19751673Y-22951673D01*
X19739675Y-22962547D01*
X19726669Y-22972192D01*
X19712780Y-22980517D01*
X19698143Y-22987440D01*
X19682897Y-22992895D01*
X19667190Y-22996830D01*
X19651173Y-22999205D01*
X19635000Y-23000000D01*
X18865000Y-23000000D01*
X18848827Y-22999205D01*
X18832810Y-22996830D01*
X18817103Y-22992895D01*
X18801857Y-22987440D01*
X18787220Y-22980517D01*
X18773331Y-22972192D01*
X18760325Y-22962547D01*
X18748327Y-22951673D01*
X18737453Y-22939675D01*
X18727808Y-22926669D01*
X18719483Y-22912780D01*
X18712560Y-22898143D01*
X18707105Y-22882897D01*
X18703170Y-22867190D01*
X18700795Y-22851173D01*
X18700000Y-22835000D01*
X18700000Y-21665000D01*
X18700795Y-21648827D01*
X18703170Y-21632810D01*
X18707105Y-21617103D01*
X18712560Y-21601857D01*
X18719483Y-21587220D01*
X18727808Y-21573331D01*
X18737453Y-21560325D01*
X18748327Y-21548327D01*
X18760325Y-21537453D01*
X18773331Y-21527808D01*
X18787220Y-21519483D01*
X18801857Y-21512560D01*
X18817103Y-21507105D01*
X18832810Y-21503170D01*
X18848827Y-21500795D01*
X18865000Y-21500000D01*
X19635000Y-21500000D01*
X19651173Y-21500795D01*
X19651173Y-21500795D01*
G37*
D11*
X19250000Y-22250000D03*
D12*
X18700000Y-22250000D03*
D13*
X19550000Y-22750000D03*
X19550000Y-21750000D03*
D14*
X23760000Y-20360000D03*
X24660000Y-20360000D03*
D10*
G36*
X31899603Y-20000963D02*
X31919018Y-20003843D01*
X31938057Y-20008612D01*
X31956537Y-20015224D01*
X31974279Y-20023616D01*
X31991114Y-20033706D01*
X32006879Y-20045398D01*
X32021421Y-20058579D01*
X32034602Y-20073121D01*
X32046294Y-20088886D01*
X32056384Y-20105721D01*
X32064776Y-20123463D01*
X32071388Y-20141943D01*
X32076157Y-20160982D01*
X32079037Y-20180397D01*
X32080000Y-20200000D01*
X32080000Y-21800000D01*
X32079037Y-21819603D01*
X32076157Y-21839018D01*
X32071388Y-21858057D01*
X32064776Y-21876537D01*
X32056384Y-21894279D01*
X32046294Y-21911114D01*
X32034602Y-21926879D01*
X32021421Y-21941421D01*
X32006879Y-21954602D01*
X31991114Y-21966294D01*
X31974279Y-21976384D01*
X31956537Y-21984776D01*
X31938057Y-21991388D01*
X31919018Y-21996157D01*
X31899603Y-21999037D01*
X31880000Y-22000000D01*
X30280000Y-22000000D01*
X30260397Y-21999037D01*
X30240982Y-21996157D01*
X30221943Y-21991388D01*
X30203463Y-21984776D01*
X30185721Y-21976384D01*
X30168886Y-21966294D01*
X30153121Y-21954602D01*
X30138579Y-21941421D01*
X30125398Y-21926879D01*
X30113706Y-21911114D01*
X30103616Y-21894279D01*
X30095224Y-21876537D01*
X30088612Y-21858057D01*
X30083843Y-21839018D01*
X30080963Y-21819603D01*
X30080000Y-21800000D01*
X30080000Y-20200000D01*
X30080963Y-20180397D01*
X30083843Y-20160982D01*
X30088612Y-20141943D01*
X30095224Y-20123463D01*
X30103616Y-20105721D01*
X30113706Y-20088886D01*
X30125398Y-20073121D01*
X30138579Y-20058579D01*
X30153121Y-20045398D01*
X30168886Y-20033706D01*
X30185721Y-20023616D01*
X30203463Y-20015224D01*
X30221943Y-20008612D01*
X30240982Y-20003843D01*
X30260397Y-20000963D01*
X30280000Y-20000000D01*
X31880000Y-20000000D01*
X31899603Y-20000963D01*
X31899603Y-20000963D01*
G37*
D15*
X31080000Y-21000000D03*
D10*
G36*
X29739603Y-20000963D02*
X29759018Y-20003843D01*
X29778057Y-20008612D01*
X29796537Y-20015224D01*
X29814279Y-20023616D01*
X29831114Y-20033706D01*
X29846879Y-20045398D01*
X29861421Y-20058579D01*
X29874602Y-20073121D01*
X29886294Y-20088886D01*
X29896384Y-20105721D01*
X29904776Y-20123463D01*
X29911388Y-20141943D01*
X29916157Y-20160982D01*
X29919037Y-20180397D01*
X29920000Y-20200000D01*
X29920000Y-21800000D01*
X29919037Y-21819603D01*
X29916157Y-21839018D01*
X29911388Y-21858057D01*
X29904776Y-21876537D01*
X29896384Y-21894279D01*
X29886294Y-21911114D01*
X29874602Y-21926879D01*
X29861421Y-21941421D01*
X29846879Y-21954602D01*
X29831114Y-21966294D01*
X29814279Y-21976384D01*
X29796537Y-21984776D01*
X29778057Y-21991388D01*
X29759018Y-21996157D01*
X29739603Y-21999037D01*
X29720000Y-22000000D01*
X28120000Y-22000000D01*
X28100397Y-21999037D01*
X28080982Y-21996157D01*
X28061943Y-21991388D01*
X28043463Y-21984776D01*
X28025721Y-21976384D01*
X28008886Y-21966294D01*
X27993121Y-21954602D01*
X27978579Y-21941421D01*
X27965398Y-21926879D01*
X27953706Y-21911114D01*
X27943616Y-21894279D01*
X27935224Y-21876537D01*
X27928612Y-21858057D01*
X27923843Y-21839018D01*
X27920963Y-21819603D01*
X27920000Y-21800000D01*
X27920000Y-20200000D01*
X27920963Y-20180397D01*
X27923843Y-20160982D01*
X27928612Y-20141943D01*
X27935224Y-20123463D01*
X27943616Y-20105721D01*
X27953706Y-20088886D01*
X27965398Y-20073121D01*
X27978579Y-20058579D01*
X27993121Y-20045398D01*
X28008886Y-20033706D01*
X28025721Y-20023616D01*
X28043463Y-20015224D01*
X28061943Y-20008612D01*
X28080982Y-20003843D01*
X28100397Y-20000963D01*
X28120000Y-20000000D01*
X29720000Y-20000000D01*
X29739603Y-20000963D01*
X29739603Y-20000963D01*
G37*
D15*
X28920000Y-21000000D03*
D16*
X29250000Y-29490000D03*
X30750000Y-29490000D03*
D17*
X32560000Y-34730000D03*
D18*
X33210000Y-34880000D03*
D19*
X33960000Y-33330000D03*
D20*
X32410000Y-34080000D03*
X32410000Y-33580000D03*
X32410000Y-33080000D03*
X32410000Y-32580000D03*
X35510000Y-34080000D03*
X35510000Y-33580000D03*
X35510000Y-33080000D03*
X35510000Y-32580000D03*
D18*
X33210000Y-31780000D03*
X33710000Y-34880000D03*
X33710000Y-31780000D03*
X34210000Y-34880000D03*
X34210000Y-31780000D03*
X34710000Y-34880000D03*
X34710000Y-31780000D03*
D17*
X32560000Y-31930000D03*
X35360000Y-34730000D03*
X35360000Y-31930000D03*
D21*
X35975000Y-37610000D03*
X35975000Y-38260000D03*
X35975000Y-38910000D03*
X34145000Y-37610000D03*
X34145000Y-38260000D03*
X34145000Y-38910000D03*
D22*
X35060000Y-37775000D03*
X35060000Y-38745000D03*
D21*
X39135000Y-34430000D03*
X39135000Y-35080000D03*
X39135000Y-35730000D03*
X37305000Y-34430000D03*
X37305000Y-35080000D03*
X37305000Y-35730000D03*
D22*
X38220000Y-34595000D03*
X38220000Y-35565000D03*
D21*
X39095000Y-31140000D03*
X39095000Y-31790000D03*
X39095000Y-32440000D03*
X37265000Y-31140000D03*
X37265000Y-31790000D03*
X37265000Y-32440000D03*
D22*
X38180000Y-31305000D03*
X38180000Y-32275000D03*
D21*
X24025000Y-22390000D03*
X24025000Y-21740000D03*
X24025000Y-21090000D03*
X25855000Y-22390000D03*
X25855000Y-21740000D03*
X25855000Y-21090000D03*
D22*
X24940000Y-22225000D03*
X24940000Y-21255000D03*
D21*
X20865000Y-25570000D03*
X20865000Y-24920000D03*
X20865000Y-24270000D03*
X22695000Y-25570000D03*
X22695000Y-24920000D03*
X22695000Y-24270000D03*
D22*
X21780000Y-25405000D03*
X21780000Y-24435000D03*
D21*
X20905000Y-28860000D03*
X20905000Y-28210000D03*
X20905000Y-27560000D03*
X22735000Y-28860000D03*
X22735000Y-28210000D03*
X22735000Y-27560000D03*
D22*
X21820000Y-28695000D03*
X21820000Y-27725000D03*
D10*
G36*
X19651173Y-31000795D02*
X19667190Y-31003170D01*
X19682897Y-31007105D01*
X19698143Y-31012560D01*
X19712780Y-31019483D01*
X19726669Y-31027808D01*
X19739675Y-31037453D01*
X19751673Y-31048327D01*
X19762547Y-31060325D01*
X19772192Y-31073331D01*
X19780517Y-31087220D01*
X19787440Y-31101857D01*
X19792895Y-31117103D01*
X19796830Y-31132810D01*
X19799205Y-31148827D01*
X19800000Y-31165000D01*
X19800000Y-32335000D01*
X19799205Y-32351173D01*
X19796830Y-32367190D01*
X19792895Y-32382897D01*
X19787440Y-32398143D01*
X19780517Y-32412780D01*
X19772192Y-32426669D01*
X19762547Y-32439675D01*
X19751673Y-32451673D01*
X19739675Y-32462547D01*
X19726669Y-32472192D01*
X19712780Y-32480517D01*
X19698143Y-32487440D01*
X19682897Y-32492895D01*
X19667190Y-32496830D01*
X19651173Y-32499205D01*
X19635000Y-32500000D01*
X18865000Y-32500000D01*
X18848827Y-32499205D01*
X18832810Y-32496830D01*
X18817103Y-32492895D01*
X18801857Y-32487440D01*
X18787220Y-32480517D01*
X18773331Y-32472192D01*
X18760325Y-32462547D01*
X18748327Y-32451673D01*
X18737453Y-32439675D01*
X18727808Y-32426669D01*
X18719483Y-32412780D01*
X18712560Y-32398143D01*
X18707105Y-32382897D01*
X18703170Y-32367190D01*
X18700795Y-32351173D01*
X18700000Y-32335000D01*
X18700000Y-31165000D01*
X18700795Y-31148827D01*
X18703170Y-31132810D01*
X18707105Y-31117103D01*
X18712560Y-31101857D01*
X18719483Y-31087220D01*
X18727808Y-31073331D01*
X18737453Y-31060325D01*
X18748327Y-31048327D01*
X18760325Y-31037453D01*
X18773331Y-31027808D01*
X18787220Y-31019483D01*
X18801857Y-31012560D01*
X18817103Y-31007105D01*
X18832810Y-31003170D01*
X18848827Y-31000795D01*
X18865000Y-31000000D01*
X19635000Y-31000000D01*
X19651173Y-31000795D01*
X19651173Y-31000795D01*
G37*
D11*
X19250000Y-31750000D03*
D12*
X18700000Y-31750000D03*
D13*
X19550000Y-31250000D03*
X19550000Y-32250000D03*
D10*
G36*
X41151173Y-37000795D02*
X41167190Y-37003170D01*
X41182897Y-37007105D01*
X41198143Y-37012560D01*
X41212780Y-37019483D01*
X41226669Y-37027808D01*
X41239675Y-37037453D01*
X41251673Y-37048327D01*
X41262547Y-37060325D01*
X41272192Y-37073331D01*
X41280517Y-37087220D01*
X41287440Y-37101857D01*
X41292895Y-37117103D01*
X41296830Y-37132810D01*
X41299205Y-37148827D01*
X41300000Y-37165000D01*
X41300000Y-38335000D01*
X41299205Y-38351173D01*
X41296830Y-38367190D01*
X41292895Y-38382897D01*
X41287440Y-38398143D01*
X41280517Y-38412780D01*
X41272192Y-38426669D01*
X41262547Y-38439675D01*
X41251673Y-38451673D01*
X41239675Y-38462547D01*
X41226669Y-38472192D01*
X41212780Y-38480517D01*
X41198143Y-38487440D01*
X41182897Y-38492895D01*
X41167190Y-38496830D01*
X41151173Y-38499205D01*
X41135000Y-38500000D01*
X40365000Y-38500000D01*
X40348827Y-38499205D01*
X40332810Y-38496830D01*
X40317103Y-38492895D01*
X40301857Y-38487440D01*
X40287220Y-38480517D01*
X40273331Y-38472192D01*
X40260325Y-38462547D01*
X40248327Y-38451673D01*
X40237453Y-38439675D01*
X40227808Y-38426669D01*
X40219483Y-38412780D01*
X40212560Y-38398143D01*
X40207105Y-38382897D01*
X40203170Y-38367190D01*
X40200795Y-38351173D01*
X40200000Y-38335000D01*
X40200000Y-37165000D01*
X40200795Y-37148827D01*
X40203170Y-37132810D01*
X40207105Y-37117103D01*
X40212560Y-37101857D01*
X40219483Y-37087220D01*
X40227808Y-37073331D01*
X40237453Y-37060325D01*
X40248327Y-37048327D01*
X40260325Y-37037453D01*
X40273331Y-37027808D01*
X40287220Y-37019483D01*
X40301857Y-37012560D01*
X40317103Y-37007105D01*
X40332810Y-37003170D01*
X40348827Y-37000795D01*
X40365000Y-37000000D01*
X41135000Y-37000000D01*
X41151173Y-37000795D01*
X41151173Y-37000795D01*
G37*
D11*
X40750000Y-37750000D03*
D12*
X41300000Y-37750000D03*
D13*
X40450000Y-37250000D03*
X40450000Y-38250000D03*
D10*
G36*
X41151173Y-34000795D02*
X41167190Y-34003170D01*
X41182897Y-34007105D01*
X41198143Y-34012560D01*
X41212780Y-34019483D01*
X41226669Y-34027808D01*
X41239675Y-34037453D01*
X41251673Y-34048327D01*
X41262547Y-34060325D01*
X41272192Y-34073331D01*
X41280517Y-34087220D01*
X41287440Y-34101857D01*
X41292895Y-34117103D01*
X41296830Y-34132810D01*
X41299205Y-34148827D01*
X41300000Y-34165000D01*
X41300000Y-35335000D01*
X41299205Y-35351173D01*
X41296830Y-35367190D01*
X41292895Y-35382897D01*
X41287440Y-35398143D01*
X41280517Y-35412780D01*
X41272192Y-35426669D01*
X41262547Y-35439675D01*
X41251673Y-35451673D01*
X41239675Y-35462547D01*
X41226669Y-35472192D01*
X41212780Y-35480517D01*
X41198143Y-35487440D01*
X41182897Y-35492895D01*
X41167190Y-35496830D01*
X41151173Y-35499205D01*
X41135000Y-35500000D01*
X40365000Y-35500000D01*
X40348827Y-35499205D01*
X40332810Y-35496830D01*
X40317103Y-35492895D01*
X40301857Y-35487440D01*
X40287220Y-35480517D01*
X40273331Y-35472192D01*
X40260325Y-35462547D01*
X40248327Y-35451673D01*
X40237453Y-35439675D01*
X40227808Y-35426669D01*
X40219483Y-35412780D01*
X40212560Y-35398143D01*
X40207105Y-35382897D01*
X40203170Y-35367190D01*
X40200795Y-35351173D01*
X40200000Y-35335000D01*
X40200000Y-34165000D01*
X40200795Y-34148827D01*
X40203170Y-34132810D01*
X40207105Y-34117103D01*
X40212560Y-34101857D01*
X40219483Y-34087220D01*
X40227808Y-34073331D01*
X40237453Y-34060325D01*
X40248327Y-34048327D01*
X40260325Y-34037453D01*
X40273331Y-34027808D01*
X40287220Y-34019483D01*
X40301857Y-34012560D01*
X40317103Y-34007105D01*
X40332810Y-34003170D01*
X40348827Y-34000795D01*
X40365000Y-34000000D01*
X41135000Y-34000000D01*
X41151173Y-34000795D01*
X41151173Y-34000795D01*
G37*
D11*
X40750000Y-34750000D03*
D12*
X41300000Y-34750000D03*
D13*
X40450000Y-34250000D03*
X40450000Y-35250000D03*
D10*
G36*
X41151173Y-31000795D02*
X41167190Y-31003170D01*
X41182897Y-31007105D01*
X41198143Y-31012560D01*
X41212780Y-31019483D01*
X41226669Y-31027808D01*
X41239675Y-31037453D01*
X41251673Y-31048327D01*
X41262547Y-31060325D01*
X41272192Y-31073331D01*
X41280517Y-31087220D01*
X41287440Y-31101857D01*
X41292895Y-31117103D01*
X41296830Y-31132810D01*
X41299205Y-31148827D01*
X41300000Y-31165000D01*
X41300000Y-32335000D01*
X41299205Y-32351173D01*
X41296830Y-32367190D01*
X41292895Y-32382897D01*
X41287440Y-32398143D01*
X41280517Y-32412780D01*
X41272192Y-32426669D01*
X41262547Y-32439675D01*
X41251673Y-32451673D01*
X41239675Y-32462547D01*
X41226669Y-32472192D01*
X41212780Y-32480517D01*
X41198143Y-32487440D01*
X41182897Y-32492895D01*
X41167190Y-32496830D01*
X41151173Y-32499205D01*
X41135000Y-32500000D01*
X40365000Y-32500000D01*
X40348827Y-32499205D01*
X40332810Y-32496830D01*
X40317103Y-32492895D01*
X40301857Y-32487440D01*
X40287220Y-32480517D01*
X40273331Y-32472192D01*
X40260325Y-32462547D01*
X40248327Y-32451673D01*
X40237453Y-32439675D01*
X40227808Y-32426669D01*
X40219483Y-32412780D01*
X40212560Y-32398143D01*
X40207105Y-32382897D01*
X40203170Y-32367190D01*
X40200795Y-32351173D01*
X40200000Y-32335000D01*
X40200000Y-31165000D01*
X40200795Y-31148827D01*
X40203170Y-31132810D01*
X40207105Y-31117103D01*
X40212560Y-31101857D01*
X40219483Y-31087220D01*
X40227808Y-31073331D01*
X40237453Y-31060325D01*
X40248327Y-31048327D01*
X40260325Y-31037453D01*
X40273331Y-31027808D01*
X40287220Y-31019483D01*
X40301857Y-31012560D01*
X40317103Y-31007105D01*
X40332810Y-31003170D01*
X40348827Y-31000795D01*
X40365000Y-31000000D01*
X41135000Y-31000000D01*
X41151173Y-31000795D01*
X41151173Y-31000795D01*
G37*
D11*
X40750000Y-31750000D03*
D12*
X41300000Y-31750000D03*
D13*
X40450000Y-31250000D03*
X40450000Y-32250000D03*
D10*
G36*
X19651173Y-24500795D02*
X19667190Y-24503170D01*
X19682897Y-24507105D01*
X19698143Y-24512560D01*
X19712780Y-24519483D01*
X19726669Y-24527808D01*
X19739675Y-24537453D01*
X19751673Y-24548327D01*
X19762547Y-24560325D01*
X19772192Y-24573331D01*
X19780517Y-24587220D01*
X19787440Y-24601857D01*
X19792895Y-24617103D01*
X19796830Y-24632810D01*
X19799205Y-24648827D01*
X19800000Y-24665000D01*
X19800000Y-25835000D01*
X19799205Y-25851173D01*
X19796830Y-25867190D01*
X19792895Y-25882897D01*
X19787440Y-25898143D01*
X19780517Y-25912780D01*
X19772192Y-25926669D01*
X19762547Y-25939675D01*
X19751673Y-25951673D01*
X19739675Y-25962547D01*
X19726669Y-25972192D01*
X19712780Y-25980517D01*
X19698143Y-25987440D01*
X19682897Y-25992895D01*
X19667190Y-25996830D01*
X19651173Y-25999205D01*
X19635000Y-26000000D01*
X18865000Y-26000000D01*
X18848827Y-25999205D01*
X18832810Y-25996830D01*
X18817103Y-25992895D01*
X18801857Y-25987440D01*
X18787220Y-25980517D01*
X18773331Y-25972192D01*
X18760325Y-25962547D01*
X18748327Y-25951673D01*
X18737453Y-25939675D01*
X18727808Y-25926669D01*
X18719483Y-25912780D01*
X18712560Y-25898143D01*
X18707105Y-25882897D01*
X18703170Y-25867190D01*
X18700795Y-25851173D01*
X18700000Y-25835000D01*
X18700000Y-24665000D01*
X18700795Y-24648827D01*
X18703170Y-24632810D01*
X18707105Y-24617103D01*
X18712560Y-24601857D01*
X18719483Y-24587220D01*
X18727808Y-24573331D01*
X18737453Y-24560325D01*
X18748327Y-24548327D01*
X18760325Y-24537453D01*
X18773331Y-24527808D01*
X18787220Y-24519483D01*
X18801857Y-24512560D01*
X18817103Y-24507105D01*
X18832810Y-24503170D01*
X18848827Y-24500795D01*
X18865000Y-24500000D01*
X19635000Y-24500000D01*
X19651173Y-24500795D01*
X19651173Y-24500795D01*
G37*
D11*
X19250000Y-25250000D03*
D12*
X18700000Y-25250000D03*
D13*
X19550000Y-25750000D03*
X19550000Y-24750000D03*
D10*
G36*
X19651173Y-27500795D02*
X19667190Y-27503170D01*
X19682897Y-27507105D01*
X19698143Y-27512560D01*
X19712780Y-27519483D01*
X19726669Y-27527808D01*
X19739675Y-27537453D01*
X19751673Y-27548327D01*
X19762547Y-27560325D01*
X19772192Y-27573331D01*
X19780517Y-27587220D01*
X19787440Y-27601857D01*
X19792895Y-27617103D01*
X19796830Y-27632810D01*
X19799205Y-27648827D01*
X19800000Y-27665000D01*
X19800000Y-28835000D01*
X19799205Y-28851173D01*
X19796830Y-28867190D01*
X19792895Y-28882897D01*
X19787440Y-28898143D01*
X19780517Y-28912780D01*
X19772192Y-28926669D01*
X19762547Y-28939675D01*
X19751673Y-28951673D01*
X19739675Y-28962547D01*
X19726669Y-28972192D01*
X19712780Y-28980517D01*
X19698143Y-28987440D01*
X19682897Y-28992895D01*
X19667190Y-28996830D01*
X19651173Y-28999205D01*
X19635000Y-29000000D01*
X18865000Y-29000000D01*
X18848827Y-28999205D01*
X18832810Y-28996830D01*
X18817103Y-28992895D01*
X18801857Y-28987440D01*
X18787220Y-28980517D01*
X18773331Y-28972192D01*
X18760325Y-28962547D01*
X18748327Y-28951673D01*
X18737453Y-28939675D01*
X18727808Y-28926669D01*
X18719483Y-28912780D01*
X18712560Y-28898143D01*
X18707105Y-28882897D01*
X18703170Y-28867190D01*
X18700795Y-28851173D01*
X18700000Y-28835000D01*
X18700000Y-27665000D01*
X18700795Y-27648827D01*
X18703170Y-27632810D01*
X18707105Y-27617103D01*
X18712560Y-27601857D01*
X18719483Y-27587220D01*
X18727808Y-27573331D01*
X18737453Y-27560325D01*
X18748327Y-27548327D01*
X18760325Y-27537453D01*
X18773331Y-27527808D01*
X18787220Y-27519483D01*
X18801857Y-27512560D01*
X18817103Y-27507105D01*
X18832810Y-27503170D01*
X18848827Y-27500795D01*
X18865000Y-27500000D01*
X19635000Y-27500000D01*
X19651173Y-27500795D01*
X19651173Y-27500795D01*
G37*
D11*
X19250000Y-28250000D03*
D12*
X18700000Y-28250000D03*
D13*
X19550000Y-28750000D03*
X19550000Y-27750000D03*
D10*
G36*
X41151173Y-21500795D02*
X41167190Y-21503170D01*
X41182897Y-21507105D01*
X41198143Y-21512560D01*
X41212780Y-21519483D01*
X41226669Y-21527808D01*
X41239675Y-21537453D01*
X41251673Y-21548327D01*
X41262547Y-21560325D01*
X41272192Y-21573331D01*
X41280517Y-21587220D01*
X41287440Y-21601857D01*
X41292895Y-21617103D01*
X41296830Y-21632810D01*
X41299205Y-21648827D01*
X41300000Y-21665000D01*
X41300000Y-22835000D01*
X41299205Y-22851173D01*
X41296830Y-22867190D01*
X41292895Y-22882897D01*
X41287440Y-22898143D01*
X41280517Y-22912780D01*
X41272192Y-22926669D01*
X41262547Y-22939675D01*
X41251673Y-22951673D01*
X41239675Y-22962547D01*
X41226669Y-22972192D01*
X41212780Y-22980517D01*
X41198143Y-22987440D01*
X41182897Y-22992895D01*
X41167190Y-22996830D01*
X41151173Y-22999205D01*
X41135000Y-23000000D01*
X40365000Y-23000000D01*
X40348827Y-22999205D01*
X40332810Y-22996830D01*
X40317103Y-22992895D01*
X40301857Y-22987440D01*
X40287220Y-22980517D01*
X40273331Y-22972192D01*
X40260325Y-22962547D01*
X40248327Y-22951673D01*
X40237453Y-22939675D01*
X40227808Y-22926669D01*
X40219483Y-22912780D01*
X40212560Y-22898143D01*
X40207105Y-22882897D01*
X40203170Y-22867190D01*
X40200795Y-22851173D01*
X40200000Y-22835000D01*
X40200000Y-21665000D01*
X40200795Y-21648827D01*
X40203170Y-21632810D01*
X40207105Y-21617103D01*
X40212560Y-21601857D01*
X40219483Y-21587220D01*
X40227808Y-21573331D01*
X40237453Y-21560325D01*
X40248327Y-21548327D01*
X40260325Y-21537453D01*
X40273331Y-21527808D01*
X40287220Y-21519483D01*
X40301857Y-21512560D01*
X40317103Y-21507105D01*
X40332810Y-21503170D01*
X40348827Y-21500795D01*
X40365000Y-21500000D01*
X41135000Y-21500000D01*
X41151173Y-21500795D01*
X41151173Y-21500795D01*
G37*
D11*
X40750000Y-22250000D03*
D12*
X41300000Y-22250000D03*
D13*
X40450000Y-22750000D03*
X40450000Y-21750000D03*
D10*
G36*
X41151173Y-24500795D02*
X41167190Y-24503170D01*
X41182897Y-24507105D01*
X41198143Y-24512560D01*
X41212780Y-24519483D01*
X41226669Y-24527808D01*
X41239675Y-24537453D01*
X41251673Y-24548327D01*
X41262547Y-24560325D01*
X41272192Y-24573331D01*
X41280517Y-24587220D01*
X41287440Y-24601857D01*
X41292895Y-24617103D01*
X41296830Y-24632810D01*
X41299205Y-24648827D01*
X41300000Y-24665000D01*
X41300000Y-25835000D01*
X41299205Y-25851173D01*
X41296830Y-25867190D01*
X41292895Y-25882897D01*
X41287440Y-25898143D01*
X41280517Y-25912780D01*
X41272192Y-25926669D01*
X41262547Y-25939675D01*
X41251673Y-25951673D01*
X41239675Y-25962547D01*
X41226669Y-25972192D01*
X41212780Y-25980517D01*
X41198143Y-25987440D01*
X41182897Y-25992895D01*
X41167190Y-25996830D01*
X41151173Y-25999205D01*
X41135000Y-26000000D01*
X40365000Y-26000000D01*
X40348827Y-25999205D01*
X40332810Y-25996830D01*
X40317103Y-25992895D01*
X40301857Y-25987440D01*
X40287220Y-25980517D01*
X40273331Y-25972192D01*
X40260325Y-25962547D01*
X40248327Y-25951673D01*
X40237453Y-25939675D01*
X40227808Y-25926669D01*
X40219483Y-25912780D01*
X40212560Y-25898143D01*
X40207105Y-25882897D01*
X40203170Y-25867190D01*
X40200795Y-25851173D01*
X40200000Y-25835000D01*
X40200000Y-24665000D01*
X40200795Y-24648827D01*
X40203170Y-24632810D01*
X40207105Y-24617103D01*
X40212560Y-24601857D01*
X40219483Y-24587220D01*
X40227808Y-24573331D01*
X40237453Y-24560325D01*
X40248327Y-24548327D01*
X40260325Y-24537453D01*
X40273331Y-24527808D01*
X40287220Y-24519483D01*
X40301857Y-24512560D01*
X40317103Y-24507105D01*
X40332810Y-24503170D01*
X40348827Y-24500795D01*
X40365000Y-24500000D01*
X41135000Y-24500000D01*
X41151173Y-24500795D01*
X41151173Y-24500795D01*
G37*
D11*
X40750000Y-25250000D03*
D12*
X41300000Y-25250000D03*
D13*
X40450000Y-25750000D03*
X40450000Y-24750000D03*
D10*
G36*
X41151173Y-27500795D02*
X41167190Y-27503170D01*
X41182897Y-27507105D01*
X41198143Y-27512560D01*
X41212780Y-27519483D01*
X41226669Y-27527808D01*
X41239675Y-27537453D01*
X41251673Y-27548327D01*
X41262547Y-27560325D01*
X41272192Y-27573331D01*
X41280517Y-27587220D01*
X41287440Y-27601857D01*
X41292895Y-27617103D01*
X41296830Y-27632810D01*
X41299205Y-27648827D01*
X41300000Y-27665000D01*
X41300000Y-28835000D01*
X41299205Y-28851173D01*
X41296830Y-28867190D01*
X41292895Y-28882897D01*
X41287440Y-28898143D01*
X41280517Y-28912780D01*
X41272192Y-28926669D01*
X41262547Y-28939675D01*
X41251673Y-28951673D01*
X41239675Y-28962547D01*
X41226669Y-28972192D01*
X41212780Y-28980517D01*
X41198143Y-28987440D01*
X41182897Y-28992895D01*
X41167190Y-28996830D01*
X41151173Y-28999205D01*
X41135000Y-29000000D01*
X40365000Y-29000000D01*
X40348827Y-28999205D01*
X40332810Y-28996830D01*
X40317103Y-28992895D01*
X40301857Y-28987440D01*
X40287220Y-28980517D01*
X40273331Y-28972192D01*
X40260325Y-28962547D01*
X40248327Y-28951673D01*
X40237453Y-28939675D01*
X40227808Y-28926669D01*
X40219483Y-28912780D01*
X40212560Y-28898143D01*
X40207105Y-28882897D01*
X40203170Y-28867190D01*
X40200795Y-28851173D01*
X40200000Y-28835000D01*
X40200000Y-27665000D01*
X40200795Y-27648827D01*
X40203170Y-27632810D01*
X40207105Y-27617103D01*
X40212560Y-27601857D01*
X40219483Y-27587220D01*
X40227808Y-27573331D01*
X40237453Y-27560325D01*
X40248327Y-27548327D01*
X40260325Y-27537453D01*
X40273331Y-27527808D01*
X40287220Y-27519483D01*
X40301857Y-27512560D01*
X40317103Y-27507105D01*
X40332810Y-27503170D01*
X40348827Y-27500795D01*
X40365000Y-27500000D01*
X41135000Y-27500000D01*
X41151173Y-27500795D01*
X41151173Y-27500795D01*
G37*
D11*
X40750000Y-28250000D03*
D12*
X41300000Y-28250000D03*
D13*
X40450000Y-28750000D03*
X40450000Y-27750000D03*
D17*
X27440000Y-25270000D03*
D18*
X26790000Y-25120000D03*
D19*
X26040000Y-26670000D03*
D20*
X27590000Y-25920000D03*
X27590000Y-26420000D03*
X27590000Y-26920000D03*
X27590000Y-27420000D03*
X24490000Y-25920000D03*
X24490000Y-26420000D03*
X24490000Y-26920000D03*
X24490000Y-27420000D03*
D18*
X26790000Y-28220000D03*
X26290000Y-25120000D03*
X26290000Y-28220000D03*
X25790000Y-25120000D03*
X25790000Y-28220000D03*
X25290000Y-25120000D03*
X25290000Y-28220000D03*
D17*
X27440000Y-28070000D03*
X24640000Y-25270000D03*
X24640000Y-28070000D03*
D23*
X32600000Y-25360000D03*
X33700000Y-25360000D03*
D24*
X39720000Y-27660000D03*
X39720000Y-28760000D03*
D23*
X36400000Y-27440000D03*
X35300000Y-27440000D03*
D24*
X39670000Y-23970000D03*
X39670000Y-22870000D03*
X36360000Y-24670000D03*
X36360000Y-25770000D03*
D23*
X35810000Y-20330000D03*
X36910000Y-20330000D03*
D24*
X32820000Y-21170000D03*
X32820000Y-22270000D03*
D23*
X27400000Y-34640000D03*
X26300000Y-34640000D03*
D24*
X20280000Y-32340000D03*
X20280000Y-31240000D03*
D23*
X23600000Y-32560000D03*
X24700000Y-32560000D03*
D24*
X20330000Y-36030000D03*
X20330000Y-37130000D03*
X23640000Y-35330000D03*
X23640000Y-34230000D03*
D23*
X24190000Y-39670000D03*
X23090000Y-39670000D03*
D24*
X27320000Y-38960000D03*
X27320000Y-37860000D03*
D25*
X20410000Y-29680000D03*
X20410000Y-28780000D03*
X20370000Y-23440000D03*
X20370000Y-24340000D03*
D14*
X32700000Y-24650000D03*
X33600000Y-24650000D03*
D25*
X33350000Y-27510000D03*
X33350000Y-28410000D03*
D14*
X33875000Y-26625000D03*
X34775000Y-26625000D03*
D25*
X32380000Y-26870000D03*
X32380000Y-25970000D03*
X35570000Y-28350000D03*
X35570000Y-29250000D03*
D14*
X35390000Y-26530000D03*
X36290000Y-26530000D03*
X32870000Y-23530000D03*
X33770000Y-23530000D03*
D25*
X39590000Y-30320000D03*
X39590000Y-31220000D03*
X39630000Y-36560000D03*
X39630000Y-35660000D03*
D14*
X36240000Y-39640000D03*
X35340000Y-39640000D03*
X27300000Y-35350000D03*
X26400000Y-35350000D03*
D25*
X26650000Y-32490000D03*
X26650000Y-31590000D03*
D14*
X26125000Y-33375000D03*
X25225000Y-33375000D03*
D25*
X27620000Y-33130000D03*
X27620000Y-34030000D03*
X24430000Y-31650000D03*
X24430000Y-30750000D03*
D14*
X24610000Y-33470000D03*
X23710000Y-33470000D03*
X27130000Y-36470000D03*
X26230000Y-36470000D03*
D16*
X29250000Y-39070000D03*
X30750000Y-39070000D03*
X29250000Y-38010000D03*
X30750000Y-38010000D03*
X29250000Y-36940000D03*
X30750000Y-36940000D03*
X29250000Y-35880000D03*
X30750000Y-35880000D03*
X29250000Y-31610000D03*
X30750000Y-31610000D03*
X29250000Y-34820000D03*
X30750000Y-34820000D03*
X29250000Y-33760000D03*
X30750000Y-33760000D03*
X29250000Y-32680000D03*
X30750000Y-32680000D03*
X29250000Y-27360000D03*
X30750000Y-27360000D03*
X29250000Y-28430000D03*
X30750000Y-28430000D03*
X29250000Y-26300000D03*
X30750000Y-26300000D03*
X29250000Y-30550000D03*
X30750000Y-30550000D03*
D26*
X37160000Y-29160000D03*
X37160000Y-27260000D03*
X37660000Y-29160000D03*
X37660000Y-27260000D03*
X38160000Y-29160000D03*
X38160000Y-27260000D03*
X38660000Y-29160000D03*
X38660000Y-27260000D03*
D27*
X37910000Y-28210000D03*
D26*
X37200000Y-25870000D03*
X37200000Y-23970000D03*
X37700000Y-25870000D03*
X37700000Y-23970000D03*
X38200000Y-25870000D03*
X38200000Y-23970000D03*
X38700000Y-25870000D03*
X38700000Y-23970000D03*
D27*
X37950000Y-24920000D03*
D26*
X34010000Y-22820000D03*
X34010000Y-20920000D03*
X34510000Y-22820000D03*
X34510000Y-20920000D03*
X35010000Y-22820000D03*
X35010000Y-20920000D03*
X35510000Y-22820000D03*
X35510000Y-20920000D03*
D27*
X34760000Y-21870000D03*
D26*
X22840000Y-30840000D03*
X22840000Y-32740000D03*
X22340000Y-30840000D03*
X22340000Y-32740000D03*
X21840000Y-30840000D03*
X21840000Y-32740000D03*
X21340000Y-30840000D03*
X21340000Y-32740000D03*
D27*
X22090000Y-31790000D03*
D26*
X22800000Y-34130000D03*
X22800000Y-36030000D03*
X22300000Y-34130000D03*
X22300000Y-36030000D03*
X21800000Y-34130000D03*
X21800000Y-36030000D03*
X21300000Y-34130000D03*
X21300000Y-36030000D03*
D27*
X22050000Y-35080000D03*
D26*
X25990000Y-37180000D03*
X25990000Y-39080000D03*
X25490000Y-37180000D03*
X25490000Y-39080000D03*
X24990000Y-37180000D03*
X24990000Y-39080000D03*
X24490000Y-37180000D03*
X24490000Y-39080000D03*
D27*
X25240000Y-38130000D03*
D14*
X34910000Y-28540000D03*
X34010000Y-28540000D03*
X34546000Y-25581000D03*
X35446000Y-25581000D03*
D25*
X33140000Y-26870000D03*
X33140000Y-25970000D03*
D14*
X25090000Y-31460000D03*
X25990000Y-31460000D03*
X25454000Y-34419000D03*
X24554000Y-34419000D03*
D25*
X26860000Y-33130000D03*
X26860000Y-34030000D03*
D16*
X29250000Y-25240000D03*
X30750000Y-25240000D03*
X29250000Y-23100000D03*
X30750000Y-23100000D03*
X29250000Y-24170000D03*
X30750000Y-24170000D03*
D28*
X34653598Y-32560000D03*
X28885000Y-23840000D03*
X29520000Y-25713598D03*
X26733598Y-26903352D03*
X29380182Y-31014698D03*
X29520000Y-30700000D03*
X29689998Y-30470000D03*
X29430458Y-28740000D03*
X29430458Y-28361410D03*
X29030000Y-33310000D03*
X31782750Y-38776150D03*
X32023598Y-39038600D03*
X31797321Y-36685212D03*
X29448641Y-38270890D03*
X29640000Y-38558600D03*
X28360000Y-39038600D03*
X27990000Y-39030000D03*
X33028612Y-22434777D03*
X33478588Y-21153760D03*
X29660000Y-31200000D03*
X32150000Y-30285178D03*
X31780000Y-30285178D03*
X29266400Y-22050000D03*
X29630000Y-22050000D03*
X29266400Y-21441400D03*
X29650000Y-21441400D03*
X34863598Y-30271010D03*
X31875000Y-36975000D03*
X32844081Y-37912287D03*
X29400000Y-37750002D03*
X29100000Y-37750000D03*
X28750000Y-37725000D03*
X29675000Y-37742199D03*
X32657400Y-35445190D03*
X28280000Y-24490000D03*
X27311211Y-24457853D03*
X32688789Y-24425530D03*
X31810000Y-35980000D03*
X27311211Y-35523337D03*
X31990000Y-24150000D03*
X32900000Y-39000000D03*
X28146416Y-34980000D03*
X27293715Y-39030304D03*
X31250000Y-39500000D03*
X30370000Y-28290000D03*
X30335963Y-28641603D03*
X28041216Y-23087390D03*
X28211045Y-22873486D03*
X28049977Y-31225616D03*
X28049977Y-30760000D03*
X30320000Y-32470022D03*
X30760000Y-35560000D03*
X30340000Y-32850000D03*
X31260000Y-39180000D03*
X30820000Y-39160000D03*
X25450000Y-30750000D03*
X30860000Y-22082801D03*
X31250000Y-22082801D03*
X32470000Y-20320000D03*
X32850000Y-20320000D03*
X30750000Y-20775000D03*
X30350000Y-20800000D03*
X28219534Y-29103199D03*
X27981402Y-29308600D03*
X30775000Y-20350000D03*
X30350000Y-20325000D03*
X34050000Y-29246418D03*
X34467660Y-29166254D03*
X30850000Y-39550000D03*
X25850000Y-30750000D03*
X28147646Y-28444887D03*
X38160000Y-29570000D03*
X31853160Y-31567979D03*
X38160000Y-30430000D03*
X21840000Y-30430000D03*
X28248629Y-26421232D03*
X31753452Y-26419999D03*
X31753441Y-33580005D03*
X28246547Y-33580001D03*
X33471004Y-21814127D03*
X36688801Y-28448496D03*
X28087477Y-25780784D03*
X28025416Y-27476412D03*
X27645150Y-28016353D03*
X31845023Y-25236403D03*
X31944463Y-27476104D03*
X31910751Y-34222163D03*
X31909785Y-32494937D03*
X28102462Y-34246174D03*
X28100000Y-32525000D03*
X38159995Y-26853342D03*
X39450000Y-26800000D03*
X35510000Y-24563586D03*
X32350190Y-27997174D03*
X36565140Y-20474429D03*
X39116402Y-28210000D03*
X36668586Y-23950000D03*
X39156401Y-24974413D03*
X35995454Y-21808588D03*
X39231412Y-26060000D03*
X36219664Y-22509900D03*
X34537306Y-24304305D03*
X39650000Y-23243598D03*
X39675639Y-29503986D03*
X36464802Y-25622675D03*
X33266402Y-26902601D03*
X34653598Y-27410000D03*
X33846401Y-25915754D03*
X38159995Y-33146658D03*
X39450000Y-33200000D03*
X35510000Y-35436414D03*
X32350190Y-32002826D03*
X36565140Y-39525571D03*
X39116402Y-31790000D03*
X36703580Y-31598787D03*
X36668586Y-36050000D03*
X39156401Y-35025587D03*
X35995454Y-38191412D03*
X33470423Y-38178044D03*
X39231412Y-33940000D03*
X36219664Y-37490100D03*
X34537306Y-35695695D03*
X39650000Y-36756402D03*
X39669708Y-30556014D03*
X36464802Y-34377325D03*
X33266402Y-33097399D03*
X33846401Y-34084246D03*
X21840005Y-33146658D03*
X20550000Y-33200000D03*
X24490000Y-35436414D03*
X27649810Y-32002826D03*
X23434860Y-39525571D03*
X20883598Y-31790000D03*
X23296420Y-31598787D03*
X23331414Y-36050000D03*
X20843599Y-35025587D03*
X24004546Y-38191412D03*
X26529577Y-38178044D03*
X20768588Y-33940000D03*
X23780336Y-37490100D03*
X25462694Y-35695695D03*
X20350000Y-36756402D03*
X20330292Y-30556014D03*
X23535198Y-34377325D03*
X27231996Y-37808690D03*
X26806832Y-37547432D03*
X26733598Y-33097399D03*
X25346402Y-32590000D03*
X26153599Y-34084246D03*
X26153599Y-25915754D03*
X25136402Y-29728990D03*
X25346402Y-27410000D03*
X27231996Y-22191310D03*
X23535198Y-25622675D03*
X27307282Y-20983263D03*
X20330292Y-29443986D03*
X20350000Y-23243598D03*
X25462694Y-24304305D03*
X27150000Y-20320000D03*
X27500000Y-20320000D03*
X23780336Y-22509900D03*
X20768588Y-26060000D03*
X21840000Y-29570000D03*
X26529577Y-21821956D03*
X24004546Y-21808588D03*
X20843599Y-24974413D03*
X23331414Y-23950000D03*
X23296420Y-28401213D03*
X20883598Y-28210000D03*
X23434860Y-20474429D03*
X24490000Y-24563586D03*
X20550000Y-26800000D03*
X21840005Y-26853342D03*
D29*
X25136402Y-30271010D02*
X25136402Y-29728990D01*
X36052881Y-28778601D02*
X35148601Y-28778601D01*
X35148601Y-28778601D02*
X34910000Y-28540000D01*
X34710000Y-31780000D02*
X34710000Y-32503598D01*
X34710000Y-32503598D02*
X34653598Y-32560000D01*
X34910000Y-28540000D02*
X34910000Y-28894344D01*
X34910000Y-28894344D02*
X34955586Y-28939930D01*
X34955586Y-28939930D02*
X34955586Y-29819812D01*
D30*
X23898599Y-24255713D02*
X23980000Y-24174312D01*
X25190912Y-23619812D02*
X25668037Y-23619812D01*
X28748607Y-23811393D02*
X28851402Y-23708598D01*
X23980000Y-24046418D02*
X24249305Y-23777113D01*
X23535198Y-25622675D02*
X23535198Y-25263465D01*
X23535198Y-25263465D02*
X23622220Y-25176443D01*
X25668037Y-23619812D02*
X25801925Y-23753700D01*
X25033612Y-23777112D02*
X25190912Y-23619812D01*
X24249305Y-23777113D02*
X25033612Y-23777112D01*
X23622220Y-24577780D02*
X23898599Y-24301401D01*
X23898599Y-24301401D02*
X23898599Y-24255713D01*
X23622220Y-25176443D02*
X23622220Y-24577780D01*
X25801925Y-23753700D02*
X27675644Y-23753700D01*
X23980000Y-24174312D02*
X23980000Y-24046418D01*
X27675644Y-23753700D02*
X27733337Y-23811393D01*
X27733337Y-23811393D02*
X28748607Y-23811393D01*
X32023598Y-39038600D02*
X32023598Y-39016998D01*
X32023598Y-39016998D02*
X31782750Y-38776150D01*
X32258599Y-38803599D02*
X32023598Y-39038600D01*
X32258599Y-38692127D02*
X32258599Y-38803599D01*
X32590082Y-38166286D02*
X32590082Y-38360644D01*
X32590082Y-38360644D02*
X32258599Y-38692127D01*
X32217190Y-36685212D02*
X32156531Y-36685212D01*
X34222776Y-36271001D02*
X32631401Y-36271001D01*
X32156531Y-36685212D02*
X31797321Y-36685212D01*
X32631401Y-36271001D02*
X32217190Y-36685212D01*
X34331963Y-36380188D02*
X34222776Y-36271001D01*
X27990000Y-39030000D02*
X28790000Y-39030000D01*
D29*
X34297759Y-21407759D02*
X33732587Y-21407759D01*
X32820000Y-22270000D02*
X32863835Y-22270000D01*
X33732587Y-21407759D02*
X33478588Y-21153760D01*
X34760000Y-21870000D02*
X34297759Y-21407759D01*
X32863835Y-22270000D02*
X33028612Y-22434777D01*
D30*
X32150000Y-30285178D02*
X31780000Y-30285178D01*
X27678599Y-21691401D02*
X28766401Y-21691401D01*
X23885000Y-29950000D02*
X28800000Y-29950000D01*
X22795000Y-28860000D02*
X23885000Y-29950000D01*
X22735000Y-28860000D02*
X22795000Y-28860000D01*
D29*
X34863598Y-29911800D02*
X34863598Y-30271010D01*
X34955586Y-29819812D02*
X34863598Y-29911800D01*
D30*
X36960000Y-30290000D02*
X32150000Y-30285178D01*
X31950000Y-36900000D02*
X31875000Y-36975000D01*
X31950000Y-36615790D02*
X31950000Y-36900000D01*
X32590082Y-38166286D02*
X32844081Y-37912287D01*
X33193168Y-37547432D02*
X32844081Y-37896519D01*
X32844081Y-37896519D02*
X32844081Y-37912287D01*
X29650000Y-39038600D02*
X29350000Y-39038600D01*
D29*
X24958601Y-30448811D02*
X25136402Y-30271010D01*
X25090000Y-31460000D02*
X24958601Y-31328601D01*
X24958601Y-31328601D02*
X24958601Y-30448811D01*
X32657400Y-35445190D02*
X32770811Y-35558601D01*
X32770811Y-35558601D02*
X34042881Y-35558601D01*
X34042881Y-35558601D02*
X34088601Y-35512881D01*
X34088601Y-35512881D02*
X34088601Y-35001399D01*
X34088601Y-35001399D02*
X34210000Y-34880000D01*
X31810000Y-35980000D02*
X32193999Y-35596001D01*
X32193999Y-35596001D02*
X32506589Y-35596001D01*
X32506589Y-35596001D02*
X32657400Y-35445190D01*
X27311211Y-24457853D02*
X28247853Y-24457853D01*
X28247853Y-24457853D02*
X28280000Y-24490000D01*
X25790000Y-24684250D02*
X26250166Y-24224084D01*
X27077442Y-24224084D02*
X27311211Y-24457853D01*
X25790000Y-25120000D02*
X25790000Y-24684250D01*
X26250166Y-24224084D02*
X27077442Y-24224084D01*
X32600000Y-24514319D02*
X32688789Y-24425530D01*
X32600000Y-25360000D02*
X32600000Y-24514319D01*
X27400000Y-34640000D02*
X27400000Y-35434548D01*
X27400000Y-35434548D02*
X27311211Y-35523337D01*
X32243999Y-23896001D02*
X31990000Y-24150000D01*
X32341399Y-23798601D02*
X32243999Y-23896001D01*
X32341399Y-22701399D02*
X32341399Y-23798601D01*
X27467556Y-37330000D02*
X27751482Y-37330000D01*
X27798601Y-38342881D02*
X27293715Y-38847767D01*
X27293715Y-38847767D02*
X27293715Y-39030304D01*
X27798601Y-37377119D02*
X27798601Y-38342881D01*
X27751482Y-37330000D02*
X27798601Y-37377119D01*
X33422400Y-20517600D02*
X32820000Y-21120000D01*
X33340000Y-23934683D02*
X33463918Y-24058601D01*
X33340000Y-23088518D02*
X33340000Y-23934683D01*
X34068760Y-24058601D02*
X34305657Y-23821704D01*
X34305657Y-23821704D02*
X34768955Y-23821704D01*
X33732600Y-20517600D02*
X33422400Y-20517600D01*
X35027399Y-24795235D02*
X35278351Y-25046187D01*
X33202202Y-22950720D02*
X33340000Y-23088518D01*
X34768955Y-23821704D02*
X35027399Y-24080148D01*
X35278351Y-25046187D02*
X35861413Y-25046187D01*
X32341399Y-22701399D02*
X32590720Y-22950720D01*
X35027399Y-24080148D02*
X35027399Y-24795235D01*
X32590720Y-22950720D02*
X33202202Y-22950720D01*
X34010000Y-20795000D02*
X33732600Y-20517600D01*
X32820000Y-21120000D02*
X32820000Y-21170000D01*
X34010000Y-20920000D02*
X34010000Y-20795000D01*
X33463918Y-24058601D02*
X34068760Y-24058601D01*
X28146416Y-36291140D02*
X28146416Y-35339210D01*
X27287556Y-37150000D02*
X28146416Y-36291140D01*
X28146416Y-35339210D02*
X28146416Y-34980000D01*
X32341399Y-21698601D02*
X32341399Y-22701399D01*
X32820000Y-21170000D02*
X32820000Y-21220000D01*
X32820000Y-21220000D02*
X32341399Y-21698601D01*
X27186836Y-37049280D02*
X27287556Y-37150000D01*
X27287556Y-37150000D02*
X27467556Y-37330000D01*
X25990000Y-39080000D02*
X27244019Y-39080000D01*
X27244019Y-39080000D02*
X27293715Y-39030304D01*
D30*
X30875000Y-39680000D02*
X31128999Y-39426001D01*
X31176001Y-39426001D02*
X31250000Y-39500000D01*
X31128999Y-39426001D02*
X31176001Y-39426001D01*
D29*
X30750000Y-38010000D02*
X31350128Y-38010000D01*
X31350128Y-38010000D02*
X31474877Y-38134749D01*
D30*
X37265000Y-32440000D02*
X36560000Y-32440000D01*
X36560000Y-32440000D02*
X36047401Y-31927401D01*
X22695000Y-24270000D02*
X22690011Y-24265011D01*
X25925849Y-22997402D02*
X26026361Y-23097914D01*
X26026361Y-23097914D02*
X27671482Y-23097914D01*
X27671482Y-23097914D02*
X27682006Y-23087390D01*
X24933101Y-22997401D02*
X25925849Y-22997402D01*
X28211045Y-22873486D02*
X28041216Y-23043315D01*
X22690011Y-24265011D02*
X22690011Y-23629989D01*
X28041216Y-23043315D02*
X28041216Y-23087390D01*
X22690011Y-23629989D02*
X23165298Y-23154702D01*
X24775800Y-23154702D02*
X24933101Y-22997401D01*
X23165298Y-23154702D02*
X24775800Y-23154702D01*
X27682006Y-23087390D02*
X28041216Y-23087390D01*
X28049977Y-31225616D02*
X28049977Y-30760000D01*
X28039977Y-30750000D02*
X28049977Y-30760000D01*
X25450000Y-30750000D02*
X28039977Y-30750000D01*
X31967672Y-38102834D02*
X31935757Y-38134749D01*
X31935757Y-38134749D02*
X31474877Y-38134749D01*
X32918718Y-36906031D02*
X31967672Y-37857077D01*
X32953465Y-36906031D02*
X32918718Y-36906031D01*
X31967672Y-37857077D02*
X31967672Y-38102834D01*
X32953465Y-36906031D02*
X32865684Y-36993812D01*
X33977584Y-36906031D02*
X32953465Y-36906031D01*
X34074151Y-37002598D02*
X33977584Y-36906031D01*
X32865684Y-36993812D02*
X32805464Y-36993812D01*
X32850000Y-20320000D02*
X31795000Y-20320000D01*
X28014133Y-29308600D02*
X28219534Y-29103199D01*
X27981402Y-29308600D02*
X28014133Y-29308600D01*
X27737387Y-29064585D02*
X27981402Y-29308600D01*
X26818014Y-29064585D02*
X27737387Y-29064585D01*
X26537289Y-29064585D02*
X26818014Y-29064585D01*
X26818014Y-29064585D02*
X26833341Y-29079912D01*
X23440000Y-27560000D02*
X23952599Y-28072599D01*
X22735000Y-27560000D02*
X23440000Y-27560000D01*
X23952599Y-28072599D02*
X23952599Y-29087590D01*
X26514284Y-29087590D02*
X26537289Y-29064585D01*
X23952599Y-29087590D02*
X26514284Y-29087590D01*
X30977421Y-30962411D02*
X30723422Y-31216410D01*
X33173149Y-30926578D02*
X31013254Y-30926578D01*
X33181986Y-30935415D02*
X33173149Y-30926578D01*
X31013254Y-30926578D02*
X30977421Y-30962411D01*
X34387496Y-29246418D02*
X34467660Y-29166254D01*
X34050000Y-29246418D02*
X34387496Y-29246418D01*
X33632371Y-29664047D02*
X33612101Y-29643777D01*
X33612101Y-29643777D02*
X31306223Y-29643777D01*
X34050000Y-29246418D02*
X33632371Y-29664047D01*
X35224200Y-36845298D02*
X35066899Y-37002599D01*
X37305000Y-35730000D02*
X37309989Y-35734989D01*
X34074151Y-37002598D02*
X33977575Y-36906022D01*
X35066899Y-37002599D02*
X34074151Y-37002598D01*
X36834702Y-36845298D02*
X35224200Y-36845298D01*
X37309989Y-36370011D02*
X36834702Y-36845298D01*
X37309989Y-35734989D02*
X37309989Y-36370011D01*
X34020000Y-39680000D02*
X30875000Y-39680000D01*
D29*
X26957119Y-28598601D02*
X27993932Y-28598601D01*
X26790000Y-28220000D02*
X26790000Y-28431482D01*
X27993932Y-28598601D02*
X28147646Y-28444887D01*
X26790000Y-28431482D02*
X26957119Y-28598601D01*
X19550000Y-21750000D02*
X19799999Y-21999999D01*
X19799999Y-21999999D02*
X19946647Y-21999999D01*
X19946647Y-21999999D02*
X20718323Y-21228323D01*
X23363145Y-21740000D02*
X23363145Y-22116461D01*
X23363145Y-22116461D02*
X23387401Y-22140717D01*
X32019740Y-31401399D02*
X31853160Y-31567979D01*
X33042881Y-31401399D02*
X32019740Y-31401399D01*
X33210000Y-31568518D02*
X33042881Y-31401399D01*
X33210000Y-31780000D02*
X33210000Y-31568518D01*
X36612599Y-38729723D02*
X36612599Y-37859283D01*
X21908601Y-30361399D02*
X23147881Y-30361399D01*
X21840000Y-30430000D02*
X21908601Y-30361399D01*
X23147881Y-30361399D02*
X23536482Y-30750000D01*
X23536482Y-30750000D02*
X24430000Y-30750000D01*
X21840000Y-30840000D02*
X21840000Y-30430000D01*
X24365000Y-30840000D02*
X24375000Y-30850000D01*
X24375000Y-30850000D02*
X24375000Y-30805000D01*
X24375000Y-30805000D02*
X24430000Y-30750000D01*
X27590000Y-26420000D02*
X28247397Y-26420000D01*
X28247397Y-26420000D02*
X28248629Y-26421232D01*
X32380000Y-26870000D02*
X32203453Y-26870000D01*
X32203453Y-26870000D02*
X31753452Y-26419999D01*
X31753452Y-26419999D02*
X33669999Y-26419999D01*
X33669999Y-26419999D02*
X33875000Y-26625000D01*
X32410000Y-33580000D02*
X31753446Y-33580000D01*
X31753446Y-33580000D02*
X31753441Y-33580005D01*
X28246547Y-33580001D02*
X28070001Y-33580001D01*
X28070001Y-33580001D02*
X27620000Y-33130000D01*
X27501001Y-33601399D02*
X27620000Y-33482400D01*
X26125000Y-33375000D02*
X26125000Y-33450000D01*
X26125000Y-33450000D02*
X26276399Y-33601399D01*
X26276399Y-33601399D02*
X27501001Y-33601399D01*
X27620000Y-33482400D02*
X27620000Y-33130000D01*
X34010000Y-22695000D02*
X33471004Y-22156004D01*
X34010000Y-22820000D02*
X34010000Y-22695000D01*
X33471004Y-22156004D02*
X33471004Y-21814127D01*
X36688801Y-28448496D02*
X36688801Y-28688801D01*
X36688801Y-28688801D02*
X37160000Y-29160000D01*
X38938601Y-28250000D02*
X39076402Y-28250000D01*
X39076402Y-28250000D02*
X39116402Y-28210000D01*
X38938601Y-28632881D02*
X38938601Y-28250000D01*
X38738999Y-28678601D02*
X38892881Y-28678601D01*
X38892881Y-28678601D02*
X38938601Y-28632881D01*
X27590000Y-25920000D02*
X27704783Y-26034783D01*
X27704783Y-26034783D02*
X27833478Y-26034783D01*
X27833478Y-26034783D02*
X28087477Y-25780784D01*
X27440000Y-28070000D02*
X27493647Y-28016353D01*
X27493647Y-28016353D02*
X27645150Y-28016353D01*
X33171399Y-25586201D02*
X33140000Y-25617600D01*
X32870000Y-23895749D02*
X33171399Y-24197148D01*
X32870000Y-23530000D02*
X32870000Y-23895749D01*
X33140000Y-25617600D02*
X33140000Y-25970000D01*
X33171399Y-24197148D02*
X33171399Y-25586201D01*
X32380000Y-25970000D02*
X32280000Y-25970000D01*
X31845023Y-25535023D02*
X31845023Y-25236403D01*
X32280000Y-25970000D02*
X31845023Y-25535023D01*
X32311717Y-27417039D02*
X31944463Y-27476104D01*
X31952507Y-27417039D02*
X31952507Y-27468060D01*
X31952507Y-27468060D02*
X31944463Y-27476104D01*
X32350190Y-27997174D02*
X32763016Y-28410000D01*
X32763016Y-28410000D02*
X33350000Y-28410000D01*
X32298164Y-33968164D02*
X32164750Y-33968164D01*
X32410000Y-34080000D02*
X32298164Y-33968164D01*
X32164750Y-33968164D02*
X31910751Y-34222163D01*
X32410000Y-32580000D02*
X31994848Y-32580000D01*
X31994848Y-32580000D02*
X31909785Y-32494937D01*
X26860000Y-34382400D02*
X26860000Y-34030000D01*
X26828601Y-34413799D02*
X26860000Y-34382400D01*
X27130000Y-36470000D02*
X27130000Y-36027452D01*
X26828601Y-35726053D02*
X26828601Y-34413799D01*
X27130000Y-36027452D02*
X26828601Y-35726053D01*
X27848463Y-33992175D02*
X28102462Y-34246174D01*
X27657825Y-33992175D02*
X27848463Y-33992175D01*
X27620000Y-34030000D02*
X27657825Y-33992175D01*
X27800000Y-32582961D02*
X28047493Y-32582961D01*
X27688283Y-32582961D02*
X27800000Y-32582961D01*
X28100000Y-32525000D02*
X28042039Y-32582961D01*
X28042039Y-32582961D02*
X27800000Y-32582961D01*
X38160000Y-26853347D02*
X38159995Y-26853342D01*
X38160000Y-27260000D02*
X38160000Y-26853347D01*
X39237119Y-24498601D02*
X39428601Y-24498601D01*
X39189917Y-24451399D02*
X39237119Y-24498601D01*
X38278999Y-24451399D02*
X39189917Y-24451399D01*
X38200000Y-23970000D02*
X38200000Y-24372400D01*
X38200000Y-24372400D02*
X38278999Y-24451399D01*
X39714013Y-26535987D02*
X39450000Y-26800000D01*
X39428601Y-24498601D02*
X39714013Y-24784013D01*
X39714013Y-24784013D02*
X39714013Y-26535987D01*
X35510000Y-23963268D02*
X35510000Y-24204376D01*
X36771399Y-22701869D02*
X35510000Y-23963268D01*
X35010000Y-21322400D02*
X35086201Y-21398601D01*
X35010000Y-20920000D02*
X35010000Y-21322400D01*
X35086201Y-21398601D02*
X35737147Y-21398601D01*
X35510000Y-24204376D02*
X35510000Y-24563586D01*
X35737147Y-21398601D02*
X35946938Y-21188810D01*
X35946938Y-21188810D02*
X36252022Y-21188810D01*
X36771399Y-21708187D02*
X36771399Y-22701869D01*
X36252022Y-21188810D02*
X36771399Y-21708187D01*
X33480000Y-28540000D02*
X33350000Y-28410000D01*
X34010000Y-28540000D02*
X33480000Y-28540000D01*
X34010000Y-28440000D02*
X34010000Y-28540000D01*
X34438601Y-28011399D02*
X34010000Y-28440000D01*
X35292881Y-28011399D02*
X34438601Y-28011399D01*
X35570000Y-28288518D02*
X35292881Y-28011399D01*
X35570000Y-28350000D02*
X35570000Y-28288518D01*
X33350000Y-28410000D02*
X33282713Y-28342713D01*
X35280000Y-26640000D02*
X35390000Y-26530000D01*
X34775000Y-26640000D02*
X35280000Y-26640000D01*
X35446000Y-26474000D02*
X35390000Y-26530000D01*
X35446000Y-25581000D02*
X35446000Y-26474000D01*
X33832881Y-27938601D02*
X32867119Y-27938601D01*
X32821399Y-27892881D02*
X32821399Y-27493810D01*
X32867119Y-27938601D02*
X32821399Y-27892881D01*
X34775000Y-26625000D02*
X34724348Y-26625000D01*
X34724348Y-26625000D02*
X33878601Y-27470747D01*
X32744628Y-27417039D02*
X32311717Y-27417039D01*
X32821399Y-27493810D02*
X32744628Y-27417039D01*
X33878601Y-27892881D02*
X33832881Y-27938601D01*
X33878601Y-27470747D02*
X33878601Y-27892881D01*
X32380000Y-25970000D02*
X33140000Y-25970000D01*
X36765571Y-20474429D02*
X36910000Y-20330000D01*
X36565140Y-20474429D02*
X36765571Y-20474429D01*
X35810000Y-20620000D02*
X35510000Y-20920000D01*
X35810000Y-20330000D02*
X35810000Y-20620000D01*
X39116402Y-28210000D02*
X39100000Y-28210000D01*
X38660000Y-28757600D02*
X38660000Y-29160000D01*
X38738999Y-28678601D02*
X38660000Y-28757600D01*
X36846399Y-24156399D02*
X36668586Y-23978586D01*
X37200000Y-25590000D02*
X36918601Y-25308601D01*
X37200000Y-25870000D02*
X37200000Y-25590000D01*
X36918601Y-25308601D02*
X36918601Y-24448601D01*
X36668586Y-23978586D02*
X36668586Y-23950000D01*
X36918601Y-24448601D02*
X36892119Y-24448601D01*
X36892119Y-24448601D02*
X36846399Y-24402881D01*
X36846399Y-24402881D02*
X36846399Y-24156399D01*
X38700000Y-25870000D02*
X38700000Y-25745000D01*
X39156401Y-25288599D02*
X39156401Y-24974413D01*
X38700000Y-25745000D02*
X39156401Y-25288599D01*
X35801412Y-21808588D02*
X35788601Y-21821399D01*
X35995454Y-21808588D02*
X35801412Y-21808588D01*
X35788601Y-22292881D02*
X35742881Y-22338601D01*
X35788601Y-21821399D02*
X35788601Y-22292881D01*
X35510000Y-22417600D02*
X35510000Y-22820000D01*
X35588999Y-22338601D02*
X35510000Y-22417600D01*
X35742881Y-22338601D02*
X35588999Y-22338601D01*
X32380000Y-26870000D02*
X32203451Y-26870000D01*
X33665001Y-26420001D02*
X33875000Y-26630000D01*
X33875000Y-26985000D02*
X33875000Y-26625000D01*
X33350000Y-27510000D02*
X33875000Y-26985000D01*
X38160000Y-29160000D02*
X38160000Y-29570000D01*
X36022400Y-29250000D02*
X35570000Y-29250000D01*
X36411001Y-29638601D02*
X36022400Y-29250000D01*
X38091399Y-29638601D02*
X36411001Y-29638601D01*
X38160000Y-29570000D02*
X38091399Y-29638601D01*
X38200000Y-25870000D02*
X38200000Y-26075748D01*
X38200000Y-26075748D02*
X38472853Y-26348601D01*
X38472853Y-26348601D02*
X38942811Y-26348601D01*
X38942811Y-26348601D02*
X38977413Y-26313999D01*
X38977413Y-26313999D02*
X39231412Y-26060000D01*
X36642400Y-26530000D02*
X36290000Y-26530000D01*
X36765811Y-26653411D02*
X36642400Y-26530000D01*
X37634137Y-26653411D02*
X36765811Y-26653411D01*
X38200000Y-26087548D02*
X37634137Y-26653411D01*
X38200000Y-25870000D02*
X38200000Y-26087548D01*
X35965665Y-22763899D02*
X36219664Y-22509900D01*
X35965665Y-23076537D02*
X35965665Y-22763899D01*
X35743601Y-23298601D02*
X35965665Y-23076537D01*
X35100000Y-22820000D02*
X35156399Y-22876399D01*
X35010000Y-22820000D02*
X35100000Y-22820000D01*
X35202119Y-23298601D02*
X35743601Y-23298601D01*
X35156399Y-23252881D02*
X35202119Y-23298601D01*
X35156399Y-22876399D02*
X35156399Y-23252881D01*
X34353799Y-23298601D02*
X35202119Y-23298601D01*
X34122400Y-23530000D02*
X34353799Y-23298601D01*
X33770000Y-23530000D02*
X34122400Y-23530000D01*
X34254122Y-24304305D02*
X34195016Y-24363411D01*
X34537306Y-24304305D02*
X34254122Y-24304305D01*
X34195016Y-24363411D02*
X33690000Y-24363411D01*
X33690000Y-24560000D02*
X33600000Y-24650000D01*
X33690000Y-24363411D02*
X33690000Y-24560000D01*
X38700000Y-23970000D02*
X39670000Y-23970000D01*
X39720000Y-22850000D02*
X39720000Y-23173598D01*
X39720000Y-23173598D02*
X39650000Y-23243598D01*
X39669708Y-28810292D02*
X39720000Y-28760000D01*
X39669708Y-29443986D02*
X39669708Y-28810292D01*
X39060000Y-27660000D02*
X38660000Y-27260000D01*
X39720000Y-27660000D02*
X39060000Y-27660000D01*
X37700000Y-23970000D02*
X37200000Y-23970000D01*
X37660000Y-27260000D02*
X37160000Y-27260000D01*
X34510000Y-20920000D02*
X34010000Y-20920000D01*
X36185985Y-24163585D02*
X36440000Y-24417600D01*
X36185985Y-23718351D02*
X36185985Y-24163585D01*
X36037600Y-24870000D02*
X35861413Y-25046187D01*
X36436937Y-23467399D02*
X36185985Y-23718351D01*
X37099799Y-23467399D02*
X36436937Y-23467399D01*
X37200000Y-23970000D02*
X37200000Y-23567600D01*
X37200000Y-23567600D02*
X37099799Y-23467399D01*
X36440000Y-24417600D02*
X36440000Y-24870000D01*
X36440000Y-24870000D02*
X36037600Y-24870000D01*
X36580000Y-27260000D02*
X36400000Y-27440000D01*
X37160000Y-27260000D02*
X36580000Y-27260000D01*
X35874601Y-25059375D02*
X35861413Y-25046187D01*
X35874601Y-26063881D02*
X35874601Y-25059375D01*
X35818601Y-26119881D02*
X35874601Y-26063881D01*
X35818601Y-26970083D02*
X35818601Y-26119881D01*
X36288518Y-27440000D02*
X35818601Y-26970083D01*
X36400000Y-27440000D02*
X36288518Y-27440000D01*
X37700000Y-25170000D02*
X37950000Y-24920000D01*
X37700000Y-25870000D02*
X37700000Y-25170000D01*
X37660000Y-28460000D02*
X37910000Y-28210000D01*
X37660000Y-29160000D02*
X37660000Y-28460000D01*
X36440000Y-25647477D02*
X36464802Y-25622675D01*
X36440000Y-25970000D02*
X36440000Y-25647477D01*
X34510000Y-22120000D02*
X34760000Y-21870000D01*
X34510000Y-22820000D02*
X34510000Y-22120000D01*
X35871399Y-27872881D02*
X35871399Y-27480000D01*
X35831399Y-27440000D02*
X35300000Y-27440000D01*
X35917119Y-27918601D02*
X35871399Y-27872881D01*
X37910000Y-28210000D02*
X37618601Y-27918601D01*
X35871399Y-27480000D02*
X35831399Y-27440000D01*
X37618601Y-27918601D02*
X36250000Y-27918601D01*
X33140000Y-26870000D02*
X33233801Y-26870000D01*
X33233801Y-26870000D02*
X33266402Y-26902601D01*
X37700000Y-26156482D02*
X37507881Y-26348601D01*
X37700000Y-25870000D02*
X37700000Y-26156482D01*
X36820000Y-25770000D02*
X36360000Y-25770000D01*
X37507881Y-26348601D02*
X36892119Y-26348601D01*
X36892119Y-26348601D02*
X36846399Y-26302881D01*
X36846399Y-26302881D02*
X36846399Y-25796399D01*
X36846399Y-25796399D02*
X36820000Y-25770000D01*
X35300000Y-27440000D02*
X34730000Y-27440000D01*
X36170000Y-28661482D02*
X36052881Y-28778601D01*
X36170000Y-27918601D02*
X36170000Y-28661482D01*
X36170000Y-27918601D02*
X35917119Y-27918601D01*
X36250000Y-27918601D02*
X36170000Y-27918601D01*
X33700000Y-25360000D02*
X33700000Y-25769353D01*
X33700000Y-25769353D02*
X33846401Y-25915754D01*
X34211246Y-25915754D02*
X34546000Y-25581000D01*
X33846401Y-25915754D02*
X34211246Y-25915754D01*
X35510000Y-33080000D02*
X38093337Y-33080000D01*
X38093337Y-33080000D02*
X38159995Y-33146658D01*
X36112400Y-33580000D02*
X35510000Y-33580000D01*
X38251649Y-33872601D02*
X36405001Y-33872601D01*
X36405001Y-33872601D02*
X36112400Y-33580000D01*
X38924250Y-33200000D02*
X38251649Y-33872601D01*
X39450000Y-33200000D02*
X38924250Y-33200000D01*
X35510000Y-34080000D02*
X35718204Y-34080000D01*
X35718204Y-34080000D02*
X35888602Y-34250398D01*
X35888602Y-34250398D02*
X35888602Y-35136075D01*
X35588263Y-35436414D02*
X35510000Y-35436414D01*
X35888602Y-35136075D02*
X35588263Y-35436414D01*
X32560000Y-31930000D02*
X32487174Y-32002826D01*
X32487174Y-32002826D02*
X32350190Y-32002826D01*
X36240000Y-39580000D02*
X36510711Y-39580000D01*
X36510711Y-39580000D02*
X36565140Y-39525571D01*
X39095000Y-31790000D02*
X39116402Y-31790000D01*
X36703580Y-31615980D02*
X36703580Y-31598787D01*
X37265000Y-31790000D02*
X36877600Y-31790000D01*
X36877600Y-31790000D02*
X36703580Y-31615980D01*
X36917600Y-35080000D02*
X36841390Y-35156210D01*
X37305000Y-35080000D02*
X36917600Y-35080000D01*
X36841390Y-35156210D02*
X36841390Y-35998610D01*
X36841390Y-35998610D02*
X36790000Y-36050000D01*
X36790000Y-36050000D02*
X36668586Y-36050000D01*
X39135000Y-35046988D02*
X39156401Y-35025587D01*
X39135000Y-35080000D02*
X39135000Y-35046988D01*
X35945000Y-38130000D02*
X35945000Y-38135958D01*
X35945000Y-38135958D02*
X36000454Y-38191412D01*
X33552379Y-38260000D02*
X33470423Y-38178044D01*
X34145000Y-38260000D02*
X33552379Y-38260000D01*
D30*
X39103599Y-31148599D02*
X39095000Y-31140000D01*
X39424275Y-31148599D02*
X39103599Y-31148599D01*
X39757803Y-31482127D02*
X39424275Y-31148599D01*
X39415676Y-32440000D02*
X39757803Y-32097873D01*
X39095000Y-32440000D02*
X39415676Y-32440000D01*
X39757803Y-31830000D02*
X39757803Y-31482127D01*
X39757803Y-32097873D02*
X39757803Y-31830000D01*
D29*
X38160000Y-31285000D02*
X38180000Y-31305000D01*
X38160000Y-30430000D02*
X38160000Y-31285000D01*
D30*
X38345000Y-31140000D02*
X39095000Y-31140000D01*
X38180000Y-31305000D02*
X38345000Y-31140000D01*
X38385000Y-34430000D02*
X38220000Y-34595000D01*
X39592322Y-35730000D02*
X39135000Y-35730000D01*
X39797803Y-35524519D02*
X39592322Y-35730000D01*
D29*
X39987803Y-35250000D02*
X40450000Y-35250000D01*
X39797803Y-35060000D02*
X39987803Y-35250000D01*
D30*
X39797803Y-35060000D02*
X39797803Y-35524519D01*
X39797803Y-34703529D02*
X39797803Y-35060000D01*
X38963682Y-34406212D02*
X38985708Y-34384186D01*
X38220000Y-34595000D02*
X38408788Y-34406212D01*
X38985708Y-34384186D02*
X39478460Y-34384186D01*
X39478460Y-34384186D02*
X39797803Y-34703529D01*
X38408788Y-34406212D02*
X38963682Y-34406212D01*
D29*
X38977413Y-34193999D02*
X39231412Y-33940000D01*
X38977413Y-34375891D02*
X38977413Y-34193999D01*
X38985708Y-34384186D02*
X38977413Y-34375891D01*
D30*
X37334047Y-39387401D02*
X36612599Y-38665953D01*
X38665953Y-39387401D02*
X37334047Y-39387401D01*
X39281677Y-38771677D02*
X38665953Y-39387401D01*
D29*
X35955100Y-37490100D02*
X36219664Y-37490100D01*
X35945000Y-37480000D02*
X35955100Y-37490100D01*
D30*
X36612599Y-38523541D02*
X36636855Y-38499285D01*
X36612599Y-38665953D02*
X36612599Y-38523541D01*
X36636855Y-38499285D02*
X36636855Y-38260000D01*
X35687581Y-37550011D02*
X36303327Y-37550011D01*
X35060000Y-37775000D02*
X35462592Y-37775000D01*
X35462592Y-37775000D02*
X35687581Y-37550011D01*
X36303327Y-37550011D02*
X36612599Y-37859283D01*
X36612599Y-37859283D02*
X36612599Y-38010000D01*
X36612599Y-38729723D02*
X36612599Y-38523541D01*
X36519921Y-38822401D02*
X36612599Y-38729723D01*
X36347599Y-38822401D02*
X36519921Y-38822401D01*
X36260000Y-38910000D02*
X36347599Y-38822401D01*
X35975000Y-38910000D02*
X36260000Y-38910000D01*
D29*
X35975000Y-39065000D02*
X35975000Y-38910000D01*
X35800000Y-39240000D02*
X35975000Y-39065000D01*
X35800000Y-39532400D02*
X35800000Y-39240000D01*
X35340000Y-39640000D02*
X35692400Y-39640000D01*
X35692400Y-39640000D02*
X35800000Y-39532400D01*
D30*
X38055000Y-35730000D02*
X38220000Y-35565000D01*
X37305000Y-35730000D02*
X38055000Y-35730000D01*
X34865000Y-38780000D02*
X35030000Y-38615000D01*
X34895000Y-38910000D02*
X34145000Y-38910000D01*
X35060000Y-38745000D02*
X34895000Y-38910000D01*
X34020000Y-39680000D02*
X33860000Y-39680000D01*
X34145000Y-39555000D02*
X34020000Y-39680000D01*
X34145000Y-38910000D02*
X34145000Y-39555000D01*
X38015000Y-32440000D02*
X38180000Y-32275000D01*
X37265000Y-32440000D02*
X38015000Y-32440000D01*
X36047401Y-31927401D02*
X36047401Y-30912410D01*
X36047401Y-30912410D02*
X33485716Y-30912410D01*
X33485716Y-30912410D02*
X33462711Y-30935415D01*
X33462711Y-30935415D02*
X33181986Y-30935415D01*
X33181986Y-30935415D02*
X33166659Y-30920088D01*
D29*
X34710000Y-35523001D02*
X34537306Y-35695695D01*
X34710000Y-34880000D02*
X34710000Y-35523001D01*
X39590000Y-30310000D02*
X39590000Y-30476306D01*
X39590000Y-30476306D02*
X39669708Y-30556014D01*
D30*
X37305000Y-34430000D02*
X36600000Y-34430000D01*
X36600000Y-34430000D02*
X36464802Y-34377325D01*
D29*
X33960000Y-34027600D02*
X33960000Y-33330000D01*
X33710000Y-34277600D02*
X33960000Y-34027600D01*
X33710000Y-34880000D02*
X33710000Y-34277600D01*
D30*
X37265000Y-31140000D02*
X37265000Y-30789213D01*
X37265000Y-30789213D02*
X37265000Y-30595000D01*
X37265000Y-30595000D02*
X36960000Y-30290000D01*
X33816342Y-37625009D02*
X33723214Y-37531881D01*
X33723214Y-37531881D02*
X33208719Y-37531881D01*
X34145000Y-37625009D02*
X33816342Y-37625009D01*
D29*
X34145000Y-37610000D02*
X33255736Y-37610000D01*
X33255736Y-37610000D02*
X33193168Y-37547432D01*
D30*
X33208719Y-37531881D02*
X33193168Y-37547432D01*
X36960000Y-30290000D02*
X36948687Y-30278687D01*
D29*
X33960000Y-33132400D02*
X33960000Y-33330000D01*
D30*
X36101401Y-35744287D02*
X36020000Y-35825688D01*
X36020000Y-35953582D02*
X35750695Y-36222887D01*
X36020000Y-35825688D02*
X36020000Y-35953582D01*
X34966388Y-36222888D02*
X34809088Y-36380188D01*
X36101401Y-35698599D02*
X36101401Y-35744287D01*
X36377780Y-35422220D02*
X36101401Y-35698599D01*
X36377780Y-34823557D02*
X36377780Y-35422220D01*
X36464802Y-34736535D02*
X36377780Y-34823557D01*
X34331963Y-36380188D02*
X34235386Y-36283611D01*
X36464802Y-34377325D02*
X36464802Y-34736535D01*
X35750695Y-36222887D02*
X34966388Y-36222888D01*
X34809088Y-36380188D02*
X34331963Y-36380188D01*
D29*
X21840000Y-33146653D02*
X21840005Y-33146658D01*
X21840000Y-32740000D02*
X21840000Y-33146653D01*
X20762881Y-35501399D02*
X20571399Y-35501399D01*
X20810083Y-35548601D02*
X20762881Y-35501399D01*
X21721001Y-35548601D02*
X20810083Y-35548601D01*
X21800000Y-36030000D02*
X21800000Y-35627600D01*
X21800000Y-35627600D02*
X21721001Y-35548601D01*
X20285987Y-33464013D02*
X20550000Y-33200000D01*
X20571399Y-35501399D02*
X20285987Y-35215987D01*
X20285987Y-35215987D02*
X20285987Y-33464013D01*
X24490000Y-36036732D02*
X24490000Y-35795624D01*
X23228601Y-37298131D02*
X24490000Y-36036732D01*
X24990000Y-38677600D02*
X24913799Y-38601399D01*
X24990000Y-39080000D02*
X24990000Y-38677600D01*
X24913799Y-38601399D02*
X24262853Y-38601399D01*
X24490000Y-35795624D02*
X24490000Y-35436414D01*
X24262853Y-38601399D02*
X24053062Y-38811190D01*
X24053062Y-38811190D02*
X23747978Y-38811190D01*
X23228601Y-38291813D02*
X23228601Y-37298131D01*
X23747978Y-38811190D02*
X23228601Y-38291813D01*
X26520000Y-31460000D02*
X26650000Y-31590000D01*
X25990000Y-31460000D02*
X26520000Y-31460000D01*
X25990000Y-31560000D02*
X25990000Y-31460000D01*
X25561399Y-31988601D02*
X25990000Y-31560000D01*
X24707119Y-31988601D02*
X25561399Y-31988601D01*
X24430000Y-31711482D02*
X24707119Y-31988601D01*
X24430000Y-31650000D02*
X24430000Y-31711482D01*
X26650000Y-31590000D02*
X26717287Y-31657287D01*
X27304271Y-31657287D02*
X27395811Y-31748827D01*
X27395811Y-31748827D02*
X27649810Y-32002826D01*
X26717287Y-31657287D02*
X27304271Y-31657287D01*
X24720000Y-33360000D02*
X24610000Y-33470000D01*
X25225000Y-33360000D02*
X24720000Y-33360000D01*
X24554000Y-33526000D02*
X24610000Y-33470000D01*
X24554000Y-34419000D02*
X24554000Y-33526000D01*
X26167119Y-32061399D02*
X27132881Y-32061399D01*
X27178601Y-32107119D02*
X27178601Y-32506190D01*
X27132881Y-32061399D02*
X27178601Y-32107119D01*
X25225000Y-33375000D02*
X25275652Y-33375000D01*
X25275652Y-33375000D02*
X26121399Y-32529253D01*
X27255372Y-32582961D02*
X27688283Y-32582961D01*
X27178601Y-32506190D02*
X27255372Y-32582961D01*
X26121399Y-32107119D02*
X26167119Y-32061399D01*
X26121399Y-32529253D02*
X26121399Y-32107119D01*
X27620000Y-34030000D02*
X26860000Y-34030000D01*
X23234429Y-39525571D02*
X23090000Y-39670000D01*
X23434860Y-39525571D02*
X23234429Y-39525571D01*
X24190000Y-39380000D02*
X24490000Y-39080000D01*
X24190000Y-39670000D02*
X24190000Y-39380000D01*
X20900000Y-31790000D02*
X21061399Y-31628601D01*
X20883598Y-31790000D02*
X20900000Y-31790000D01*
X21061399Y-31367119D02*
X21107119Y-31321399D01*
X21061399Y-31628601D02*
X21061399Y-31367119D01*
X21340000Y-31242400D02*
X21340000Y-30840000D01*
X21261001Y-31321399D02*
X21340000Y-31242400D01*
X21107119Y-31321399D02*
X21261001Y-31321399D01*
X22840000Y-30840000D02*
X22840000Y-31142367D01*
X23042421Y-31344788D02*
X23296420Y-31598787D01*
X22840000Y-31142367D02*
X23042421Y-31344788D01*
X23153601Y-35843601D02*
X23331414Y-36021414D01*
X22800000Y-34410000D02*
X23081399Y-34691399D01*
X22800000Y-34130000D02*
X22800000Y-34410000D01*
X23081399Y-34691399D02*
X23081399Y-35551399D01*
X23331414Y-36021414D02*
X23331414Y-36050000D01*
X23081399Y-35551399D02*
X23107881Y-35551399D01*
X23107881Y-35551399D02*
X23153601Y-35597119D01*
X23153601Y-35597119D02*
X23153601Y-35843601D01*
X21300000Y-34130000D02*
X21300000Y-34255000D01*
X20843599Y-34711401D02*
X20843599Y-35025587D01*
X21300000Y-34255000D02*
X20843599Y-34711401D01*
X24198588Y-38191412D02*
X24211399Y-38178601D01*
X24004546Y-38191412D02*
X24198588Y-38191412D01*
X24211399Y-37707119D02*
X24257119Y-37661399D01*
X24211399Y-38178601D02*
X24211399Y-37707119D01*
X24490000Y-37582400D02*
X24490000Y-37180000D01*
X24411001Y-37661399D02*
X24490000Y-37582400D01*
X24257119Y-37661399D02*
X24411001Y-37661399D01*
X26275578Y-37590578D02*
X26275578Y-37924045D01*
X25990000Y-37180000D02*
X25990000Y-37305000D01*
X25990000Y-37305000D02*
X26275578Y-37590578D01*
X26275578Y-37924045D02*
X26529577Y-38178044D01*
X27620000Y-33130000D02*
X27796549Y-33130000D01*
X26334999Y-33579999D02*
X26125000Y-33370000D01*
X26125000Y-33015000D02*
X26125000Y-33375000D01*
X26650000Y-32490000D02*
X26125000Y-33015000D01*
X21800000Y-34130000D02*
X21800000Y-33924252D01*
X21800000Y-33924252D02*
X21527147Y-33651399D01*
X21527147Y-33651399D02*
X21057189Y-33651399D01*
X21057189Y-33651399D02*
X21022587Y-33686001D01*
X21022587Y-33686001D02*
X20768588Y-33940000D01*
X23357600Y-33470000D02*
X23710000Y-33470000D01*
X23234189Y-33346589D02*
X23357600Y-33470000D01*
X22365863Y-33346589D02*
X23234189Y-33346589D01*
X21800000Y-33912452D02*
X22365863Y-33346589D01*
X21800000Y-34130000D02*
X21800000Y-33912452D01*
X24034335Y-37236101D02*
X23780336Y-37490100D01*
X24034335Y-36923463D02*
X24034335Y-37236101D01*
X24256399Y-36701399D02*
X24034335Y-36923463D01*
X24900000Y-37180000D02*
X24843601Y-37123601D01*
X24990000Y-37180000D02*
X24900000Y-37180000D01*
X24797881Y-36701399D02*
X24256399Y-36701399D01*
X24843601Y-36747119D02*
X24797881Y-36701399D01*
X24843601Y-37123601D02*
X24843601Y-36747119D01*
X25646201Y-36701399D02*
X24797881Y-36701399D01*
X25877600Y-36470000D02*
X25646201Y-36701399D01*
X26230000Y-36470000D02*
X25877600Y-36470000D01*
X25745878Y-35695695D02*
X25804984Y-35636589D01*
X25462694Y-35695695D02*
X25745878Y-35695695D01*
X25804984Y-35636589D02*
X26310000Y-35636589D01*
X26310000Y-35440000D02*
X26400000Y-35350000D01*
X26310000Y-35636589D02*
X26310000Y-35440000D01*
X21300000Y-36030000D02*
X20330000Y-36030000D01*
X20280000Y-37150000D02*
X20280000Y-36826402D01*
X20280000Y-36826402D02*
X20350000Y-36756402D01*
X20330292Y-31189708D02*
X20280000Y-31240000D01*
X20330292Y-30556014D02*
X20330292Y-31189708D01*
X20940000Y-32340000D02*
X21340000Y-32740000D01*
X20280000Y-32340000D02*
X20940000Y-32340000D01*
X22300000Y-36030000D02*
X22800000Y-36030000D01*
X22340000Y-32740000D02*
X22840000Y-32740000D01*
X25490000Y-39080000D02*
X25990000Y-39080000D01*
X27467556Y-37330000D02*
X27463645Y-37326089D01*
X26797798Y-37049280D02*
X27186836Y-37049280D01*
X26660000Y-36911482D02*
X26797798Y-37049280D01*
X26660000Y-35988518D02*
X26660000Y-36911482D01*
X26612881Y-35941399D02*
X26660000Y-35988518D01*
X23814015Y-35836415D02*
X23560000Y-35582400D01*
X23814015Y-36281649D02*
X23814015Y-35836415D01*
X23962400Y-35130000D02*
X24138587Y-34953813D01*
X23563063Y-36532601D02*
X23814015Y-36281649D01*
X22900201Y-36532601D02*
X23563063Y-36532601D01*
X22800000Y-36030000D02*
X22800000Y-36432400D01*
X24972601Y-35204765D02*
X24972601Y-35919852D01*
X24972601Y-35919852D02*
X25231045Y-36178296D01*
X22800000Y-36432400D02*
X22900201Y-36532601D01*
X23560000Y-35582400D02*
X23560000Y-35130000D01*
X25931240Y-35941399D02*
X26612881Y-35941399D01*
X23560000Y-35130000D02*
X23962400Y-35130000D01*
X24721649Y-34953813D02*
X24972601Y-35204765D01*
X25231045Y-36178296D02*
X25694343Y-36178296D01*
X25694343Y-36178296D02*
X25931240Y-35941399D01*
X24138587Y-34953813D02*
X24721649Y-34953813D01*
X23420000Y-32740000D02*
X23600000Y-32560000D01*
X22840000Y-32740000D02*
X23420000Y-32740000D01*
X24125399Y-34940625D02*
X24138587Y-34953813D01*
X24125399Y-33936119D02*
X24125399Y-34940625D01*
X24181399Y-33880119D02*
X24125399Y-33936119D01*
X24181399Y-33029917D02*
X24181399Y-33880119D01*
X23711482Y-32560000D02*
X24181399Y-33029917D01*
X23600000Y-32560000D02*
X23711482Y-32560000D01*
X22300000Y-34830000D02*
X22050000Y-35080000D01*
X22300000Y-34130000D02*
X22300000Y-34830000D01*
X22340000Y-31540000D02*
X22090000Y-31790000D01*
X22340000Y-30840000D02*
X22340000Y-31540000D01*
X23560000Y-34352523D02*
X23535198Y-34377325D01*
X23560000Y-34030000D02*
X23560000Y-34352523D01*
X25490000Y-37880000D02*
X25240000Y-38130000D01*
X25490000Y-37180000D02*
X25490000Y-37880000D01*
X27231996Y-38167900D02*
X27231996Y-37808690D01*
X26729896Y-38670000D02*
X27231996Y-38167900D01*
X26366482Y-38670000D02*
X26729896Y-38670000D01*
X26297881Y-38601399D02*
X26366482Y-38670000D01*
X25240000Y-38130000D02*
X25711399Y-38601399D01*
X25711399Y-38601399D02*
X26297881Y-38601399D01*
D30*
X26970738Y-37547432D02*
X26806832Y-37547432D01*
X27231996Y-37808690D02*
X26970738Y-37547432D01*
D29*
X24128601Y-32127119D02*
X24128601Y-32520000D01*
X24168601Y-32560000D02*
X24700000Y-32560000D01*
X24082881Y-32081399D02*
X24128601Y-32127119D01*
X22090000Y-31790000D02*
X22381399Y-32081399D01*
X24128601Y-32520000D02*
X24168601Y-32560000D01*
X22381399Y-32081399D02*
X23750000Y-32081399D01*
X26860000Y-33130000D02*
X26766199Y-33130000D01*
X26766199Y-33130000D02*
X26733598Y-33097399D01*
X22300000Y-33843518D02*
X22492119Y-33651399D01*
X22300000Y-34130000D02*
X22300000Y-33843518D01*
X23180000Y-34230000D02*
X23640000Y-34230000D01*
X22492119Y-33651399D02*
X23107881Y-33651399D01*
X23107881Y-33651399D02*
X23153601Y-33697119D01*
X23153601Y-33697119D02*
X23153601Y-34203601D01*
X23153601Y-34203601D02*
X23180000Y-34230000D01*
X24700000Y-32560000D02*
X25270000Y-32560000D01*
X24851399Y-31221399D02*
X25090000Y-31460000D01*
X23947119Y-31221399D02*
X24851399Y-31221399D01*
X23830000Y-31338518D02*
X23947119Y-31221399D01*
X23830000Y-32081399D02*
X23830000Y-31338518D01*
X23830000Y-32081399D02*
X24082881Y-32081399D01*
X23750000Y-32081399D02*
X23830000Y-32081399D01*
X26300000Y-34640000D02*
X26300000Y-34230647D01*
X26300000Y-34230647D02*
X26153599Y-34084246D01*
X25788754Y-34084246D02*
X25454000Y-34419000D01*
X26153599Y-34084246D02*
X25788754Y-34084246D01*
X26040000Y-26867600D02*
X26040000Y-26670000D01*
D30*
X27231996Y-22191310D02*
X26970738Y-22452568D01*
X26970738Y-22452568D02*
X26806832Y-22452568D01*
X26791281Y-22468119D02*
X26806832Y-22452568D01*
D29*
X25855000Y-22390000D02*
X26744264Y-22390000D01*
D30*
X25855000Y-22374991D02*
X26183658Y-22374991D01*
X26276786Y-22468119D02*
X26791281Y-22468119D01*
X26183658Y-22374991D02*
X26276786Y-22468119D01*
D29*
X27678599Y-21691401D02*
X28228599Y-21691401D01*
X28228599Y-21691401D02*
X28920000Y-21000000D01*
X25290000Y-28220000D02*
X25290000Y-27617600D01*
X25290000Y-27617600D02*
X26040000Y-26867600D01*
D30*
X27678599Y-21744707D02*
X27485995Y-21937311D01*
X27678599Y-21691401D02*
X27678599Y-21744707D01*
X27485995Y-21937311D02*
X27231996Y-22191310D01*
D29*
X26290000Y-25120000D02*
X26290000Y-25722400D01*
X26290000Y-25722400D02*
X26040000Y-25972400D01*
X26040000Y-25972400D02*
X26040000Y-26670000D01*
D30*
X23400000Y-25570000D02*
X23535198Y-25622675D01*
X22695000Y-25570000D02*
X23400000Y-25570000D01*
D29*
X20410000Y-29523694D02*
X20330292Y-29443986D01*
X20410000Y-29690000D02*
X20410000Y-29523694D01*
X25290000Y-25120000D02*
X25290000Y-24476999D01*
X25290000Y-24476999D02*
X25462694Y-24304305D01*
D30*
X22735000Y-27560000D02*
X21985000Y-27560000D01*
X21985000Y-27560000D02*
X21820000Y-27725000D01*
X25855000Y-21090000D02*
X25855000Y-20445000D01*
X25855000Y-20445000D02*
X25980000Y-20320000D01*
X25980000Y-20320000D02*
X26140000Y-20320000D01*
X24940000Y-21255000D02*
X25105000Y-21090000D01*
X25105000Y-21090000D02*
X25855000Y-21090000D01*
X27150000Y-20320000D02*
X27530000Y-20320000D01*
X26140000Y-20320000D02*
X27150000Y-20320000D01*
X27530000Y-20320000D02*
X27500000Y-20320000D01*
X25135000Y-21220000D02*
X24970000Y-21385000D01*
X22695000Y-24270000D02*
X21945000Y-24270000D01*
X21945000Y-24270000D02*
X21780000Y-24435000D01*
D29*
X24307600Y-20360000D02*
X24200000Y-20467600D01*
X24660000Y-20360000D02*
X24307600Y-20360000D01*
X24200000Y-20467600D02*
X24200000Y-20760000D01*
X24200000Y-20760000D02*
X24025000Y-20935000D01*
X24025000Y-20935000D02*
X24025000Y-21090000D01*
D30*
X24025000Y-21090000D02*
X23740000Y-21090000D01*
X23740000Y-21090000D02*
X23652401Y-21177599D01*
X23652401Y-21177599D02*
X23480079Y-21177599D01*
X23480079Y-21177599D02*
X23387401Y-21270277D01*
X23387401Y-21270277D02*
X23387401Y-21476459D01*
X23387401Y-22140717D02*
X23387401Y-21990000D01*
X23696673Y-22449989D02*
X23387401Y-22140717D01*
X24537408Y-22225000D02*
X24312419Y-22449989D01*
X24940000Y-22225000D02*
X24537408Y-22225000D01*
X24312419Y-22449989D02*
X23696673Y-22449989D01*
X23363145Y-21500715D02*
X23363145Y-21740000D01*
X23387401Y-21334047D02*
X23387401Y-21476459D01*
X23387401Y-21476459D02*
X23363145Y-21500715D01*
D29*
X24055000Y-22520000D02*
X24044900Y-22509900D01*
X24044900Y-22509900D02*
X23780336Y-22509900D01*
D30*
X20718323Y-21228323D02*
X21334047Y-20612599D01*
X21334047Y-20612599D02*
X22665953Y-20612599D01*
X22665953Y-20612599D02*
X23387401Y-21334047D01*
D29*
X21014292Y-25615814D02*
X21022587Y-25624109D01*
X21022587Y-25624109D02*
X21022587Y-25806001D01*
X21022587Y-25806001D02*
X20768588Y-26060000D01*
D30*
X21591212Y-25593788D02*
X21036318Y-25593788D01*
X20521540Y-25615814D02*
X20202197Y-25296471D01*
X21014292Y-25615814D02*
X20521540Y-25615814D01*
X21780000Y-25405000D02*
X21591212Y-25593788D01*
X21036318Y-25593788D02*
X21014292Y-25615814D01*
X20202197Y-25296471D02*
X20202197Y-24940000D01*
X20202197Y-24940000D02*
X20202197Y-24475481D01*
D29*
X20202197Y-24940000D02*
X20012197Y-24750000D01*
X20012197Y-24750000D02*
X19550000Y-24750000D01*
D30*
X20202197Y-24475481D02*
X20407678Y-24270000D01*
X20407678Y-24270000D02*
X20865000Y-24270000D01*
X21615000Y-25570000D02*
X21780000Y-25405000D01*
X21820000Y-28695000D02*
X21655000Y-28860000D01*
X21655000Y-28860000D02*
X20905000Y-28860000D01*
D29*
X21840000Y-29570000D02*
X21840000Y-28715000D01*
X21840000Y-28715000D02*
X21820000Y-28695000D01*
D30*
X20242197Y-27902127D02*
X20242197Y-28170000D01*
X20242197Y-28170000D02*
X20242197Y-28517873D01*
X20905000Y-27560000D02*
X20584324Y-27560000D01*
X20584324Y-27560000D02*
X20242197Y-27902127D01*
X20242197Y-28517873D02*
X20575725Y-28851401D01*
X20575725Y-28851401D02*
X20896401Y-28851401D01*
X20896401Y-28851401D02*
X20905000Y-28860000D01*
D29*
X25855000Y-21740000D02*
X26447621Y-21740000D01*
X26447621Y-21740000D02*
X26529577Y-21821956D01*
X24055000Y-21864042D02*
X23999546Y-21808588D01*
X24055000Y-21870000D02*
X24055000Y-21864042D01*
X20865000Y-24920000D02*
X20865000Y-24953012D01*
X20865000Y-24953012D02*
X20843599Y-24974413D01*
X23210000Y-23950000D02*
X23331414Y-23950000D01*
X23158610Y-24001390D02*
X23210000Y-23950000D01*
X23158610Y-24843790D02*
X23158610Y-24001390D01*
X22695000Y-24920000D02*
X23082400Y-24920000D01*
X23082400Y-24920000D02*
X23158610Y-24843790D01*
X23122400Y-28210000D02*
X23296420Y-28384020D01*
X22735000Y-28210000D02*
X23122400Y-28210000D01*
X23296420Y-28384020D02*
X23296420Y-28401213D01*
X20905000Y-28210000D02*
X20883598Y-28210000D01*
X23489289Y-20420000D02*
X23434860Y-20474429D01*
X23760000Y-20420000D02*
X23489289Y-20420000D01*
X24111398Y-24863925D02*
X24411737Y-24563586D01*
X24411737Y-24563586D02*
X24490000Y-24563586D01*
X24111398Y-25749602D02*
X24111398Y-24863925D01*
X24281796Y-25920000D02*
X24111398Y-25749602D01*
X24490000Y-25920000D02*
X24281796Y-25920000D01*
X20550000Y-26800000D02*
X21075750Y-26800000D01*
X21075750Y-26800000D02*
X21748351Y-26127399D01*
X23594999Y-26127399D02*
X23887600Y-26420000D01*
X21748351Y-26127399D02*
X23594999Y-26127399D01*
X23887600Y-26420000D02*
X24490000Y-26420000D01*
X21906663Y-26920000D02*
X21840005Y-26853342D01*
X24490000Y-26920000D02*
X21906663Y-26920000D01*
D31*
G36*
X29793000Y-32348471D02*
X29786600Y-32363922D01*
X29786600Y-32576122D01*
X29793000Y-32591573D01*
X29793000Y-39671000D01*
X28627000Y-39671000D01*
X28627000Y-35213610D01*
X28679816Y-35086100D01*
X28679816Y-34873900D01*
X28627000Y-34746390D01*
X28627000Y-34373669D01*
X28635862Y-34352274D01*
X28635862Y-34140074D01*
X28627000Y-34118679D01*
X28627000Y-33953890D01*
X28698742Y-33882148D01*
X28779947Y-33686101D01*
X28779947Y-33473901D01*
X28698742Y-33277854D01*
X28627000Y-33206112D01*
X28627000Y-32646551D01*
X28633400Y-32631100D01*
X28633400Y-32418900D01*
X28627000Y-32403449D01*
X28627000Y-29450075D01*
X28671729Y-29405346D01*
X28752934Y-29209299D01*
X28752934Y-28997099D01*
X28671729Y-28801052D01*
X28627000Y-28756323D01*
X28627000Y-28681466D01*
X28681046Y-28550987D01*
X28681046Y-28338787D01*
X28627000Y-28208308D01*
X28627000Y-26797203D01*
X28700824Y-26723379D01*
X28782029Y-26527332D01*
X28782029Y-26315132D01*
X28700824Y-26119085D01*
X28627000Y-26045261D01*
X28627000Y-24897342D01*
X28732195Y-24792147D01*
X28813400Y-24596100D01*
X28813400Y-24383900D01*
X28732195Y-24187853D01*
X28627000Y-24082658D01*
X28627000Y-23211873D01*
X28663240Y-23175633D01*
X28744445Y-22979586D01*
X28744445Y-22767386D01*
X28663240Y-22571339D01*
X28627000Y-22535099D01*
X28627000Y-20329000D01*
X29793000Y-20329000D01*
X29793000Y-32348471D01*
X29793000Y-32348471D01*
G37*
X29793000Y-32348471D02*
X29786600Y-32363922D01*
X29786600Y-32576122D01*
X29793000Y-32591573D01*
X29793000Y-39671000D01*
X28627000Y-39671000D01*
X28627000Y-35213610D01*
X28679816Y-35086100D01*
X28679816Y-34873900D01*
X28627000Y-34746390D01*
X28627000Y-34373669D01*
X28635862Y-34352274D01*
X28635862Y-34140074D01*
X28627000Y-34118679D01*
X28627000Y-33953890D01*
X28698742Y-33882148D01*
X28779947Y-33686101D01*
X28779947Y-33473901D01*
X28698742Y-33277854D01*
X28627000Y-33206112D01*
X28627000Y-32646551D01*
X28633400Y-32631100D01*
X28633400Y-32418900D01*
X28627000Y-32403449D01*
X28627000Y-29450075D01*
X28671729Y-29405346D01*
X28752934Y-29209299D01*
X28752934Y-28997099D01*
X28671729Y-28801052D01*
X28627000Y-28756323D01*
X28627000Y-28681466D01*
X28681046Y-28550987D01*
X28681046Y-28338787D01*
X28627000Y-28208308D01*
X28627000Y-26797203D01*
X28700824Y-26723379D01*
X28782029Y-26527332D01*
X28782029Y-26315132D01*
X28700824Y-26119085D01*
X28627000Y-26045261D01*
X28627000Y-24897342D01*
X28732195Y-24792147D01*
X28813400Y-24596100D01*
X28813400Y-24383900D01*
X28732195Y-24187853D01*
X28627000Y-24082658D01*
X28627000Y-23211873D01*
X28663240Y-23175633D01*
X28744445Y-22979586D01*
X28744445Y-22767386D01*
X28663240Y-22571339D01*
X28627000Y-22535099D01*
X28627000Y-20329000D01*
X29793000Y-20329000D01*
X29793000Y-32348471D01*
G36*
X31373000Y-24982125D02*
X31311623Y-25130303D01*
X31311623Y-25342503D01*
X31373000Y-25490681D01*
X31373000Y-26046109D01*
X31301257Y-26117852D01*
X31220052Y-26313899D01*
X31220052Y-26526099D01*
X31301257Y-26722146D01*
X31373000Y-26793889D01*
X31373000Y-29937836D01*
X31327805Y-29983031D01*
X31246600Y-30179078D01*
X31246600Y-30391278D01*
X31327805Y-30587325D01*
X31373000Y-30632520D01*
X31373000Y-31333346D01*
X31319760Y-31461879D01*
X31319760Y-31674079D01*
X31373000Y-31802612D01*
X31373000Y-33206104D01*
X31301246Y-33277858D01*
X31220041Y-33473905D01*
X31220041Y-33686105D01*
X31301246Y-33882152D01*
X31373000Y-33953906D01*
X31373000Y-35662658D01*
X31357805Y-35677853D01*
X31276600Y-35873900D01*
X31276600Y-36086100D01*
X31357805Y-36282147D01*
X31373000Y-36297342D01*
X31373000Y-36355191D01*
X31345126Y-36383065D01*
X31263921Y-36579112D01*
X31263921Y-36791312D01*
X31341600Y-36978846D01*
X31341600Y-37081100D01*
X31373000Y-37156907D01*
X31373000Y-38431558D01*
X31330555Y-38474003D01*
X31249350Y-38670050D01*
X31249350Y-38882250D01*
X31330555Y-39078297D01*
X31373000Y-39120742D01*
X31373000Y-39671000D01*
X30207000Y-39671000D01*
X30207000Y-37851679D01*
X30208400Y-37848299D01*
X30208400Y-37636099D01*
X30207000Y-37632719D01*
X30207000Y-30615688D01*
X30223398Y-30576100D01*
X30223398Y-30363900D01*
X30207000Y-30324312D01*
X30207000Y-20329000D01*
X31373000Y-20329000D01*
X31373000Y-24982125D01*
X31373000Y-24982125D01*
G37*
X31373000Y-24982125D02*
X31311623Y-25130303D01*
X31311623Y-25342503D01*
X31373000Y-25490681D01*
X31373000Y-26046109D01*
X31301257Y-26117852D01*
X31220052Y-26313899D01*
X31220052Y-26526099D01*
X31301257Y-26722146D01*
X31373000Y-26793889D01*
X31373000Y-29937836D01*
X31327805Y-29983031D01*
X31246600Y-30179078D01*
X31246600Y-30391278D01*
X31327805Y-30587325D01*
X31373000Y-30632520D01*
X31373000Y-31333346D01*
X31319760Y-31461879D01*
X31319760Y-31674079D01*
X31373000Y-31802612D01*
X31373000Y-33206104D01*
X31301246Y-33277858D01*
X31220041Y-33473905D01*
X31220041Y-33686105D01*
X31301246Y-33882152D01*
X31373000Y-33953906D01*
X31373000Y-35662658D01*
X31357805Y-35677853D01*
X31276600Y-35873900D01*
X31276600Y-36086100D01*
X31357805Y-36282147D01*
X31373000Y-36297342D01*
X31373000Y-36355191D01*
X31345126Y-36383065D01*
X31263921Y-36579112D01*
X31263921Y-36791312D01*
X31341600Y-36978846D01*
X31341600Y-37081100D01*
X31373000Y-37156907D01*
X31373000Y-38431558D01*
X31330555Y-38474003D01*
X31249350Y-38670050D01*
X31249350Y-38882250D01*
X31330555Y-39078297D01*
X31373000Y-39120742D01*
X31373000Y-39671000D01*
X30207000Y-39671000D01*
X30207000Y-37851679D01*
X30208400Y-37848299D01*
X30208400Y-37636099D01*
X30207000Y-37632719D01*
X30207000Y-30615688D01*
X30223398Y-30576100D01*
X30223398Y-30363900D01*
X30207000Y-30324312D01*
X30207000Y-20329000D01*
X31373000Y-20329000D01*
X31373000Y-24982125D01*
G36*
X28373000Y-39671000D02*
X24774873Y-39671000D01*
X24774873Y-39596945D01*
X24865000Y-39614873D01*
X25115000Y-39614873D01*
X25224016Y-39593188D01*
X25240000Y-39582508D01*
X25255984Y-39593188D01*
X25365000Y-39614873D01*
X25615000Y-39614873D01*
X25724016Y-39593188D01*
X25740000Y-39582508D01*
X25755984Y-39593188D01*
X25865000Y-39614873D01*
X26115000Y-39614873D01*
X26224016Y-39593188D01*
X26316436Y-39531436D01*
X26378188Y-39439016D01*
X26378867Y-39435600D01*
X26851301Y-39435600D01*
X26868564Y-39461436D01*
X26960984Y-39523188D01*
X27070000Y-39544873D01*
X27142153Y-39544873D01*
X27187615Y-39563704D01*
X27399815Y-39563704D01*
X27445277Y-39544873D01*
X27570000Y-39544873D01*
X27679016Y-39523188D01*
X27771436Y-39461436D01*
X27833188Y-39369016D01*
X27854873Y-39260000D01*
X27854873Y-38789504D01*
X28025286Y-38619090D01*
X28054974Y-38599254D01*
X28079212Y-38562980D01*
X28133568Y-38481629D01*
X28161167Y-38342881D01*
X28154201Y-38307861D01*
X28154201Y-37412133D01*
X28161166Y-37377118D01*
X28154201Y-37342103D01*
X28154201Y-37342099D01*
X28133568Y-37238371D01*
X28054973Y-37120746D01*
X28026729Y-37101874D01*
X28007855Y-37073627D01*
X27923312Y-37017138D01*
X28373000Y-36567450D01*
X28373000Y-39671000D01*
X28373000Y-39671000D01*
G37*
X28373000Y-39671000D02*
X24774873Y-39671000D01*
X24774873Y-39596945D01*
X24865000Y-39614873D01*
X25115000Y-39614873D01*
X25224016Y-39593188D01*
X25240000Y-39582508D01*
X25255984Y-39593188D01*
X25365000Y-39614873D01*
X25615000Y-39614873D01*
X25724016Y-39593188D01*
X25740000Y-39582508D01*
X25755984Y-39593188D01*
X25865000Y-39614873D01*
X26115000Y-39614873D01*
X26224016Y-39593188D01*
X26316436Y-39531436D01*
X26378188Y-39439016D01*
X26378867Y-39435600D01*
X26851301Y-39435600D01*
X26868564Y-39461436D01*
X26960984Y-39523188D01*
X27070000Y-39544873D01*
X27142153Y-39544873D01*
X27187615Y-39563704D01*
X27399815Y-39563704D01*
X27445277Y-39544873D01*
X27570000Y-39544873D01*
X27679016Y-39523188D01*
X27771436Y-39461436D01*
X27833188Y-39369016D01*
X27854873Y-39260000D01*
X27854873Y-38789504D01*
X28025286Y-38619090D01*
X28054974Y-38599254D01*
X28079212Y-38562980D01*
X28133568Y-38481629D01*
X28161167Y-38342881D01*
X28154201Y-38307861D01*
X28154201Y-37412133D01*
X28161166Y-37377118D01*
X28154201Y-37342103D01*
X28154201Y-37342099D01*
X28133568Y-37238371D01*
X28054973Y-37120746D01*
X28026729Y-37101874D01*
X28007855Y-37073627D01*
X27923312Y-37017138D01*
X28373000Y-36567450D01*
X28373000Y-39671000D01*
G36*
X33873443Y-37487152D02*
X34074150Y-37527074D01*
X34124811Y-37516997D01*
X34220600Y-37516997D01*
X34220600Y-37800127D01*
X33910000Y-37800127D01*
X33857326Y-37810605D01*
X33772570Y-37725849D01*
X33576523Y-37644644D01*
X33364323Y-37644644D01*
X33168276Y-37725849D01*
X33018228Y-37875897D01*
X32937023Y-38071944D01*
X32937023Y-38284144D01*
X33013944Y-38469849D01*
X33006100Y-38466600D01*
X32793900Y-38466600D01*
X32597853Y-38547805D01*
X32447805Y-38697853D01*
X32366600Y-38893900D01*
X32366600Y-39106100D01*
X32391246Y-39165600D01*
X31793400Y-39165600D01*
X31793400Y-39073900D01*
X31779400Y-39040101D01*
X31779400Y-38649149D01*
X31885100Y-38649149D01*
X31935757Y-38659225D01*
X31986414Y-38649149D01*
X31986418Y-38649149D01*
X32136466Y-38619303D01*
X32306618Y-38505610D01*
X32319401Y-38486478D01*
X32338533Y-38473695D01*
X32452226Y-38303542D01*
X32482072Y-38153494D01*
X32482072Y-38153491D01*
X32492148Y-38102834D01*
X32485053Y-38067166D01*
X33088880Y-37463340D01*
X33153098Y-37420431D01*
X33773588Y-37420431D01*
X33873443Y-37487152D01*
X33873443Y-37487152D01*
G37*
X33873443Y-37487152D02*
X34074150Y-37527074D01*
X34124811Y-37516997D01*
X34220600Y-37516997D01*
X34220600Y-37800127D01*
X33910000Y-37800127D01*
X33857326Y-37810605D01*
X33772570Y-37725849D01*
X33576523Y-37644644D01*
X33364323Y-37644644D01*
X33168276Y-37725849D01*
X33018228Y-37875897D01*
X32937023Y-38071944D01*
X32937023Y-38284144D01*
X33013944Y-38469849D01*
X33006100Y-38466600D01*
X32793900Y-38466600D01*
X32597853Y-38547805D01*
X32447805Y-38697853D01*
X32366600Y-38893900D01*
X32366600Y-39106100D01*
X32391246Y-39165600D01*
X31793400Y-39165600D01*
X31793400Y-39073900D01*
X31779400Y-39040101D01*
X31779400Y-38649149D01*
X31885100Y-38649149D01*
X31935757Y-38659225D01*
X31986414Y-38649149D01*
X31986418Y-38649149D01*
X32136466Y-38619303D01*
X32306618Y-38505610D01*
X32319401Y-38486478D01*
X32338533Y-38473695D01*
X32452226Y-38303542D01*
X32482072Y-38153494D01*
X32482072Y-38153491D01*
X32492148Y-38102834D01*
X32485053Y-38067166D01*
X33088880Y-37463340D01*
X33153098Y-37420431D01*
X33773588Y-37420431D01*
X33873443Y-37487152D01*
G36*
X26785127Y-38660000D02*
X26785127Y-38724400D01*
X26378867Y-38724400D01*
X26378188Y-38720984D01*
X26352044Y-38681855D01*
X26423477Y-38711444D01*
X26635677Y-38711444D01*
X26787394Y-38648601D01*
X26785127Y-38660000D01*
X26785127Y-38660000D01*
G37*
X26785127Y-38660000D02*
X26785127Y-38724400D01*
X26378867Y-38724400D01*
X26378188Y-38720984D01*
X26352044Y-38681855D01*
X26423477Y-38711444D01*
X26635677Y-38711444D01*
X26787394Y-38648601D01*
X26785127Y-38660000D01*
G36*
X25580127Y-37430000D02*
X25601812Y-37539016D01*
X25663564Y-37631436D01*
X25755984Y-37693188D01*
X25865000Y-37714873D01*
X25896979Y-37714873D01*
X25919978Y-37737872D01*
X25919978Y-37889025D01*
X25913012Y-37924045D01*
X25919978Y-37959065D01*
X25940611Y-38062793D01*
X25963342Y-38096812D01*
X25996177Y-38145953D01*
X25996177Y-38284144D01*
X26077382Y-38480191D01*
X26149101Y-38551910D01*
X26115000Y-38545127D01*
X25865000Y-38545127D01*
X25755984Y-38566812D01*
X25740000Y-38577492D01*
X25724016Y-38566812D01*
X25615000Y-38545127D01*
X25365000Y-38545127D01*
X25327691Y-38552548D01*
X25324967Y-38538852D01*
X25246373Y-38421227D01*
X25216681Y-38401387D01*
X25190011Y-38374717D01*
X25170172Y-38345026D01*
X25052547Y-38266432D01*
X24948819Y-38245799D01*
X24913799Y-38238833D01*
X24878779Y-38245799D01*
X24560598Y-38245799D01*
X24566999Y-38213621D01*
X24566999Y-38213617D01*
X24573964Y-38178602D01*
X24566999Y-38143587D01*
X24566999Y-37984840D01*
X24667374Y-37917772D01*
X24687213Y-37888081D01*
X24716683Y-37858611D01*
X24746372Y-37838773D01*
X24824967Y-37721148D01*
X24827691Y-37707452D01*
X24865000Y-37714873D01*
X25115000Y-37714873D01*
X25224016Y-37693188D01*
X25316436Y-37631436D01*
X25378188Y-37539016D01*
X25399873Y-37430000D01*
X25399873Y-37056999D01*
X25580127Y-37056999D01*
X25580127Y-37430000D01*
X25580127Y-37430000D01*
G37*
X25580127Y-37430000D02*
X25601812Y-37539016D01*
X25663564Y-37631436D01*
X25755984Y-37693188D01*
X25865000Y-37714873D01*
X25896979Y-37714873D01*
X25919978Y-37737872D01*
X25919978Y-37889025D01*
X25913012Y-37924045D01*
X25919978Y-37959065D01*
X25940611Y-38062793D01*
X25963342Y-38096812D01*
X25996177Y-38145953D01*
X25996177Y-38284144D01*
X26077382Y-38480191D01*
X26149101Y-38551910D01*
X26115000Y-38545127D01*
X25865000Y-38545127D01*
X25755984Y-38566812D01*
X25740000Y-38577492D01*
X25724016Y-38566812D01*
X25615000Y-38545127D01*
X25365000Y-38545127D01*
X25327691Y-38552548D01*
X25324967Y-38538852D01*
X25246373Y-38421227D01*
X25216681Y-38401387D01*
X25190011Y-38374717D01*
X25170172Y-38345026D01*
X25052547Y-38266432D01*
X24948819Y-38245799D01*
X24913799Y-38238833D01*
X24878779Y-38245799D01*
X24560598Y-38245799D01*
X24566999Y-38213621D01*
X24566999Y-38213617D01*
X24573964Y-38178602D01*
X24566999Y-38143587D01*
X24566999Y-37984840D01*
X24667374Y-37917772D01*
X24687213Y-37888081D01*
X24716683Y-37858611D01*
X24746372Y-37838773D01*
X24824967Y-37721148D01*
X24827691Y-37707452D01*
X24865000Y-37714873D01*
X25115000Y-37714873D01*
X25224016Y-37693188D01*
X25316436Y-37631436D01*
X25378188Y-37539016D01*
X25399873Y-37430000D01*
X25399873Y-37056999D01*
X25580127Y-37056999D01*
X25580127Y-37430000D01*
G36*
X26403628Y-37167855D02*
X26433315Y-37187691D01*
X26521587Y-37275963D01*
X26541425Y-37305653D01*
X26659050Y-37384247D01*
X26762778Y-37404880D01*
X26797798Y-37411846D01*
X26832818Y-37404880D01*
X27030187Y-37404880D01*
X27031184Y-37406372D01*
X27060870Y-37426207D01*
X27187433Y-37552771D01*
X27191345Y-37556683D01*
X27211183Y-37586373D01*
X27328808Y-37664967D01*
X27432536Y-37685600D01*
X27443001Y-37687682D01*
X27443002Y-38195585D01*
X27263461Y-38375127D01*
X27070000Y-38375127D01*
X27021276Y-38384819D01*
X27062977Y-38284144D01*
X27062977Y-38071944D01*
X26981772Y-37875897D01*
X26831724Y-37725849D01*
X26635677Y-37644644D01*
X26631178Y-37644644D01*
X26631178Y-37625592D01*
X26638143Y-37590577D01*
X26631178Y-37555562D01*
X26631178Y-37555558D01*
X26610545Y-37451830D01*
X26531950Y-37334205D01*
X26502263Y-37314369D01*
X26399873Y-37211979D01*
X26399873Y-37162235D01*
X26403628Y-37167855D01*
X26403628Y-37167855D01*
G37*
X26403628Y-37167855D02*
X26433315Y-37187691D01*
X26521587Y-37275963D01*
X26541425Y-37305653D01*
X26659050Y-37384247D01*
X26762778Y-37404880D01*
X26797798Y-37411846D01*
X26832818Y-37404880D01*
X27030187Y-37404880D01*
X27031184Y-37406372D01*
X27060870Y-37426207D01*
X27187433Y-37552771D01*
X27191345Y-37556683D01*
X27211183Y-37586373D01*
X27328808Y-37664967D01*
X27432536Y-37685600D01*
X27443001Y-37687682D01*
X27443002Y-38195585D01*
X27263461Y-38375127D01*
X27070000Y-38375127D01*
X27021276Y-38384819D01*
X27062977Y-38284144D01*
X27062977Y-38071944D01*
X26981772Y-37875897D01*
X26831724Y-37725849D01*
X26635677Y-37644644D01*
X26631178Y-37644644D01*
X26631178Y-37625592D01*
X26638143Y-37590577D01*
X26631178Y-37555562D01*
X26631178Y-37555558D01*
X26610545Y-37451830D01*
X26531950Y-37334205D01*
X26502263Y-37314369D01*
X26399873Y-37211979D01*
X26399873Y-37162235D01*
X26403628Y-37167855D01*
G36*
X34042881Y-35921167D02*
X34052554Y-35919243D01*
X34085111Y-35997842D01*
X34235159Y-36147890D01*
X34327081Y-36185965D01*
X34302434Y-36202434D01*
X34241868Y-36293078D01*
X34220600Y-36400000D01*
X34220600Y-36449744D01*
X34178283Y-36421468D01*
X33977575Y-36381546D01*
X33926873Y-36391631D01*
X33004121Y-36391631D01*
X32953464Y-36381555D01*
X32936091Y-36385011D01*
X32918717Y-36381555D01*
X32868060Y-36391631D01*
X32868057Y-36391631D01*
X32748435Y-36415425D01*
X32718009Y-36421477D01*
X32590804Y-36506473D01*
X32590803Y-36506474D01*
X32547857Y-36535170D01*
X32533243Y-36557041D01*
X32434603Y-36622951D01*
X32354611Y-36742667D01*
X31779400Y-37317879D01*
X31779400Y-36513400D01*
X31916100Y-36513400D01*
X32112147Y-36432195D01*
X32262195Y-36282147D01*
X32343400Y-36086100D01*
X32343400Y-35951601D01*
X32471569Y-35951601D01*
X32499607Y-35957178D01*
X32551300Y-35978590D01*
X32763500Y-35978590D01*
X32918949Y-35914201D01*
X34007861Y-35914201D01*
X34042881Y-35921167D01*
X34042881Y-35921167D01*
G37*
X34042881Y-35921167D02*
X34052554Y-35919243D01*
X34085111Y-35997842D01*
X34235159Y-36147890D01*
X34327081Y-36185965D01*
X34302434Y-36202434D01*
X34241868Y-36293078D01*
X34220600Y-36400000D01*
X34220600Y-36449744D01*
X34178283Y-36421468D01*
X33977575Y-36381546D01*
X33926873Y-36391631D01*
X33004121Y-36391631D01*
X32953464Y-36381555D01*
X32936091Y-36385011D01*
X32918717Y-36381555D01*
X32868060Y-36391631D01*
X32868057Y-36391631D01*
X32748435Y-36415425D01*
X32718009Y-36421477D01*
X32590804Y-36506473D01*
X32590803Y-36506474D01*
X32547857Y-36535170D01*
X32533243Y-36557041D01*
X32434603Y-36622951D01*
X32354611Y-36742667D01*
X31779400Y-37317879D01*
X31779400Y-36513400D01*
X31916100Y-36513400D01*
X32112147Y-36432195D01*
X32262195Y-36282147D01*
X32343400Y-36086100D01*
X32343400Y-35951601D01*
X32471569Y-35951601D01*
X32499607Y-35957178D01*
X32551300Y-35978590D01*
X32763500Y-35978590D01*
X32918949Y-35914201D01*
X34007861Y-35914201D01*
X34042881Y-35921167D01*
G36*
X36266253Y-34207568D02*
X36369981Y-34228201D01*
X36369985Y-34228201D01*
X36405000Y-34235166D01*
X36440015Y-34228201D01*
X37274342Y-34228201D01*
X37274342Y-34620127D01*
X37070000Y-34620127D01*
X36960984Y-34641812D01*
X36868564Y-34703564D01*
X36850360Y-34730809D01*
X36778852Y-34745033D01*
X36661227Y-34823627D01*
X36641387Y-34853319D01*
X36614706Y-34880000D01*
X36585017Y-34899838D01*
X36565181Y-34929525D01*
X36565180Y-34929526D01*
X36506423Y-35017463D01*
X36478824Y-35156210D01*
X36485790Y-35191230D01*
X36485790Y-35548368D01*
X36366439Y-35597805D01*
X36216391Y-35747853D01*
X36135186Y-35943900D01*
X36135186Y-36120600D01*
X34866743Y-36120600D01*
X34989501Y-35997842D01*
X35070706Y-35801795D01*
X35070706Y-35751462D01*
X35207853Y-35888609D01*
X35403900Y-35969814D01*
X35616100Y-35969814D01*
X35812147Y-35888609D01*
X35962195Y-35738561D01*
X36043400Y-35542514D01*
X36043400Y-35484171D01*
X36115285Y-35412286D01*
X36144975Y-35392448D01*
X36223569Y-35274823D01*
X36244202Y-35171095D01*
X36244202Y-35171091D01*
X36251167Y-35136076D01*
X36244202Y-35101061D01*
X36244202Y-34285416D01*
X36251168Y-34250397D01*
X36244873Y-34218752D01*
X36244873Y-34193282D01*
X36266253Y-34207568D01*
X36266253Y-34207568D01*
G37*
X36266253Y-34207568D02*
X36369981Y-34228201D01*
X36369985Y-34228201D01*
X36405000Y-34235166D01*
X36440015Y-34228201D01*
X37274342Y-34228201D01*
X37274342Y-34620127D01*
X37070000Y-34620127D01*
X36960984Y-34641812D01*
X36868564Y-34703564D01*
X36850360Y-34730809D01*
X36778852Y-34745033D01*
X36661227Y-34823627D01*
X36641387Y-34853319D01*
X36614706Y-34880000D01*
X36585017Y-34899838D01*
X36565181Y-34929525D01*
X36565180Y-34929526D01*
X36506423Y-35017463D01*
X36478824Y-35156210D01*
X36485790Y-35191230D01*
X36485790Y-35548368D01*
X36366439Y-35597805D01*
X36216391Y-35747853D01*
X36135186Y-35943900D01*
X36135186Y-36120600D01*
X34866743Y-36120600D01*
X34989501Y-35997842D01*
X35070706Y-35801795D01*
X35070706Y-35751462D01*
X35207853Y-35888609D01*
X35403900Y-35969814D01*
X35616100Y-35969814D01*
X35812147Y-35888609D01*
X35962195Y-35738561D01*
X36043400Y-35542514D01*
X36043400Y-35484171D01*
X36115285Y-35412286D01*
X36144975Y-35392448D01*
X36223569Y-35274823D01*
X36244202Y-35171095D01*
X36244202Y-35171091D01*
X36251167Y-35136076D01*
X36244202Y-35101061D01*
X36244202Y-34285416D01*
X36251168Y-34250397D01*
X36244873Y-34218752D01*
X36244873Y-34193282D01*
X36266253Y-34207568D01*
G36*
X22390127Y-33880000D02*
X22390127Y-34380000D01*
X22411812Y-34489016D01*
X22473564Y-34581436D01*
X22497610Y-34597503D01*
X22515067Y-34623628D01*
X22543628Y-34666373D01*
X22573315Y-34686209D01*
X22725799Y-34838693D01*
X22725800Y-35495127D01*
X22675000Y-35495127D01*
X22565984Y-35516812D01*
X22550000Y-35527492D01*
X22534016Y-35516812D01*
X22425000Y-35495127D01*
X22175000Y-35495127D01*
X22137691Y-35502548D01*
X22134967Y-35488852D01*
X22056373Y-35371227D01*
X22026681Y-35351387D01*
X21997211Y-35321917D01*
X21977374Y-35292228D01*
X21859749Y-35213634D01*
X21756021Y-35193001D01*
X21721001Y-35186035D01*
X21685981Y-35193001D01*
X21351602Y-35193001D01*
X21376999Y-35131687D01*
X21376999Y-34919487D01*
X21307117Y-34750777D01*
X21393021Y-34664873D01*
X21425000Y-34664873D01*
X21534016Y-34643188D01*
X21550000Y-34632508D01*
X21565984Y-34643188D01*
X21675000Y-34664873D01*
X21925000Y-34664873D01*
X22034016Y-34643188D01*
X22126436Y-34581436D01*
X22188188Y-34489016D01*
X22209873Y-34380000D01*
X22209873Y-34005473D01*
X22403730Y-33811616D01*
X22390127Y-33880000D01*
X22390127Y-33880000D01*
G37*
X22390127Y-33880000D02*
X22390127Y-34380000D01*
X22411812Y-34489016D01*
X22473564Y-34581436D01*
X22497610Y-34597503D01*
X22515067Y-34623628D01*
X22543628Y-34666373D01*
X22573315Y-34686209D01*
X22725799Y-34838693D01*
X22725800Y-35495127D01*
X22675000Y-35495127D01*
X22565984Y-35516812D01*
X22550000Y-35527492D01*
X22534016Y-35516812D01*
X22425000Y-35495127D01*
X22175000Y-35495127D01*
X22137691Y-35502548D01*
X22134967Y-35488852D01*
X22056373Y-35371227D01*
X22026681Y-35351387D01*
X21997211Y-35321917D01*
X21977374Y-35292228D01*
X21859749Y-35213634D01*
X21756021Y-35193001D01*
X21721001Y-35186035D01*
X21685981Y-35193001D01*
X21351602Y-35193001D01*
X21376999Y-35131687D01*
X21376999Y-34919487D01*
X21307117Y-34750777D01*
X21393021Y-34664873D01*
X21425000Y-34664873D01*
X21534016Y-34643188D01*
X21550000Y-34632508D01*
X21565984Y-34643188D01*
X21675000Y-34664873D01*
X21925000Y-34664873D01*
X22034016Y-34643188D01*
X22126436Y-34581436D01*
X22188188Y-34489016D01*
X22209873Y-34380000D01*
X22209873Y-34005473D01*
X22403730Y-33811616D01*
X22390127Y-33880000D01*
G36*
X25723564Y-33876436D02*
X25815984Y-33938188D01*
X25925000Y-33959873D01*
X26255827Y-33959873D01*
X26275127Y-33963712D01*
X26275127Y-34230000D01*
X26296812Y-34339016D01*
X26358564Y-34431436D01*
X26450984Y-34493188D01*
X26473002Y-34497568D01*
X26473002Y-34765127D01*
X26200000Y-34765127D01*
X26090984Y-34786812D01*
X25998564Y-34848564D01*
X25936812Y-34940984D01*
X25915127Y-35050000D01*
X25915127Y-35280989D01*
X25840004Y-35280989D01*
X25804984Y-35274023D01*
X25796960Y-35275619D01*
X25764841Y-35243500D01*
X25568794Y-35162295D01*
X25356594Y-35162295D01*
X25328993Y-35173728D01*
X25307568Y-35066017D01*
X25248811Y-34978080D01*
X25248808Y-34978077D01*
X25228973Y-34948392D01*
X25199288Y-34928557D01*
X25030720Y-34759989D01*
X25038873Y-34719000D01*
X25038873Y-34119000D01*
X25017188Y-34009984D01*
X24997606Y-33980677D01*
X25011436Y-33971436D01*
X25019847Y-33958848D01*
X25025000Y-33959873D01*
X25425000Y-33959873D01*
X25534016Y-33938188D01*
X25626436Y-33876436D01*
X25675000Y-33803754D01*
X25723564Y-33876436D01*
X25723564Y-33876436D01*
G37*
X25723564Y-33876436D02*
X25815984Y-33938188D01*
X25925000Y-33959873D01*
X26255827Y-33959873D01*
X26275127Y-33963712D01*
X26275127Y-34230000D01*
X26296812Y-34339016D01*
X26358564Y-34431436D01*
X26450984Y-34493188D01*
X26473002Y-34497568D01*
X26473002Y-34765127D01*
X26200000Y-34765127D01*
X26090984Y-34786812D01*
X25998564Y-34848564D01*
X25936812Y-34940984D01*
X25915127Y-35050000D01*
X25915127Y-35280989D01*
X25840004Y-35280989D01*
X25804984Y-35274023D01*
X25796960Y-35275619D01*
X25764841Y-35243500D01*
X25568794Y-35162295D01*
X25356594Y-35162295D01*
X25328993Y-35173728D01*
X25307568Y-35066017D01*
X25248811Y-34978080D01*
X25248808Y-34978077D01*
X25228973Y-34948392D01*
X25199288Y-34928557D01*
X25030720Y-34759989D01*
X25038873Y-34719000D01*
X25038873Y-34119000D01*
X25017188Y-34009984D01*
X24997606Y-33980677D01*
X25011436Y-33971436D01*
X25019847Y-33958848D01*
X25025000Y-33959873D01*
X25425000Y-33959873D01*
X25534016Y-33938188D01*
X25626436Y-33876436D01*
X25675000Y-33803754D01*
X25723564Y-33876436D01*
G36*
X34858564Y-31428564D02*
X34796812Y-31520984D01*
X34775127Y-31630000D01*
X34775127Y-32230000D01*
X34795019Y-32330000D01*
X34775127Y-32430000D01*
X34775127Y-32730000D01*
X34795019Y-32830000D01*
X34775127Y-32930000D01*
X34775127Y-33230000D01*
X34795019Y-33330000D01*
X34775127Y-33430000D01*
X34775127Y-33730000D01*
X34795019Y-33830000D01*
X34775127Y-33930000D01*
X34775127Y-34145127D01*
X34560000Y-34145127D01*
X34460000Y-34165019D01*
X34360000Y-34145127D01*
X34060000Y-34145127D01*
X33950984Y-34166812D01*
X33858564Y-34228564D01*
X33796812Y-34320984D01*
X33775127Y-34430000D01*
X33775127Y-34830485D01*
X33753634Y-34862652D01*
X33726035Y-35001399D01*
X33733002Y-35036423D01*
X33733002Y-35203001D01*
X33644873Y-35203001D01*
X33644873Y-34430000D01*
X33623188Y-34320984D01*
X33561436Y-34228564D01*
X33469016Y-34166812D01*
X33360000Y-34145127D01*
X33144873Y-34145127D01*
X33144873Y-33930000D01*
X33124981Y-33830000D01*
X33144873Y-33730000D01*
X33144873Y-33430000D01*
X33124981Y-33330000D01*
X33144873Y-33230000D01*
X33144873Y-32930000D01*
X33124981Y-32830000D01*
X33144873Y-32730000D01*
X33144873Y-32514873D01*
X33360000Y-32514873D01*
X33460000Y-32494981D01*
X33560000Y-32514873D01*
X33860000Y-32514873D01*
X33960000Y-32494981D01*
X34060000Y-32514873D01*
X34360000Y-32514873D01*
X34469016Y-32493188D01*
X34561436Y-32431436D01*
X34623188Y-32339016D01*
X34644873Y-32230000D01*
X34644873Y-31426810D01*
X34861189Y-31426810D01*
X34858564Y-31428564D01*
X34858564Y-31428564D01*
G37*
X34858564Y-31428564D02*
X34796812Y-31520984D01*
X34775127Y-31630000D01*
X34775127Y-32230000D01*
X34795019Y-32330000D01*
X34775127Y-32430000D01*
X34775127Y-32730000D01*
X34795019Y-32830000D01*
X34775127Y-32930000D01*
X34775127Y-33230000D01*
X34795019Y-33330000D01*
X34775127Y-33430000D01*
X34775127Y-33730000D01*
X34795019Y-33830000D01*
X34775127Y-33930000D01*
X34775127Y-34145127D01*
X34560000Y-34145127D01*
X34460000Y-34165019D01*
X34360000Y-34145127D01*
X34060000Y-34145127D01*
X33950984Y-34166812D01*
X33858564Y-34228564D01*
X33796812Y-34320984D01*
X33775127Y-34430000D01*
X33775127Y-34830485D01*
X33753634Y-34862652D01*
X33726035Y-35001399D01*
X33733002Y-35036423D01*
X33733002Y-35203001D01*
X33644873Y-35203001D01*
X33644873Y-34430000D01*
X33623188Y-34320984D01*
X33561436Y-34228564D01*
X33469016Y-34166812D01*
X33360000Y-34145127D01*
X33144873Y-34145127D01*
X33144873Y-33930000D01*
X33124981Y-33830000D01*
X33144873Y-33730000D01*
X33144873Y-33430000D01*
X33124981Y-33330000D01*
X33144873Y-33230000D01*
X33144873Y-32930000D01*
X33124981Y-32830000D01*
X33144873Y-32730000D01*
X33144873Y-32514873D01*
X33360000Y-32514873D01*
X33460000Y-32494981D01*
X33560000Y-32514873D01*
X33860000Y-32514873D01*
X33960000Y-32494981D01*
X34060000Y-32514873D01*
X34360000Y-32514873D01*
X34469016Y-32493188D01*
X34561436Y-32431436D01*
X34623188Y-32339016D01*
X34644873Y-32230000D01*
X34644873Y-31426810D01*
X34861189Y-31426810D01*
X34858564Y-31428564D01*
G36*
X23218852Y-33804967D02*
X23232628Y-33807707D01*
X23246812Y-33879016D01*
X23308564Y-33971436D01*
X23400984Y-34033188D01*
X23510000Y-34054873D01*
X23769799Y-34054873D01*
X23769800Y-34745127D01*
X23436999Y-34745127D01*
X23436999Y-34726413D01*
X23443964Y-34691398D01*
X23436999Y-34656383D01*
X23436999Y-34656379D01*
X23416366Y-34552651D01*
X23337771Y-34435026D01*
X23308084Y-34415190D01*
X23209873Y-34316979D01*
X23209873Y-33880000D01*
X23191284Y-33786547D01*
X23218852Y-33804967D01*
X23218852Y-33804967D01*
G37*
X23218852Y-33804967D02*
X23232628Y-33807707D01*
X23246812Y-33879016D01*
X23308564Y-33971436D01*
X23400984Y-34033188D01*
X23510000Y-34054873D01*
X23769799Y-34054873D01*
X23769800Y-34745127D01*
X23436999Y-34745127D01*
X23436999Y-34726413D01*
X23443964Y-34691398D01*
X23436999Y-34656383D01*
X23436999Y-34656379D01*
X23416366Y-34552651D01*
X23337771Y-34435026D01*
X23308084Y-34415190D01*
X23209873Y-34316979D01*
X23209873Y-33880000D01*
X23191284Y-33786547D01*
X23218852Y-33804967D01*
G36*
X27035127Y-33245799D02*
X26609873Y-33245799D01*
X26609873Y-33075000D01*
X26602908Y-33039986D01*
X26668021Y-32974873D01*
X26950000Y-32974873D01*
X27035127Y-32957940D01*
X27035127Y-33245799D01*
X27035127Y-33245799D01*
G37*
X27035127Y-33245799D02*
X26609873Y-33245799D01*
X26609873Y-33075000D01*
X26602908Y-33039986D01*
X26668021Y-32974873D01*
X26950000Y-32974873D01*
X27035127Y-32957940D01*
X27035127Y-33245799D01*
G36*
X24130000Y-32134873D02*
X24350497Y-32134873D01*
X24430908Y-32215284D01*
X24450746Y-32244974D01*
X24568371Y-32323568D01*
X24672099Y-32344201D01*
X24672103Y-32344201D01*
X24707118Y-32351166D01*
X24742133Y-32344201D01*
X25526379Y-32344201D01*
X25561399Y-32351167D01*
X25596419Y-32344201D01*
X25700147Y-32323568D01*
X25765799Y-32279701D01*
X25765799Y-32381958D01*
X25357631Y-32790127D01*
X25025000Y-32790127D01*
X24915984Y-32811812D01*
X24823564Y-32873564D01*
X24815153Y-32886152D01*
X24810000Y-32885127D01*
X24512329Y-32885127D01*
X24457609Y-32803232D01*
X24457606Y-32803229D01*
X24437771Y-32773544D01*
X24408086Y-32753710D01*
X24184873Y-32530497D01*
X24184873Y-32310000D01*
X24163188Y-32200984D01*
X24117331Y-32132353D01*
X24130000Y-32134873D01*
X24130000Y-32134873D01*
G37*
X24130000Y-32134873D02*
X24350497Y-32134873D01*
X24430908Y-32215284D01*
X24450746Y-32244974D01*
X24568371Y-32323568D01*
X24672099Y-32344201D01*
X24672103Y-32344201D01*
X24707118Y-32351166D01*
X24742133Y-32344201D01*
X25526379Y-32344201D01*
X25561399Y-32351167D01*
X25596419Y-32344201D01*
X25700147Y-32323568D01*
X25765799Y-32279701D01*
X25765799Y-32381958D01*
X25357631Y-32790127D01*
X25025000Y-32790127D01*
X24915984Y-32811812D01*
X24823564Y-32873564D01*
X24815153Y-32886152D01*
X24810000Y-32885127D01*
X24512329Y-32885127D01*
X24457609Y-32803232D01*
X24457606Y-32803229D01*
X24437771Y-32773544D01*
X24408086Y-32753710D01*
X24184873Y-32530497D01*
X24184873Y-32310000D01*
X24163188Y-32200984D01*
X24117331Y-32132353D01*
X24130000Y-32134873D01*
G36*
X22430127Y-31090000D02*
X22451812Y-31199016D01*
X22504340Y-31277631D01*
X22505033Y-31281115D01*
X22537697Y-31330000D01*
X22557481Y-31359608D01*
X22583628Y-31398740D01*
X22613316Y-31418577D01*
X22763020Y-31568280D01*
X22763020Y-31704887D01*
X22844225Y-31900934D01*
X22994273Y-32050982D01*
X23111853Y-32099685D01*
X23098564Y-32108564D01*
X23036812Y-32200984D01*
X23033286Y-32218710D01*
X22965000Y-32205127D01*
X22715000Y-32205127D01*
X22605984Y-32226812D01*
X22590000Y-32237492D01*
X22574016Y-32226812D01*
X22465000Y-32205127D01*
X22215000Y-32205127D01*
X22105984Y-32226812D01*
X22090000Y-32237492D01*
X22074016Y-32226812D01*
X21965000Y-32205127D01*
X21715000Y-32205127D01*
X21605984Y-32226812D01*
X21590000Y-32237492D01*
X21574016Y-32226812D01*
X21465000Y-32205127D01*
X21308021Y-32205127D01*
X21265417Y-32162523D01*
X21335793Y-32092147D01*
X21416998Y-31896100D01*
X21416998Y-31683900D01*
X21414274Y-31677323D01*
X21421307Y-31641961D01*
X21517374Y-31577772D01*
X21537213Y-31548081D01*
X21566683Y-31518611D01*
X21596372Y-31498773D01*
X21674967Y-31381148D01*
X21677691Y-31367452D01*
X21715000Y-31374873D01*
X21965000Y-31374873D01*
X22074016Y-31353188D01*
X22166436Y-31291436D01*
X22228188Y-31199016D01*
X22249873Y-31090000D01*
X22249873Y-30774469D01*
X22292195Y-30732147D01*
X22298469Y-30716999D01*
X22430127Y-30716999D01*
X22430127Y-31090000D01*
X22430127Y-31090000D01*
G37*
X22430127Y-31090000D02*
X22451812Y-31199016D01*
X22504340Y-31277631D01*
X22505033Y-31281115D01*
X22537697Y-31330000D01*
X22557481Y-31359608D01*
X22583628Y-31398740D01*
X22613316Y-31418577D01*
X22763020Y-31568280D01*
X22763020Y-31704887D01*
X22844225Y-31900934D01*
X22994273Y-32050982D01*
X23111853Y-32099685D01*
X23098564Y-32108564D01*
X23036812Y-32200984D01*
X23033286Y-32218710D01*
X22965000Y-32205127D01*
X22715000Y-32205127D01*
X22605984Y-32226812D01*
X22590000Y-32237492D01*
X22574016Y-32226812D01*
X22465000Y-32205127D01*
X22215000Y-32205127D01*
X22105984Y-32226812D01*
X22090000Y-32237492D01*
X22074016Y-32226812D01*
X21965000Y-32205127D01*
X21715000Y-32205127D01*
X21605984Y-32226812D01*
X21590000Y-32237492D01*
X21574016Y-32226812D01*
X21465000Y-32205127D01*
X21308021Y-32205127D01*
X21265417Y-32162523D01*
X21335793Y-32092147D01*
X21416998Y-31896100D01*
X21416998Y-31683900D01*
X21414274Y-31677323D01*
X21421307Y-31641961D01*
X21517374Y-31577772D01*
X21537213Y-31548081D01*
X21566683Y-31518611D01*
X21596372Y-31498773D01*
X21674967Y-31381148D01*
X21677691Y-31367452D01*
X21715000Y-31374873D01*
X21965000Y-31374873D01*
X22074016Y-31353188D01*
X22166436Y-31291436D01*
X22228188Y-31199016D01*
X22249873Y-31090000D01*
X22249873Y-30774469D01*
X22292195Y-30732147D01*
X22298469Y-30716999D01*
X22430127Y-30716999D01*
X22430127Y-31090000D01*
G36*
X23536482Y-31112566D02*
X23571502Y-31105600D01*
X23897938Y-31105600D01*
X23928564Y-31151436D01*
X24001246Y-31200000D01*
X23928564Y-31248564D01*
X23866812Y-31340984D01*
X23845127Y-31450000D01*
X23845127Y-31850000D01*
X23866812Y-31959016D01*
X23912669Y-32027647D01*
X23900000Y-32025127D01*
X23624422Y-32025127D01*
X23748615Y-31900934D01*
X23829820Y-31704887D01*
X23829820Y-31492687D01*
X23748615Y-31296640D01*
X23598567Y-31146592D01*
X23497886Y-31104889D01*
X23536482Y-31112566D01*
X23536482Y-31112566D01*
G37*
X23536482Y-31112566D02*
X23571502Y-31105600D01*
X23897938Y-31105600D01*
X23928564Y-31151436D01*
X24001246Y-31200000D01*
X23928564Y-31248564D01*
X23866812Y-31340984D01*
X23845127Y-31450000D01*
X23845127Y-31850000D01*
X23866812Y-31959016D01*
X23912669Y-32027647D01*
X23900000Y-32025127D01*
X23624422Y-32025127D01*
X23748615Y-31900934D01*
X23829820Y-31704887D01*
X23829820Y-31492687D01*
X23748615Y-31296640D01*
X23598567Y-31146592D01*
X23497886Y-31104889D01*
X23536482Y-31112566D01*
G36*
X24997805Y-31052147D02*
X25147853Y-31202195D01*
X25343900Y-31283400D01*
X25505127Y-31283400D01*
X25505127Y-31541979D01*
X25414105Y-31633001D01*
X25014873Y-31633001D01*
X25014873Y-31450000D01*
X24993188Y-31340984D01*
X24931436Y-31248564D01*
X24858754Y-31200000D01*
X24931436Y-31151436D01*
X24993188Y-31059016D01*
X24995609Y-31046845D01*
X24997805Y-31052147D01*
X24997805Y-31052147D01*
G37*
X24997805Y-31052147D02*
X25147853Y-31202195D01*
X25343900Y-31283400D01*
X25505127Y-31283400D01*
X25505127Y-31541979D01*
X25414105Y-31633001D01*
X25014873Y-31633001D01*
X25014873Y-31450000D01*
X24993188Y-31340984D01*
X24931436Y-31248564D01*
X24858754Y-31200000D01*
X24931436Y-31151436D01*
X24993188Y-31059016D01*
X24995609Y-31046845D01*
X24997805Y-31052147D01*
G36*
X34985127Y-29450000D02*
X35006812Y-29559016D01*
X35068564Y-29651436D01*
X35160984Y-29713188D01*
X35270000Y-29734873D01*
X35870000Y-29734873D01*
X35979016Y-29713188D01*
X35981220Y-29711715D01*
X36134792Y-29865286D01*
X36154628Y-29894974D01*
X36184315Y-29914810D01*
X36184316Y-29914811D01*
X36272253Y-29973568D01*
X36411001Y-30001167D01*
X36446021Y-29994201D01*
X37291645Y-29994201D01*
X37270600Y-30100000D01*
X37270600Y-31330127D01*
X37169646Y-31330127D01*
X37155775Y-31296640D01*
X37005727Y-31146592D01*
X36809680Y-31065387D01*
X36597480Y-31065387D01*
X36561801Y-31080166D01*
X36561801Y-30963071D01*
X36571878Y-30912410D01*
X36531955Y-30711701D01*
X36418262Y-30541549D01*
X36248110Y-30427856D01*
X36098062Y-30398010D01*
X36047401Y-30387933D01*
X35996740Y-30398010D01*
X33536373Y-30398010D01*
X33485716Y-30387934D01*
X33435059Y-30398010D01*
X33435055Y-30398010D01*
X33319399Y-30421015D01*
X33294373Y-30421015D01*
X33166659Y-30395612D01*
X33083373Y-30412178D01*
X31779400Y-30412178D01*
X31779400Y-30158177D01*
X33479806Y-30158177D01*
X33632370Y-30188523D01*
X33632371Y-30188523D01*
X33833079Y-30148601D01*
X33885252Y-30113740D01*
X34003232Y-30034908D01*
X34031931Y-29991957D01*
X34263071Y-29760818D01*
X34336839Y-29760818D01*
X34387496Y-29770894D01*
X34438153Y-29760818D01*
X34438157Y-29760818D01*
X34588205Y-29730972D01*
X34735076Y-29632835D01*
X34769807Y-29618449D01*
X34919855Y-29468401D01*
X34985127Y-29310820D01*
X34985127Y-29450000D01*
X34985127Y-29450000D01*
G37*
X34985127Y-29450000D02*
X35006812Y-29559016D01*
X35068564Y-29651436D01*
X35160984Y-29713188D01*
X35270000Y-29734873D01*
X35870000Y-29734873D01*
X35979016Y-29713188D01*
X35981220Y-29711715D01*
X36134792Y-29865286D01*
X36154628Y-29894974D01*
X36184315Y-29914810D01*
X36184316Y-29914811D01*
X36272253Y-29973568D01*
X36411001Y-30001167D01*
X36446021Y-29994201D01*
X37291645Y-29994201D01*
X37270600Y-30100000D01*
X37270600Y-31330127D01*
X37169646Y-31330127D01*
X37155775Y-31296640D01*
X37005727Y-31146592D01*
X36809680Y-31065387D01*
X36597480Y-31065387D01*
X36561801Y-31080166D01*
X36561801Y-30963071D01*
X36571878Y-30912410D01*
X36531955Y-30711701D01*
X36418262Y-30541549D01*
X36248110Y-30427856D01*
X36098062Y-30398010D01*
X36047401Y-30387933D01*
X35996740Y-30398010D01*
X33536373Y-30398010D01*
X33485716Y-30387934D01*
X33435059Y-30398010D01*
X33435055Y-30398010D01*
X33319399Y-30421015D01*
X33294373Y-30421015D01*
X33166659Y-30395612D01*
X33083373Y-30412178D01*
X31779400Y-30412178D01*
X31779400Y-30158177D01*
X33479806Y-30158177D01*
X33632370Y-30188523D01*
X33632371Y-30188523D01*
X33833079Y-30148601D01*
X33885252Y-30113740D01*
X34003232Y-30034908D01*
X34031931Y-29991957D01*
X34263071Y-29760818D01*
X34336839Y-29760818D01*
X34387496Y-29770894D01*
X34438153Y-29760818D01*
X34438157Y-29760818D01*
X34588205Y-29730972D01*
X34735076Y-29632835D01*
X34769807Y-29618449D01*
X34919855Y-29468401D01*
X34985127Y-29310820D01*
X34985127Y-29450000D01*
G36*
X22844225Y-28703360D02*
X22994273Y-28853408D01*
X23190320Y-28934613D01*
X23402520Y-28934613D01*
X23438200Y-28919834D01*
X23438200Y-29036924D01*
X23428122Y-29087590D01*
X23468045Y-29288299D01*
X23581738Y-29458451D01*
X23751890Y-29572144D01*
X23901938Y-29601990D01*
X23952599Y-29612067D01*
X24003260Y-29601990D01*
X26463627Y-29601990D01*
X26514284Y-29612066D01*
X26564941Y-29601990D01*
X26564945Y-29601990D01*
X26680601Y-29578985D01*
X26705627Y-29578985D01*
X26833341Y-29604388D01*
X26961055Y-29578985D01*
X27516051Y-29578985D01*
X27529207Y-29610747D01*
X27679255Y-29760795D01*
X27875302Y-29842000D01*
X28087502Y-29842000D01*
X28196729Y-29796757D01*
X28214842Y-29793154D01*
X28230197Y-29782894D01*
X28283549Y-29760795D01*
X28324385Y-29719959D01*
X28373000Y-29687475D01*
X28373000Y-30328681D01*
X28352124Y-30307805D01*
X28156077Y-30226600D01*
X28045387Y-30226600D01*
X28039977Y-30225524D01*
X28034567Y-30226600D01*
X27943877Y-30226600D01*
X27922149Y-30235600D01*
X26001970Y-30235600D01*
X25956100Y-30216600D01*
X25743900Y-30216600D01*
X25698030Y-30235600D01*
X25601970Y-30235600D01*
X25556100Y-30216600D01*
X25343900Y-30216600D01*
X25147853Y-30297805D01*
X24997805Y-30447853D01*
X24995609Y-30453155D01*
X24993188Y-30440984D01*
X24931436Y-30348564D01*
X24839016Y-30286812D01*
X24730000Y-30265127D01*
X24130000Y-30265127D01*
X24020984Y-30286812D01*
X23928564Y-30348564D01*
X23897938Y-30394400D01*
X23683777Y-30394400D01*
X23424092Y-30134716D01*
X23404254Y-30105026D01*
X23286629Y-30026432D01*
X23182901Y-30005799D01*
X23147881Y-29998833D01*
X23112861Y-30005799D01*
X22708355Y-30005799D01*
X22729400Y-29900000D01*
X22729400Y-28669873D01*
X22830354Y-28669873D01*
X22844225Y-28703360D01*
X22844225Y-28703360D01*
G37*
X22844225Y-28703360D02*
X22994273Y-28853408D01*
X23190320Y-28934613D01*
X23402520Y-28934613D01*
X23438200Y-28919834D01*
X23438200Y-29036924D01*
X23428122Y-29087590D01*
X23468045Y-29288299D01*
X23581738Y-29458451D01*
X23751890Y-29572144D01*
X23901938Y-29601990D01*
X23952599Y-29612067D01*
X24003260Y-29601990D01*
X26463627Y-29601990D01*
X26514284Y-29612066D01*
X26564941Y-29601990D01*
X26564945Y-29601990D01*
X26680601Y-29578985D01*
X26705627Y-29578985D01*
X26833341Y-29604388D01*
X26961055Y-29578985D01*
X27516051Y-29578985D01*
X27529207Y-29610747D01*
X27679255Y-29760795D01*
X27875302Y-29842000D01*
X28087502Y-29842000D01*
X28196729Y-29796757D01*
X28214842Y-29793154D01*
X28230197Y-29782894D01*
X28283549Y-29760795D01*
X28324385Y-29719959D01*
X28373000Y-29687475D01*
X28373000Y-30328681D01*
X28352124Y-30307805D01*
X28156077Y-30226600D01*
X28045387Y-30226600D01*
X28039977Y-30225524D01*
X28034567Y-30226600D01*
X27943877Y-30226600D01*
X27922149Y-30235600D01*
X26001970Y-30235600D01*
X25956100Y-30216600D01*
X25743900Y-30216600D01*
X25698030Y-30235600D01*
X25601970Y-30235600D01*
X25556100Y-30216600D01*
X25343900Y-30216600D01*
X25147853Y-30297805D01*
X24997805Y-30447853D01*
X24995609Y-30453155D01*
X24993188Y-30440984D01*
X24931436Y-30348564D01*
X24839016Y-30286812D01*
X24730000Y-30265127D01*
X24130000Y-30265127D01*
X24020984Y-30286812D01*
X23928564Y-30348564D01*
X23897938Y-30394400D01*
X23683777Y-30394400D01*
X23424092Y-30134716D01*
X23404254Y-30105026D01*
X23286629Y-30026432D01*
X23182901Y-30005799D01*
X23147881Y-29998833D01*
X23112861Y-30005799D01*
X22708355Y-30005799D01*
X22729400Y-29900000D01*
X22729400Y-28669873D01*
X22830354Y-28669873D01*
X22844225Y-28703360D01*
G36*
X36100000Y-27974873D02*
X36438386Y-27974873D01*
X36386654Y-27996301D01*
X36236606Y-28146349D01*
X36155401Y-28342396D01*
X36155401Y-28554596D01*
X36236606Y-28750643D01*
X36386654Y-28900691D01*
X36408849Y-28909884D01*
X36411610Y-28914016D01*
X36432429Y-28945174D01*
X36462116Y-28965010D01*
X36750127Y-29253022D01*
X36750127Y-29283001D01*
X36558296Y-29283001D01*
X36298611Y-29023317D01*
X36278773Y-28993627D01*
X36161148Y-28915033D01*
X36108905Y-28904641D01*
X36071436Y-28848564D01*
X35998754Y-28800000D01*
X36071436Y-28751436D01*
X36133188Y-28659016D01*
X36154873Y-28550000D01*
X36154873Y-28150000D01*
X36133188Y-28040984D01*
X36087331Y-27972353D01*
X36100000Y-27974873D01*
X36100000Y-27974873D01*
G37*
X36100000Y-27974873D02*
X36438386Y-27974873D01*
X36386654Y-27996301D01*
X36236606Y-28146349D01*
X36155401Y-28342396D01*
X36155401Y-28554596D01*
X36236606Y-28750643D01*
X36386654Y-28900691D01*
X36408849Y-28909884D01*
X36411610Y-28914016D01*
X36432429Y-28945174D01*
X36462116Y-28965010D01*
X36750127Y-29253022D01*
X36750127Y-29283001D01*
X36558296Y-29283001D01*
X36298611Y-29023317D01*
X36278773Y-28993627D01*
X36161148Y-28915033D01*
X36108905Y-28904641D01*
X36071436Y-28848564D01*
X35998754Y-28800000D01*
X36071436Y-28751436D01*
X36133188Y-28659016D01*
X36154873Y-28550000D01*
X36154873Y-28150000D01*
X36133188Y-28040984D01*
X36087331Y-27972353D01*
X36100000Y-27974873D01*
G36*
X38425984Y-27773188D02*
X38535000Y-27794873D01*
X38691979Y-27794873D01*
X38734583Y-27837477D01*
X38664207Y-27907853D01*
X38583002Y-28103900D01*
X38583002Y-28214975D01*
X38576035Y-28250000D01*
X38583001Y-28285020D01*
X38583001Y-28355160D01*
X38482626Y-28422228D01*
X38462786Y-28451920D01*
X38433316Y-28481390D01*
X38403627Y-28501228D01*
X38383791Y-28530915D01*
X38383790Y-28530916D01*
X38325033Y-28618853D01*
X38322309Y-28632548D01*
X38285000Y-28625127D01*
X38035000Y-28625127D01*
X37925984Y-28646812D01*
X37833564Y-28708564D01*
X37771812Y-28800984D01*
X37750127Y-28910000D01*
X37750127Y-29225531D01*
X37707805Y-29267853D01*
X37701531Y-29283001D01*
X37569873Y-29283001D01*
X37569873Y-28910000D01*
X37548188Y-28800984D01*
X37486436Y-28708564D01*
X37394016Y-28646812D01*
X37285000Y-28625127D01*
X37192986Y-28625127D01*
X37222201Y-28554596D01*
X37222201Y-28342396D01*
X37140996Y-28146349D01*
X36990948Y-27996301D01*
X36838807Y-27933282D01*
X36901436Y-27891436D01*
X36963188Y-27799016D01*
X36966714Y-27781290D01*
X37035000Y-27794873D01*
X37285000Y-27794873D01*
X37394016Y-27773188D01*
X37410000Y-27762508D01*
X37425984Y-27773188D01*
X37535000Y-27794873D01*
X37785000Y-27794873D01*
X37894016Y-27773188D01*
X37910000Y-27762508D01*
X37925984Y-27773188D01*
X38035000Y-27794873D01*
X38285000Y-27794873D01*
X38394016Y-27773188D01*
X38410000Y-27762508D01*
X38425984Y-27773188D01*
X38425984Y-27773188D01*
G37*
X38425984Y-27773188D02*
X38535000Y-27794873D01*
X38691979Y-27794873D01*
X38734583Y-27837477D01*
X38664207Y-27907853D01*
X38583002Y-28103900D01*
X38583002Y-28214975D01*
X38576035Y-28250000D01*
X38583001Y-28285020D01*
X38583001Y-28355160D01*
X38482626Y-28422228D01*
X38462786Y-28451920D01*
X38433316Y-28481390D01*
X38403627Y-28501228D01*
X38383791Y-28530915D01*
X38383790Y-28530916D01*
X38325033Y-28618853D01*
X38322309Y-28632548D01*
X38285000Y-28625127D01*
X38035000Y-28625127D01*
X37925984Y-28646812D01*
X37833564Y-28708564D01*
X37771812Y-28800984D01*
X37750127Y-28910000D01*
X37750127Y-29225531D01*
X37707805Y-29267853D01*
X37701531Y-29283001D01*
X37569873Y-29283001D01*
X37569873Y-28910000D01*
X37548188Y-28800984D01*
X37486436Y-28708564D01*
X37394016Y-28646812D01*
X37285000Y-28625127D01*
X37192986Y-28625127D01*
X37222201Y-28554596D01*
X37222201Y-28342396D01*
X37140996Y-28146349D01*
X36990948Y-27996301D01*
X36838807Y-27933282D01*
X36901436Y-27891436D01*
X36963188Y-27799016D01*
X36966714Y-27781290D01*
X37035000Y-27794873D01*
X37285000Y-27794873D01*
X37394016Y-27773188D01*
X37410000Y-27762508D01*
X37425984Y-27773188D01*
X37535000Y-27794873D01*
X37785000Y-27794873D01*
X37894016Y-27773188D01*
X37910000Y-27762508D01*
X37925984Y-27773188D01*
X38035000Y-27794873D01*
X38285000Y-27794873D01*
X38394016Y-27773188D01*
X38410000Y-27762508D01*
X38425984Y-27773188D01*
G36*
X34985127Y-28550000D02*
X35006812Y-28659016D01*
X35068564Y-28751436D01*
X35141246Y-28800000D01*
X35068564Y-28848564D01*
X35006812Y-28940984D01*
X34988932Y-29030873D01*
X34919855Y-28864107D01*
X34769807Y-28714059D01*
X34573760Y-28632854D01*
X34494873Y-28632854D01*
X34494873Y-28458021D01*
X34585895Y-28366999D01*
X34985127Y-28366999D01*
X34985127Y-28550000D01*
X34985127Y-28550000D01*
G37*
X34985127Y-28550000D02*
X35006812Y-28659016D01*
X35068564Y-28751436D01*
X35141246Y-28800000D01*
X35068564Y-28848564D01*
X35006812Y-28940984D01*
X34988932Y-29030873D01*
X34919855Y-28864107D01*
X34769807Y-28714059D01*
X34573760Y-28632854D01*
X34494873Y-28632854D01*
X34494873Y-28458021D01*
X34585895Y-28366999D01*
X34985127Y-28366999D01*
X34985127Y-28550000D01*
G36*
X26355127Y-24670000D02*
X26355127Y-25570000D01*
X26376812Y-25679016D01*
X26438564Y-25771436D01*
X26530984Y-25833188D01*
X26640000Y-25854873D01*
X26855127Y-25854873D01*
X26855127Y-26070000D01*
X26875019Y-26170000D01*
X26855127Y-26270000D01*
X26855127Y-26570000D01*
X26875019Y-26670000D01*
X26855127Y-26770000D01*
X26855127Y-27070000D01*
X26875019Y-27170000D01*
X26855127Y-27270000D01*
X26855127Y-27485127D01*
X26640000Y-27485127D01*
X26540000Y-27505019D01*
X26440000Y-27485127D01*
X26140000Y-27485127D01*
X26040000Y-27505019D01*
X25940000Y-27485127D01*
X25640000Y-27485127D01*
X25530984Y-27506812D01*
X25438564Y-27568564D01*
X25376812Y-27660984D01*
X25355127Y-27770000D01*
X25355127Y-28573190D01*
X25138811Y-28573190D01*
X25141436Y-28571436D01*
X25203188Y-28479016D01*
X25224873Y-28370000D01*
X25224873Y-27770000D01*
X25204981Y-27670000D01*
X25224873Y-27570000D01*
X25224873Y-27270000D01*
X25204981Y-27170000D01*
X25224873Y-27070000D01*
X25224873Y-26770000D01*
X25204981Y-26670000D01*
X25224873Y-26570000D01*
X25224873Y-26270000D01*
X25204981Y-26170000D01*
X25224873Y-26070000D01*
X25224873Y-25854873D01*
X25440000Y-25854873D01*
X25540000Y-25834981D01*
X25640000Y-25854873D01*
X25940000Y-25854873D01*
X26049016Y-25833188D01*
X26141436Y-25771436D01*
X26203188Y-25679016D01*
X26224873Y-25570000D01*
X26224873Y-24752271D01*
X26367041Y-24610103D01*
X26355127Y-24670000D01*
X26355127Y-24670000D01*
G37*
X26355127Y-24670000D02*
X26355127Y-25570000D01*
X26376812Y-25679016D01*
X26438564Y-25771436D01*
X26530984Y-25833188D01*
X26640000Y-25854873D01*
X26855127Y-25854873D01*
X26855127Y-26070000D01*
X26875019Y-26170000D01*
X26855127Y-26270000D01*
X26855127Y-26570000D01*
X26875019Y-26670000D01*
X26855127Y-26770000D01*
X26855127Y-27070000D01*
X26875019Y-27170000D01*
X26855127Y-27270000D01*
X26855127Y-27485127D01*
X26640000Y-27485127D01*
X26540000Y-27505019D01*
X26440000Y-27485127D01*
X26140000Y-27485127D01*
X26040000Y-27505019D01*
X25940000Y-27485127D01*
X25640000Y-27485127D01*
X25530984Y-27506812D01*
X25438564Y-27568564D01*
X25376812Y-27660984D01*
X25355127Y-27770000D01*
X25355127Y-28573190D01*
X25138811Y-28573190D01*
X25141436Y-28571436D01*
X25203188Y-28479016D01*
X25224873Y-28370000D01*
X25224873Y-27770000D01*
X25204981Y-27670000D01*
X25224873Y-27570000D01*
X25224873Y-27270000D01*
X25204981Y-27170000D01*
X25224873Y-27070000D01*
X25224873Y-26770000D01*
X25204981Y-26670000D01*
X25224873Y-26570000D01*
X25224873Y-26270000D01*
X25204981Y-26170000D01*
X25224873Y-26070000D01*
X25224873Y-25854873D01*
X25440000Y-25854873D01*
X25540000Y-25834981D01*
X25640000Y-25854873D01*
X25940000Y-25854873D01*
X26049016Y-25833188D01*
X26141436Y-25771436D01*
X26203188Y-25679016D01*
X26224873Y-25570000D01*
X26224873Y-24752271D01*
X26367041Y-24610103D01*
X26355127Y-24670000D01*
G36*
X35190000Y-27114873D02*
X35487672Y-27114873D01*
X35537870Y-27190000D01*
X35562228Y-27226455D01*
X35591916Y-27246292D01*
X35815127Y-27469504D01*
X35815127Y-27690000D01*
X35836812Y-27799016D01*
X35882669Y-27867647D01*
X35870000Y-27865127D01*
X35649503Y-27865127D01*
X35569092Y-27784716D01*
X35549254Y-27755026D01*
X35431629Y-27676432D01*
X35327901Y-27655799D01*
X35292881Y-27648833D01*
X35257861Y-27655799D01*
X34473615Y-27655799D01*
X34438600Y-27648834D01*
X34403585Y-27655799D01*
X34403581Y-27655799D01*
X34299853Y-27676432D01*
X34234201Y-27720299D01*
X34234201Y-27618041D01*
X34642370Y-27209873D01*
X34975000Y-27209873D01*
X35084016Y-27188188D01*
X35176436Y-27126436D01*
X35184847Y-27113848D01*
X35190000Y-27114873D01*
X35190000Y-27114873D01*
G37*
X35190000Y-27114873D02*
X35487672Y-27114873D01*
X35537870Y-27190000D01*
X35562228Y-27226455D01*
X35591916Y-27246292D01*
X35815127Y-27469504D01*
X35815127Y-27690000D01*
X35836812Y-27799016D01*
X35882669Y-27867647D01*
X35870000Y-27865127D01*
X35649503Y-27865127D01*
X35569092Y-27784716D01*
X35549254Y-27755026D01*
X35431629Y-27676432D01*
X35327901Y-27655799D01*
X35292881Y-27648833D01*
X35257861Y-27655799D01*
X34473615Y-27655799D01*
X34438600Y-27648834D01*
X34403585Y-27655799D01*
X34403581Y-27655799D01*
X34299853Y-27676432D01*
X34234201Y-27720299D01*
X34234201Y-27618041D01*
X34642370Y-27209873D01*
X34975000Y-27209873D01*
X35084016Y-27188188D01*
X35176436Y-27126436D01*
X35184847Y-27113848D01*
X35190000Y-27114873D01*
G36*
X33390127Y-26925000D02*
X33397092Y-26960014D01*
X33331979Y-27025127D01*
X33050000Y-27025127D01*
X32964873Y-27042060D01*
X32964873Y-26775599D01*
X33390127Y-26775599D01*
X33390127Y-26925000D01*
X33390127Y-26925000D01*
G37*
X33390127Y-26925000D02*
X33397092Y-26960014D01*
X33331979Y-27025127D01*
X33050000Y-27025127D01*
X32964873Y-27042060D01*
X32964873Y-26775599D01*
X33390127Y-26775599D01*
X33390127Y-26925000D01*
G36*
X36563001Y-25273581D02*
X36556035Y-25308601D01*
X36583634Y-25447348D01*
X36637071Y-25527322D01*
X36662228Y-25564973D01*
X36691916Y-25584810D01*
X36790127Y-25683021D01*
X36790127Y-26120000D01*
X36808716Y-26213453D01*
X36781148Y-26195033D01*
X36767372Y-26192293D01*
X36753188Y-26120984D01*
X36691436Y-26028564D01*
X36599016Y-25966812D01*
X36490000Y-25945127D01*
X36230201Y-25945127D01*
X36230201Y-25254873D01*
X36563001Y-25254873D01*
X36563001Y-25273581D01*
X36563001Y-25273581D01*
G37*
X36563001Y-25273581D02*
X36556035Y-25308601D01*
X36583634Y-25447348D01*
X36637071Y-25527322D01*
X36662228Y-25564973D01*
X36691916Y-25584810D01*
X36790127Y-25683021D01*
X36790127Y-26120000D01*
X36808716Y-26213453D01*
X36781148Y-26195033D01*
X36767372Y-26192293D01*
X36753188Y-26120984D01*
X36691436Y-26028564D01*
X36599016Y-25966812D01*
X36490000Y-25945127D01*
X36230201Y-25945127D01*
X36230201Y-25254873D01*
X36563001Y-25254873D01*
X36563001Y-25273581D01*
G36*
X34195016Y-24725977D02*
X34203040Y-24724381D01*
X34235159Y-24756500D01*
X34431206Y-24837705D01*
X34643406Y-24837705D01*
X34671007Y-24826272D01*
X34692432Y-24933982D01*
X34751189Y-25021919D01*
X34751191Y-25021921D01*
X34771027Y-25051608D01*
X34800714Y-25071444D01*
X34969280Y-25240011D01*
X34961127Y-25281000D01*
X34961127Y-25881000D01*
X34982812Y-25990016D01*
X35002394Y-26019323D01*
X34988564Y-26028564D01*
X34980153Y-26041152D01*
X34975000Y-26040127D01*
X34575000Y-26040127D01*
X34465984Y-26061812D01*
X34373564Y-26123564D01*
X34325000Y-26196246D01*
X34276436Y-26123564D01*
X34184016Y-26061812D01*
X34075000Y-26040127D01*
X33724873Y-26040127D01*
X33724873Y-25770000D01*
X33703188Y-25660984D01*
X33641436Y-25568564D01*
X33549016Y-25506812D01*
X33526999Y-25502432D01*
X33526999Y-25234873D01*
X33800000Y-25234873D01*
X33909016Y-25213188D01*
X34001436Y-25151436D01*
X34063188Y-25059016D01*
X34084873Y-24950000D01*
X34084873Y-24719011D01*
X34159996Y-24719011D01*
X34195016Y-24725977D01*
X34195016Y-24725977D01*
G37*
X34195016Y-24725977D02*
X34203040Y-24724381D01*
X34235159Y-24756500D01*
X34431206Y-24837705D01*
X34643406Y-24837705D01*
X34671007Y-24826272D01*
X34692432Y-24933982D01*
X34751189Y-25021919D01*
X34751191Y-25021921D01*
X34771027Y-25051608D01*
X34800714Y-25071444D01*
X34969280Y-25240011D01*
X34961127Y-25281000D01*
X34961127Y-25881000D01*
X34982812Y-25990016D01*
X35002394Y-26019323D01*
X34988564Y-26028564D01*
X34980153Y-26041152D01*
X34975000Y-26040127D01*
X34575000Y-26040127D01*
X34465984Y-26061812D01*
X34373564Y-26123564D01*
X34325000Y-26196246D01*
X34276436Y-26123564D01*
X34184016Y-26061812D01*
X34075000Y-26040127D01*
X33724873Y-26040127D01*
X33724873Y-25770000D01*
X33703188Y-25660984D01*
X33641436Y-25568564D01*
X33549016Y-25506812D01*
X33526999Y-25502432D01*
X33526999Y-25234873D01*
X33800000Y-25234873D01*
X33909016Y-25213188D01*
X34001436Y-25151436D01*
X34063188Y-25059016D01*
X34084873Y-24950000D01*
X34084873Y-24719011D01*
X34159996Y-24719011D01*
X34195016Y-24725977D01*
G36*
X37465984Y-24483188D02*
X37575000Y-24504873D01*
X37825000Y-24504873D01*
X37862309Y-24497452D01*
X37865033Y-24511147D01*
X37923790Y-24599084D01*
X37923792Y-24599086D01*
X37943628Y-24628773D01*
X37973316Y-24648610D01*
X38002786Y-24678080D01*
X38022626Y-24707772D01*
X38140251Y-24786366D01*
X38243979Y-24806999D01*
X38243983Y-24806999D01*
X38278998Y-24813964D01*
X38314013Y-24806999D01*
X38648398Y-24806999D01*
X38623001Y-24868313D01*
X38623001Y-25080513D01*
X38692883Y-25249223D01*
X38606979Y-25335127D01*
X38575000Y-25335127D01*
X38465984Y-25356812D01*
X38450000Y-25367492D01*
X38434016Y-25356812D01*
X38325000Y-25335127D01*
X38075000Y-25335127D01*
X37965984Y-25356812D01*
X37873564Y-25418564D01*
X37811812Y-25510984D01*
X37790127Y-25620000D01*
X37790127Y-25994527D01*
X37596270Y-26188384D01*
X37609873Y-26120000D01*
X37609873Y-25620000D01*
X37588188Y-25510984D01*
X37526436Y-25418564D01*
X37502391Y-25402498D01*
X37456373Y-25333627D01*
X37426683Y-25313789D01*
X37274201Y-25161307D01*
X37274201Y-24504873D01*
X37325000Y-24504873D01*
X37434016Y-24483188D01*
X37450000Y-24472508D01*
X37465984Y-24483188D01*
X37465984Y-24483188D01*
G37*
X37465984Y-24483188D02*
X37575000Y-24504873D01*
X37825000Y-24504873D01*
X37862309Y-24497452D01*
X37865033Y-24511147D01*
X37923790Y-24599084D01*
X37923792Y-24599086D01*
X37943628Y-24628773D01*
X37973316Y-24648610D01*
X38002786Y-24678080D01*
X38022626Y-24707772D01*
X38140251Y-24786366D01*
X38243979Y-24806999D01*
X38243983Y-24806999D01*
X38278998Y-24813964D01*
X38314013Y-24806999D01*
X38648398Y-24806999D01*
X38623001Y-24868313D01*
X38623001Y-25080513D01*
X38692883Y-25249223D01*
X38606979Y-25335127D01*
X38575000Y-25335127D01*
X38465984Y-25356812D01*
X38450000Y-25367492D01*
X38434016Y-25356812D01*
X38325000Y-25335127D01*
X38075000Y-25335127D01*
X37965984Y-25356812D01*
X37873564Y-25418564D01*
X37811812Y-25510984D01*
X37790127Y-25620000D01*
X37790127Y-25994527D01*
X37596270Y-26188384D01*
X37609873Y-26120000D01*
X37609873Y-25620000D01*
X37588188Y-25510984D01*
X37526436Y-25418564D01*
X37502391Y-25402498D01*
X37456373Y-25333627D01*
X37426683Y-25313789D01*
X37274201Y-25161307D01*
X37274201Y-24504873D01*
X37325000Y-24504873D01*
X37434016Y-24483188D01*
X37450000Y-24472508D01*
X37465984Y-24483188D01*
G36*
X25010499Y-24002158D02*
X24929294Y-24198205D01*
X24929294Y-24248538D01*
X24792147Y-24111391D01*
X24596100Y-24030186D01*
X24383900Y-24030186D01*
X24187853Y-24111391D01*
X24037805Y-24261439D01*
X23956600Y-24457486D01*
X23956600Y-24515829D01*
X23884713Y-24587716D01*
X23855026Y-24607552D01*
X23835190Y-24637239D01*
X23835188Y-24637241D01*
X23776431Y-24725178D01*
X23748832Y-24863925D01*
X23755799Y-24898949D01*
X23755798Y-25714582D01*
X23748832Y-25749602D01*
X23755127Y-25781249D01*
X23755127Y-25806718D01*
X23733747Y-25792432D01*
X23630019Y-25771799D01*
X23594999Y-25764833D01*
X23559979Y-25771799D01*
X22725658Y-25771799D01*
X22725658Y-25379873D01*
X22930000Y-25379873D01*
X23039016Y-25358188D01*
X23131436Y-25296436D01*
X23149640Y-25269191D01*
X23221148Y-25254967D01*
X23338773Y-25176373D01*
X23358612Y-25146682D01*
X23385293Y-25120000D01*
X23414982Y-25100163D01*
X23493577Y-24982538D01*
X23514210Y-24878810D01*
X23514210Y-24878809D01*
X23521176Y-24843791D01*
X23514210Y-24808772D01*
X23514210Y-24451632D01*
X23633561Y-24402195D01*
X23783609Y-24252147D01*
X23864814Y-24056100D01*
X23864814Y-23879400D01*
X25133257Y-23879400D01*
X25010499Y-24002158D01*
X25010499Y-24002158D01*
G37*
X25010499Y-24002158D02*
X24929294Y-24198205D01*
X24929294Y-24248538D01*
X24792147Y-24111391D01*
X24596100Y-24030186D01*
X24383900Y-24030186D01*
X24187853Y-24111391D01*
X24037805Y-24261439D01*
X23956600Y-24457486D01*
X23956600Y-24515829D01*
X23884713Y-24587716D01*
X23855026Y-24607552D01*
X23835190Y-24637239D01*
X23835188Y-24637241D01*
X23776431Y-24725178D01*
X23748832Y-24863925D01*
X23755799Y-24898949D01*
X23755798Y-25714582D01*
X23748832Y-25749602D01*
X23755127Y-25781249D01*
X23755127Y-25806718D01*
X23733747Y-25792432D01*
X23630019Y-25771799D01*
X23594999Y-25764833D01*
X23559979Y-25771799D01*
X22725658Y-25771799D01*
X22725658Y-25379873D01*
X22930000Y-25379873D01*
X23039016Y-25358188D01*
X23131436Y-25296436D01*
X23149640Y-25269191D01*
X23221148Y-25254967D01*
X23338773Y-25176373D01*
X23358612Y-25146682D01*
X23385293Y-25120000D01*
X23414982Y-25100163D01*
X23493577Y-24982538D01*
X23514210Y-24878810D01*
X23514210Y-24878809D01*
X23521176Y-24843791D01*
X23514210Y-24808772D01*
X23514210Y-24451632D01*
X23633561Y-24402195D01*
X23783609Y-24252147D01*
X23864814Y-24056100D01*
X23864814Y-23879400D01*
X25133257Y-23879400D01*
X25010499Y-24002158D01*
G36*
X28373000Y-23956600D02*
X28173900Y-23956600D01*
X27977853Y-24037805D01*
X27913405Y-24102253D01*
X27709953Y-24102253D01*
X27613358Y-24005658D01*
X27417311Y-23924453D01*
X27269074Y-23924453D01*
X27216190Y-23889117D01*
X27112462Y-23868484D01*
X27077442Y-23861518D01*
X27042422Y-23868484D01*
X26285186Y-23868484D01*
X26250166Y-23861518D01*
X26111418Y-23889117D01*
X26032141Y-23942088D01*
X25993793Y-23967711D01*
X25973957Y-23997399D01*
X25930795Y-24040560D01*
X25914889Y-24002158D01*
X25764841Y-23852110D01*
X25672919Y-23814035D01*
X25697566Y-23797566D01*
X25758132Y-23706922D01*
X25779400Y-23600000D01*
X25779400Y-23551563D01*
X25825652Y-23582468D01*
X25975700Y-23612314D01*
X25975704Y-23612314D01*
X26026360Y-23622390D01*
X26077016Y-23612314D01*
X27620825Y-23612314D01*
X27671482Y-23622390D01*
X27722139Y-23612314D01*
X27722143Y-23612314D01*
X27775051Y-23601790D01*
X27889246Y-23601790D01*
X27935116Y-23620790D01*
X28147316Y-23620790D01*
X28343363Y-23539585D01*
X28373000Y-23509948D01*
X28373000Y-23956600D01*
X28373000Y-23956600D01*
G37*
X28373000Y-23956600D02*
X28173900Y-23956600D01*
X27977853Y-24037805D01*
X27913405Y-24102253D01*
X27709953Y-24102253D01*
X27613358Y-24005658D01*
X27417311Y-23924453D01*
X27269074Y-23924453D01*
X27216190Y-23889117D01*
X27112462Y-23868484D01*
X27077442Y-23861518D01*
X27042422Y-23868484D01*
X26285186Y-23868484D01*
X26250166Y-23861518D01*
X26111418Y-23889117D01*
X26032141Y-23942088D01*
X25993793Y-23967711D01*
X25973957Y-23997399D01*
X25930795Y-24040560D01*
X25914889Y-24002158D01*
X25764841Y-23852110D01*
X25672919Y-23814035D01*
X25697566Y-23797566D01*
X25758132Y-23706922D01*
X25779400Y-23600000D01*
X25779400Y-23551563D01*
X25825652Y-23582468D01*
X25975700Y-23612314D01*
X25975704Y-23612314D01*
X26026360Y-23622390D01*
X26077016Y-23612314D01*
X27620825Y-23612314D01*
X27671482Y-23622390D01*
X27722139Y-23612314D01*
X27722143Y-23612314D01*
X27775051Y-23601790D01*
X27889246Y-23601790D01*
X27935116Y-23620790D01*
X28147316Y-23620790D01*
X28343363Y-23539585D01*
X28373000Y-23509948D01*
X28373000Y-23956600D01*
G36*
X34275984Y-21433188D02*
X34385000Y-21454873D01*
X34635000Y-21454873D01*
X34672309Y-21447452D01*
X34675033Y-21461147D01*
X34733790Y-21549084D01*
X34733792Y-21549086D01*
X34753628Y-21578773D01*
X34783316Y-21598610D01*
X34809988Y-21625282D01*
X34829828Y-21654974D01*
X34947453Y-21733568D01*
X35051181Y-21754201D01*
X35051185Y-21754201D01*
X35086200Y-21761166D01*
X35121215Y-21754201D01*
X35439402Y-21754201D01*
X35426035Y-21821399D01*
X35433001Y-21856419D01*
X35433001Y-22015160D01*
X35332626Y-22082228D01*
X35312786Y-22111920D01*
X35283316Y-22141390D01*
X35253627Y-22161228D01*
X35233791Y-22190915D01*
X35233790Y-22190916D01*
X35175033Y-22278853D01*
X35172309Y-22292548D01*
X35135000Y-22285127D01*
X34885000Y-22285127D01*
X34775984Y-22306812D01*
X34683564Y-22368564D01*
X34621812Y-22460984D01*
X34600127Y-22570000D01*
X34600127Y-22943001D01*
X34419873Y-22943001D01*
X34419873Y-22570000D01*
X34398188Y-22460984D01*
X34336436Y-22368564D01*
X34244016Y-22306812D01*
X34135000Y-22285127D01*
X34103021Y-22285127D01*
X33926412Y-22108518D01*
X34004404Y-21920227D01*
X34004404Y-21708027D01*
X33923199Y-21511980D01*
X33861397Y-21450178D01*
X33885000Y-21454873D01*
X34135000Y-21454873D01*
X34244016Y-21433188D01*
X34260000Y-21422508D01*
X34275984Y-21433188D01*
X34275984Y-21433188D01*
G37*
X34275984Y-21433188D02*
X34385000Y-21454873D01*
X34635000Y-21454873D01*
X34672309Y-21447452D01*
X34675033Y-21461147D01*
X34733790Y-21549084D01*
X34733792Y-21549086D01*
X34753628Y-21578773D01*
X34783316Y-21598610D01*
X34809988Y-21625282D01*
X34829828Y-21654974D01*
X34947453Y-21733568D01*
X35051181Y-21754201D01*
X35051185Y-21754201D01*
X35086200Y-21761166D01*
X35121215Y-21754201D01*
X35439402Y-21754201D01*
X35426035Y-21821399D01*
X35433001Y-21856419D01*
X35433001Y-22015160D01*
X35332626Y-22082228D01*
X35312786Y-22111920D01*
X35283316Y-22141390D01*
X35253627Y-22161228D01*
X35233791Y-22190915D01*
X35233790Y-22190916D01*
X35175033Y-22278853D01*
X35172309Y-22292548D01*
X35135000Y-22285127D01*
X34885000Y-22285127D01*
X34775984Y-22306812D01*
X34683564Y-22368564D01*
X34621812Y-22460984D01*
X34600127Y-22570000D01*
X34600127Y-22943001D01*
X34419873Y-22943001D01*
X34419873Y-22570000D01*
X34398188Y-22460984D01*
X34336436Y-22368564D01*
X34244016Y-22306812D01*
X34135000Y-22285127D01*
X34103021Y-22285127D01*
X33926412Y-22108518D01*
X34004404Y-21920227D01*
X34004404Y-21708027D01*
X33923199Y-21511980D01*
X33861397Y-21450178D01*
X33885000Y-21454873D01*
X34135000Y-21454873D01*
X34244016Y-21433188D01*
X34260000Y-21422508D01*
X34275984Y-21433188D01*
G36*
X32937604Y-21920227D02*
X33018809Y-22116274D01*
X33120828Y-22218293D01*
X33136037Y-22294751D01*
X33181349Y-22362565D01*
X33214631Y-22412376D01*
X33244319Y-22432213D01*
X33600127Y-22788021D01*
X33600127Y-22837765D01*
X33596372Y-22832145D01*
X33566685Y-22812309D01*
X33478413Y-22724037D01*
X33458575Y-22694347D01*
X33340950Y-22615753D01*
X33237222Y-22595120D01*
X33202202Y-22588154D01*
X33167182Y-22595120D01*
X32738014Y-22595120D01*
X32696999Y-22554105D01*
X32696999Y-21845895D01*
X32788021Y-21754873D01*
X32937604Y-21754873D01*
X32937604Y-21920227D01*
X32937604Y-21920227D01*
G37*
X32937604Y-21920227D02*
X33018809Y-22116274D01*
X33120828Y-22218293D01*
X33136037Y-22294751D01*
X33181349Y-22362565D01*
X33214631Y-22412376D01*
X33244319Y-22432213D01*
X33600127Y-22788021D01*
X33600127Y-22837765D01*
X33596372Y-22832145D01*
X33566685Y-22812309D01*
X33478413Y-22724037D01*
X33458575Y-22694347D01*
X33340950Y-22615753D01*
X33237222Y-22595120D01*
X33202202Y-22588154D01*
X33167182Y-22595120D01*
X32738014Y-22595120D01*
X32696999Y-22554105D01*
X32696999Y-21845895D01*
X32788021Y-21754873D01*
X32937604Y-21754873D01*
X32937604Y-21920227D01*
G36*
X28373000Y-22363222D02*
X28317145Y-22340086D01*
X28104945Y-22340086D01*
X27908898Y-22421291D01*
X27758850Y-22571339D01*
X27758166Y-22572990D01*
X27732661Y-22572990D01*
X27682005Y-22562914D01*
X27631349Y-22572990D01*
X27631345Y-22572990D01*
X27578437Y-22583514D01*
X26232315Y-22583514D01*
X26126557Y-22512848D01*
X25925849Y-22472926D01*
X25875188Y-22483003D01*
X25779400Y-22483003D01*
X25779400Y-22199873D01*
X26090000Y-22199873D01*
X26142674Y-22189395D01*
X26227430Y-22274151D01*
X26423477Y-22355356D01*
X26635677Y-22355356D01*
X26831724Y-22274151D01*
X26981772Y-22124103D01*
X27062977Y-21928056D01*
X27062977Y-21715856D01*
X26981772Y-21519809D01*
X26831724Y-21369761D01*
X26635677Y-21288556D01*
X26423477Y-21288556D01*
X26365402Y-21312611D01*
X26374873Y-21265000D01*
X26374873Y-21113146D01*
X26379477Y-21090000D01*
X26374873Y-21066854D01*
X26374873Y-20915000D01*
X26369400Y-20887486D01*
X26369400Y-20834400D01*
X26791595Y-20834400D01*
X26773882Y-20877163D01*
X26773882Y-21089363D01*
X26855087Y-21285410D01*
X27005135Y-21435458D01*
X27201182Y-21516663D01*
X27413382Y-21516663D01*
X27609429Y-21435458D01*
X27759477Y-21285410D01*
X27840682Y-21089363D01*
X27840682Y-20877163D01*
X27797927Y-20773943D01*
X27802147Y-20772195D01*
X27848482Y-20725860D01*
X27900861Y-20690861D01*
X27935860Y-20638482D01*
X27952195Y-20622147D01*
X27961035Y-20600805D01*
X28014554Y-20520709D01*
X28033347Y-20426227D01*
X28033400Y-20426100D01*
X28033400Y-20425963D01*
X28052687Y-20329000D01*
X28373000Y-20329000D01*
X28373000Y-22363222D01*
X28373000Y-22363222D01*
G37*
X28373000Y-22363222D02*
X28317145Y-22340086D01*
X28104945Y-22340086D01*
X27908898Y-22421291D01*
X27758850Y-22571339D01*
X27758166Y-22572990D01*
X27732661Y-22572990D01*
X27682005Y-22562914D01*
X27631349Y-22572990D01*
X27631345Y-22572990D01*
X27578437Y-22583514D01*
X26232315Y-22583514D01*
X26126557Y-22512848D01*
X25925849Y-22472926D01*
X25875188Y-22483003D01*
X25779400Y-22483003D01*
X25779400Y-22199873D01*
X26090000Y-22199873D01*
X26142674Y-22189395D01*
X26227430Y-22274151D01*
X26423477Y-22355356D01*
X26635677Y-22355356D01*
X26831724Y-22274151D01*
X26981772Y-22124103D01*
X27062977Y-21928056D01*
X27062977Y-21715856D01*
X26981772Y-21519809D01*
X26831724Y-21369761D01*
X26635677Y-21288556D01*
X26423477Y-21288556D01*
X26365402Y-21312611D01*
X26374873Y-21265000D01*
X26374873Y-21113146D01*
X26379477Y-21090000D01*
X26374873Y-21066854D01*
X26374873Y-20915000D01*
X26369400Y-20887486D01*
X26369400Y-20834400D01*
X26791595Y-20834400D01*
X26773882Y-20877163D01*
X26773882Y-21089363D01*
X26855087Y-21285410D01*
X27005135Y-21435458D01*
X27201182Y-21516663D01*
X27413382Y-21516663D01*
X27609429Y-21435458D01*
X27759477Y-21285410D01*
X27840682Y-21089363D01*
X27840682Y-20877163D01*
X27797927Y-20773943D01*
X27802147Y-20772195D01*
X27848482Y-20725860D01*
X27900861Y-20690861D01*
X27935860Y-20638482D01*
X27952195Y-20622147D01*
X27961035Y-20600805D01*
X28014554Y-20520709D01*
X28033347Y-20426227D01*
X28033400Y-20426100D01*
X28033400Y-20425963D01*
X28052687Y-20329000D01*
X28373000Y-20329000D01*
X28373000Y-22363222D01*
G36*
X33600127Y-20888021D02*
X33600127Y-21170000D01*
X33621812Y-21279016D01*
X33640501Y-21306987D01*
X33577104Y-21280727D01*
X33364904Y-21280727D01*
X33354873Y-21284882D01*
X33354873Y-21088021D01*
X33569694Y-20873200D01*
X33585306Y-20873200D01*
X33600127Y-20888021D01*
X33600127Y-20888021D01*
G37*
X33600127Y-20888021D02*
X33600127Y-21170000D01*
X33621812Y-21279016D01*
X33640501Y-21306987D01*
X33577104Y-21280727D01*
X33364904Y-21280727D01*
X33354873Y-21284882D01*
X33354873Y-21088021D01*
X33569694Y-20873200D01*
X33585306Y-20873200D01*
X33600127Y-20888021D01*
G36*
X21075750Y-27162566D02*
X21077799Y-27162158D01*
X21031812Y-27230984D01*
X21010127Y-27340000D01*
X21010127Y-27685062D01*
X20989698Y-27676600D01*
X20777498Y-27676600D01*
X20581451Y-27757805D01*
X20569048Y-27770208D01*
X20560984Y-27771812D01*
X20468564Y-27833564D01*
X20406812Y-27925984D01*
X20391031Y-28005321D01*
X20350198Y-28103900D01*
X20350198Y-28316100D01*
X20391031Y-28414679D01*
X20406812Y-28494016D01*
X20468564Y-28586436D01*
X20560984Y-28648188D01*
X20569048Y-28649792D01*
X20581451Y-28662195D01*
X20777498Y-28743400D01*
X20989698Y-28743400D01*
X21185745Y-28662195D01*
X21187519Y-28660421D01*
X21249016Y-28648188D01*
X21341436Y-28586436D01*
X21403188Y-28494016D01*
X21422909Y-28394873D01*
X22217091Y-28394873D01*
X22236812Y-28494016D01*
X22264196Y-28535000D01*
X22236812Y-28575984D01*
X22215127Y-28685000D01*
X22215127Y-28836854D01*
X22210523Y-28860000D01*
X22215127Y-28883146D01*
X22215127Y-29035000D01*
X22236812Y-29144016D01*
X22298564Y-29236436D01*
X22323000Y-29252763D01*
X22323000Y-29773000D01*
X20994873Y-29773000D01*
X20994873Y-29480000D01*
X20973188Y-29370984D01*
X20911436Y-29278564D01*
X20819016Y-29216812D01*
X20813050Y-29215625D01*
X20782487Y-29141839D01*
X20632439Y-28991791D01*
X20436392Y-28910586D01*
X20224192Y-28910586D01*
X20028145Y-28991791D01*
X19983492Y-29036444D01*
X19812393Y-28922119D01*
X19693795Y-28872994D01*
X19693794Y-28872994D01*
X19528369Y-28840089D01*
X19432401Y-28821000D01*
X19032401Y-28821000D01*
X19029564Y-28820436D01*
X19029000Y-28817599D01*
X19029000Y-27682401D01*
X19029564Y-27679564D01*
X19032401Y-27679000D01*
X19432401Y-27679000D01*
X19528369Y-27659911D01*
X19693794Y-27627006D01*
X19693795Y-27627006D01*
X19812393Y-27577881D01*
X20007047Y-27447817D01*
X20097819Y-27357045D01*
X20199911Y-27204253D01*
X20247853Y-27252195D01*
X20443900Y-27333400D01*
X20656100Y-27333400D01*
X20852147Y-27252195D01*
X20948742Y-27155600D01*
X21040730Y-27155600D01*
X21075750Y-27162566D01*
X21075750Y-27162566D01*
G37*
X21075750Y-27162566D02*
X21077799Y-27162158D01*
X21031812Y-27230984D01*
X21010127Y-27340000D01*
X21010127Y-27685062D01*
X20989698Y-27676600D01*
X20777498Y-27676600D01*
X20581451Y-27757805D01*
X20569048Y-27770208D01*
X20560984Y-27771812D01*
X20468564Y-27833564D01*
X20406812Y-27925984D01*
X20391031Y-28005321D01*
X20350198Y-28103900D01*
X20350198Y-28316100D01*
X20391031Y-28414679D01*
X20406812Y-28494016D01*
X20468564Y-28586436D01*
X20560984Y-28648188D01*
X20569048Y-28649792D01*
X20581451Y-28662195D01*
X20777498Y-28743400D01*
X20989698Y-28743400D01*
X21185745Y-28662195D01*
X21187519Y-28660421D01*
X21249016Y-28648188D01*
X21341436Y-28586436D01*
X21403188Y-28494016D01*
X21422909Y-28394873D01*
X22217091Y-28394873D01*
X22236812Y-28494016D01*
X22264196Y-28535000D01*
X22236812Y-28575984D01*
X22215127Y-28685000D01*
X22215127Y-28836854D01*
X22210523Y-28860000D01*
X22215127Y-28883146D01*
X22215127Y-29035000D01*
X22236812Y-29144016D01*
X22298564Y-29236436D01*
X22323000Y-29252763D01*
X22323000Y-29773000D01*
X20994873Y-29773000D01*
X20994873Y-29480000D01*
X20973188Y-29370984D01*
X20911436Y-29278564D01*
X20819016Y-29216812D01*
X20813050Y-29215625D01*
X20782487Y-29141839D01*
X20632439Y-28991791D01*
X20436392Y-28910586D01*
X20224192Y-28910586D01*
X20028145Y-28991791D01*
X19983492Y-29036444D01*
X19812393Y-28922119D01*
X19693795Y-28872994D01*
X19693794Y-28872994D01*
X19528369Y-28840089D01*
X19432401Y-28821000D01*
X19032401Y-28821000D01*
X19029564Y-28820436D01*
X19029000Y-28817599D01*
X19029000Y-27682401D01*
X19029564Y-27679564D01*
X19032401Y-27679000D01*
X19432401Y-27679000D01*
X19528369Y-27659911D01*
X19693794Y-27627006D01*
X19693795Y-27627006D01*
X19812393Y-27577881D01*
X20007047Y-27447817D01*
X20097819Y-27357045D01*
X20199911Y-27204253D01*
X20247853Y-27252195D01*
X20443900Y-27333400D01*
X20656100Y-27333400D01*
X20852147Y-27252195D01*
X20948742Y-27155600D01*
X21040730Y-27155600D01*
X21075750Y-27162566D01*
G36*
X20991812Y-23940984D02*
X20970127Y-24050000D01*
X20970127Y-24449475D01*
X20949699Y-24441013D01*
X20737499Y-24441013D01*
X20691354Y-24460127D01*
X20630000Y-24460127D01*
X20520984Y-24481812D01*
X20428564Y-24543564D01*
X20366812Y-24635984D01*
X20345127Y-24745000D01*
X20345127Y-24783989D01*
X20310199Y-24868313D01*
X20310199Y-25080513D01*
X20391404Y-25276560D01*
X20541452Y-25426608D01*
X20737499Y-25507813D01*
X20949699Y-25507813D01*
X21145746Y-25426608D01*
X21224536Y-25347818D01*
X21301436Y-25296436D01*
X21363188Y-25204016D01*
X21382909Y-25104873D01*
X22177091Y-25104873D01*
X22196812Y-25204016D01*
X22224196Y-25245000D01*
X22196812Y-25285984D01*
X22175127Y-25395000D01*
X22175127Y-25546854D01*
X22170523Y-25570000D01*
X22175127Y-25593146D01*
X22175127Y-25745000D01*
X22180458Y-25771799D01*
X21783365Y-25771799D01*
X21748350Y-25764834D01*
X21713335Y-25771799D01*
X21713331Y-25771799D01*
X21609603Y-25792432D01*
X21491978Y-25871026D01*
X21472140Y-25900716D01*
X20938599Y-26434257D01*
X20852147Y-26347805D01*
X20656100Y-26266600D01*
X20443900Y-26266600D01*
X20247853Y-26347805D01*
X20236718Y-26358940D01*
X20227882Y-26337607D01*
X20097817Y-26142953D01*
X20007045Y-26052181D01*
X19812393Y-25922119D01*
X19693795Y-25872994D01*
X19693794Y-25872994D01*
X19528369Y-25840089D01*
X19432401Y-25821000D01*
X19032401Y-25821000D01*
X19029564Y-25820436D01*
X19029000Y-25817599D01*
X19029000Y-24682401D01*
X19029564Y-24679564D01*
X19032401Y-24679000D01*
X19432401Y-24679000D01*
X19528369Y-24659911D01*
X19693794Y-24627006D01*
X19693795Y-24627006D01*
X19812393Y-24577881D01*
X20007047Y-24447817D01*
X20097819Y-24357045D01*
X20227882Y-24162393D01*
X20277006Y-24043794D01*
X20300661Y-23924873D01*
X20670000Y-23924873D01*
X20779016Y-23903188D01*
X20814618Y-23879400D01*
X21032960Y-23879400D01*
X20991812Y-23940984D01*
X20991812Y-23940984D01*
G37*
X20991812Y-23940984D02*
X20970127Y-24050000D01*
X20970127Y-24449475D01*
X20949699Y-24441013D01*
X20737499Y-24441013D01*
X20691354Y-24460127D01*
X20630000Y-24460127D01*
X20520984Y-24481812D01*
X20428564Y-24543564D01*
X20366812Y-24635984D01*
X20345127Y-24745000D01*
X20345127Y-24783989D01*
X20310199Y-24868313D01*
X20310199Y-25080513D01*
X20391404Y-25276560D01*
X20541452Y-25426608D01*
X20737499Y-25507813D01*
X20949699Y-25507813D01*
X21145746Y-25426608D01*
X21224536Y-25347818D01*
X21301436Y-25296436D01*
X21363188Y-25204016D01*
X21382909Y-25104873D01*
X22177091Y-25104873D01*
X22196812Y-25204016D01*
X22224196Y-25245000D01*
X22196812Y-25285984D01*
X22175127Y-25395000D01*
X22175127Y-25546854D01*
X22170523Y-25570000D01*
X22175127Y-25593146D01*
X22175127Y-25745000D01*
X22180458Y-25771799D01*
X21783365Y-25771799D01*
X21748350Y-25764834D01*
X21713335Y-25771799D01*
X21713331Y-25771799D01*
X21609603Y-25792432D01*
X21491978Y-25871026D01*
X21472140Y-25900716D01*
X20938599Y-26434257D01*
X20852147Y-26347805D01*
X20656100Y-26266600D01*
X20443900Y-26266600D01*
X20247853Y-26347805D01*
X20236718Y-26358940D01*
X20227882Y-26337607D01*
X20097817Y-26142953D01*
X20007045Y-26052181D01*
X19812393Y-25922119D01*
X19693795Y-25872994D01*
X19693794Y-25872994D01*
X19528369Y-25840089D01*
X19432401Y-25821000D01*
X19032401Y-25821000D01*
X19029564Y-25820436D01*
X19029000Y-25817599D01*
X19029000Y-24682401D01*
X19029564Y-24679564D01*
X19032401Y-24679000D01*
X19432401Y-24679000D01*
X19528369Y-24659911D01*
X19693794Y-24627006D01*
X19693795Y-24627006D01*
X19812393Y-24577881D01*
X20007047Y-24447817D01*
X20097819Y-24357045D01*
X20227882Y-24162393D01*
X20277006Y-24043794D01*
X20300661Y-23924873D01*
X20670000Y-23924873D01*
X20779016Y-23903188D01*
X20814618Y-23879400D01*
X21032960Y-23879400D01*
X20991812Y-23940984D01*
G36*
X22901460Y-20368329D02*
X22901460Y-20580529D01*
X22982665Y-20776576D01*
X23132713Y-20926624D01*
X23328760Y-21007829D01*
X23540960Y-21007829D01*
X23692950Y-20944873D01*
X23960000Y-20944873D01*
X24069016Y-20923188D01*
X24130127Y-20882356D01*
X24130127Y-21280127D01*
X24122570Y-21280127D01*
X24110646Y-21275188D01*
X23898446Y-21275188D01*
X23886522Y-21280127D01*
X23790000Y-21280127D01*
X23680984Y-21301812D01*
X23588564Y-21363564D01*
X23526812Y-21455984D01*
X23505127Y-21565000D01*
X23505127Y-21620450D01*
X23471146Y-21702488D01*
X23471146Y-21914688D01*
X23552351Y-22110735D01*
X23702399Y-22260783D01*
X23898446Y-22341988D01*
X24110646Y-22341988D01*
X24306693Y-22260783D01*
X24430107Y-22137369D01*
X24461436Y-22116436D01*
X24523188Y-22024016D01*
X24542909Y-21924873D01*
X25337091Y-21924873D01*
X25356812Y-22024016D01*
X25373000Y-22048244D01*
X25373000Y-22081756D01*
X25356812Y-22105984D01*
X25335127Y-22215000D01*
X25335127Y-22351845D01*
X25330523Y-22374991D01*
X25335127Y-22398137D01*
X25335127Y-22483002D01*
X24983757Y-22483001D01*
X24933100Y-22472925D01*
X24882444Y-22483001D01*
X24882441Y-22483001D01*
X24732393Y-22512847D01*
X24654341Y-22565000D01*
X24605188Y-22597843D01*
X24605187Y-22597844D01*
X24562241Y-22626540D01*
X24553045Y-22640302D01*
X23215953Y-22640302D01*
X23165297Y-22630226D01*
X23143687Y-22634525D01*
X23227836Y-22508586D01*
X23277436Y-22259229D01*
X23279400Y-22254488D01*
X23279400Y-22249356D01*
X23329000Y-22000000D01*
X23279400Y-21750644D01*
X23279400Y-21745512D01*
X23277436Y-21740771D01*
X23227836Y-21491414D01*
X23086587Y-21280020D01*
X23084623Y-21275278D01*
X23080994Y-21271649D01*
X22939745Y-21060255D01*
X22728351Y-20919006D01*
X22724722Y-20915377D01*
X22719980Y-20913413D01*
X22508586Y-20772164D01*
X22259229Y-20722564D01*
X22254488Y-20720600D01*
X22249356Y-20720600D01*
X22000000Y-20671000D01*
X21750644Y-20720600D01*
X21745512Y-20720600D01*
X21740771Y-20722564D01*
X21491414Y-20772164D01*
X21280020Y-20913413D01*
X21275278Y-20915377D01*
X21271649Y-20919006D01*
X21060255Y-21060255D01*
X20919006Y-21271649D01*
X20915377Y-21275278D01*
X20913413Y-21280020D01*
X20772164Y-21491414D01*
X20722564Y-21740771D01*
X20720600Y-21745512D01*
X20720600Y-21750644D01*
X20671000Y-22000000D01*
X20720600Y-22249356D01*
X20720600Y-22254488D01*
X20722564Y-22259229D01*
X20772164Y-22508586D01*
X20913413Y-22719980D01*
X20915377Y-22724722D01*
X20919006Y-22728351D01*
X21060255Y-22939745D01*
X21271649Y-23080994D01*
X21275278Y-23084623D01*
X21280020Y-23086587D01*
X21491414Y-23227836D01*
X21740771Y-23277436D01*
X21745512Y-23279400D01*
X21750644Y-23279400D01*
X22000000Y-23329000D01*
X22249356Y-23279400D01*
X22254488Y-23279400D01*
X22259229Y-23277436D01*
X22314228Y-23266496D01*
X22290453Y-23302077D01*
X22205457Y-23429281D01*
X22196761Y-23473000D01*
X20954873Y-23473000D01*
X20954873Y-23240000D01*
X20933188Y-23130984D01*
X20871436Y-23038564D01*
X20831317Y-23011758D01*
X20802195Y-22941451D01*
X20652147Y-22791403D01*
X20456100Y-22710198D01*
X20243900Y-22710198D01*
X20047853Y-22791403D01*
X19897805Y-22941451D01*
X19885562Y-22971009D01*
X19812393Y-22922119D01*
X19693795Y-22872994D01*
X19693794Y-22872994D01*
X19528369Y-22840089D01*
X19432401Y-22821000D01*
X19032401Y-22821000D01*
X19029564Y-22820436D01*
X19029000Y-22817599D01*
X19029000Y-21682401D01*
X19029564Y-21679564D01*
X19032401Y-21679000D01*
X19682401Y-21679000D01*
X19778369Y-21659911D01*
X19848123Y-21646036D01*
X19848125Y-21646036D01*
X19966723Y-21596911D01*
X20080270Y-21521040D01*
X20122941Y-21478369D01*
X20171040Y-21430271D01*
X20246911Y-21316723D01*
X20296036Y-21198125D01*
X20296036Y-21198123D01*
X20322678Y-21064184D01*
X20386031Y-20745687D01*
X20530088Y-20530089D01*
X20745687Y-20386031D01*
X21032401Y-20329000D01*
X22917751Y-20329000D01*
X22901460Y-20368329D01*
X22901460Y-20368329D01*
G37*
X22901460Y-20368329D02*
X22901460Y-20580529D01*
X22982665Y-20776576D01*
X23132713Y-20926624D01*
X23328760Y-21007829D01*
X23540960Y-21007829D01*
X23692950Y-20944873D01*
X23960000Y-20944873D01*
X24069016Y-20923188D01*
X24130127Y-20882356D01*
X24130127Y-21280127D01*
X24122570Y-21280127D01*
X24110646Y-21275188D01*
X23898446Y-21275188D01*
X23886522Y-21280127D01*
X23790000Y-21280127D01*
X23680984Y-21301812D01*
X23588564Y-21363564D01*
X23526812Y-21455984D01*
X23505127Y-21565000D01*
X23505127Y-21620450D01*
X23471146Y-21702488D01*
X23471146Y-21914688D01*
X23552351Y-22110735D01*
X23702399Y-22260783D01*
X23898446Y-22341988D01*
X24110646Y-22341988D01*
X24306693Y-22260783D01*
X24430107Y-22137369D01*
X24461436Y-22116436D01*
X24523188Y-22024016D01*
X24542909Y-21924873D01*
X25337091Y-21924873D01*
X25356812Y-22024016D01*
X25373000Y-22048244D01*
X25373000Y-22081756D01*
X25356812Y-22105984D01*
X25335127Y-22215000D01*
X25335127Y-22351845D01*
X25330523Y-22374991D01*
X25335127Y-22398137D01*
X25335127Y-22483002D01*
X24983757Y-22483001D01*
X24933100Y-22472925D01*
X24882444Y-22483001D01*
X24882441Y-22483001D01*
X24732393Y-22512847D01*
X24654341Y-22565000D01*
X24605188Y-22597843D01*
X24605187Y-22597844D01*
X24562241Y-22626540D01*
X24553045Y-22640302D01*
X23215953Y-22640302D01*
X23165297Y-22630226D01*
X23143687Y-22634525D01*
X23227836Y-22508586D01*
X23277436Y-22259229D01*
X23279400Y-22254488D01*
X23279400Y-22249356D01*
X23329000Y-22000000D01*
X23279400Y-21750644D01*
X23279400Y-21745512D01*
X23277436Y-21740771D01*
X23227836Y-21491414D01*
X23086587Y-21280020D01*
X23084623Y-21275278D01*
X23080994Y-21271649D01*
X22939745Y-21060255D01*
X22728351Y-20919006D01*
X22724722Y-20915377D01*
X22719980Y-20913413D01*
X22508586Y-20772164D01*
X22259229Y-20722564D01*
X22254488Y-20720600D01*
X22249356Y-20720600D01*
X22000000Y-20671000D01*
X21750644Y-20720600D01*
X21745512Y-20720600D01*
X21740771Y-20722564D01*
X21491414Y-20772164D01*
X21280020Y-20913413D01*
X21275278Y-20915377D01*
X21271649Y-20919006D01*
X21060255Y-21060255D01*
X20919006Y-21271649D01*
X20915377Y-21275278D01*
X20913413Y-21280020D01*
X20772164Y-21491414D01*
X20722564Y-21740771D01*
X20720600Y-21745512D01*
X20720600Y-21750644D01*
X20671000Y-22000000D01*
X20720600Y-22249356D01*
X20720600Y-22254488D01*
X20722564Y-22259229D01*
X20772164Y-22508586D01*
X20913413Y-22719980D01*
X20915377Y-22724722D01*
X20919006Y-22728351D01*
X21060255Y-22939745D01*
X21271649Y-23080994D01*
X21275278Y-23084623D01*
X21280020Y-23086587D01*
X21491414Y-23227836D01*
X21740771Y-23277436D01*
X21745512Y-23279400D01*
X21750644Y-23279400D01*
X22000000Y-23329000D01*
X22249356Y-23279400D01*
X22254488Y-23279400D01*
X22259229Y-23277436D01*
X22314228Y-23266496D01*
X22290453Y-23302077D01*
X22205457Y-23429281D01*
X22196761Y-23473000D01*
X20954873Y-23473000D01*
X20954873Y-23240000D01*
X20933188Y-23130984D01*
X20871436Y-23038564D01*
X20831317Y-23011758D01*
X20802195Y-22941451D01*
X20652147Y-22791403D01*
X20456100Y-22710198D01*
X20243900Y-22710198D01*
X20047853Y-22791403D01*
X19897805Y-22941451D01*
X19885562Y-22971009D01*
X19812393Y-22922119D01*
X19693795Y-22872994D01*
X19693794Y-22872994D01*
X19528369Y-22840089D01*
X19432401Y-22821000D01*
X19032401Y-22821000D01*
X19029564Y-22820436D01*
X19029000Y-22817599D01*
X19029000Y-21682401D01*
X19029564Y-21679564D01*
X19032401Y-21679000D01*
X19682401Y-21679000D01*
X19778369Y-21659911D01*
X19848123Y-21646036D01*
X19848125Y-21646036D01*
X19966723Y-21596911D01*
X20080270Y-21521040D01*
X20122941Y-21478369D01*
X20171040Y-21430271D01*
X20246911Y-21316723D01*
X20296036Y-21198125D01*
X20296036Y-21198123D01*
X20322678Y-21064184D01*
X20386031Y-20745687D01*
X20530088Y-20530089D01*
X20745687Y-20386031D01*
X21032401Y-20329000D01*
X22917751Y-20329000D01*
X22901460Y-20368329D01*
G36*
X25330524Y-20445000D02*
X25340601Y-20495661D01*
X25340601Y-20575600D01*
X25155655Y-20575600D01*
X25104999Y-20565524D01*
X25054343Y-20575600D01*
X25054339Y-20575600D01*
X25006443Y-20585127D01*
X24415000Y-20585127D01*
X24305984Y-20606812D01*
X24244873Y-20647644D01*
X24244873Y-20329000D01*
X25353597Y-20329000D01*
X25330524Y-20445000D01*
X25330524Y-20445000D01*
G37*
X25330524Y-20445000D02*
X25340601Y-20495661D01*
X25340601Y-20575600D01*
X25155655Y-20575600D01*
X25104999Y-20565524D01*
X25054343Y-20575600D01*
X25054339Y-20575600D01*
X25006443Y-20585127D01*
X24415000Y-20585127D01*
X24305984Y-20606812D01*
X24244873Y-20647644D01*
X24244873Y-20329000D01*
X25353597Y-20329000D01*
X25330524Y-20445000D01*
G36*
X39045127Y-36760000D02*
X39066812Y-36869016D01*
X39128564Y-36961436D01*
X39168683Y-36988242D01*
X39197805Y-37058549D01*
X39347853Y-37208597D01*
X39543900Y-37289802D01*
X39756100Y-37289802D01*
X39952147Y-37208597D01*
X40102195Y-37058549D01*
X40114438Y-37028992D01*
X40187607Y-37077882D01*
X40306206Y-37127006D01*
X40535815Y-37172678D01*
X40535816Y-37172678D01*
X40567599Y-37179000D01*
X40967599Y-37179000D01*
X40970436Y-37179564D01*
X40971001Y-37182406D01*
X40971000Y-38317599D01*
X40970436Y-38320436D01*
X40967599Y-38321000D01*
X40317599Y-38321000D01*
X40221631Y-38340089D01*
X40151877Y-38353964D01*
X40151875Y-38353964D01*
X40033277Y-38403089D01*
X39919729Y-38478960D01*
X39872311Y-38526379D01*
X39828960Y-38569730D01*
X39753089Y-38683277D01*
X39703964Y-38801875D01*
X39703964Y-38801877D01*
X39677322Y-38935815D01*
X39677322Y-38935816D01*
X39613969Y-39254313D01*
X39469911Y-39469912D01*
X39254313Y-39613969D01*
X38967599Y-39671000D01*
X37082249Y-39671000D01*
X37098540Y-39631671D01*
X37098540Y-39419471D01*
X37017335Y-39223424D01*
X36867287Y-39073376D01*
X36671240Y-38992171D01*
X36459040Y-38992171D01*
X36307050Y-39055127D01*
X36040000Y-39055127D01*
X35930984Y-39076812D01*
X35869873Y-39117644D01*
X35869873Y-38719873D01*
X35877430Y-38719873D01*
X35889354Y-38724812D01*
X36101554Y-38724812D01*
X36113478Y-38719873D01*
X36210000Y-38719873D01*
X36319016Y-38698188D01*
X36411436Y-38636436D01*
X36473188Y-38544016D01*
X36494873Y-38435000D01*
X36494873Y-38379550D01*
X36528854Y-38297512D01*
X36528854Y-38085312D01*
X36447649Y-37889265D01*
X36297601Y-37739217D01*
X36101554Y-37658012D01*
X35889354Y-37658012D01*
X35693307Y-37739217D01*
X35569893Y-37862631D01*
X35538564Y-37883564D01*
X35476812Y-37975984D01*
X35457091Y-38075127D01*
X34662909Y-38075127D01*
X34643188Y-37975984D01*
X34627000Y-37951756D01*
X34627000Y-37918244D01*
X34643188Y-37894016D01*
X34664873Y-37785000D01*
X34664873Y-37648155D01*
X34669477Y-37625009D01*
X34664873Y-37601863D01*
X34664873Y-37516998D01*
X35016241Y-37516999D01*
X35066899Y-37527075D01*
X35117556Y-37516999D01*
X35117559Y-37516999D01*
X35267607Y-37487153D01*
X35437759Y-37373460D01*
X35446955Y-37359698D01*
X36784045Y-37359698D01*
X36834702Y-37369774D01*
X36856313Y-37365475D01*
X36772164Y-37491414D01*
X36722564Y-37740771D01*
X36720600Y-37745512D01*
X36720600Y-37750644D01*
X36671000Y-38000000D01*
X36720600Y-38249356D01*
X36720600Y-38254488D01*
X36722564Y-38259229D01*
X36772164Y-38508586D01*
X36913413Y-38719980D01*
X36915377Y-38724722D01*
X36919006Y-38728351D01*
X37060255Y-38939745D01*
X37271649Y-39080994D01*
X37275278Y-39084623D01*
X37280020Y-39086587D01*
X37491414Y-39227836D01*
X37740771Y-39277436D01*
X37745512Y-39279400D01*
X37750644Y-39279400D01*
X38000000Y-39329000D01*
X38249356Y-39279400D01*
X38254488Y-39279400D01*
X38259229Y-39277436D01*
X38508586Y-39227836D01*
X38719980Y-39086587D01*
X38724722Y-39084623D01*
X38728351Y-39080994D01*
X38939745Y-38939745D01*
X39080994Y-38728351D01*
X39084623Y-38724722D01*
X39086587Y-38719980D01*
X39227836Y-38508586D01*
X39277436Y-38259229D01*
X39279400Y-38254488D01*
X39279400Y-38249356D01*
X39329000Y-38000000D01*
X39279400Y-37750644D01*
X39279400Y-37745512D01*
X39277436Y-37740771D01*
X39227836Y-37491414D01*
X39086587Y-37280020D01*
X39084623Y-37275278D01*
X39080994Y-37271649D01*
X38939745Y-37060255D01*
X38728351Y-36919006D01*
X38724722Y-36915377D01*
X38719980Y-36913413D01*
X38508586Y-36772164D01*
X38259229Y-36722564D01*
X38254488Y-36720600D01*
X38249356Y-36720600D01*
X38000000Y-36671000D01*
X37750644Y-36720600D01*
X37745512Y-36720600D01*
X37740771Y-36722564D01*
X37685774Y-36733504D01*
X37714807Y-36690053D01*
X37736421Y-36657706D01*
X37794543Y-36570720D01*
X37803239Y-36527000D01*
X39045127Y-36527000D01*
X39045127Y-36760000D01*
X39045127Y-36760000D01*
G37*
X39045127Y-36760000D02*
X39066812Y-36869016D01*
X39128564Y-36961436D01*
X39168683Y-36988242D01*
X39197805Y-37058549D01*
X39347853Y-37208597D01*
X39543900Y-37289802D01*
X39756100Y-37289802D01*
X39952147Y-37208597D01*
X40102195Y-37058549D01*
X40114438Y-37028992D01*
X40187607Y-37077882D01*
X40306206Y-37127006D01*
X40535815Y-37172678D01*
X40535816Y-37172678D01*
X40567599Y-37179000D01*
X40967599Y-37179000D01*
X40970436Y-37179564D01*
X40971001Y-37182406D01*
X40971000Y-38317599D01*
X40970436Y-38320436D01*
X40967599Y-38321000D01*
X40317599Y-38321000D01*
X40221631Y-38340089D01*
X40151877Y-38353964D01*
X40151875Y-38353964D01*
X40033277Y-38403089D01*
X39919729Y-38478960D01*
X39872311Y-38526379D01*
X39828960Y-38569730D01*
X39753089Y-38683277D01*
X39703964Y-38801875D01*
X39703964Y-38801877D01*
X39677322Y-38935815D01*
X39677322Y-38935816D01*
X39613969Y-39254313D01*
X39469911Y-39469912D01*
X39254313Y-39613969D01*
X38967599Y-39671000D01*
X37082249Y-39671000D01*
X37098540Y-39631671D01*
X37098540Y-39419471D01*
X37017335Y-39223424D01*
X36867287Y-39073376D01*
X36671240Y-38992171D01*
X36459040Y-38992171D01*
X36307050Y-39055127D01*
X36040000Y-39055127D01*
X35930984Y-39076812D01*
X35869873Y-39117644D01*
X35869873Y-38719873D01*
X35877430Y-38719873D01*
X35889354Y-38724812D01*
X36101554Y-38724812D01*
X36113478Y-38719873D01*
X36210000Y-38719873D01*
X36319016Y-38698188D01*
X36411436Y-38636436D01*
X36473188Y-38544016D01*
X36494873Y-38435000D01*
X36494873Y-38379550D01*
X36528854Y-38297512D01*
X36528854Y-38085312D01*
X36447649Y-37889265D01*
X36297601Y-37739217D01*
X36101554Y-37658012D01*
X35889354Y-37658012D01*
X35693307Y-37739217D01*
X35569893Y-37862631D01*
X35538564Y-37883564D01*
X35476812Y-37975984D01*
X35457091Y-38075127D01*
X34662909Y-38075127D01*
X34643188Y-37975984D01*
X34627000Y-37951756D01*
X34627000Y-37918244D01*
X34643188Y-37894016D01*
X34664873Y-37785000D01*
X34664873Y-37648155D01*
X34669477Y-37625009D01*
X34664873Y-37601863D01*
X34664873Y-37516998D01*
X35016241Y-37516999D01*
X35066899Y-37527075D01*
X35117556Y-37516999D01*
X35117559Y-37516999D01*
X35267607Y-37487153D01*
X35437759Y-37373460D01*
X35446955Y-37359698D01*
X36784045Y-37359698D01*
X36834702Y-37369774D01*
X36856313Y-37365475D01*
X36772164Y-37491414D01*
X36722564Y-37740771D01*
X36720600Y-37745512D01*
X36720600Y-37750644D01*
X36671000Y-38000000D01*
X36720600Y-38249356D01*
X36720600Y-38254488D01*
X36722564Y-38259229D01*
X36772164Y-38508586D01*
X36913413Y-38719980D01*
X36915377Y-38724722D01*
X36919006Y-38728351D01*
X37060255Y-38939745D01*
X37271649Y-39080994D01*
X37275278Y-39084623D01*
X37280020Y-39086587D01*
X37491414Y-39227836D01*
X37740771Y-39277436D01*
X37745512Y-39279400D01*
X37750644Y-39279400D01*
X38000000Y-39329000D01*
X38249356Y-39279400D01*
X38254488Y-39279400D01*
X38259229Y-39277436D01*
X38508586Y-39227836D01*
X38719980Y-39086587D01*
X38724722Y-39084623D01*
X38728351Y-39080994D01*
X38939745Y-38939745D01*
X39080994Y-38728351D01*
X39084623Y-38724722D01*
X39086587Y-38719980D01*
X39227836Y-38508586D01*
X39277436Y-38259229D01*
X39279400Y-38254488D01*
X39279400Y-38249356D01*
X39329000Y-38000000D01*
X39279400Y-37750644D01*
X39279400Y-37745512D01*
X39277436Y-37740771D01*
X39227836Y-37491414D01*
X39086587Y-37280020D01*
X39084623Y-37275278D01*
X39080994Y-37271649D01*
X38939745Y-37060255D01*
X38728351Y-36919006D01*
X38724722Y-36915377D01*
X38719980Y-36913413D01*
X38508586Y-36772164D01*
X38259229Y-36722564D01*
X38254488Y-36720600D01*
X38249356Y-36720600D01*
X38000000Y-36671000D01*
X37750644Y-36720600D01*
X37745512Y-36720600D01*
X37740771Y-36722564D01*
X37685774Y-36733504D01*
X37714807Y-36690053D01*
X37736421Y-36657706D01*
X37794543Y-36570720D01*
X37803239Y-36527000D01*
X39045127Y-36527000D01*
X39045127Y-36760000D01*
G36*
X35755127Y-39671000D02*
X34646403Y-39671000D01*
X34659400Y-39605661D01*
X34659400Y-39605657D01*
X34669476Y-39555000D01*
X34659400Y-39504343D01*
X34659400Y-39424400D01*
X34844343Y-39424400D01*
X34895000Y-39434476D01*
X34945657Y-39424400D01*
X34945661Y-39424400D01*
X34993557Y-39414873D01*
X35585000Y-39414873D01*
X35694016Y-39393188D01*
X35755127Y-39352356D01*
X35755127Y-39671000D01*
X35755127Y-39671000D01*
G37*
X35755127Y-39671000D02*
X34646403Y-39671000D01*
X34659400Y-39605661D01*
X34659400Y-39605657D01*
X34669476Y-39555000D01*
X34659400Y-39504343D01*
X34659400Y-39424400D01*
X34844343Y-39424400D01*
X34895000Y-39434476D01*
X34945657Y-39424400D01*
X34945661Y-39424400D01*
X34993557Y-39414873D01*
X35585000Y-39414873D01*
X35694016Y-39393188D01*
X35755127Y-39352356D01*
X35755127Y-39671000D01*
G36*
X39005127Y-30520000D02*
X39026812Y-30629016D01*
X39088564Y-30721436D01*
X39180984Y-30783188D01*
X39186950Y-30784375D01*
X39217513Y-30858161D01*
X39367561Y-31008209D01*
X39563608Y-31089414D01*
X39775808Y-31089414D01*
X39971855Y-31008209D01*
X40016508Y-30963556D01*
X40187607Y-31077882D01*
X40306206Y-31127006D01*
X40535815Y-31172678D01*
X40535816Y-31172678D01*
X40567599Y-31179000D01*
X40967599Y-31179000D01*
X40970436Y-31179564D01*
X40971001Y-31182406D01*
X40971000Y-32317599D01*
X40970436Y-32320436D01*
X40967599Y-32321000D01*
X40567599Y-32321000D01*
X40535816Y-32327322D01*
X40535815Y-32327322D01*
X40306206Y-32372994D01*
X40187607Y-32422118D01*
X39992955Y-32552181D01*
X39902183Y-32642953D01*
X39800089Y-32795747D01*
X39752147Y-32747805D01*
X39556100Y-32666600D01*
X39343900Y-32666600D01*
X39147853Y-32747805D01*
X39051258Y-32844400D01*
X38959264Y-32844400D01*
X38924249Y-32837435D01*
X38922200Y-32837842D01*
X38968188Y-32769016D01*
X38989873Y-32660000D01*
X38989873Y-32314938D01*
X39010302Y-32323400D01*
X39222502Y-32323400D01*
X39418549Y-32242195D01*
X39430952Y-32229792D01*
X39439016Y-32228188D01*
X39531436Y-32166436D01*
X39593188Y-32074016D01*
X39608969Y-31994679D01*
X39649802Y-31896100D01*
X39649802Y-31683900D01*
X39608969Y-31585321D01*
X39593188Y-31505984D01*
X39531436Y-31413564D01*
X39439016Y-31351812D01*
X39430952Y-31350208D01*
X39418549Y-31337805D01*
X39222502Y-31256600D01*
X39010302Y-31256600D01*
X38814255Y-31337805D01*
X38812481Y-31339579D01*
X38750984Y-31351812D01*
X38658564Y-31413564D01*
X38596812Y-31505984D01*
X38577091Y-31605127D01*
X37782909Y-31605127D01*
X37763188Y-31505984D01*
X37735804Y-31465000D01*
X37763188Y-31424016D01*
X37784873Y-31315000D01*
X37784873Y-30965000D01*
X37779400Y-30937486D01*
X37779400Y-30645656D01*
X37789476Y-30594999D01*
X37779400Y-30544339D01*
X37749554Y-30394292D01*
X37749554Y-30394291D01*
X37677000Y-30285708D01*
X37677000Y-30227000D01*
X39005127Y-30227000D01*
X39005127Y-30520000D01*
X39005127Y-30520000D01*
G37*
X39005127Y-30520000D02*
X39026812Y-30629016D01*
X39088564Y-30721436D01*
X39180984Y-30783188D01*
X39186950Y-30784375D01*
X39217513Y-30858161D01*
X39367561Y-31008209D01*
X39563608Y-31089414D01*
X39775808Y-31089414D01*
X39971855Y-31008209D01*
X40016508Y-30963556D01*
X40187607Y-31077882D01*
X40306206Y-31127006D01*
X40535815Y-31172678D01*
X40535816Y-31172678D01*
X40567599Y-31179000D01*
X40967599Y-31179000D01*
X40970436Y-31179564D01*
X40971001Y-31182406D01*
X40971000Y-32317599D01*
X40970436Y-32320436D01*
X40967599Y-32321000D01*
X40567599Y-32321000D01*
X40535816Y-32327322D01*
X40535815Y-32327322D01*
X40306206Y-32372994D01*
X40187607Y-32422118D01*
X39992955Y-32552181D01*
X39902183Y-32642953D01*
X39800089Y-32795747D01*
X39752147Y-32747805D01*
X39556100Y-32666600D01*
X39343900Y-32666600D01*
X39147853Y-32747805D01*
X39051258Y-32844400D01*
X38959264Y-32844400D01*
X38924249Y-32837435D01*
X38922200Y-32837842D01*
X38968188Y-32769016D01*
X38989873Y-32660000D01*
X38989873Y-32314938D01*
X39010302Y-32323400D01*
X39222502Y-32323400D01*
X39418549Y-32242195D01*
X39430952Y-32229792D01*
X39439016Y-32228188D01*
X39531436Y-32166436D01*
X39593188Y-32074016D01*
X39608969Y-31994679D01*
X39649802Y-31896100D01*
X39649802Y-31683900D01*
X39608969Y-31585321D01*
X39593188Y-31505984D01*
X39531436Y-31413564D01*
X39439016Y-31351812D01*
X39430952Y-31350208D01*
X39418549Y-31337805D01*
X39222502Y-31256600D01*
X39010302Y-31256600D01*
X38814255Y-31337805D01*
X38812481Y-31339579D01*
X38750984Y-31351812D01*
X38658564Y-31413564D01*
X38596812Y-31505984D01*
X38577091Y-31605127D01*
X37782909Y-31605127D01*
X37763188Y-31505984D01*
X37735804Y-31465000D01*
X37763188Y-31424016D01*
X37784873Y-31315000D01*
X37784873Y-30965000D01*
X37779400Y-30937486D01*
X37779400Y-30645656D01*
X37789476Y-30594999D01*
X37779400Y-30544339D01*
X37749554Y-30394292D01*
X37749554Y-30394291D01*
X37677000Y-30285708D01*
X37677000Y-30227000D01*
X39005127Y-30227000D01*
X39005127Y-30520000D01*
G36*
X39147853Y-33652195D02*
X39343900Y-33733400D01*
X39556100Y-33733400D01*
X39752147Y-33652195D01*
X39763282Y-33641060D01*
X39772119Y-33662393D01*
X39902181Y-33857045D01*
X39992953Y-33947817D01*
X40187607Y-34077882D01*
X40306206Y-34127006D01*
X40535815Y-34172678D01*
X40535816Y-34172678D01*
X40567599Y-34179000D01*
X40967599Y-34179000D01*
X40970436Y-34179564D01*
X40971001Y-34182406D01*
X40971000Y-35317599D01*
X40970436Y-35320436D01*
X40967599Y-35321000D01*
X40567599Y-35321000D01*
X40535816Y-35327322D01*
X40535815Y-35327322D01*
X40306206Y-35372994D01*
X40187607Y-35422118D01*
X39992955Y-35552181D01*
X39902183Y-35642953D01*
X39772119Y-35837607D01*
X39722994Y-35956205D01*
X39722994Y-35956206D01*
X39699339Y-36075127D01*
X39330000Y-36075127D01*
X39220984Y-36096812D01*
X39185382Y-36120600D01*
X38967040Y-36120600D01*
X39008188Y-36059016D01*
X39029873Y-35950000D01*
X39029873Y-35550525D01*
X39050301Y-35558987D01*
X39262501Y-35558987D01*
X39308646Y-35539873D01*
X39370000Y-35539873D01*
X39479016Y-35518188D01*
X39571436Y-35456436D01*
X39633188Y-35364016D01*
X39654873Y-35255000D01*
X39654873Y-35216011D01*
X39689801Y-35131687D01*
X39689801Y-34919487D01*
X39608596Y-34723440D01*
X39458548Y-34573392D01*
X39262501Y-34492187D01*
X39050301Y-34492187D01*
X38854254Y-34573392D01*
X38775464Y-34652182D01*
X38698564Y-34703564D01*
X38636812Y-34795984D01*
X38617091Y-34895127D01*
X37822909Y-34895127D01*
X37803188Y-34795984D01*
X37775804Y-34755000D01*
X37803188Y-34714016D01*
X37824873Y-34605000D01*
X37824873Y-34453146D01*
X37829477Y-34430000D01*
X37824873Y-34406854D01*
X37824873Y-34255000D01*
X37819542Y-34228201D01*
X38216629Y-34228201D01*
X38251649Y-34235167D01*
X38286669Y-34228201D01*
X38390397Y-34207568D01*
X38508022Y-34128974D01*
X38527860Y-34099284D01*
X39061401Y-33565743D01*
X39147853Y-33652195D01*
X39147853Y-33652195D01*
G37*
X39147853Y-33652195D02*
X39343900Y-33733400D01*
X39556100Y-33733400D01*
X39752147Y-33652195D01*
X39763282Y-33641060D01*
X39772119Y-33662393D01*
X39902181Y-33857045D01*
X39992953Y-33947817D01*
X40187607Y-34077882D01*
X40306206Y-34127006D01*
X40535815Y-34172678D01*
X40535816Y-34172678D01*
X40567599Y-34179000D01*
X40967599Y-34179000D01*
X40970436Y-34179564D01*
X40971001Y-34182406D01*
X40971000Y-35317599D01*
X40970436Y-35320436D01*
X40967599Y-35321000D01*
X40567599Y-35321000D01*
X40535816Y-35327322D01*
X40535815Y-35327322D01*
X40306206Y-35372994D01*
X40187607Y-35422118D01*
X39992955Y-35552181D01*
X39902183Y-35642953D01*
X39772119Y-35837607D01*
X39722994Y-35956205D01*
X39722994Y-35956206D01*
X39699339Y-36075127D01*
X39330000Y-36075127D01*
X39220984Y-36096812D01*
X39185382Y-36120600D01*
X38967040Y-36120600D01*
X39008188Y-36059016D01*
X39029873Y-35950000D01*
X39029873Y-35550525D01*
X39050301Y-35558987D01*
X39262501Y-35558987D01*
X39308646Y-35539873D01*
X39370000Y-35539873D01*
X39479016Y-35518188D01*
X39571436Y-35456436D01*
X39633188Y-35364016D01*
X39654873Y-35255000D01*
X39654873Y-35216011D01*
X39689801Y-35131687D01*
X39689801Y-34919487D01*
X39608596Y-34723440D01*
X39458548Y-34573392D01*
X39262501Y-34492187D01*
X39050301Y-34492187D01*
X38854254Y-34573392D01*
X38775464Y-34652182D01*
X38698564Y-34703564D01*
X38636812Y-34795984D01*
X38617091Y-34895127D01*
X37822909Y-34895127D01*
X37803188Y-34795984D01*
X37775804Y-34755000D01*
X37803188Y-34714016D01*
X37824873Y-34605000D01*
X37824873Y-34453146D01*
X37829477Y-34430000D01*
X37824873Y-34406854D01*
X37824873Y-34255000D01*
X37819542Y-34228201D01*
X38216629Y-34228201D01*
X38251649Y-34235167D01*
X38286669Y-34228201D01*
X38390397Y-34207568D01*
X38508022Y-34128974D01*
X38527860Y-34099284D01*
X39061401Y-33565743D01*
X39147853Y-33652195D01*
M02*
