G04 #@! TF.GenerationSoftware,KiCad,Pcbnew,(2018-02-05 revision d1a45d147)-makepkg*
G04 #@! TF.CreationDate,2019-01-14T08:16:46-05:00*
G04 #@! TF.ProjectId,6s4in1,367334696E312E6B696361645F706362,rev?*
G04 #@! TF.SameCoordinates,Original*
G04 #@! TF.FileFunction,Legend,Top*
G04 #@! TF.FilePolarity,Positive*
%FSLAX46Y46*%
G04 Gerber Fmt 4.6, Leading zero omitted, Abs format (unit mm)*
G04 Created by KiCad (PCBNEW (2018-02-05 revision d1a45d147)-makepkg) date 01/14/19 08:16:46*
%MOMM*%
%LPD*%
G01*
G04 APERTURE LIST*
%ADD10C,0.125000*%
%ADD11C,0.100000*%
%ADD12C,0.150000*%
%ADD13C,0.120000*%
%ADD14C,0.062500*%
G04 APERTURE END LIST*
D10*
X31290476Y-22235714D02*
X30909523Y-22235714D01*
X31100000Y-22426190D02*
X31100000Y-22045238D01*
X28990476Y-22235714D02*
X28609523Y-22235714D01*
D11*
X32200711Y-34700000D02*
G75*
G03X32200711Y-34700000I-70711J0D01*
G01*
D12*
X32630000Y-31700000D02*
X32630000Y-34700000D01*
X35630000Y-31700000D02*
X32630000Y-31700000D01*
X35630000Y-34700000D02*
X35630000Y-31700000D01*
X32630000Y-34700000D02*
X35630000Y-34700000D01*
D11*
X24575711Y-20360000D02*
G75*
G03X24575711Y-20360000I-70711J0D01*
G01*
D12*
X26705000Y-22610000D02*
X24705000Y-22610000D01*
X26705000Y-20610000D02*
X26705000Y-22610000D01*
X24705000Y-20610000D02*
X26705000Y-20610000D01*
X24705000Y-22610000D02*
X24705000Y-20610000D01*
D11*
X20060711Y-23735000D02*
G75*
G03X20060711Y-23735000I-70711J0D01*
G01*
D12*
X22190000Y-25985000D02*
X20190000Y-25985000D01*
X22190000Y-23985000D02*
X22190000Y-25985000D01*
X20190000Y-23985000D02*
X22190000Y-23985000D01*
X20190000Y-25985000D02*
X20190000Y-23985000D01*
D11*
X20110711Y-27165000D02*
G75*
G03X20110711Y-27165000I-70711J0D01*
G01*
D12*
X22240000Y-29415000D02*
X20240000Y-29415000D01*
X22240000Y-27415000D02*
X22240000Y-29415000D01*
X20240000Y-27415000D02*
X22240000Y-27415000D01*
X20240000Y-29415000D02*
X20240000Y-27415000D01*
D11*
X27940711Y-25300000D02*
G75*
G03X27940711Y-25300000I-70711J0D01*
G01*
D12*
X27370000Y-28300000D02*
X27370000Y-25300000D01*
X24370000Y-28300000D02*
X27370000Y-28300000D01*
X24370000Y-25300000D02*
X24370000Y-28300000D01*
X27370000Y-25300000D02*
X24370000Y-25300000D01*
D13*
X29500000Y-30350000D02*
X30500000Y-30350000D01*
X30500000Y-28650000D02*
X29500000Y-28650000D01*
X29500000Y-25850000D02*
X30500000Y-25850000D01*
X30500000Y-24150000D02*
X29500000Y-24150000D01*
X29500000Y-37850000D02*
X30500000Y-37850000D01*
X30500000Y-36150000D02*
X29500000Y-36150000D01*
X29500000Y-31850000D02*
X30500000Y-31850000D01*
X30500000Y-30150000D02*
X29500000Y-30150000D01*
X29500000Y-28850000D02*
X30500000Y-28850000D01*
X30500000Y-27150000D02*
X29500000Y-27150000D01*
X29500000Y-36350000D02*
X30500000Y-36350000D01*
X30500000Y-34650000D02*
X29500000Y-34650000D01*
X29500000Y-24350000D02*
X30500000Y-24350000D01*
X30500000Y-22650000D02*
X29500000Y-22650000D01*
X29500000Y-33350000D02*
X30500000Y-33350000D01*
X30500000Y-31650000D02*
X29500000Y-31650000D01*
X29500000Y-34850000D02*
X30500000Y-34850000D01*
X30500000Y-33150000D02*
X29500000Y-33150000D01*
X29500000Y-27350000D02*
X30500000Y-27350000D01*
X30500000Y-25650000D02*
X29500000Y-25650000D01*
X29500000Y-39350000D02*
X30500000Y-39350000D01*
X30500000Y-37650000D02*
X29500000Y-37650000D01*
D11*
X40030711Y-32835000D02*
G75*
G03X40030711Y-32835000I-70711J0D01*
G01*
D12*
X37760000Y-30585000D02*
X39760000Y-30585000D01*
X37760000Y-32585000D02*
X37760000Y-30585000D01*
X39760000Y-32585000D02*
X37760000Y-32585000D01*
X39760000Y-30585000D02*
X39760000Y-32585000D01*
D11*
X40080711Y-36265000D02*
G75*
G03X40080711Y-36265000I-70711J0D01*
G01*
D12*
X37810000Y-34015000D02*
X39810000Y-34015000D01*
X37810000Y-36015000D02*
X37810000Y-34015000D01*
X39810000Y-36015000D02*
X37810000Y-36015000D01*
X39810000Y-34015000D02*
X39810000Y-36015000D01*
D11*
X35565711Y-39640000D02*
G75*
G03X35565711Y-39640000I-70711J0D01*
G01*
D12*
X33295000Y-37390000D02*
X35295000Y-37390000D01*
X33295000Y-39390000D02*
X33295000Y-37390000D01*
X35295000Y-39390000D02*
X33295000Y-39390000D01*
X35295000Y-37390000D02*
X35295000Y-39390000D01*
D11*
X39235711Y-27065000D02*
G75*
G03X39235711Y-27065000I-70711J0D01*
G01*
D12*
X39415000Y-29415000D02*
X39415000Y-27415000D01*
X37415000Y-29415000D02*
X39415000Y-29415000D01*
X37415000Y-27415000D02*
X37415000Y-29415000D01*
X39415000Y-27415000D02*
X37415000Y-27415000D01*
D11*
X39285711Y-23635000D02*
G75*
G03X39285711Y-23635000I-70711J0D01*
G01*
D12*
X39465000Y-25985000D02*
X39465000Y-23985000D01*
X37465000Y-25985000D02*
X39465000Y-25985000D01*
X37465000Y-23985000D02*
X37465000Y-25985000D01*
X39465000Y-23985000D02*
X37465000Y-23985000D01*
D11*
X34770711Y-20260000D02*
G75*
G03X34770711Y-20260000I-70711J0D01*
G01*
D12*
X34950000Y-22610000D02*
X34950000Y-20610000D01*
X32950000Y-22610000D02*
X34950000Y-22610000D01*
X32950000Y-20610000D02*
X32950000Y-22610000D01*
X34950000Y-20610000D02*
X32950000Y-20610000D01*
D11*
X20905711Y-32935000D02*
G75*
G03X20905711Y-32935000I-70711J0D01*
G01*
D12*
X20585000Y-30585000D02*
X20585000Y-32585000D01*
X22585000Y-30585000D02*
X20585000Y-30585000D01*
X22585000Y-32585000D02*
X22585000Y-30585000D01*
X20585000Y-32585000D02*
X22585000Y-32585000D01*
D11*
X20855711Y-36365000D02*
G75*
G03X20855711Y-36365000I-70711J0D01*
G01*
D12*
X20535000Y-34015000D02*
X20535000Y-36015000D01*
X22535000Y-34015000D02*
X20535000Y-34015000D01*
X22535000Y-36015000D02*
X22535000Y-34015000D01*
X20535000Y-36015000D02*
X22535000Y-36015000D01*
D11*
X25370711Y-39740000D02*
G75*
G03X25370711Y-39740000I-70711J0D01*
G01*
D12*
X25050000Y-37390000D02*
X25050000Y-39390000D01*
X27050000Y-37390000D02*
X25050000Y-37390000D01*
X27050000Y-39390000D02*
X27050000Y-37390000D01*
X25050000Y-39390000D02*
X27050000Y-39390000D01*
D14*
X28735476Y-19113095D02*
X28735476Y-18863095D01*
X28830714Y-18863095D01*
X28854523Y-18875000D01*
X28866428Y-18886904D01*
X28878333Y-18910714D01*
X28878333Y-18946428D01*
X28866428Y-18970238D01*
X28854523Y-18982142D01*
X28830714Y-18994047D01*
X28735476Y-18994047D01*
X28973571Y-18886904D02*
X28985476Y-18875000D01*
X29009285Y-18863095D01*
X29068809Y-18863095D01*
X29092619Y-18875000D01*
X29104523Y-18886904D01*
X29116428Y-18910714D01*
X29116428Y-18934523D01*
X29104523Y-18970238D01*
X28961666Y-19113095D01*
X29116428Y-19113095D01*
X30895476Y-19113095D02*
X30895476Y-18863095D01*
X30990714Y-18863095D01*
X31014523Y-18875000D01*
X31026428Y-18886904D01*
X31038333Y-18910714D01*
X31038333Y-18946428D01*
X31026428Y-18970238D01*
X31014523Y-18982142D01*
X30990714Y-18994047D01*
X30895476Y-18994047D01*
X31276428Y-19113095D02*
X31133571Y-19113095D01*
X31205000Y-19113095D02*
X31205000Y-18863095D01*
X31181190Y-18898809D01*
X31157380Y-18922619D01*
X31133571Y-18934523D01*
X36559285Y-30950714D02*
X36571190Y-30962619D01*
X36583095Y-30998333D01*
X36583095Y-31022142D01*
X36571190Y-31057857D01*
X36547380Y-31081666D01*
X36523571Y-31093571D01*
X36475952Y-31105476D01*
X36440238Y-31105476D01*
X36392619Y-31093571D01*
X36368809Y-31081666D01*
X36345000Y-31057857D01*
X36333095Y-31022142D01*
X36333095Y-30998333D01*
X36345000Y-30962619D01*
X36356904Y-30950714D01*
X36356904Y-30855476D02*
X36345000Y-30843571D01*
X36333095Y-30819761D01*
X36333095Y-30760238D01*
X36345000Y-30736428D01*
X36356904Y-30724523D01*
X36380714Y-30712619D01*
X36404523Y-30712619D01*
X36440238Y-30724523D01*
X36583095Y-30867380D01*
X36583095Y-30712619D01*
X36416428Y-30498333D02*
X36583095Y-30498333D01*
X36321190Y-30557857D02*
X36499761Y-30617380D01*
X36499761Y-30462619D01*
X42913095Y-38053571D02*
X42663095Y-38053571D01*
X42663095Y-37958333D01*
X42675000Y-37934523D01*
X42686904Y-37922619D01*
X42710714Y-37910714D01*
X42746428Y-37910714D01*
X42770238Y-37922619D01*
X42782142Y-37934523D01*
X42794047Y-37958333D01*
X42794047Y-38053571D01*
X42913095Y-37672619D02*
X42913095Y-37815476D01*
X42913095Y-37744047D02*
X42663095Y-37744047D01*
X42698809Y-37767857D01*
X42722619Y-37791666D01*
X42734523Y-37815476D01*
X42746428Y-37458333D02*
X42913095Y-37458333D01*
X42651190Y-37517857D02*
X42829761Y-37577380D01*
X42829761Y-37422619D01*
X17313095Y-22434523D02*
X17063095Y-22434523D01*
X17063095Y-22339285D01*
X17075000Y-22315476D01*
X17086904Y-22303571D01*
X17110714Y-22291666D01*
X17146428Y-22291666D01*
X17170238Y-22303571D01*
X17182142Y-22315476D01*
X17194047Y-22339285D01*
X17194047Y-22434523D01*
X17063095Y-22077380D02*
X17063095Y-22125000D01*
X17075000Y-22148809D01*
X17086904Y-22160714D01*
X17122619Y-22184523D01*
X17170238Y-22196428D01*
X17265476Y-22196428D01*
X17289285Y-22184523D01*
X17301190Y-22172619D01*
X17313095Y-22148809D01*
X17313095Y-22101190D01*
X17301190Y-22077380D01*
X17289285Y-22065476D01*
X17265476Y-22053571D01*
X17205952Y-22053571D01*
X17182142Y-22065476D01*
X17170238Y-22077380D01*
X17158333Y-22101190D01*
X17158333Y-22148809D01*
X17170238Y-22172619D01*
X17182142Y-22184523D01*
X17205952Y-22196428D01*
X23869285Y-23899285D02*
X23857380Y-23911190D01*
X23821666Y-23923095D01*
X23797857Y-23923095D01*
X23762142Y-23911190D01*
X23738333Y-23887380D01*
X23726428Y-23863571D01*
X23714523Y-23815952D01*
X23714523Y-23780238D01*
X23726428Y-23732619D01*
X23738333Y-23708809D01*
X23762142Y-23685000D01*
X23797857Y-23673095D01*
X23821666Y-23673095D01*
X23857380Y-23685000D01*
X23869285Y-23696904D01*
X24107380Y-23923095D02*
X23964523Y-23923095D01*
X24035952Y-23923095D02*
X24035952Y-23673095D01*
X24012142Y-23708809D01*
X23988333Y-23732619D01*
X23964523Y-23744523D01*
X24262142Y-23673095D02*
X24285952Y-23673095D01*
X24309761Y-23685000D01*
X24321666Y-23696904D01*
X24333571Y-23720714D01*
X24345476Y-23768333D01*
X24345476Y-23827857D01*
X24333571Y-23875476D01*
X24321666Y-23899285D01*
X24309761Y-23911190D01*
X24285952Y-23923095D01*
X24262142Y-23923095D01*
X24238333Y-23911190D01*
X24226428Y-23899285D01*
X24214523Y-23875476D01*
X24202619Y-23827857D01*
X24202619Y-23768333D01*
X24214523Y-23720714D01*
X24226428Y-23696904D01*
X24238333Y-23685000D01*
X24262142Y-23673095D01*
X23619285Y-29251666D02*
X23631190Y-29263571D01*
X23643095Y-29299285D01*
X23643095Y-29323095D01*
X23631190Y-29358809D01*
X23607380Y-29382619D01*
X23583571Y-29394523D01*
X23535952Y-29406428D01*
X23500238Y-29406428D01*
X23452619Y-29394523D01*
X23428809Y-29382619D01*
X23405000Y-29358809D01*
X23393095Y-29323095D01*
X23393095Y-29299285D01*
X23405000Y-29263571D01*
X23416904Y-29251666D01*
X23500238Y-29108809D02*
X23488333Y-29132619D01*
X23476428Y-29144523D01*
X23452619Y-29156428D01*
X23440714Y-29156428D01*
X23416904Y-29144523D01*
X23405000Y-29132619D01*
X23393095Y-29108809D01*
X23393095Y-29061190D01*
X23405000Y-29037380D01*
X23416904Y-29025476D01*
X23440714Y-29013571D01*
X23452619Y-29013571D01*
X23476428Y-29025476D01*
X23488333Y-29037380D01*
X23500238Y-29061190D01*
X23500238Y-29108809D01*
X23512142Y-29132619D01*
X23524047Y-29144523D01*
X23547857Y-29156428D01*
X23595476Y-29156428D01*
X23619285Y-29144523D01*
X23631190Y-29132619D01*
X23643095Y-29108809D01*
X23643095Y-29061190D01*
X23631190Y-29037380D01*
X23619285Y-29025476D01*
X23595476Y-29013571D01*
X23547857Y-29013571D01*
X23524047Y-29025476D01*
X23512142Y-29037380D01*
X23500238Y-29061190D01*
X24491904Y-21633809D02*
X24480000Y-21657619D01*
X24456190Y-21681428D01*
X24420476Y-21717142D01*
X24408571Y-21740952D01*
X24408571Y-21764761D01*
X24468095Y-21752857D02*
X24456190Y-21776666D01*
X24432380Y-21800476D01*
X24384761Y-21812380D01*
X24301428Y-21812380D01*
X24253809Y-21800476D01*
X24230000Y-21776666D01*
X24218095Y-21752857D01*
X24218095Y-21705238D01*
X24230000Y-21681428D01*
X24253809Y-21657619D01*
X24301428Y-21645714D01*
X24384761Y-21645714D01*
X24432380Y-21657619D01*
X24456190Y-21681428D01*
X24468095Y-21705238D01*
X24468095Y-21752857D01*
X24218095Y-21562380D02*
X24218095Y-21407619D01*
X24313333Y-21490952D01*
X24313333Y-21455238D01*
X24325238Y-21431428D01*
X24337142Y-21419523D01*
X24360952Y-21407619D01*
X24420476Y-21407619D01*
X24444285Y-21419523D01*
X24456190Y-21431428D01*
X24468095Y-21455238D01*
X24468095Y-21526666D01*
X24456190Y-21550476D01*
X24444285Y-21562380D01*
X19976904Y-25008809D02*
X19965000Y-25032619D01*
X19941190Y-25056428D01*
X19905476Y-25092142D01*
X19893571Y-25115952D01*
X19893571Y-25139761D01*
X19953095Y-25127857D02*
X19941190Y-25151666D01*
X19917380Y-25175476D01*
X19869761Y-25187380D01*
X19786428Y-25187380D01*
X19738809Y-25175476D01*
X19715000Y-25151666D01*
X19703095Y-25127857D01*
X19703095Y-25080238D01*
X19715000Y-25056428D01*
X19738809Y-25032619D01*
X19786428Y-25020714D01*
X19869761Y-25020714D01*
X19917380Y-25032619D01*
X19941190Y-25056428D01*
X19953095Y-25080238D01*
X19953095Y-25127857D01*
X19726904Y-24925476D02*
X19715000Y-24913571D01*
X19703095Y-24889761D01*
X19703095Y-24830238D01*
X19715000Y-24806428D01*
X19726904Y-24794523D01*
X19750714Y-24782619D01*
X19774523Y-24782619D01*
X19810238Y-24794523D01*
X19953095Y-24937380D01*
X19953095Y-24782619D01*
X20026904Y-28438809D02*
X20015000Y-28462619D01*
X19991190Y-28486428D01*
X19955476Y-28522142D01*
X19943571Y-28545952D01*
X19943571Y-28569761D01*
X20003095Y-28557857D02*
X19991190Y-28581666D01*
X19967380Y-28605476D01*
X19919761Y-28617380D01*
X19836428Y-28617380D01*
X19788809Y-28605476D01*
X19765000Y-28581666D01*
X19753095Y-28557857D01*
X19753095Y-28510238D01*
X19765000Y-28486428D01*
X19788809Y-28462619D01*
X19836428Y-28450714D01*
X19919761Y-28450714D01*
X19967380Y-28462619D01*
X19991190Y-28486428D01*
X20003095Y-28510238D01*
X20003095Y-28557857D01*
X20003095Y-28212619D02*
X20003095Y-28355476D01*
X20003095Y-28284047D02*
X19753095Y-28284047D01*
X19788809Y-28307857D01*
X19812619Y-28331666D01*
X19824523Y-28355476D01*
X42913095Y-35053571D02*
X42663095Y-35053571D01*
X42663095Y-34958333D01*
X42675000Y-34934523D01*
X42686904Y-34922619D01*
X42710714Y-34910714D01*
X42746428Y-34910714D01*
X42770238Y-34922619D01*
X42782142Y-34934523D01*
X42794047Y-34958333D01*
X42794047Y-35053571D01*
X42913095Y-34672619D02*
X42913095Y-34815476D01*
X42913095Y-34744047D02*
X42663095Y-34744047D01*
X42698809Y-34767857D01*
X42722619Y-34791666D01*
X42734523Y-34815476D01*
X42663095Y-34589285D02*
X42663095Y-34434523D01*
X42758333Y-34517857D01*
X42758333Y-34482142D01*
X42770238Y-34458333D01*
X42782142Y-34446428D01*
X42805952Y-34434523D01*
X42865476Y-34434523D01*
X42889285Y-34446428D01*
X42901190Y-34458333D01*
X42913095Y-34482142D01*
X42913095Y-34553571D01*
X42901190Y-34577380D01*
X42889285Y-34589285D01*
X42913095Y-32053571D02*
X42663095Y-32053571D01*
X42663095Y-31958333D01*
X42675000Y-31934523D01*
X42686904Y-31922619D01*
X42710714Y-31910714D01*
X42746428Y-31910714D01*
X42770238Y-31922619D01*
X42782142Y-31934523D01*
X42794047Y-31958333D01*
X42794047Y-32053571D01*
X42913095Y-31672619D02*
X42913095Y-31815476D01*
X42913095Y-31744047D02*
X42663095Y-31744047D01*
X42698809Y-31767857D01*
X42722619Y-31791666D01*
X42734523Y-31815476D01*
X42686904Y-31577380D02*
X42675000Y-31565476D01*
X42663095Y-31541666D01*
X42663095Y-31482142D01*
X42675000Y-31458333D01*
X42686904Y-31446428D01*
X42710714Y-31434523D01*
X42734523Y-31434523D01*
X42770238Y-31446428D01*
X42913095Y-31589285D01*
X42913095Y-31434523D01*
X17313095Y-25434523D02*
X17063095Y-25434523D01*
X17063095Y-25339285D01*
X17075000Y-25315476D01*
X17086904Y-25303571D01*
X17110714Y-25291666D01*
X17146428Y-25291666D01*
X17170238Y-25303571D01*
X17182142Y-25315476D01*
X17194047Y-25339285D01*
X17194047Y-25434523D01*
X17063095Y-25065476D02*
X17063095Y-25184523D01*
X17182142Y-25196428D01*
X17170238Y-25184523D01*
X17158333Y-25160714D01*
X17158333Y-25101190D01*
X17170238Y-25077380D01*
X17182142Y-25065476D01*
X17205952Y-25053571D01*
X17265476Y-25053571D01*
X17289285Y-25065476D01*
X17301190Y-25077380D01*
X17313095Y-25101190D01*
X17313095Y-25160714D01*
X17301190Y-25184523D01*
X17289285Y-25196428D01*
X17313095Y-28434523D02*
X17063095Y-28434523D01*
X17063095Y-28339285D01*
X17075000Y-28315476D01*
X17086904Y-28303571D01*
X17110714Y-28291666D01*
X17146428Y-28291666D01*
X17170238Y-28303571D01*
X17182142Y-28315476D01*
X17194047Y-28339285D01*
X17194047Y-28434523D01*
X17146428Y-28077380D02*
X17313095Y-28077380D01*
X17051190Y-28136904D02*
X17229761Y-28196428D01*
X17229761Y-28041666D01*
X25929285Y-23291666D02*
X25941190Y-23303571D01*
X25953095Y-23339285D01*
X25953095Y-23363095D01*
X25941190Y-23398809D01*
X25917380Y-23422619D01*
X25893571Y-23434523D01*
X25845952Y-23446428D01*
X25810238Y-23446428D01*
X25762619Y-23434523D01*
X25738809Y-23422619D01*
X25715000Y-23398809D01*
X25703095Y-23363095D01*
X25703095Y-23339285D01*
X25715000Y-23303571D01*
X25726904Y-23291666D01*
X25703095Y-23077380D02*
X25703095Y-23125000D01*
X25715000Y-23148809D01*
X25726904Y-23160714D01*
X25762619Y-23184523D01*
X25810238Y-23196428D01*
X25905476Y-23196428D01*
X25929285Y-23184523D01*
X25941190Y-23172619D01*
X25953095Y-23148809D01*
X25953095Y-23101190D01*
X25941190Y-23077380D01*
X25929285Y-23065476D01*
X25905476Y-23053571D01*
X25845952Y-23053571D01*
X25822142Y-23065476D01*
X25810238Y-23077380D01*
X25798333Y-23101190D01*
X25798333Y-23148809D01*
X25810238Y-23172619D01*
X25822142Y-23184523D01*
X25845952Y-23196428D01*
X25746904Y-23998333D02*
X25865952Y-23915000D01*
X25746904Y-23855476D02*
X25996904Y-23855476D01*
X25996904Y-23950714D01*
X25985000Y-23974523D01*
X25973095Y-23986428D01*
X25949285Y-23998333D01*
X25913571Y-23998333D01*
X25889761Y-23986428D01*
X25877857Y-23974523D01*
X25865952Y-23950714D01*
X25865952Y-23855476D01*
X25746904Y-24236428D02*
X25746904Y-24093571D01*
X25746904Y-24165000D02*
X25996904Y-24165000D01*
X25961190Y-24141190D01*
X25937380Y-24117380D01*
X25925476Y-24093571D01*
X35979285Y-28985714D02*
X35991190Y-28997619D01*
X36003095Y-29033333D01*
X36003095Y-29057142D01*
X35991190Y-29092857D01*
X35967380Y-29116666D01*
X35943571Y-29128571D01*
X35895952Y-29140476D01*
X35860238Y-29140476D01*
X35812619Y-29128571D01*
X35788809Y-29116666D01*
X35765000Y-29092857D01*
X35753095Y-29057142D01*
X35753095Y-29033333D01*
X35765000Y-28997619D01*
X35776904Y-28985714D01*
X36003095Y-28747619D02*
X36003095Y-28890476D01*
X36003095Y-28819047D02*
X35753095Y-28819047D01*
X35788809Y-28842857D01*
X35812619Y-28866666D01*
X35824523Y-28890476D01*
X35753095Y-28521428D02*
X35753095Y-28640476D01*
X35872142Y-28652380D01*
X35860238Y-28640476D01*
X35848333Y-28616666D01*
X35848333Y-28557142D01*
X35860238Y-28533333D01*
X35872142Y-28521428D01*
X35895952Y-28509523D01*
X35955476Y-28509523D01*
X35979285Y-28521428D01*
X35991190Y-28533333D01*
X36003095Y-28557142D01*
X36003095Y-28616666D01*
X35991190Y-28640476D01*
X35979285Y-28652380D01*
X36509285Y-25089285D02*
X36497380Y-25101190D01*
X36461666Y-25113095D01*
X36437857Y-25113095D01*
X36402142Y-25101190D01*
X36378333Y-25077380D01*
X36366428Y-25053571D01*
X36354523Y-25005952D01*
X36354523Y-24970238D01*
X36366428Y-24922619D01*
X36378333Y-24898809D01*
X36402142Y-24875000D01*
X36437857Y-24863095D01*
X36461666Y-24863095D01*
X36497380Y-24875000D01*
X36509285Y-24886904D01*
X36747380Y-25113095D02*
X36604523Y-25113095D01*
X36675952Y-25113095D02*
X36675952Y-24863095D01*
X36652142Y-24898809D01*
X36628333Y-24922619D01*
X36604523Y-24934523D01*
X36830714Y-24863095D02*
X36997380Y-24863095D01*
X36890238Y-25113095D01*
X35719285Y-21564285D02*
X35707380Y-21576190D01*
X35671666Y-21588095D01*
X35647857Y-21588095D01*
X35612142Y-21576190D01*
X35588333Y-21552380D01*
X35576428Y-21528571D01*
X35564523Y-21480952D01*
X35564523Y-21445238D01*
X35576428Y-21397619D01*
X35588333Y-21373809D01*
X35612142Y-21350000D01*
X35647857Y-21338095D01*
X35671666Y-21338095D01*
X35707380Y-21350000D01*
X35719285Y-21361904D01*
X35957380Y-21588095D02*
X35814523Y-21588095D01*
X35885952Y-21588095D02*
X35885952Y-21338095D01*
X35862142Y-21373809D01*
X35838333Y-21397619D01*
X35814523Y-21409523D01*
X36076428Y-21588095D02*
X36124047Y-21588095D01*
X36147857Y-21576190D01*
X36159761Y-21564285D01*
X36183571Y-21528571D01*
X36195476Y-21480952D01*
X36195476Y-21385714D01*
X36183571Y-21361904D01*
X36171666Y-21350000D01*
X36147857Y-21338095D01*
X36100238Y-21338095D01*
X36076428Y-21350000D01*
X36064523Y-21361904D01*
X36052619Y-21385714D01*
X36052619Y-21445238D01*
X36064523Y-21469047D01*
X36076428Y-21480952D01*
X36100238Y-21492857D01*
X36147857Y-21492857D01*
X36171666Y-21480952D01*
X36183571Y-21469047D01*
X36195476Y-21445238D01*
X34249285Y-36910714D02*
X34261190Y-36922619D01*
X34273095Y-36958333D01*
X34273095Y-36982142D01*
X34261190Y-37017857D01*
X34237380Y-37041666D01*
X34213571Y-37053571D01*
X34165952Y-37065476D01*
X34130238Y-37065476D01*
X34082619Y-37053571D01*
X34058809Y-37041666D01*
X34035000Y-37017857D01*
X34023095Y-36982142D01*
X34023095Y-36958333D01*
X34035000Y-36922619D01*
X34046904Y-36910714D01*
X34046904Y-36815476D02*
X34035000Y-36803571D01*
X34023095Y-36779761D01*
X34023095Y-36720238D01*
X34035000Y-36696428D01*
X34046904Y-36684523D01*
X34070714Y-36672619D01*
X34094523Y-36672619D01*
X34130238Y-36684523D01*
X34273095Y-36827380D01*
X34273095Y-36672619D01*
X34046904Y-36577380D02*
X34035000Y-36565476D01*
X34023095Y-36541666D01*
X34023095Y-36482142D01*
X34035000Y-36458333D01*
X34046904Y-36446428D01*
X34070714Y-36434523D01*
X34094523Y-36434523D01*
X34130238Y-36446428D01*
X34273095Y-36589285D01*
X34273095Y-36434523D01*
X35809285Y-36279285D02*
X35797380Y-36291190D01*
X35761666Y-36303095D01*
X35737857Y-36303095D01*
X35702142Y-36291190D01*
X35678333Y-36267380D01*
X35666428Y-36243571D01*
X35654523Y-36195952D01*
X35654523Y-36160238D01*
X35666428Y-36112619D01*
X35678333Y-36088809D01*
X35702142Y-36065000D01*
X35737857Y-36053095D01*
X35761666Y-36053095D01*
X35797380Y-36065000D01*
X35809285Y-36076904D01*
X35904523Y-36076904D02*
X35916428Y-36065000D01*
X35940238Y-36053095D01*
X35999761Y-36053095D01*
X36023571Y-36065000D01*
X36035476Y-36076904D01*
X36047380Y-36100714D01*
X36047380Y-36124523D01*
X36035476Y-36160238D01*
X35892619Y-36303095D01*
X36047380Y-36303095D01*
X36261666Y-36053095D02*
X36214047Y-36053095D01*
X36190238Y-36065000D01*
X36178333Y-36076904D01*
X36154523Y-36112619D01*
X36142619Y-36160238D01*
X36142619Y-36255476D01*
X36154523Y-36279285D01*
X36166428Y-36291190D01*
X36190238Y-36303095D01*
X36237857Y-36303095D01*
X36261666Y-36291190D01*
X36273571Y-36279285D01*
X36285476Y-36255476D01*
X36285476Y-36195952D01*
X36273571Y-36172142D01*
X36261666Y-36160238D01*
X36237857Y-36148333D01*
X36190238Y-36148333D01*
X36166428Y-36160238D01*
X36154523Y-36172142D01*
X36142619Y-36195952D01*
X24199285Y-31335714D02*
X24211190Y-31347619D01*
X24223095Y-31383333D01*
X24223095Y-31407142D01*
X24211190Y-31442857D01*
X24187380Y-31466666D01*
X24163571Y-31478571D01*
X24115952Y-31490476D01*
X24080238Y-31490476D01*
X24032619Y-31478571D01*
X24008809Y-31466666D01*
X23985000Y-31442857D01*
X23973095Y-31407142D01*
X23973095Y-31383333D01*
X23985000Y-31347619D01*
X23996904Y-31335714D01*
X23973095Y-31252380D02*
X23973095Y-31097619D01*
X24068333Y-31180952D01*
X24068333Y-31145238D01*
X24080238Y-31121428D01*
X24092142Y-31109523D01*
X24115952Y-31097619D01*
X24175476Y-31097619D01*
X24199285Y-31109523D01*
X24211190Y-31121428D01*
X24223095Y-31145238D01*
X24223095Y-31216666D01*
X24211190Y-31240476D01*
X24199285Y-31252380D01*
X24223095Y-30859523D02*
X24223095Y-31002380D01*
X24223095Y-30930952D02*
X23973095Y-30930952D01*
X24008809Y-30954761D01*
X24032619Y-30978571D01*
X24044523Y-31002380D01*
X23169285Y-35089285D02*
X23157380Y-35101190D01*
X23121666Y-35113095D01*
X23097857Y-35113095D01*
X23062142Y-35101190D01*
X23038333Y-35077380D01*
X23026428Y-35053571D01*
X23014523Y-35005952D01*
X23014523Y-34970238D01*
X23026428Y-34922619D01*
X23038333Y-34898809D01*
X23062142Y-34875000D01*
X23097857Y-34863095D01*
X23121666Y-34863095D01*
X23157380Y-34875000D01*
X23169285Y-34886904D01*
X23252619Y-34863095D02*
X23407380Y-34863095D01*
X23324047Y-34958333D01*
X23359761Y-34958333D01*
X23383571Y-34970238D01*
X23395476Y-34982142D01*
X23407380Y-35005952D01*
X23407380Y-35065476D01*
X23395476Y-35089285D01*
X23383571Y-35101190D01*
X23359761Y-35113095D01*
X23288333Y-35113095D01*
X23264523Y-35101190D01*
X23252619Y-35089285D01*
X23490714Y-34863095D02*
X23645476Y-34863095D01*
X23562142Y-34958333D01*
X23597857Y-34958333D01*
X23621666Y-34970238D01*
X23633571Y-34982142D01*
X23645476Y-35005952D01*
X23645476Y-35065476D01*
X23633571Y-35089285D01*
X23621666Y-35101190D01*
X23597857Y-35113095D01*
X23526428Y-35113095D01*
X23502619Y-35101190D01*
X23490714Y-35089285D01*
X23959285Y-38614285D02*
X23947380Y-38626190D01*
X23911666Y-38638095D01*
X23887857Y-38638095D01*
X23852142Y-38626190D01*
X23828333Y-38602380D01*
X23816428Y-38578571D01*
X23804523Y-38530952D01*
X23804523Y-38495238D01*
X23816428Y-38447619D01*
X23828333Y-38423809D01*
X23852142Y-38400000D01*
X23887857Y-38388095D01*
X23911666Y-38388095D01*
X23947380Y-38400000D01*
X23959285Y-38411904D01*
X24042619Y-38388095D02*
X24197380Y-38388095D01*
X24114047Y-38483333D01*
X24149761Y-38483333D01*
X24173571Y-38495238D01*
X24185476Y-38507142D01*
X24197380Y-38530952D01*
X24197380Y-38590476D01*
X24185476Y-38614285D01*
X24173571Y-38626190D01*
X24149761Y-38638095D01*
X24078333Y-38638095D01*
X24054523Y-38626190D01*
X24042619Y-38614285D01*
X24423571Y-38388095D02*
X24304523Y-38388095D01*
X24292619Y-38507142D01*
X24304523Y-38495238D01*
X24328333Y-38483333D01*
X24387857Y-38483333D01*
X24411666Y-38495238D01*
X24423571Y-38507142D01*
X24435476Y-38530952D01*
X24435476Y-38590476D01*
X24423571Y-38614285D01*
X24411666Y-38626190D01*
X24387857Y-38638095D01*
X24328333Y-38638095D01*
X24304523Y-38626190D01*
X24292619Y-38614285D01*
X40246904Y-31608809D02*
X40235000Y-31632619D01*
X40211190Y-31656428D01*
X40175476Y-31692142D01*
X40163571Y-31715952D01*
X40163571Y-31739761D01*
X40223095Y-31727857D02*
X40211190Y-31751666D01*
X40187380Y-31775476D01*
X40139761Y-31787380D01*
X40056428Y-31787380D01*
X40008809Y-31775476D01*
X39985000Y-31751666D01*
X39973095Y-31727857D01*
X39973095Y-31680238D01*
X39985000Y-31656428D01*
X40008809Y-31632619D01*
X40056428Y-31620714D01*
X40139761Y-31620714D01*
X40187380Y-31632619D01*
X40211190Y-31656428D01*
X40223095Y-31680238D01*
X40223095Y-31727857D01*
X39973095Y-31537380D02*
X39973095Y-31370714D01*
X40223095Y-31477857D01*
X40296904Y-35038809D02*
X40285000Y-35062619D01*
X40261190Y-35086428D01*
X40225476Y-35122142D01*
X40213571Y-35145952D01*
X40213571Y-35169761D01*
X40273095Y-35157857D02*
X40261190Y-35181666D01*
X40237380Y-35205476D01*
X40189761Y-35217380D01*
X40106428Y-35217380D01*
X40058809Y-35205476D01*
X40035000Y-35181666D01*
X40023095Y-35157857D01*
X40023095Y-35110238D01*
X40035000Y-35086428D01*
X40058809Y-35062619D01*
X40106428Y-35050714D01*
X40189761Y-35050714D01*
X40237380Y-35062619D01*
X40261190Y-35086428D01*
X40273095Y-35110238D01*
X40273095Y-35157857D01*
X40130238Y-34907857D02*
X40118333Y-34931666D01*
X40106428Y-34943571D01*
X40082619Y-34955476D01*
X40070714Y-34955476D01*
X40046904Y-34943571D01*
X40035000Y-34931666D01*
X40023095Y-34907857D01*
X40023095Y-34860238D01*
X40035000Y-34836428D01*
X40046904Y-34824523D01*
X40070714Y-34812619D01*
X40082619Y-34812619D01*
X40106428Y-34824523D01*
X40118333Y-34836428D01*
X40130238Y-34860238D01*
X40130238Y-34907857D01*
X40142142Y-34931666D01*
X40154047Y-34943571D01*
X40177857Y-34955476D01*
X40225476Y-34955476D01*
X40249285Y-34943571D01*
X40261190Y-34931666D01*
X40273095Y-34907857D01*
X40273095Y-34860238D01*
X40261190Y-34836428D01*
X40249285Y-34824523D01*
X40225476Y-34812619D01*
X40177857Y-34812619D01*
X40154047Y-34824523D01*
X40142142Y-34836428D01*
X40130238Y-34860238D01*
X35781904Y-38413809D02*
X35770000Y-38437619D01*
X35746190Y-38461428D01*
X35710476Y-38497142D01*
X35698571Y-38520952D01*
X35698571Y-38544761D01*
X35758095Y-38532857D02*
X35746190Y-38556666D01*
X35722380Y-38580476D01*
X35674761Y-38592380D01*
X35591428Y-38592380D01*
X35543809Y-38580476D01*
X35520000Y-38556666D01*
X35508095Y-38532857D01*
X35508095Y-38485238D01*
X35520000Y-38461428D01*
X35543809Y-38437619D01*
X35591428Y-38425714D01*
X35674761Y-38425714D01*
X35722380Y-38437619D01*
X35746190Y-38461428D01*
X35758095Y-38485238D01*
X35758095Y-38532857D01*
X35758095Y-38306666D02*
X35758095Y-38259047D01*
X35746190Y-38235238D01*
X35734285Y-38223333D01*
X35698571Y-38199523D01*
X35650952Y-38187619D01*
X35555714Y-38187619D01*
X35531904Y-38199523D01*
X35520000Y-38211428D01*
X35508095Y-38235238D01*
X35508095Y-38282857D01*
X35520000Y-38306666D01*
X35531904Y-38318571D01*
X35555714Y-38330476D01*
X35615238Y-38330476D01*
X35639047Y-38318571D01*
X35650952Y-38306666D01*
X35662857Y-38282857D01*
X35662857Y-38235238D01*
X35650952Y-38211428D01*
X35639047Y-38199523D01*
X35615238Y-38187619D01*
X34903095Y-28350714D02*
X34784047Y-28434047D01*
X34903095Y-28493571D02*
X34653095Y-28493571D01*
X34653095Y-28398333D01*
X34665000Y-28374523D01*
X34676904Y-28362619D01*
X34700714Y-28350714D01*
X34736428Y-28350714D01*
X34760238Y-28362619D01*
X34772142Y-28374523D01*
X34784047Y-28398333D01*
X34784047Y-28493571D01*
X34903095Y-28112619D02*
X34903095Y-28255476D01*
X34903095Y-28184047D02*
X34653095Y-28184047D01*
X34688809Y-28207857D01*
X34712619Y-28231666D01*
X34724523Y-28255476D01*
X34676904Y-28017380D02*
X34665000Y-28005476D01*
X34653095Y-27981666D01*
X34653095Y-27922142D01*
X34665000Y-27898333D01*
X34676904Y-27886428D01*
X34700714Y-27874523D01*
X34724523Y-27874523D01*
X34760238Y-27886428D01*
X34903095Y-28029285D01*
X34903095Y-27874523D01*
X34903095Y-26740714D02*
X34784047Y-26824047D01*
X34903095Y-26883571D02*
X34653095Y-26883571D01*
X34653095Y-26788333D01*
X34665000Y-26764523D01*
X34676904Y-26752619D01*
X34700714Y-26740714D01*
X34736428Y-26740714D01*
X34760238Y-26752619D01*
X34772142Y-26764523D01*
X34784047Y-26788333D01*
X34784047Y-26883571D01*
X34903095Y-26502619D02*
X34903095Y-26645476D01*
X34903095Y-26574047D02*
X34653095Y-26574047D01*
X34688809Y-26597857D01*
X34712619Y-26621666D01*
X34724523Y-26645476D01*
X34653095Y-26419285D02*
X34653095Y-26264523D01*
X34748333Y-26347857D01*
X34748333Y-26312142D01*
X34760238Y-26288333D01*
X34772142Y-26276428D01*
X34795952Y-26264523D01*
X34855476Y-26264523D01*
X34879285Y-26276428D01*
X34891190Y-26288333D01*
X34903095Y-26312142D01*
X34903095Y-26383571D01*
X34891190Y-26407380D01*
X34879285Y-26419285D01*
X34903095Y-25130714D02*
X34784047Y-25214047D01*
X34903095Y-25273571D02*
X34653095Y-25273571D01*
X34653095Y-25178333D01*
X34665000Y-25154523D01*
X34676904Y-25142619D01*
X34700714Y-25130714D01*
X34736428Y-25130714D01*
X34760238Y-25142619D01*
X34772142Y-25154523D01*
X34784047Y-25178333D01*
X34784047Y-25273571D01*
X34903095Y-24892619D02*
X34903095Y-25035476D01*
X34903095Y-24964047D02*
X34653095Y-24964047D01*
X34688809Y-24987857D01*
X34712619Y-25011666D01*
X34724523Y-25035476D01*
X34736428Y-24678333D02*
X34903095Y-24678333D01*
X34641190Y-24737857D02*
X34819761Y-24797380D01*
X34819761Y-24642619D01*
X33402431Y-27544578D02*
X33283383Y-27627911D01*
X33402431Y-27687435D02*
X33152431Y-27687435D01*
X33152431Y-27592197D01*
X33164336Y-27568387D01*
X33176240Y-27556483D01*
X33200050Y-27544578D01*
X33235764Y-27544578D01*
X33259574Y-27556483D01*
X33271478Y-27568387D01*
X33283383Y-27592197D01*
X33283383Y-27687435D01*
X33402431Y-27306483D02*
X33402431Y-27449340D01*
X33402431Y-27377911D02*
X33152431Y-27377911D01*
X33188145Y-27401721D01*
X33211955Y-27425530D01*
X33223859Y-27449340D01*
X33152431Y-27080292D02*
X33152431Y-27199340D01*
X33271478Y-27211244D01*
X33259574Y-27199340D01*
X33247669Y-27175530D01*
X33247669Y-27116006D01*
X33259574Y-27092197D01*
X33271478Y-27080292D01*
X33295288Y-27068387D01*
X33354812Y-27068387D01*
X33378621Y-27080292D01*
X33390526Y-27092197D01*
X33402431Y-27116006D01*
X33402431Y-27175530D01*
X33390526Y-27199340D01*
X33378621Y-27211244D01*
X33402431Y-25934578D02*
X33283383Y-26017911D01*
X33402431Y-26077435D02*
X33152431Y-26077435D01*
X33152431Y-25982197D01*
X33164336Y-25958387D01*
X33176240Y-25946483D01*
X33200050Y-25934578D01*
X33235764Y-25934578D01*
X33259574Y-25946483D01*
X33271478Y-25958387D01*
X33283383Y-25982197D01*
X33283383Y-26077435D01*
X33402431Y-25696483D02*
X33402431Y-25839340D01*
X33402431Y-25767911D02*
X33152431Y-25767911D01*
X33188145Y-25791721D01*
X33211955Y-25815530D01*
X33223859Y-25839340D01*
X33152431Y-25482197D02*
X33152431Y-25529816D01*
X33164336Y-25553625D01*
X33176240Y-25565530D01*
X33211955Y-25589340D01*
X33259574Y-25601244D01*
X33354812Y-25601244D01*
X33378621Y-25589340D01*
X33390526Y-25577435D01*
X33402431Y-25553625D01*
X33402431Y-25506006D01*
X33390526Y-25482197D01*
X33378621Y-25470292D01*
X33354812Y-25458387D01*
X33295288Y-25458387D01*
X33271478Y-25470292D01*
X33259574Y-25482197D01*
X33247669Y-25506006D01*
X33247669Y-25553625D01*
X33259574Y-25577435D01*
X33271478Y-25589340D01*
X33295288Y-25601244D01*
X33402431Y-24324578D02*
X33283383Y-24407911D01*
X33402431Y-24467435D02*
X33152431Y-24467435D01*
X33152431Y-24372197D01*
X33164336Y-24348387D01*
X33176240Y-24336483D01*
X33200050Y-24324578D01*
X33235764Y-24324578D01*
X33259574Y-24336483D01*
X33271478Y-24348387D01*
X33283383Y-24372197D01*
X33283383Y-24467435D01*
X33402431Y-24086483D02*
X33402431Y-24229340D01*
X33402431Y-24157911D02*
X33152431Y-24157911D01*
X33188145Y-24181721D01*
X33211955Y-24205530D01*
X33223859Y-24229340D01*
X33152431Y-24003149D02*
X33152431Y-23836483D01*
X33402431Y-23943625D01*
X33403095Y-28410714D02*
X33284047Y-28494047D01*
X33403095Y-28553571D02*
X33153095Y-28553571D01*
X33153095Y-28458333D01*
X33165000Y-28434523D01*
X33176904Y-28422619D01*
X33200714Y-28410714D01*
X33236428Y-28410714D01*
X33260238Y-28422619D01*
X33272142Y-28434523D01*
X33284047Y-28458333D01*
X33284047Y-28553571D01*
X33403095Y-28172619D02*
X33403095Y-28315476D01*
X33403095Y-28244047D02*
X33153095Y-28244047D01*
X33188809Y-28267857D01*
X33212619Y-28291666D01*
X33224523Y-28315476D01*
X33260238Y-28029761D02*
X33248333Y-28053571D01*
X33236428Y-28065476D01*
X33212619Y-28077380D01*
X33200714Y-28077380D01*
X33176904Y-28065476D01*
X33165000Y-28053571D01*
X33153095Y-28029761D01*
X33153095Y-27982142D01*
X33165000Y-27958333D01*
X33176904Y-27946428D01*
X33200714Y-27934523D01*
X33212619Y-27934523D01*
X33236428Y-27946428D01*
X33248333Y-27958333D01*
X33260238Y-27982142D01*
X33260238Y-28029761D01*
X33272142Y-28053571D01*
X33284047Y-28065476D01*
X33307857Y-28077380D01*
X33355476Y-28077380D01*
X33379285Y-28065476D01*
X33391190Y-28053571D01*
X33403095Y-28029761D01*
X33403095Y-27982142D01*
X33391190Y-27958333D01*
X33379285Y-27946428D01*
X33355476Y-27934523D01*
X33307857Y-27934523D01*
X33284047Y-27946428D01*
X33272142Y-27958333D01*
X33260238Y-27982142D01*
X33403095Y-26740714D02*
X33284047Y-26824047D01*
X33403095Y-26883571D02*
X33153095Y-26883571D01*
X33153095Y-26788333D01*
X33165000Y-26764523D01*
X33176904Y-26752619D01*
X33200714Y-26740714D01*
X33236428Y-26740714D01*
X33260238Y-26752619D01*
X33272142Y-26764523D01*
X33284047Y-26788333D01*
X33284047Y-26883571D01*
X33403095Y-26502619D02*
X33403095Y-26645476D01*
X33403095Y-26574047D02*
X33153095Y-26574047D01*
X33188809Y-26597857D01*
X33212619Y-26621666D01*
X33224523Y-26645476D01*
X33403095Y-26383571D02*
X33403095Y-26335952D01*
X33391190Y-26312142D01*
X33379285Y-26300238D01*
X33343571Y-26276428D01*
X33295952Y-26264523D01*
X33200714Y-26264523D01*
X33176904Y-26276428D01*
X33165000Y-26288333D01*
X33153095Y-26312142D01*
X33153095Y-26359761D01*
X33165000Y-26383571D01*
X33176904Y-26395476D01*
X33200714Y-26407380D01*
X33260238Y-26407380D01*
X33284047Y-26395476D01*
X33295952Y-26383571D01*
X33307857Y-26359761D01*
X33307857Y-26312142D01*
X33295952Y-26288333D01*
X33284047Y-26276428D01*
X33260238Y-26264523D01*
X33403095Y-25130714D02*
X33284047Y-25214047D01*
X33403095Y-25273571D02*
X33153095Y-25273571D01*
X33153095Y-25178333D01*
X33165000Y-25154523D01*
X33176904Y-25142619D01*
X33200714Y-25130714D01*
X33236428Y-25130714D01*
X33260238Y-25142619D01*
X33272142Y-25154523D01*
X33284047Y-25178333D01*
X33284047Y-25273571D01*
X33176904Y-25035476D02*
X33165000Y-25023571D01*
X33153095Y-24999761D01*
X33153095Y-24940238D01*
X33165000Y-24916428D01*
X33176904Y-24904523D01*
X33200714Y-24892619D01*
X33224523Y-24892619D01*
X33260238Y-24904523D01*
X33403095Y-25047380D01*
X33403095Y-24892619D01*
X33153095Y-24737857D02*
X33153095Y-24714047D01*
X33165000Y-24690238D01*
X33176904Y-24678333D01*
X33200714Y-24666428D01*
X33248333Y-24654523D01*
X33307857Y-24654523D01*
X33355476Y-24666428D01*
X33379285Y-24678333D01*
X33391190Y-24690238D01*
X33403095Y-24714047D01*
X33403095Y-24737857D01*
X33391190Y-24761666D01*
X33379285Y-24773571D01*
X33355476Y-24785476D01*
X33307857Y-24797380D01*
X33248333Y-24797380D01*
X33200714Y-24785476D01*
X33176904Y-24773571D01*
X33165000Y-24761666D01*
X33153095Y-24737857D01*
X34253095Y-36120714D02*
X34134047Y-36204047D01*
X34253095Y-36263571D02*
X34003095Y-36263571D01*
X34003095Y-36168333D01*
X34015000Y-36144523D01*
X34026904Y-36132619D01*
X34050714Y-36120714D01*
X34086428Y-36120714D01*
X34110238Y-36132619D01*
X34122142Y-36144523D01*
X34134047Y-36168333D01*
X34134047Y-36263571D01*
X34026904Y-36025476D02*
X34015000Y-36013571D01*
X34003095Y-35989761D01*
X34003095Y-35930238D01*
X34015000Y-35906428D01*
X34026904Y-35894523D01*
X34050714Y-35882619D01*
X34074523Y-35882619D01*
X34110238Y-35894523D01*
X34253095Y-36037380D01*
X34253095Y-35882619D01*
X34253095Y-35644523D02*
X34253095Y-35787380D01*
X34253095Y-35715952D02*
X34003095Y-35715952D01*
X34038809Y-35739761D01*
X34062619Y-35763571D01*
X34074523Y-35787380D01*
X25323095Y-31970714D02*
X25204047Y-32054047D01*
X25323095Y-32113571D02*
X25073095Y-32113571D01*
X25073095Y-32018333D01*
X25085000Y-31994523D01*
X25096904Y-31982619D01*
X25120714Y-31970714D01*
X25156428Y-31970714D01*
X25180238Y-31982619D01*
X25192142Y-31994523D01*
X25204047Y-32018333D01*
X25204047Y-32113571D01*
X25073095Y-31887380D02*
X25073095Y-31732619D01*
X25168333Y-31815952D01*
X25168333Y-31780238D01*
X25180238Y-31756428D01*
X25192142Y-31744523D01*
X25215952Y-31732619D01*
X25275476Y-31732619D01*
X25299285Y-31744523D01*
X25311190Y-31756428D01*
X25323095Y-31780238D01*
X25323095Y-31851666D01*
X25311190Y-31875476D01*
X25299285Y-31887380D01*
X25096904Y-31637380D02*
X25085000Y-31625476D01*
X25073095Y-31601666D01*
X25073095Y-31542142D01*
X25085000Y-31518333D01*
X25096904Y-31506428D01*
X25120714Y-31494523D01*
X25144523Y-31494523D01*
X25180238Y-31506428D01*
X25323095Y-31649285D01*
X25323095Y-31494523D01*
X25323095Y-33580714D02*
X25204047Y-33664047D01*
X25323095Y-33723571D02*
X25073095Y-33723571D01*
X25073095Y-33628333D01*
X25085000Y-33604523D01*
X25096904Y-33592619D01*
X25120714Y-33580714D01*
X25156428Y-33580714D01*
X25180238Y-33592619D01*
X25192142Y-33604523D01*
X25204047Y-33628333D01*
X25204047Y-33723571D01*
X25073095Y-33497380D02*
X25073095Y-33342619D01*
X25168333Y-33425952D01*
X25168333Y-33390238D01*
X25180238Y-33366428D01*
X25192142Y-33354523D01*
X25215952Y-33342619D01*
X25275476Y-33342619D01*
X25299285Y-33354523D01*
X25311190Y-33366428D01*
X25323095Y-33390238D01*
X25323095Y-33461666D01*
X25311190Y-33485476D01*
X25299285Y-33497380D01*
X25073095Y-33259285D02*
X25073095Y-33104523D01*
X25168333Y-33187857D01*
X25168333Y-33152142D01*
X25180238Y-33128333D01*
X25192142Y-33116428D01*
X25215952Y-33104523D01*
X25275476Y-33104523D01*
X25299285Y-33116428D01*
X25311190Y-33128333D01*
X25323095Y-33152142D01*
X25323095Y-33223571D01*
X25311190Y-33247380D01*
X25299285Y-33259285D01*
X25323095Y-35190714D02*
X25204047Y-35274047D01*
X25323095Y-35333571D02*
X25073095Y-35333571D01*
X25073095Y-35238333D01*
X25085000Y-35214523D01*
X25096904Y-35202619D01*
X25120714Y-35190714D01*
X25156428Y-35190714D01*
X25180238Y-35202619D01*
X25192142Y-35214523D01*
X25204047Y-35238333D01*
X25204047Y-35333571D01*
X25073095Y-35107380D02*
X25073095Y-34952619D01*
X25168333Y-35035952D01*
X25168333Y-35000238D01*
X25180238Y-34976428D01*
X25192142Y-34964523D01*
X25215952Y-34952619D01*
X25275476Y-34952619D01*
X25299285Y-34964523D01*
X25311190Y-34976428D01*
X25323095Y-35000238D01*
X25323095Y-35071666D01*
X25311190Y-35095476D01*
X25299285Y-35107380D01*
X25156428Y-34738333D02*
X25323095Y-34738333D01*
X25061190Y-34797857D02*
X25239761Y-34857380D01*
X25239761Y-34702619D01*
X26597568Y-32455421D02*
X26716616Y-32372088D01*
X26597568Y-32312564D02*
X26847568Y-32312564D01*
X26847568Y-32407802D01*
X26835664Y-32431612D01*
X26823759Y-32443516D01*
X26799949Y-32455421D01*
X26764235Y-32455421D01*
X26740425Y-32443516D01*
X26728521Y-32431612D01*
X26716616Y-32407802D01*
X26716616Y-32312564D01*
X26847568Y-32538755D02*
X26847568Y-32693516D01*
X26752330Y-32610183D01*
X26752330Y-32645897D01*
X26740425Y-32669707D01*
X26728521Y-32681612D01*
X26704711Y-32693516D01*
X26645187Y-32693516D01*
X26621378Y-32681612D01*
X26609473Y-32669707D01*
X26597568Y-32645897D01*
X26597568Y-32574469D01*
X26609473Y-32550659D01*
X26621378Y-32538755D01*
X26847568Y-32919707D02*
X26847568Y-32800659D01*
X26728521Y-32788755D01*
X26740425Y-32800659D01*
X26752330Y-32824469D01*
X26752330Y-32883993D01*
X26740425Y-32907802D01*
X26728521Y-32919707D01*
X26704711Y-32931612D01*
X26645187Y-32931612D01*
X26621378Y-32919707D01*
X26609473Y-32907802D01*
X26597568Y-32883993D01*
X26597568Y-32824469D01*
X26609473Y-32800659D01*
X26621378Y-32788755D01*
X26597568Y-34065421D02*
X26716616Y-33982088D01*
X26597568Y-33922564D02*
X26847568Y-33922564D01*
X26847568Y-34017802D01*
X26835664Y-34041612D01*
X26823759Y-34053516D01*
X26799949Y-34065421D01*
X26764235Y-34065421D01*
X26740425Y-34053516D01*
X26728521Y-34041612D01*
X26716616Y-34017802D01*
X26716616Y-33922564D01*
X26847568Y-34148755D02*
X26847568Y-34303516D01*
X26752330Y-34220183D01*
X26752330Y-34255897D01*
X26740425Y-34279707D01*
X26728521Y-34291612D01*
X26704711Y-34303516D01*
X26645187Y-34303516D01*
X26621378Y-34291612D01*
X26609473Y-34279707D01*
X26597568Y-34255897D01*
X26597568Y-34184469D01*
X26609473Y-34160659D01*
X26621378Y-34148755D01*
X26847568Y-34517802D02*
X26847568Y-34470183D01*
X26835664Y-34446374D01*
X26823759Y-34434469D01*
X26788044Y-34410659D01*
X26740425Y-34398755D01*
X26645187Y-34398755D01*
X26621378Y-34410659D01*
X26609473Y-34422564D01*
X26597568Y-34446374D01*
X26597568Y-34493993D01*
X26609473Y-34517802D01*
X26621378Y-34529707D01*
X26645187Y-34541612D01*
X26704711Y-34541612D01*
X26728521Y-34529707D01*
X26740425Y-34517802D01*
X26752330Y-34493993D01*
X26752330Y-34446374D01*
X26740425Y-34422564D01*
X26728521Y-34410659D01*
X26704711Y-34398755D01*
X26597568Y-35675421D02*
X26716616Y-35592088D01*
X26597568Y-35532564D02*
X26847568Y-35532564D01*
X26847568Y-35627802D01*
X26835664Y-35651612D01*
X26823759Y-35663516D01*
X26799949Y-35675421D01*
X26764235Y-35675421D01*
X26740425Y-35663516D01*
X26728521Y-35651612D01*
X26716616Y-35627802D01*
X26716616Y-35532564D01*
X26847568Y-35758755D02*
X26847568Y-35913516D01*
X26752330Y-35830183D01*
X26752330Y-35865897D01*
X26740425Y-35889707D01*
X26728521Y-35901612D01*
X26704711Y-35913516D01*
X26645187Y-35913516D01*
X26621378Y-35901612D01*
X26609473Y-35889707D01*
X26597568Y-35865897D01*
X26597568Y-35794469D01*
X26609473Y-35770659D01*
X26621378Y-35758755D01*
X26847568Y-35996850D02*
X26847568Y-36163516D01*
X26597568Y-36056374D01*
X26823095Y-31910714D02*
X26704047Y-31994047D01*
X26823095Y-32053571D02*
X26573095Y-32053571D01*
X26573095Y-31958333D01*
X26585000Y-31934523D01*
X26596904Y-31922619D01*
X26620714Y-31910714D01*
X26656428Y-31910714D01*
X26680238Y-31922619D01*
X26692142Y-31934523D01*
X26704047Y-31958333D01*
X26704047Y-32053571D01*
X26573095Y-31827380D02*
X26573095Y-31672619D01*
X26668333Y-31755952D01*
X26668333Y-31720238D01*
X26680238Y-31696428D01*
X26692142Y-31684523D01*
X26715952Y-31672619D01*
X26775476Y-31672619D01*
X26799285Y-31684523D01*
X26811190Y-31696428D01*
X26823095Y-31720238D01*
X26823095Y-31791666D01*
X26811190Y-31815476D01*
X26799285Y-31827380D01*
X26680238Y-31529761D02*
X26668333Y-31553571D01*
X26656428Y-31565476D01*
X26632619Y-31577380D01*
X26620714Y-31577380D01*
X26596904Y-31565476D01*
X26585000Y-31553571D01*
X26573095Y-31529761D01*
X26573095Y-31482142D01*
X26585000Y-31458333D01*
X26596904Y-31446428D01*
X26620714Y-31434523D01*
X26632619Y-31434523D01*
X26656428Y-31446428D01*
X26668333Y-31458333D01*
X26680238Y-31482142D01*
X26680238Y-31529761D01*
X26692142Y-31553571D01*
X26704047Y-31565476D01*
X26727857Y-31577380D01*
X26775476Y-31577380D01*
X26799285Y-31565476D01*
X26811190Y-31553571D01*
X26823095Y-31529761D01*
X26823095Y-31482142D01*
X26811190Y-31458333D01*
X26799285Y-31446428D01*
X26775476Y-31434523D01*
X26727857Y-31434523D01*
X26704047Y-31446428D01*
X26692142Y-31458333D01*
X26680238Y-31482142D01*
X26823095Y-33580714D02*
X26704047Y-33664047D01*
X26823095Y-33723571D02*
X26573095Y-33723571D01*
X26573095Y-33628333D01*
X26585000Y-33604523D01*
X26596904Y-33592619D01*
X26620714Y-33580714D01*
X26656428Y-33580714D01*
X26680238Y-33592619D01*
X26692142Y-33604523D01*
X26704047Y-33628333D01*
X26704047Y-33723571D01*
X26573095Y-33497380D02*
X26573095Y-33342619D01*
X26668333Y-33425952D01*
X26668333Y-33390238D01*
X26680238Y-33366428D01*
X26692142Y-33354523D01*
X26715952Y-33342619D01*
X26775476Y-33342619D01*
X26799285Y-33354523D01*
X26811190Y-33366428D01*
X26823095Y-33390238D01*
X26823095Y-33461666D01*
X26811190Y-33485476D01*
X26799285Y-33497380D01*
X26823095Y-33223571D02*
X26823095Y-33175952D01*
X26811190Y-33152142D01*
X26799285Y-33140238D01*
X26763571Y-33116428D01*
X26715952Y-33104523D01*
X26620714Y-33104523D01*
X26596904Y-33116428D01*
X26585000Y-33128333D01*
X26573095Y-33152142D01*
X26573095Y-33199761D01*
X26585000Y-33223571D01*
X26596904Y-33235476D01*
X26620714Y-33247380D01*
X26680238Y-33247380D01*
X26704047Y-33235476D01*
X26715952Y-33223571D01*
X26727857Y-33199761D01*
X26727857Y-33152142D01*
X26715952Y-33128333D01*
X26704047Y-33116428D01*
X26680238Y-33104523D01*
X26823095Y-35190714D02*
X26704047Y-35274047D01*
X26823095Y-35333571D02*
X26573095Y-35333571D01*
X26573095Y-35238333D01*
X26585000Y-35214523D01*
X26596904Y-35202619D01*
X26620714Y-35190714D01*
X26656428Y-35190714D01*
X26680238Y-35202619D01*
X26692142Y-35214523D01*
X26704047Y-35238333D01*
X26704047Y-35333571D01*
X26656428Y-34976428D02*
X26823095Y-34976428D01*
X26561190Y-35035952D02*
X26739761Y-35095476D01*
X26739761Y-34940714D01*
X26573095Y-34797857D02*
X26573095Y-34774047D01*
X26585000Y-34750238D01*
X26596904Y-34738333D01*
X26620714Y-34726428D01*
X26668333Y-34714523D01*
X26727857Y-34714523D01*
X26775476Y-34726428D01*
X26799285Y-34738333D01*
X26811190Y-34750238D01*
X26823095Y-34774047D01*
X26823095Y-34797857D01*
X26811190Y-34821666D01*
X26799285Y-34833571D01*
X26775476Y-34845476D01*
X26727857Y-34857380D01*
X26668333Y-34857380D01*
X26620714Y-34845476D01*
X26596904Y-34833571D01*
X26585000Y-34821666D01*
X26573095Y-34797857D01*
X34902431Y-27544578D02*
X34783383Y-27627911D01*
X34902431Y-27687435D02*
X34652431Y-27687435D01*
X34652431Y-27592197D01*
X34664336Y-27568387D01*
X34676240Y-27556483D01*
X34700050Y-27544578D01*
X34735764Y-27544578D01*
X34759574Y-27556483D01*
X34771478Y-27568387D01*
X34783383Y-27592197D01*
X34783383Y-27687435D01*
X34735764Y-27330292D02*
X34902431Y-27330292D01*
X34640526Y-27389816D02*
X34819097Y-27449340D01*
X34819097Y-27294578D01*
X34735764Y-27092197D02*
X34902431Y-27092197D01*
X34640526Y-27151721D02*
X34819097Y-27211244D01*
X34819097Y-27056483D01*
X34902431Y-25934578D02*
X34783383Y-26017911D01*
X34902431Y-26077435D02*
X34652431Y-26077435D01*
X34652431Y-25982197D01*
X34664336Y-25958387D01*
X34676240Y-25946483D01*
X34700050Y-25934578D01*
X34735764Y-25934578D01*
X34759574Y-25946483D01*
X34771478Y-25958387D01*
X34783383Y-25982197D01*
X34783383Y-26077435D01*
X34735764Y-25720292D02*
X34902431Y-25720292D01*
X34640526Y-25779816D02*
X34819097Y-25839340D01*
X34819097Y-25684578D01*
X34652431Y-25470292D02*
X34652431Y-25589340D01*
X34771478Y-25601244D01*
X34759574Y-25589340D01*
X34747669Y-25565530D01*
X34747669Y-25506006D01*
X34759574Y-25482197D01*
X34771478Y-25470292D01*
X34795288Y-25458387D01*
X34854812Y-25458387D01*
X34878621Y-25470292D01*
X34890526Y-25482197D01*
X34902431Y-25506006D01*
X34902431Y-25565530D01*
X34890526Y-25589340D01*
X34878621Y-25601244D01*
X34902431Y-24324578D02*
X34783383Y-24407911D01*
X34902431Y-24467435D02*
X34652431Y-24467435D01*
X34652431Y-24372197D01*
X34664336Y-24348387D01*
X34676240Y-24336483D01*
X34700050Y-24324578D01*
X34735764Y-24324578D01*
X34759574Y-24336483D01*
X34771478Y-24348387D01*
X34783383Y-24372197D01*
X34783383Y-24467435D01*
X34735764Y-24110292D02*
X34902431Y-24110292D01*
X34640526Y-24169816D02*
X34819097Y-24229340D01*
X34819097Y-24074578D01*
X34652431Y-23872197D02*
X34652431Y-23919816D01*
X34664336Y-23943625D01*
X34676240Y-23955530D01*
X34711955Y-23979340D01*
X34759574Y-23991244D01*
X34854812Y-23991244D01*
X34878621Y-23979340D01*
X34890526Y-23967435D01*
X34902431Y-23943625D01*
X34902431Y-23896006D01*
X34890526Y-23872197D01*
X34878621Y-23860292D01*
X34854812Y-23848387D01*
X34795288Y-23848387D01*
X34771478Y-23860292D01*
X34759574Y-23872197D01*
X34747669Y-23896006D01*
X34747669Y-23943625D01*
X34759574Y-23967435D01*
X34771478Y-23979340D01*
X34795288Y-23991244D01*
X25323759Y-32776850D02*
X25204711Y-32860183D01*
X25323759Y-32919707D02*
X25073759Y-32919707D01*
X25073759Y-32824469D01*
X25085664Y-32800659D01*
X25097568Y-32788755D01*
X25121378Y-32776850D01*
X25157092Y-32776850D01*
X25180902Y-32788755D01*
X25192806Y-32800659D01*
X25204711Y-32824469D01*
X25204711Y-32919707D01*
X25073759Y-32550659D02*
X25073759Y-32669707D01*
X25192806Y-32681612D01*
X25180902Y-32669707D01*
X25168997Y-32645897D01*
X25168997Y-32586374D01*
X25180902Y-32562564D01*
X25192806Y-32550659D01*
X25216616Y-32538755D01*
X25276140Y-32538755D01*
X25299949Y-32550659D01*
X25311854Y-32562564D01*
X25323759Y-32586374D01*
X25323759Y-32645897D01*
X25311854Y-32669707D01*
X25299949Y-32681612D01*
X25073759Y-32383993D02*
X25073759Y-32360183D01*
X25085664Y-32336374D01*
X25097568Y-32324469D01*
X25121378Y-32312564D01*
X25168997Y-32300659D01*
X25228521Y-32300659D01*
X25276140Y-32312564D01*
X25299949Y-32324469D01*
X25311854Y-32336374D01*
X25323759Y-32360183D01*
X25323759Y-32383993D01*
X25311854Y-32407802D01*
X25299949Y-32419707D01*
X25276140Y-32431612D01*
X25228521Y-32443516D01*
X25168997Y-32443516D01*
X25121378Y-32431612D01*
X25097568Y-32419707D01*
X25085664Y-32407802D01*
X25073759Y-32383993D01*
X25323759Y-34386850D02*
X25204711Y-34470183D01*
X25323759Y-34529707D02*
X25073759Y-34529707D01*
X25073759Y-34434469D01*
X25085664Y-34410659D01*
X25097568Y-34398755D01*
X25121378Y-34386850D01*
X25157092Y-34386850D01*
X25180902Y-34398755D01*
X25192806Y-34410659D01*
X25204711Y-34434469D01*
X25204711Y-34529707D01*
X25073759Y-34160659D02*
X25073759Y-34279707D01*
X25192806Y-34291612D01*
X25180902Y-34279707D01*
X25168997Y-34255897D01*
X25168997Y-34196374D01*
X25180902Y-34172564D01*
X25192806Y-34160659D01*
X25216616Y-34148755D01*
X25276140Y-34148755D01*
X25299949Y-34160659D01*
X25311854Y-34172564D01*
X25323759Y-34196374D01*
X25323759Y-34255897D01*
X25311854Y-34279707D01*
X25299949Y-34291612D01*
X25323759Y-33910659D02*
X25323759Y-34053516D01*
X25323759Y-33982088D02*
X25073759Y-33982088D01*
X25109473Y-34005897D01*
X25133283Y-34029707D01*
X25145187Y-34053516D01*
X25323759Y-35996850D02*
X25204711Y-36080183D01*
X25323759Y-36139707D02*
X25073759Y-36139707D01*
X25073759Y-36044469D01*
X25085664Y-36020659D01*
X25097568Y-36008755D01*
X25121378Y-35996850D01*
X25157092Y-35996850D01*
X25180902Y-36008755D01*
X25192806Y-36020659D01*
X25204711Y-36044469D01*
X25204711Y-36139707D01*
X25073759Y-35770659D02*
X25073759Y-35889707D01*
X25192806Y-35901612D01*
X25180902Y-35889707D01*
X25168997Y-35865897D01*
X25168997Y-35806374D01*
X25180902Y-35782564D01*
X25192806Y-35770659D01*
X25216616Y-35758755D01*
X25276140Y-35758755D01*
X25299949Y-35770659D01*
X25311854Y-35782564D01*
X25323759Y-35806374D01*
X25323759Y-35865897D01*
X25311854Y-35889707D01*
X25299949Y-35901612D01*
X25097568Y-35663516D02*
X25085664Y-35651612D01*
X25073759Y-35627802D01*
X25073759Y-35568278D01*
X25085664Y-35544469D01*
X25097568Y-35532564D01*
X25121378Y-35520659D01*
X25145187Y-35520659D01*
X25180902Y-35532564D01*
X25323759Y-35675421D01*
X25323759Y-35520659D01*
X38274523Y-27828095D02*
X38274523Y-28030476D01*
X38286428Y-28054285D01*
X38298333Y-28066190D01*
X38322142Y-28078095D01*
X38369761Y-28078095D01*
X38393571Y-28066190D01*
X38405476Y-28054285D01*
X38417380Y-28030476D01*
X38417380Y-27828095D01*
X38572142Y-27935238D02*
X38548333Y-27923333D01*
X38536428Y-27911428D01*
X38524523Y-27887619D01*
X38524523Y-27875714D01*
X38536428Y-27851904D01*
X38548333Y-27840000D01*
X38572142Y-27828095D01*
X38619761Y-27828095D01*
X38643571Y-27840000D01*
X38655476Y-27851904D01*
X38667380Y-27875714D01*
X38667380Y-27887619D01*
X38655476Y-27911428D01*
X38643571Y-27923333D01*
X38619761Y-27935238D01*
X38572142Y-27935238D01*
X38548333Y-27947142D01*
X38536428Y-27959047D01*
X38524523Y-27982857D01*
X38524523Y-28030476D01*
X38536428Y-28054285D01*
X38548333Y-28066190D01*
X38572142Y-28078095D01*
X38619761Y-28078095D01*
X38643571Y-28066190D01*
X38655476Y-28054285D01*
X38667380Y-28030476D01*
X38667380Y-27982857D01*
X38655476Y-27959047D01*
X38643571Y-27947142D01*
X38619761Y-27935238D01*
X38324523Y-24398095D02*
X38324523Y-24600476D01*
X38336428Y-24624285D01*
X38348333Y-24636190D01*
X38372142Y-24648095D01*
X38419761Y-24648095D01*
X38443571Y-24636190D01*
X38455476Y-24624285D01*
X38467380Y-24600476D01*
X38467380Y-24398095D01*
X38598333Y-24648095D02*
X38645952Y-24648095D01*
X38669761Y-24636190D01*
X38681666Y-24624285D01*
X38705476Y-24588571D01*
X38717380Y-24540952D01*
X38717380Y-24445714D01*
X38705476Y-24421904D01*
X38693571Y-24410000D01*
X38669761Y-24398095D01*
X38622142Y-24398095D01*
X38598333Y-24410000D01*
X38586428Y-24421904D01*
X38574523Y-24445714D01*
X38574523Y-24505238D01*
X38586428Y-24529047D01*
X38598333Y-24540952D01*
X38622142Y-24552857D01*
X38669761Y-24552857D01*
X38693571Y-24540952D01*
X38705476Y-24529047D01*
X38717380Y-24505238D01*
X33690476Y-21023095D02*
X33690476Y-21225476D01*
X33702380Y-21249285D01*
X33714285Y-21261190D01*
X33738095Y-21273095D01*
X33785714Y-21273095D01*
X33809523Y-21261190D01*
X33821428Y-21249285D01*
X33833333Y-21225476D01*
X33833333Y-21023095D01*
X34083333Y-21273095D02*
X33940476Y-21273095D01*
X34011904Y-21273095D02*
X34011904Y-21023095D01*
X33988095Y-21058809D01*
X33964285Y-21082619D01*
X33940476Y-21094523D01*
X34238095Y-21023095D02*
X34261904Y-21023095D01*
X34285714Y-21035000D01*
X34297619Y-21046904D01*
X34309523Y-21070714D01*
X34321428Y-21118333D01*
X34321428Y-21177857D01*
X34309523Y-21225476D01*
X34297619Y-21249285D01*
X34285714Y-21261190D01*
X34261904Y-21273095D01*
X34238095Y-21273095D01*
X34214285Y-21261190D01*
X34202380Y-21249285D01*
X34190476Y-21225476D01*
X34178571Y-21177857D01*
X34178571Y-21118333D01*
X34190476Y-21070714D01*
X34202380Y-21046904D01*
X34214285Y-21035000D01*
X34238095Y-21023095D01*
X21225476Y-31898095D02*
X21225476Y-32100476D01*
X21237380Y-32124285D01*
X21249285Y-32136190D01*
X21273095Y-32148095D01*
X21320714Y-32148095D01*
X21344523Y-32136190D01*
X21356428Y-32124285D01*
X21368333Y-32100476D01*
X21368333Y-31898095D01*
X21618333Y-32148095D02*
X21475476Y-32148095D01*
X21546904Y-32148095D02*
X21546904Y-31898095D01*
X21523095Y-31933809D01*
X21499285Y-31957619D01*
X21475476Y-31969523D01*
X21832619Y-31898095D02*
X21785000Y-31898095D01*
X21761190Y-31910000D01*
X21749285Y-31921904D01*
X21725476Y-31957619D01*
X21713571Y-32005238D01*
X21713571Y-32100476D01*
X21725476Y-32124285D01*
X21737380Y-32136190D01*
X21761190Y-32148095D01*
X21808809Y-32148095D01*
X21832619Y-32136190D01*
X21844523Y-32124285D01*
X21856428Y-32100476D01*
X21856428Y-32040952D01*
X21844523Y-32017142D01*
X21832619Y-32005238D01*
X21808809Y-31993333D01*
X21761190Y-31993333D01*
X21737380Y-32005238D01*
X21725476Y-32017142D01*
X21713571Y-32040952D01*
X21175476Y-35328095D02*
X21175476Y-35530476D01*
X21187380Y-35554285D01*
X21199285Y-35566190D01*
X21223095Y-35578095D01*
X21270714Y-35578095D01*
X21294523Y-35566190D01*
X21306428Y-35554285D01*
X21318333Y-35530476D01*
X21318333Y-35328095D01*
X21568333Y-35578095D02*
X21425476Y-35578095D01*
X21496904Y-35578095D02*
X21496904Y-35328095D01*
X21473095Y-35363809D01*
X21449285Y-35387619D01*
X21425476Y-35399523D01*
X21651666Y-35328095D02*
X21818333Y-35328095D01*
X21711190Y-35578095D01*
X25690476Y-38703095D02*
X25690476Y-38905476D01*
X25702380Y-38929285D01*
X25714285Y-38941190D01*
X25738095Y-38953095D01*
X25785714Y-38953095D01*
X25809523Y-38941190D01*
X25821428Y-38929285D01*
X25833333Y-38905476D01*
X25833333Y-38703095D01*
X26083333Y-38953095D02*
X25940476Y-38953095D01*
X26011904Y-38953095D02*
X26011904Y-38703095D01*
X25988095Y-38738809D01*
X25964285Y-38762619D01*
X25940476Y-38774523D01*
X26226190Y-38810238D02*
X26202380Y-38798333D01*
X26190476Y-38786428D01*
X26178571Y-38762619D01*
X26178571Y-38750714D01*
X26190476Y-38726904D01*
X26202380Y-38715000D01*
X26226190Y-38703095D01*
X26273809Y-38703095D01*
X26297619Y-38715000D01*
X26309523Y-38726904D01*
X26321428Y-38750714D01*
X26321428Y-38762619D01*
X26309523Y-38786428D01*
X26297619Y-38798333D01*
X26273809Y-38810238D01*
X26226190Y-38810238D01*
X26202380Y-38822142D01*
X26190476Y-38834047D01*
X26178571Y-38857857D01*
X26178571Y-38905476D01*
X26190476Y-38929285D01*
X26202380Y-38941190D01*
X26226190Y-38953095D01*
X26273809Y-38953095D01*
X26297619Y-38941190D01*
X26309523Y-38929285D01*
X26321428Y-38905476D01*
X26321428Y-38857857D01*
X26309523Y-38834047D01*
X26297619Y-38822142D01*
X26273809Y-38810238D01*
M02*
