M48
;DRILL file {KiCad (2018-02-05 revision d1a45d147)-makepkg} date 01/14/19 08:16:53
;FORMAT={-:-/ absolute / inch / decimal}
FMAT,2
INCH,TZ
T1C0.0098
T2C0.0100
T3C0.0354
T4C0.0394
T5C0.0787
%
G90
G05
M72
T1
X0.7697Y-1.5059
X1.5925Y-1.1319
X0.7697Y-1.3484
X1.5925Y-0.8563
X1.5925Y-0.8957
X0.7697Y-0.9744
X1.5925Y-1.0925
X1.5925Y-0.9744
X1.5925Y-1.0138
X0.7697Y-0.8563
X0.7697Y-0.8957
X0.7697Y-1.3878
X0.7697Y-1.0138
X0.7697Y-1.4665
X0.7697Y-1.0925
X0.7697Y-1.1319
X1.5925Y-1.2303
X1.5925Y-1.2697
X1.5925Y-1.3484
X1.5925Y-1.3878
X1.5925Y-1.4665
X1.5925Y-1.5059
X0.7697Y-1.2303
X0.7697Y-1.2697
T2
X0.7905Y-1.0201
X0.7905Y-1.3421
X0.7941Y-0.9161
X0.7941Y-1.4461
X0.7979Y-0.9323
X0.7979Y-1.4299
X0.7982Y-0.9837
X0.7982Y-1.3785
X0.7988Y-1.0679
X0.7988Y-1.2943
X0.8002Y-1.1187
X0.8002Y-1.2435
X0.8041Y-0.9224
X0.8041Y-1.4399
X0.8379Y-0.935
X0.8379Y-1.4272
X0.84Y-1.1561
X0.84Y-1.2061
X0.8588Y-1.0341
X0.8588Y-1.3281
X0.8704Y-1.0447
X0.8704Y-1.3175
X0.8819Y-1.0449
X0.8819Y-1.3173
X0.8933Y-1.3821
X0.8937Y-1.0079
X0.8953Y-1.1262
X0.8953Y-1.2379
X0.8963Y-0.9442
X0.8982Y-1.4207
X0.9008Y-1.2047
X0.9016Y-0.9343
X0.9018Y-1.4309
X0.9024Y-1.0909
X0.9024Y-1.2713
X0.9053Y-1.154
X0.9075Y-1.1646
X0.9118Y-1.0831
X0.9118Y-1.2791
X0.9127Y-1.2039
X0.9146Y-1.0941
X0.9146Y-1.2681
X0.9202Y-0.8962
X0.9205Y-1.4618
X0.9219Y-1.1589
X0.9239Y-1.1952
X0.9376Y-1.1046
X0.9376Y-1.2577
X0.9434Y-1.0232
X0.9434Y-1.339
X0.9509Y-0.9148
X0.9512Y-1.4454
X0.9717Y-0.8886
X0.9734Y-0.8019
X0.9752Y-0.9513
X0.9752Y-1.4109
X0.9757Y-1.4687
X0.9772Y-1.5602
X0.9773Y-0.8521
X0.9774Y-1.51
X0.9886Y-1.1687
X0.9989Y-1.1992
X1.0095Y-1.1784
X1.0348Y-0.9195
X1.0348Y-1.4427
X1.0413Y-1.5579
X1.0454Y-0.8021
X1.063Y-1.1516
X1.0691Y-1.1129
X1.0694Y-1.2494
X1.0709Y-0.951
X1.0711Y-1.5036
X1.0725Y-0.9044
X1.0725Y-1.4578
X1.0728Y-0.8672
X1.074Y-0.8199
X1.074Y-1.5508
X1.0828Y-0.8287
X1.0838Y-1.5411
X1.0843Y-1.4665
X1.0857Y-0.8149
X1.0858Y-0.9742
X1.0858Y-1.388
X1.0868Y-1.411
X1.087Y-0.9043
X1.0882Y-1.5516
X1.0886Y-0.8886
X1.098Y-1.4709
X1.0994Y-1.2492
X1.0996Y-1.0886
X1.1016Y-1.1606
X1.1019Y-1.0655
X1.102Y-1.1417
X1.1059Y-1.2713
X1.1079Y-1.5287
X1.108Y-1.4409
X1.1187Y-1.2325
X1.1244Y-0.8866
X1.1336Y-1.3976
X1.1417Y-0.9252
X1.1417Y-1.3386
X1.1417Y-1.4567
X1.1417Y-1.509
X1.1484Y-1.1913
X1.1541Y-0.9719
X1.1579Y-1.1788
X1.1698Y-1.1093
X1.1705Y-1.0894
X1.1754Y-1.3732
X1.176Y-1.0606
X1.1854Y-1.0362
X1.1868Y-1.415
X1.2015Y-1.3424
X1.2039Y-0.9114
X1.2087Y-0.95
X1.2134Y-1.1685
X1.2156Y-1.4666
X1.2158Y-1.509
X1.2186Y-0.9843
X1.2205Y-0.9252
X1.2286Y-1.2205
X1.2307Y-1.4171
X1.2324Y-0.9474
X1.248Y-0.8795
X1.2559Y-1.2994
X1.2563Y-1.2713
X1.2575Y-1.1587
X1.2578Y-1.4566
X1.2579Y-1.4175
X1.2587Y-1.1185
X1.2669Y-1.5543
X1.2685Y-0.9051
X1.2713Y-0.8244
X1.2717Y-0.811
X1.2719Y-0.9347
X1.2736Y-1.4736
X1.2764Y-1.388
X1.2764Y-0.9742
X1.2783Y-1.539
X1.2791Y-0.898
X1.2815Y-1.5524
X1.2835Y-0.9107
X1.2843Y-1.4681
X1.2851Y-1.4938
X1.2854Y-0.8185
X1.2869Y-0.8614
X1.2882Y-0.9531
X1.2882Y-1.4555
X1.2928Y-1.1128
X1.2928Y-1.2494
X1.2945Y-1.4122
X1.2992Y-1.2106
X1.3177Y-0.8043
X1.3243Y-1.5587
X1.3274Y-0.9195
X1.3274Y-1.4427
X1.3378Y-1.1925
X1.3551Y-1.1627
X1.3605Y-1.1995
X1.3849Y-1.5101
X1.3849Y-0.8521
X1.385Y-1.5602
X1.387Y-0.9513
X1.387Y-1.4109
X1.3925Y-0.8019
X1.3936Y-1.4727
X1.3941Y-0.8906
X1.4094Y-1.1744
X1.4129Y-1.4446
X1.4141Y-1.3368
X1.4151Y-0.9207
X1.4188Y-1.0232
X1.4246Y-1.1046
X1.4246Y-1.2577
X1.4248Y-1.1744
X1.4394Y-1.1677
X1.4413Y-1.274
X1.4441Y-0.9024
X1.4441Y-1.4606
X1.4476Y-1.0941
X1.4504Y-1.0831
X1.4516Y-1.2842
X1.453Y-1.2052
X1.4598Y-1.0909
X1.4604Y-1.2168
X1.4618Y-1.4287
X1.4639Y-1.2453
X1.464Y-1.1996
X1.464Y-1.2783
X1.4642Y-0.9311
X1.4659Y-0.9442
X1.4659Y-1.418
X1.4665Y-1.1262
X1.4687Y-1.0122
X1.4689Y-1.3821
X1.4803Y-1.0449
X1.4919Y-1.0447
X1.4968Y-1.3192
X1.4968Y-1.3192
X1.5034Y-1.0341
X1.5034Y-1.3281
X1.5211Y-1.1691
X1.5222Y-1.2061
X1.5234Y-1.4268
X1.5236Y-0.9354
X1.5581Y-0.9224
X1.5581Y-1.4399
X1.562Y-1.1187
X1.562Y-1.2435
X1.5634Y-1.0679
X1.5634Y-1.2943
X1.564Y-0.9837
X1.564Y-1.3785
X1.5643Y-0.9323
X1.5643Y-1.4299
X1.5681Y-0.9161
X1.5681Y-1.4461
X1.5717Y-1.0201
X1.5717Y-1.3421
X1.1169Y-0.8051
X1.1169Y-0.8268
X1.1169Y-0.8484
X1.1386Y-0.8268
X1.1386Y-0.8484
X1.1602Y-0.8051
X1.1602Y-0.8268
X1.202Y-0.8051
X1.202Y-0.8268
X1.202Y-0.8484
X1.2236Y-0.8484
X1.2453Y-0.8051
X1.2453Y-0.8484
X1.1602Y-0.8484
X1.2236Y-0.8268
X1.2453Y-0.8268
T3
X1.626Y-1.3681
X1.626Y-1.25
X0.7362Y-1.3681
X0.7362Y-1.1122
X1.626Y-0.876
X0.7362Y-0.9941
X0.7362Y-1.25
X1.626Y-0.9941
X1.626Y-1.1122
X0.7362Y-1.4862
X1.626Y-1.4862
X0.7362Y-0.876
T4
X1.1386Y-0.7795
X1.2236Y-0.7795
T5
X0.8661Y-1.4961
X0.8661Y-0.8661
X1.4961Y-0.8661
X1.4961Y-1.4961
T0
M30
